<svg width="20" height="24" viewBox="0 0 20 24" fill="none" xmlns="http://www.w3.org/2000/svg">
	<path d="M19.3797 12.387C19.2027 11.436 18.2907 10.812 17.3427 10.989C16.5897 11.136 15.8307 11.253 15.0717 11.355L16.6287 2.37C16.7247 1.824 16.4127 1.284 15.8847 1.10099L15.0357 0.818987C11.7657 -0.272996 8.22871 -0.272996 4.95873 0.818987L4.10673 1.10099C3.58173 1.284 3.26673 1.824 3.36574 2.37L4.92273 11.358C4.16073 11.256 3.40174 11.139 2.65174 10.992C1.70373 10.812 0.79174 11.433 0.614732 12.381C0.61173 12.384 0.61173 12.384 0.61173 12.387C0.50974 12.876 0.605742 13.389 0.878733 13.809C1.13673 14.2049 1.54174 14.478 2.00373 14.571C4.63773 15.09 7.31372 15.3509 9.99571 15.3509C12.6807 15.3509 15.3567 15.09 17.9877 14.571C18.4527 14.478 18.8577 14.2049 19.1157 13.809C19.3887 13.389 19.4847 12.876 19.3797 12.387ZM4.21172 2.22298C4.18473 2.09398 4.25372 1.96499 4.37673 1.91399L5.22872 1.63199C8.32171 0.599994 11.6697 0.599994 14.7657 1.63199L15.6177 1.91399C15.7407 1.96499 15.8097 2.09398 15.7827 2.22298L14.5587 9.28197H5.43272L4.21172 2.22298ZM18.3987 13.338C18.2697 13.542 18.0597 13.683 17.8227 13.731C12.6537 14.742 7.33772 14.742 2.16873 13.731C1.93173 13.683 1.72473 13.542 1.59273 13.338C1.44574 13.11 1.39174 12.831 1.44874 12.567C1.52374 12.141 1.88973 11.826 2.32173 11.814C3.35973 11.979 4.40372 12.177 5.45672 12.285C8.46272 12.636 11.4957 12.636 14.5017 12.291C15.5067 12.177 16.5147 12.024 17.5107 11.832C17.9967 11.748 18.4587 12.075 18.5427 12.564V12.567C18.5997 12.834 18.5487 13.11 18.3987 13.338Z" fill="#B1B1B3"/>
	<path d="M18.1375 23.5707C18.1375 23.8077 17.9455 23.9997 17.7085 23.9997H15.1375C13.3945 24.0057 11.7505 23.1867 10.7035 21.7917C10.6585 21.7317 10.6045 21.6777 10.5445 21.6327C10.1545 21.3297 9.59349 21.4017 9.29051 21.7917C8.2435 23.1867 6.59951 24.0057 4.85351 23.9997H2.28251C2.04552 23.9997 1.85352 23.8077 1.85352 23.5707C1.85352 23.2167 1.88353 22.8597 1.94952 22.5117C2.51652 19.5387 5.38451 17.5857 8.3575 18.1497L9.9955 18.4227L11.6365 18.1497C11.9845 18.0837 12.3415 18.0507 12.6955 18.0537C15.7225 18.0747 18.1585 20.5437 18.1375 23.5707Z" fill="#B1B1B3"/>
</svg>