<svg width="24" height="24" viewBox="0 0 24 24" fill="none" xmlns="http://www.w3.org/2000/svg">
	<path d="M18.5824 17.2665C16.2072 17.2665 14.859 16.1502 13.9665 15.4115C13.6508 15.1501 13.3636 14.8981 13.1022 14.6693C12.7058 14.3213 12.2115 13.8878 12.0394 13.8278C12.0342 13.8278 11.9524 13.8241 11.9472 13.8233C11.9198 13.8256 11.8501 13.8394 11.8429 13.8402C11.7241 13.8886 11.3018 14.252 10.9624 14.5433C10.6546 14.8077 10.3036 15.1096 9.90683 15.4193L9.83445 15.4748C8.81558 16.2702 7.54733 17.2598 5.30745 17.2598C3.64358 17.2598 2.00445 16.5068 1.02833 15.2941C0.373951 14.481 -0.314549 13.0669 0.121951 10.947C0.174826 10.6905 0.356701 10.4805 0.600826 10.3932C0.846451 10.3047 1.11683 10.353 1.3182 10.5192C1.33283 10.53 1.84733 10.9257 2.70235 10.9257C3.13285 10.9257 3.58135 10.824 4.03435 10.6223C4.81095 10.2765 5.36408 9.3068 5.94943 8.65205C6.75043 7.75767 7.6568 6.74405 9.15308 6.73242C10.1855 6.73242 11.117 7.11417 11.948 7.86905C12.7756 7.11752 13.7003 6.73802 14.7061 6.73802C16.2319 6.74965 17.1575 7.76402 17.9742 8.6599C18.5704 9.31315 19.1337 10.2821 19.9103 10.6279C20.3633 10.8293 20.8167 10.9312 21.2577 10.9312C22.1453 10.9312 22.6992 10.5255 22.7213 10.5079C22.9268 10.3556 23.1976 10.3159 23.4357 10.4089C23.6734 10.5026 23.8501 10.7108 23.8977 10.9635C24.2982 13.0598 23.5939 14.4653 22.9324 15.2753C21.9301 16.5034 20.2628 17.2665 18.5824 17.2665ZM11.9704 12.3248C11.9936 12.3248 12.0567 12.327 12.0788 12.3293C12.0796 12.3293 12.1887 12.3371 12.1887 12.3379C12.1966 12.3387 12.2592 12.3465 12.2659 12.348C12.8086 12.4249 13.3118 12.8667 14.0757 13.536C14.3266 13.7565 14.6029 13.9988 14.9071 14.2508C15.7223 14.9262 16.7375 15.7662 18.5824 15.7662C19.8319 15.7662 21.0608 15.2123 21.7883 14.3205C22.2664 13.7352 22.5151 13.038 22.5308 12.2397C22.1787 12.3496 21.7508 12.4317 21.2577 12.4317C20.6093 12.4317 19.9553 12.2865 19.3129 12.0012C18.2524 11.5302 17.5245 10.3812 16.8829 9.6773C16.0736 8.78967 15.5359 8.24555 14.7248 8.2388C13.6429 8.2388 12.9446 8.9198 12.5119 9.43205C12.3705 9.59892 12.1646 9.69492 11.9471 9.69492C11.7296 9.69492 11.5234 9.59817 11.3827 9.4313C10.9485 8.91717 10.248 8.23317 9.18336 8.23317C8.36098 8.2392 7.83786 8.77882 7.05073 9.65934C6.41661 10.3677 5.69848 11.5219 4.63126 11.9956C3.98926 12.2813 3.33976 12.4261 2.70226 12.4261C2.22413 12.4261 1.81013 12.3462 1.46888 12.2378C1.46813 13.0516 1.70586 13.7592 2.17986 14.3479C2.88148 15.2187 4.07923 15.7602 5.30733 15.7602C7.04171 15.7602 8.00021 15.0117 8.92758 14.288L8.99996 14.2313C9.37608 13.9377 9.70871 13.6512 10.0005 13.4007C10.6687 12.8266 11.1097 12.447 11.586 12.3627C11.5863 12.3631 11.8132 12.3248 11.9704 12.3248Z" fill="#B1B1B3"/>
</svg>