<svg width="26" height="26" viewBox="0 0 26 26" fill="none" xmlns="http://www.w3.org/2000/svg">
	<mask id="path-1-outside-1_7300_14936" maskUnits="userSpaceOnUse" x="0" y="0" width="26" height="26" fill="black">
	<rect fill="white" width="26" height="26"/>
	<path d="M24.9882 18.73C24.9567 17.8 24.5796 16.9 23.9195 16.18C23.008 15.37 22.0022 14.62 20.9965 13.9C20.4621 13.51 19.8964 13.12 19.3935 12.73C17.7905 11.53 17.099 10.27 17.099 8.56V1.42C17.099 1.18 16.9105 1 16.659 1H7.76412C7.5441 1 7.35552 1.18 7.35552 1.42V2.5H1.44654C1.1951 2.5 1.00651 2.68 1.00651 2.92V10.69C1.00651 10.93 1.00651 11.17 1.00651 11.41V11.53C0.975081 14.23 0.975081 16.18 3.04951 18.16C3.1438 18.25 3.23809 18.34 3.39525 18.46C4.68391 19.57 7.88984 22 9.9957 23.47C11.5672 24.58 12.8873 25 14.0188 25C15.3075 24.97 16.5019 24.46 17.3819 23.56C17.6019 23.35 17.7591 23.14 17.9162 22.9C18.6706 23.26 19.4878 23.47 20.305 23.47C21.5936 23.44 22.788 22.93 23.6681 22.03C24.611 21.19 25.0825 19.96 24.9882 18.73ZM18.8592 13.36C19.3935 13.75 19.9278 14.17 20.4936 14.56C21.185 15.04 21.8765 15.55 22.4423 16L18.6706 20.02C18.6077 19.36 18.3563 18.73 18.0105 18.16V18.13C17.9791 18.07 17.9162 17.98 17.8534 17.92L17.822 17.89C17.7591 17.83 17.6962 17.77 17.6334 17.68C17.1619 17.2 16.1561 16.48 14.9932 15.64C14.396 15.19 13.736 14.74 13.1073 14.23C12.7616 13.99 12.4473 13.72 12.1644 13.42C11.3787 12.67 10.9072 11.68 10.8129 10.63C10.7815 10.45 10.7815 10.27 10.7815 10.06V4.36H16.2504V8.56C16.2504 10.51 17.0362 12.01 18.8592 13.36ZM8.20415 1.81H16.2504V3.52H10.7815V2.92C10.7815 2.68 10.6243 2.5 10.3729 2.5C10.3729 2.5 10.3729 2.5 10.3414 2.5H8.17272V1.81H8.20415ZM7.76412 3.31H9.93284V5.02H1.88657V3.31H7.76412ZM1.88657 11.83H1.98086H2.13802C2.20088 11.83 2.26374 11.83 2.3266 11.86L2.48376 11.89L2.64091 11.92L2.79806 11.95L2.95522 12.01L3.11237 12.07L3.26952 12.13L3.39525 12.19L3.5524 12.28L3.67812 12.37C3.70955 12.4 3.77242 12.43 3.80385 12.46C3.83528 12.49 3.89814 12.52 3.92957 12.55C3.961 12.58 4.02386 12.61 4.05529 12.64C4.08672 12.67 4.11815 12.7 4.18102 12.73L4.30674 12.85L4.40103 12.97C4.43246 13 4.46389 13.06 4.49532 13.09C4.52675 13.12 4.55818 13.15 4.58962 13.21C4.62105 13.27 4.65248 13.3 4.68391 13.36C4.71534 13.42 4.74677 13.45 4.74677 13.48C4.74677 13.51 4.80963 13.57 4.80963 13.63L4.87249 13.75C4.90392 13.81 4.90392 13.87 4.93535 13.9L4.96678 14.02C4.99821 14.08 4.99821 14.14 4.99821 14.2C4.99821 14.26 5.02965 14.29 5.02965 14.32C5.02965 14.35 5.06108 14.47 5.06108 14.53L5.09251 14.65C5.09251 14.77 5.09251 14.86 5.09251 14.98C5.09251 15.1 5.09251 15.25 5.06108 15.37C5.06108 15.4 5.02965 15.46 5.02965 15.49C5.02965 15.52 4.99821 15.67 4.96678 15.76C4.93535 15.85 4.93535 15.85 4.93535 15.91C4.93535 15.97 4.87249 16.06 4.87249 16.15L4.80963 16.3C4.7782 16.36 4.74677 16.45 4.71534 16.51C4.68391 16.57 4.65248 16.6 4.62105 16.66C4.58961 16.72 4.52675 16.84 4.46389 16.9L4.3696 17.02C4.30674 17.08 4.27531 17.14 4.21245 17.2C4.14958 17.26 4.14959 17.29 4.08672 17.32C4.02386 17.35 3.961 17.44 3.89814 17.47L3.77242 17.56L3.70955 17.59C3.67812 17.59 3.67812 17.56 3.64669 17.53C1.918 15.91 1.85514 14.32 1.88657 11.83ZM4.40103 18.19C4.52675 18.1 4.65248 17.98 4.7782 17.86C4.80963 17.83 4.84106 17.8 4.87249 17.74C4.93535 17.65 5.02965 17.56 5.09251 17.47C5.15537 17.38 5.15537 17.38 5.1868 17.32C5.21823 17.26 5.31252 17.17 5.34395 17.08C5.37538 16.99 5.40681 16.96 5.43824 16.9C5.46968 16.84 5.53254 16.72 5.56397 16.63C5.5954 16.54 5.62683 16.51 5.62683 16.45C5.62683 16.39 5.68969 16.27 5.72112 16.18C5.75255 16.09 5.75255 16.06 5.78398 16C5.81541 15.94 5.81541 15.79 5.84684 15.67C5.84684 15.61 5.87827 15.58 5.87827 15.52C5.90971 15.37 5.90971 15.19 5.90971 15.04C5.90971 14.89 5.90971 14.77 5.87827 14.62C5.87827 14.56 5.87828 14.53 5.84684 14.5C5.81541 14.47 5.81541 14.32 5.81541 14.23C5.81541 14.14 5.78398 14.14 5.78398 14.08C5.78398 14.02 5.75255 13.93 5.72112 13.84C5.68969 13.75 5.68969 13.75 5.65826 13.69C5.62683 13.63 5.5954 13.54 5.56397 13.48C5.53254 13.42 5.50111 13.39 5.50111 13.33C5.50111 13.27 5.43824 13.18 5.40681 13.12C5.37538 13.06 5.34395 13.03 5.31252 12.97C5.28109 12.91 5.24966 12.85 5.1868 12.79C5.15537 12.73 5.12394 12.7 5.09251 12.64C5.06108 12.58 4.99821 12.52 4.96678 12.46C4.93535 12.4 4.90392 12.37 4.84106 12.34C4.7782 12.31 4.74677 12.25 4.68391 12.19C4.62105 12.13 4.58962 12.1 4.55818 12.07C4.52675 12.04 4.46389 11.98 4.40103 11.92L4.24388 11.8L4.08672 11.68L3.92957 11.59L3.74099 11.47L3.58383 11.44L3.39525 11.35L3.20666 11.29L3.01808 11.2L2.82949 11.14C2.76663 11.11 2.67234 11.11 2.60948 11.08L2.42089 11.05C2.35803 11.05 2.26374 11.02 2.20088 11.02H2.0123H1.88657V5.86H9.93284V10.06C9.93284 10.27 9.93284 10.48 9.96427 10.69V10.75C10.09 11.95 10.6243 13.09 11.5044 13.99C11.6615 14.14 11.8187 14.29 11.9758 14.44L12.0073 14.47C12.1644 14.62 12.353 14.77 12.5416 14.92C13.2016 15.43 13.8617 15.88 14.4589 16.33C15.056 16.78 15.5904 17.17 16.0304 17.5L10.8129 23.02C10.7186 22.96 10.5929 22.9 10.4986 22.81C8.64418 21.49 5.81541 19.36 4.40103 18.19ZM11.5358 23.47L16.659 17.98C16.7847 18.07 16.879 18.19 16.9733 18.25C17.0362 18.31 17.0676 18.34 17.1305 18.4L17.1619 18.43C17.1933 18.49 17.2248 18.52 17.2876 18.58V18.61C17.3191 18.67 17.3819 18.73 17.4134 18.82C17.6334 19.27 17.7905 19.78 17.822 20.29C17.822 20.38 17.822 20.5 17.822 20.59V20.62C17.822 20.71 17.822 20.83 17.7905 20.92C17.7905 20.92 17.7905 20.95 17.7905 20.98C17.7905 21.1 17.7591 21.19 17.7277 21.31C17.6962 21.4 17.6648 21.52 17.6334 21.61C17.6019 21.67 17.6019 21.7 17.5705 21.76C17.5391 21.82 17.5391 21.85 17.5076 21.91C17.4762 21.97 17.4448 22.03 17.4134 22.09C17.2562 22.39 17.0362 22.69 16.7847 22.93C15.3075 24.4 13.5788 24.58 11.5358 23.47ZM23.1023 21.49C21.7508 22.78 20.1793 23.05 18.3563 22.21V22.18C18.482 21.91 18.5763 21.61 18.6077 21.31V21.28L23.0709 16.54C23.1652 16.6 23.228 16.69 23.3223 16.75C24.1081 17.53 24.7681 19.9 23.1023 21.49Z"/>
	</mask>
	<path d="M24.9882 18.73C24.9567 17.8 24.5796 16.9 23.9195 16.18C23.008 15.37 22.0022 14.62 20.9965 13.9C20.4621 13.51 19.8964 13.12 19.3935 12.73C17.7905 11.53 17.099 10.27 17.099 8.56V1.42C17.099 1.18 16.9105 1 16.659 1H7.76412C7.5441 1 7.35552 1.18 7.35552 1.42V2.5H1.44654C1.1951 2.5 1.00651 2.68 1.00651 2.92V10.69C1.00651 10.93 1.00651 11.17 1.00651 11.41V11.53C0.975081 14.23 0.975081 16.18 3.04951 18.16C3.1438 18.25 3.23809 18.34 3.39525 18.46C4.68391 19.57 7.88984 22 9.9957 23.47C11.5672 24.58 12.8873 25 14.0188 25C15.3075 24.97 16.5019 24.46 17.3819 23.56C17.6019 23.35 17.7591 23.14 17.9162 22.9C18.6706 23.26 19.4878 23.47 20.305 23.47C21.5936 23.44 22.788 22.93 23.6681 22.03C24.611 21.19 25.0825 19.96 24.9882 18.73ZM18.8592 13.36C19.3935 13.75 19.9278 14.17 20.4936 14.56C21.185 15.04 21.8765 15.55 22.4423 16L18.6706 20.02C18.6077 19.36 18.3563 18.73 18.0105 18.16V18.13C17.9791 18.07 17.9162 17.98 17.8534 17.92L17.822 17.89C17.7591 17.83 17.6962 17.77 17.6334 17.68C17.1619 17.2 16.1561 16.48 14.9932 15.64C14.396 15.19 13.736 14.74 13.1073 14.23C12.7616 13.99 12.4473 13.72 12.1644 13.42C11.3787 12.67 10.9072 11.68 10.8129 10.63C10.7815 10.45 10.7815 10.27 10.7815 10.06V4.36H16.2504V8.56C16.2504 10.51 17.0362 12.01 18.8592 13.36ZM8.20415 1.81H16.2504V3.52H10.7815V2.92C10.7815 2.68 10.6243 2.5 10.3729 2.5C10.3729 2.5 10.3729 2.5 10.3414 2.5H8.17272V1.81H8.20415ZM7.76412 3.31H9.93284V5.02H1.88657V3.31H7.76412ZM1.88657 11.83H1.98086H2.13802C2.20088 11.83 2.26374 11.83 2.3266 11.86L2.48376 11.89L2.64091 11.92L2.79806 11.95L2.95522 12.01L3.11237 12.07L3.26952 12.13L3.39525 12.19L3.5524 12.28L3.67812 12.37C3.70955 12.4 3.77242 12.43 3.80385 12.46C3.83528 12.49 3.89814 12.52 3.92957 12.55C3.961 12.58 4.02386 12.61 4.05529 12.64C4.08672 12.67 4.11815 12.7 4.18102 12.73L4.30674 12.85L4.40103 12.97C4.43246 13 4.46389 13.06 4.49532 13.09C4.52675 13.12 4.55818 13.15 4.58962 13.21C4.62105 13.27 4.65248 13.3 4.68391 13.36C4.71534 13.42 4.74677 13.45 4.74677 13.48C4.74677 13.51 4.80963 13.57 4.80963 13.63L4.87249 13.75C4.90392 13.81 4.90392 13.87 4.93535 13.9L4.96678 14.02C4.99821 14.08 4.99821 14.14 4.99821 14.2C4.99821 14.26 5.02965 14.29 5.02965 14.32C5.02965 14.35 5.06108 14.47 5.06108 14.53L5.09251 14.65C5.09251 14.77 5.09251 14.86 5.09251 14.98C5.09251 15.1 5.09251 15.25 5.06108 15.37C5.06108 15.4 5.02965 15.46 5.02965 15.49C5.02965 15.52 4.99821 15.67 4.96678 15.76C4.93535 15.85 4.93535 15.85 4.93535 15.91C4.93535 15.97 4.87249 16.06 4.87249 16.15L4.80963 16.3C4.7782 16.36 4.74677 16.45 4.71534 16.51C4.68391 16.57 4.65248 16.6 4.62105 16.66C4.58961 16.72 4.52675 16.84 4.46389 16.9L4.3696 17.02C4.30674 17.08 4.27531 17.14 4.21245 17.2C4.14958 17.26 4.14959 17.29 4.08672 17.32C4.02386 17.35 3.961 17.44 3.89814 17.47L3.77242 17.56L3.70955 17.59C3.67812 17.59 3.67812 17.56 3.64669 17.53C1.918 15.91 1.85514 14.32 1.88657 11.83ZM4.40103 18.19C4.52675 18.1 4.65248 17.98 4.7782 17.86C4.80963 17.83 4.84106 17.8 4.87249 17.74C4.93535 17.65 5.02965 17.56 5.09251 17.47C5.15537 17.38 5.15537 17.38 5.1868 17.32C5.21823 17.26 5.31252 17.17 5.34395 17.08C5.37538 16.99 5.40681 16.96 5.43824 16.9C5.46968 16.84 5.53254 16.72 5.56397 16.63C5.5954 16.54 5.62683 16.51 5.62683 16.45C5.62683 16.39 5.68969 16.27 5.72112 16.18C5.75255 16.09 5.75255 16.06 5.78398 16C5.81541 15.94 5.81541 15.79 5.84684 15.67C5.84684 15.61 5.87827 15.58 5.87827 15.52C5.90971 15.37 5.90971 15.19 5.90971 15.04C5.90971 14.89 5.90971 14.77 5.87827 14.62C5.87827 14.56 5.87828 14.53 5.84684 14.5C5.81541 14.47 5.81541 14.32 5.81541 14.23C5.81541 14.14 5.78398 14.14 5.78398 14.08C5.78398 14.02 5.75255 13.93 5.72112 13.84C5.68969 13.75 5.68969 13.75 5.65826 13.69C5.62683 13.63 5.5954 13.54 5.56397 13.48C5.53254 13.42 5.50111 13.39 5.50111 13.33C5.50111 13.27 5.43824 13.18 5.40681 13.12C5.37538 13.06 5.34395 13.03 5.31252 12.97C5.28109 12.91 5.24966 12.85 5.1868 12.79C5.15537 12.73 5.12394 12.7 5.09251 12.64C5.06108 12.58 4.99821 12.52 4.96678 12.46C4.93535 12.4 4.90392 12.37 4.84106 12.34C4.7782 12.31 4.74677 12.25 4.68391 12.19C4.62105 12.13 4.58962 12.1 4.55818 12.07C4.52675 12.04 4.46389 11.98 4.40103 11.92L4.24388 11.8L4.08672 11.68L3.92957 11.59L3.74099 11.47L3.58383 11.44L3.39525 11.35L3.20666 11.29L3.01808 11.2L2.82949 11.14C2.76663 11.11 2.67234 11.11 2.60948 11.08L2.42089 11.05C2.35803 11.05 2.26374 11.02 2.20088 11.02H2.0123H1.88657V5.86H9.93284V10.06C9.93284 10.27 9.93284 10.48 9.96427 10.69V10.75C10.09 11.95 10.6243 13.09 11.5044 13.99C11.6615 14.14 11.8187 14.29 11.9758 14.44L12.0073 14.47C12.1644 14.62 12.353 14.77 12.5416 14.92C13.2016 15.43 13.8617 15.88 14.4589 16.33C15.056 16.78 15.5904 17.17 16.0304 17.5L10.8129 23.02C10.7186 22.96 10.5929 22.9 10.4986 22.81C8.64418 21.49 5.81541 19.36 4.40103 18.19ZM11.5358 23.47L16.659 17.98C16.7847 18.07 16.879 18.19 16.9733 18.25C17.0362 18.31 17.0676 18.34 17.1305 18.4L17.1619 18.43C17.1933 18.49 17.2248 18.52 17.2876 18.58V18.61C17.3191 18.67 17.3819 18.73 17.4134 18.82C17.6334 19.27 17.7905 19.78 17.822 20.29C17.822 20.38 17.822 20.5 17.822 20.59V20.62C17.822 20.71 17.822 20.83 17.7905 20.92C17.7905 20.92 17.7905 20.95 17.7905 20.98C17.7905 21.1 17.7591 21.19 17.7277 21.31C17.6962 21.4 17.6648 21.52 17.6334 21.61C17.6019 21.67 17.6019 21.7 17.5705 21.76C17.5391 21.82 17.5391 21.85 17.5076 21.91C17.4762 21.97 17.4448 22.03 17.4134 22.09C17.2562 22.39 17.0362 22.69 16.7847 22.93C15.3075 24.4 13.5788 24.58 11.5358 23.47ZM23.1023 21.49C21.7508 22.78 20.1793 23.05 18.3563 22.21V22.18C18.482 21.91 18.5763 21.61 18.6077 21.31V21.28L23.0709 16.54C23.1652 16.6 23.228 16.69 23.3223 16.75C24.1081 17.53 24.7681 19.9 23.1023 21.49Z" fill="#B1B1B3"/>
	<path d="M24.9882 18.73C24.9567 17.8 24.5796 16.9 23.9195 16.18C23.008 15.37 22.0022 14.62 20.9965 13.9C20.4621 13.51 19.8964 13.12 19.3935 12.73C17.7905 11.53 17.099 10.27 17.099 8.56V1.42C17.099 1.18 16.9105 1 16.659 1H7.76412C7.5441 1 7.35552 1.18 7.35552 1.42V2.5H1.44654C1.1951 2.5 1.00651 2.68 1.00651 2.92V10.69C1.00651 10.93 1.00651 11.17 1.00651 11.41V11.53C0.975081 14.23 0.975081 16.18 3.04951 18.16C3.1438 18.25 3.23809 18.34 3.39525 18.46C4.68391 19.57 7.88984 22 9.9957 23.47C11.5672 24.58 12.8873 25 14.0188 25C15.3075 24.97 16.5019 24.46 17.3819 23.56C17.6019 23.35 17.7591 23.14 17.9162 22.9C18.6706 23.26 19.4878 23.47 20.305 23.47C21.5936 23.44 22.788 22.93 23.6681 22.03C24.611 21.19 25.0825 19.96 24.9882 18.73ZM18.8592 13.36C19.3935 13.75 19.9278 14.17 20.4936 14.56C21.185 15.04 21.8765 15.55 22.4423 16L18.6706 20.02C18.6077 19.36 18.3563 18.73 18.0105 18.16V18.13C17.9791 18.07 17.9162 17.98 17.8534 17.92L17.822 17.89C17.7591 17.83 17.6962 17.77 17.6334 17.68C17.1619 17.2 16.1561 16.48 14.9932 15.64C14.396 15.19 13.736 14.74 13.1073 14.23C12.7616 13.99 12.4473 13.72 12.1644 13.42C11.3787 12.67 10.9072 11.68 10.8129 10.63C10.7815 10.45 10.7815 10.27 10.7815 10.06V4.36H16.2504V8.56C16.2504 10.51 17.0362 12.01 18.8592 13.36ZM8.20415 1.81H16.2504V3.52H10.7815V2.92C10.7815 2.68 10.6243 2.5 10.3729 2.5C10.3729 2.5 10.3729 2.5 10.3414 2.5H8.17272V1.81H8.20415ZM7.76412 3.31H9.93284V5.02H1.88657V3.31H7.76412ZM1.88657 11.83H1.98086H2.13802C2.20088 11.83 2.26374 11.83 2.3266 11.86L2.48376 11.89L2.64091 11.92L2.79806 11.95L2.95522 12.01L3.11237 12.07L3.26952 12.13L3.39525 12.19L3.5524 12.28L3.67812 12.37C3.70955 12.4 3.77242 12.43 3.80385 12.46C3.83528 12.49 3.89814 12.52 3.92957 12.55C3.961 12.58 4.02386 12.61 4.05529 12.64C4.08672 12.67 4.11815 12.7 4.18102 12.73L4.30674 12.85L4.40103 12.97C4.43246 13 4.46389 13.06 4.49532 13.09C4.52675 13.12 4.55818 13.15 4.58962 13.21C4.62105 13.27 4.65248 13.3 4.68391 13.36C4.71534 13.42 4.74677 13.45 4.74677 13.48C4.74677 13.51 4.80963 13.57 4.80963 13.63L4.87249 13.75C4.90392 13.81 4.90392 13.87 4.93535 13.9L4.96678 14.02C4.99821 14.08 4.99821 14.14 4.99821 14.2C4.99821 14.26 5.02965 14.29 5.02965 14.32C5.02965 14.35 5.06108 14.47 5.06108 14.53L5.09251 14.65C5.09251 14.77 5.09251 14.86 5.09251 14.98C5.09251 15.1 5.09251 15.25 5.06108 15.37C5.06108 15.4 5.02965 15.46 5.02965 15.49C5.02965 15.52 4.99821 15.67 4.96678 15.76C4.93535 15.85 4.93535 15.85 4.93535 15.91C4.93535 15.97 4.87249 16.06 4.87249 16.15L4.80963 16.3C4.7782 16.36 4.74677 16.45 4.71534 16.51C4.68391 16.57 4.65248 16.6 4.62105 16.66C4.58961 16.72 4.52675 16.84 4.46389 16.9L4.3696 17.02C4.30674 17.08 4.27531 17.14 4.21245 17.2C4.14958 17.26 4.14959 17.29 4.08672 17.32C4.02386 17.35 3.961 17.44 3.89814 17.47L3.77242 17.56L3.70955 17.59C3.67812 17.59 3.67812 17.56 3.64669 17.53C1.918 15.91 1.85514 14.32 1.88657 11.83ZM4.40103 18.19C4.52675 18.1 4.65248 17.98 4.7782 17.86C4.80963 17.83 4.84106 17.8 4.87249 17.74C4.93535 17.65 5.02965 17.56 5.09251 17.47C5.15537 17.38 5.15537 17.38 5.1868 17.32C5.21823 17.26 5.31252 17.17 5.34395 17.08C5.37538 16.99 5.40681 16.96 5.43824 16.9C5.46968 16.84 5.53254 16.72 5.56397 16.63C5.5954 16.54 5.62683 16.51 5.62683 16.45C5.62683 16.39 5.68969 16.27 5.72112 16.18C5.75255 16.09 5.75255 16.06 5.78398 16C5.81541 15.94 5.81541 15.79 5.84684 15.67C5.84684 15.61 5.87827 15.58 5.87827 15.52C5.90971 15.37 5.90971 15.19 5.90971 15.04C5.90971 14.89 5.90971 14.77 5.87827 14.62C5.87827 14.56 5.87828 14.53 5.84684 14.5C5.81541 14.47 5.81541 14.32 5.81541 14.23C5.81541 14.14 5.78398 14.14 5.78398 14.08C5.78398 14.02 5.75255 13.93 5.72112 13.84C5.68969 13.75 5.68969 13.75 5.65826 13.69C5.62683 13.63 5.5954 13.54 5.56397 13.48C5.53254 13.42 5.50111 13.39 5.50111 13.33C5.50111 13.27 5.43824 13.18 5.40681 13.12C5.37538 13.06 5.34395 13.03 5.31252 12.97C5.28109 12.91 5.24966 12.85 5.1868 12.79C5.15537 12.73 5.12394 12.7 5.09251 12.64C5.06108 12.58 4.99821 12.52 4.96678 12.46C4.93535 12.4 4.90392 12.37 4.84106 12.34C4.7782 12.31 4.74677 12.25 4.68391 12.19C4.62105 12.13 4.58962 12.1 4.55818 12.07C4.52675 12.04 4.46389 11.98 4.40103 11.92L4.24388 11.8L4.08672 11.68L3.92957 11.59L3.74099 11.47L3.58383 11.44L3.39525 11.35L3.20666 11.29L3.01808 11.2L2.82949 11.14C2.76663 11.11 2.67234 11.11 2.60948 11.08L2.42089 11.05C2.35803 11.05 2.26374 11.02 2.20088 11.02H2.0123H1.88657V5.86H9.93284V10.06C9.93284 10.27 9.93284 10.48 9.96427 10.69V10.75C10.09 11.95 10.6243 13.09 11.5044 13.99C11.6615 14.14 11.8187 14.29 11.9758 14.44L12.0073 14.47C12.1644 14.62 12.353 14.77 12.5416 14.92C13.2016 15.43 13.8617 15.88 14.4589 16.33C15.056 16.78 15.5904 17.17 16.0304 17.5L10.8129 23.02C10.7186 22.96 10.5929 22.9 10.4986 22.81C8.64418 21.49 5.81541 19.36 4.40103 18.19ZM11.5358 23.47L16.659 17.98C16.7847 18.07 16.879 18.19 16.9733 18.25C17.0362 18.31 17.0676 18.34 17.1305 18.4L17.1619 18.43C17.1933 18.49 17.2248 18.52 17.2876 18.58V18.61C17.3191 18.67 17.3819 18.73 17.4134 18.82C17.6334 19.27 17.7905 19.78 17.822 20.29C17.822 20.38 17.822 20.5 17.822 20.59V20.62C17.822 20.71 17.822 20.83 17.7905 20.92C17.7905 20.92 17.7905 20.95 17.7905 20.98C17.7905 21.1 17.7591 21.19 17.7277 21.31C17.6962 21.4 17.6648 21.52 17.6334 21.61C17.6019 21.67 17.6019 21.7 17.5705 21.76C17.5391 21.82 17.5391 21.85 17.5076 21.91C17.4762 21.97 17.4448 22.03 17.4134 22.09C17.2562 22.39 17.0362 22.69 16.7847 22.93C15.3075 24.4 13.5788 24.58 11.5358 23.47ZM23.1023 21.49C21.7508 22.78 20.1793 23.05 18.3563 22.21V22.18C18.482 21.91 18.5763 21.61 18.6077 21.31V21.28L23.0709 16.54C23.1652 16.6 23.228 16.69 23.3223 16.75C24.1081 17.53 24.7681 19.9 23.1023 21.49Z" stroke="#B1B1B3" stroke-width="0.6" mask="url(#path-1-outside-1_7300_14936)"/>
</svg>