<svg width="24" height="26" viewBox="0 0 24 26" fill="none" xmlns="http://www.w3.org/2000/svg">
	<path d="M21.4803 7.86314H17.6197V7.42093C17.6197 5.60871 17.1952 3.98482 16.4888 2.81052C15.783 1.6372 14.7863 0.9 13.6433 0.9H10.3567C9.22749 0.9 8.23094 1.63747 7.52187 2.81033C6.812 3.9845 6.38034 5.6084 6.38034 7.42093V7.86314H2.51966C1.50892 7.86314 0.65 8.70742 0.65 9.761V23.2021H0.64996L0.65004 23.205C0.679535 24.2537 1.50644 25.1 2.51966 25.1H21.4803C22.4911 25.1 23.35 24.2557 23.35 23.2021V9.761C23.35 8.73803 22.5212 7.86314 21.4803 7.86314ZM7.70393 7.44946C7.70393 6.03605 8.01719 4.73252 8.51072 3.78582C9.00748 2.83295 9.66974 2.27004 10.3567 2.27004H13.6713C14.3583 2.27004 15.0206 2.83295 15.5174 3.78582C16.0109 4.73252 16.3242 6.03605 16.3242 7.44946V7.89168H7.70393V7.44946ZM17.9691 12.5721C18.1652 12.5721 18.3185 12.7256 18.3185 12.9287V14.6124C18.3185 14.8155 18.1652 14.969 17.9691 14.969H15.5815C15.3854 14.969 15.232 14.8155 15.232 14.6124V12.9287C15.232 12.7256 15.3854 12.5721 15.5815 12.5721H17.9691ZM8.41854 12.5721C8.61463 12.5721 8.76798 12.7256 8.76798 12.9287V14.6124C8.76798 14.8155 8.61463 14.969 8.41854 14.969H6.0309C5.8348 14.969 5.68146 14.8155 5.68146 14.6124V12.9287C5.68146 12.7256 5.8348 12.5721 6.0309 12.5721H8.41854ZM2.00169 9.761C2.00169 9.46943 2.24207 9.20464 2.54775 9.20464H6.40843V11.202H6.0309C5.1034 11.202 4.35787 11.9617 4.35787 12.9001V14.5838C4.35787 15.5222 5.1034 16.2819 6.0309 16.2819H8.41854C9.34604 16.2819 10.0916 15.5222 10.0916 14.5838V12.9001C10.0916 11.9617 9.34604 11.202 8.41854 11.202H7.70393V9.20464H16.2961V11.202H15.5815C14.654 11.202 13.9084 11.9617 13.9084 12.9001V14.5838C13.9084 15.5222 14.654 16.2819 15.5815 16.2819H17.9691C18.8966 16.2819 19.6421 15.5222 19.6421 14.5838V12.9001C19.6421 11.9617 18.8966 11.202 17.9691 11.202H17.6197V9.20464H21.4803C21.7635 9.20464 22.0264 9.44656 22.0264 9.761V20.6194H2.00169V9.761ZM1.9736 21.9609H22.0264V23.2307C22.0264 23.5223 21.786 23.787 21.4803 23.787H2.51966C2.23648 23.787 1.9736 23.5451 1.9736 23.2307V21.9609Z" fill="#B1B1B3" stroke="#B1B1B3" stroke-width="0.2"/>
</svg>