<svg width="24" height="24" viewBox="0 0 24 24" fill="none" xmlns="http://www.w3.org/2000/svg">
	<path d="M23.4987 19.0966L13.2534 3.17263C12.9054 2.61213 11.6114 0.800338 9.14272 0.191231C7.82313 -0.134316 5.73019 -0.204487 3.25352 1.31052C1.498 2.38436 0.404628 3.9287 0.0910998 5.77672C-0.49142 9.20935 1.89146 12.277 2.37517 12.8574C3.42016 14.1107 5.26506 14.4095 6.66605 13.5522C6.78049 13.4823 6.89169 13.4044 6.99551 13.3218C7.66622 12.7901 8.10068 12.0628 8.21895 11.2734C8.3446 10.4356 8.10599 9.60392 7.54677 8.93039C7.07308 8.35062 6.61768 7.36247 6.63774 6.97193C6.66635 6.94576 6.72032 6.90205 6.81441 6.84453C7.24061 6.58398 7.50754 6.5187 7.60104 6.51294C7.62965 6.53135 7.66976 6.56759 7.70102 6.60238C7.73111 6.65472 7.76444 6.70419 7.8013 6.75107L17.9342 22.5001C18.8966 23.9962 20.9279 24.4497 22.4622 23.511C23.9959 22.5729 24.4611 20.5926 23.4987 19.0966ZM21.7638 22.4262C20.8415 22.9902 19.6254 22.7187 19.047 21.8197L8.85279 5.97573L8.84601 5.97487L8.81592 5.91735C8.75339 5.82791 8.41804 5.37784 7.89834 5.26137C7.31287 5.12994 6.60589 5.45952 6.11568 5.75947C5.51783 6.12528 5.39041 6.46262 5.34617 6.71569C5.17451 7.70096 6.0679 9.17829 6.52212 9.73304C7.20876 10.5564 7.01085 11.6584 6.16641 12.3279C6.10212 12.3788 6.03575 12.4251 5.96733 12.4671C5.13705 12.975 4.02835 12.8099 3.39391 12.049C3.13554 11.7392 0.885687 8.93787 1.38651 5.98551C1.63692 4.50991 2.52382 3.2684 3.95107 2.39558C6.03428 1.12128 7.74851 1.16874 8.81976 1.43303C10.8549 1.93515 11.9137 3.48725 12.1341 3.84415L22.3852 19.7773C22.9642 20.6763 22.6855 21.8623 21.7638 22.4262Z" fill="#B1B1B3"/>
</svg>