<svg width="26" height="24" viewBox="0 0 26 24" fill="none" xmlns="http://www.w3.org/2000/svg">
	<path d="M7.69473 17.0263C7.69473 16.5055 7.27099 16.082 6.75047 16.082H3.23332C2.71255 16.082 2.28906 16.5058 2.28906 17.0263C2.28906 17.5471 2.7128 17.9708 3.23332 17.9708H6.75047C7.27124 17.9708 7.69473 17.5471 7.69473 17.0263ZM3.06325 17.0263C3.06325 16.9326 3.13964 16.8562 3.23332 16.8562H6.75047C6.84415 16.8562 6.92053 16.9326 6.92053 17.0263C6.92053 17.1202 6.84415 17.1966 6.75047 17.1966H3.23332C3.13964 17.1966 3.06325 17.1202 3.06325 17.0263Z" fill="#B1B1B3"/>
	<mask id="path-2-outside-1_7300_14883" maskUnits="userSpaceOnUse" x="0" y="4.1748" width="26" height="16" fill="black">
	<rect fill="white" y="4.1748" width="26" height="16"/>
	<path d="M24.6128 8.80421H15.129L15.2201 8.67183C15.2327 8.65325 15.2438 8.63389 15.2529 8.6135C15.4843 8.25351 15.6064 7.83828 15.6064 7.40809C15.6064 6.17661 14.6046 5.1748 13.3731 5.1748H9.85572C9.10914 5.1748 8.41521 5.5459 8.00205 6.16293L1.42374 15.7211C1.42219 15.7232 1.42142 15.7257 1.42013 15.7278C1.40026 15.7554 1.38064 15.7828 1.36206 15.8114C1.36155 15.8122 1.36077 15.813 1.36 15.8137L1.33961 15.8432C1.33135 15.855 1.32645 15.8685 1.31974 15.8808C1.11819 16.2163 1 16.6073 1 17.0264C1 18.2579 2.0018 19.2597 3.23328 19.2597H6.75044H17.9496C18.0771 19.2597 18.1963 19.197 18.2686 19.0922L24.9318 9.41092C25.0134 9.29247 25.0224 9.13866 24.9555 9.01144C24.8887 8.88421 24.7566 8.80421 24.6128 8.80421ZM8.64282 6.59777C8.91482 6.19158 9.36824 5.949 9.85598 5.949H13.3731C14.1778 5.949 14.8322 6.6037 14.8322 7.40809C14.8322 7.70357 14.7442 7.98822 14.5775 8.23131C14.5662 8.24783 14.5564 8.26512 14.5478 8.28293L14.105 8.92654C14.1047 8.92705 14.1042 8.92731 14.1037 8.92783L8.91353 16.4692C8.90811 16.4478 8.90037 16.4272 8.89443 16.406C8.8872 16.3812 8.87998 16.3567 8.87224 16.3325C8.85804 16.2891 8.84204 16.2465 8.82527 16.2045C8.81675 16.1835 8.80927 16.1621 8.80024 16.1415C8.77675 16.0875 8.75121 16.0349 8.72385 15.9833C8.71972 15.9755 8.71662 15.9675 8.7125 15.9603C8.68024 15.9012 8.6454 15.8445 8.60824 15.7887C8.5974 15.7725 8.58501 15.7567 8.57366 15.7407C8.54656 15.7023 8.51869 15.6643 8.48901 15.6277C8.47353 15.6086 8.45753 15.5903 8.44153 15.5717C8.41366 15.5394 8.38501 15.5077 8.35559 15.477C8.33804 15.4586 8.32024 15.4408 8.30192 15.4233C8.27095 15.3934 8.23895 15.3645 8.20643 15.3366C8.18811 15.3208 8.1703 15.3048 8.15172 15.2896C8.11353 15.2586 8.07379 15.2297 8.03353 15.2014C8.01908 15.191 8.00566 15.1802 7.99095 15.1704C7.93547 15.1332 7.87843 15.0984 7.81959 15.0664C7.80695 15.0594 7.79353 15.0537 7.78063 15.047C7.73418 15.0225 7.68695 14.9993 7.63843 14.9784C7.61676 14.9688 7.5943 14.9606 7.57211 14.9518C7.53108 14.9356 7.48979 14.9201 7.44772 14.9061C7.42295 14.8979 7.39818 14.8904 7.37289 14.8832C7.33108 14.871 7.28876 14.8602 7.24618 14.8506C7.22089 14.845 7.19585 14.839 7.17031 14.8344C7.12437 14.8256 7.07766 14.8186 7.03044 14.813C7.00773 14.8101 6.98553 14.8065 6.96256 14.8042C6.89263 14.7977 6.82218 14.7934 6.75044 14.7934H3.23328C3.15303 14.7934 3.07406 14.798 2.99612 14.8063C2.99509 14.8063 2.99406 14.8063 2.99303 14.8063L8.64282 6.59777ZM1.77419 17.0264C1.77419 16.7043 1.88026 16.4075 2.05755 16.166C2.09032 16.1211 2.12567 16.0785 2.16309 16.038C2.16464 16.0365 2.16619 16.0346 2.16774 16.0328C2.32258 15.8669 2.51303 15.7405 2.72232 15.6615C2.72748 15.6594 2.7329 15.6576 2.73806 15.6558C2.78322 15.6395 2.82941 15.6256 2.87587 15.6135C2.8849 15.6112 2.89393 15.6086 2.90322 15.6065C2.94683 15.5962 2.99122 15.5887 3.03587 15.5825C3.0467 15.581 3.05754 15.5786 3.06864 15.5774C3.12309 15.5712 3.1778 15.5673 3.23328 15.5673H6.75044C7.55508 15.5673 8.20953 16.222 8.20953 17.0264C8.20953 17.0971 8.20282 17.167 8.19275 17.2359C8.19069 17.2501 8.18863 17.2643 8.1863 17.2785C8.17417 17.3466 8.15843 17.4137 8.13676 17.4793C8.13469 17.4852 8.13211 17.4909 8.1303 17.4968C8.08179 17.638 8.01159 17.7722 7.91972 17.8955C7.91843 17.8973 7.91688 17.8994 7.91559 17.901C7.8823 17.9454 7.84669 17.9872 7.80953 18.0269C7.80798 18.0287 7.80618 18.0305 7.80463 18.0323C7.72901 18.1121 7.64566 18.1817 7.55637 18.2416C7.54063 18.2522 7.52411 18.2612 7.50785 18.271C7.48101 18.2875 7.45366 18.3038 7.42579 18.3185C7.40411 18.3299 7.38166 18.3402 7.35947 18.3508C7.33521 18.3619 7.31069 18.3727 7.28592 18.3825C7.26243 18.3918 7.23843 18.4006 7.21443 18.4088C7.18811 18.4176 7.16153 18.4253 7.13469 18.4326C7.11173 18.4388 7.08876 18.4452 7.06527 18.4504C7.03353 18.4573 7.00102 18.4625 6.96876 18.4674C6.9494 18.4703 6.93031 18.4741 6.91069 18.4762C6.85779 18.4819 6.80437 18.4855 6.75044 18.4855H3.23328C2.4289 18.4857 1.77419 17.831 1.77419 17.0264ZM17.746 18.4857H8.43869C8.44411 18.4798 8.44901 18.4733 8.45417 18.4674C8.46398 18.4558 8.47404 18.4444 8.48359 18.4326C8.48463 18.4318 8.48514 18.4305 8.48617 18.4297C8.5125 18.4078 8.5365 18.3828 8.55663 18.3536L14.6072 9.56266L14.706 9.57557C14.7228 9.57763 14.7396 9.57892 14.7564 9.57892H23.8763L17.746 18.4857Z"/>
	</mask>
	<path d="M24.6128 8.80421H15.129L15.2201 8.67183C15.2327 8.65325 15.2438 8.63389 15.2529 8.6135C15.4843 8.25351 15.6064 7.83828 15.6064 7.40809C15.6064 6.17661 14.6046 5.1748 13.3731 5.1748H9.85572C9.10914 5.1748 8.41521 5.5459 8.00205 6.16293L1.42374 15.7211C1.42219 15.7232 1.42142 15.7257 1.42013 15.7278C1.40026 15.7554 1.38064 15.7828 1.36206 15.8114C1.36155 15.8122 1.36077 15.813 1.36 15.8137L1.33961 15.8432C1.33135 15.855 1.32645 15.8685 1.31974 15.8808C1.11819 16.2163 1 16.6073 1 17.0264C1 18.2579 2.0018 19.2597 3.23328 19.2597H6.75044H17.9496C18.0771 19.2597 18.1963 19.197 18.2686 19.0922L24.9318 9.41092C25.0134 9.29247 25.0224 9.13866 24.9555 9.01144C24.8887 8.88421 24.7566 8.80421 24.6128 8.80421ZM8.64282 6.59777C8.91482 6.19158 9.36824 5.949 9.85598 5.949H13.3731C14.1778 5.949 14.8322 6.6037 14.8322 7.40809C14.8322 7.70357 14.7442 7.98822 14.5775 8.23131C14.5662 8.24783 14.5564 8.26512 14.5478 8.28293L14.105 8.92654C14.1047 8.92705 14.1042 8.92731 14.1037 8.92783L8.91353 16.4692C8.90811 16.4478 8.90037 16.4272 8.89443 16.406C8.8872 16.3812 8.87998 16.3567 8.87224 16.3325C8.85804 16.2891 8.84204 16.2465 8.82527 16.2045C8.81675 16.1835 8.80927 16.1621 8.80024 16.1415C8.77675 16.0875 8.75121 16.0349 8.72385 15.9833C8.71972 15.9755 8.71662 15.9675 8.7125 15.9603C8.68024 15.9012 8.6454 15.8445 8.60824 15.7887C8.5974 15.7725 8.58501 15.7567 8.57366 15.7407C8.54656 15.7023 8.51869 15.6643 8.48901 15.6277C8.47353 15.6086 8.45753 15.5903 8.44153 15.5717C8.41366 15.5394 8.38501 15.5077 8.35559 15.477C8.33804 15.4586 8.32024 15.4408 8.30192 15.4233C8.27095 15.3934 8.23895 15.3645 8.20643 15.3366C8.18811 15.3208 8.1703 15.3048 8.15172 15.2896C8.11353 15.2586 8.07379 15.2297 8.03353 15.2014C8.01908 15.191 8.00566 15.1802 7.99095 15.1704C7.93547 15.1332 7.87843 15.0984 7.81959 15.0664C7.80695 15.0594 7.79353 15.0537 7.78063 15.047C7.73418 15.0225 7.68695 14.9993 7.63843 14.9784C7.61676 14.9688 7.5943 14.9606 7.57211 14.9518C7.53108 14.9356 7.48979 14.9201 7.44772 14.9061C7.42295 14.8979 7.39818 14.8904 7.37289 14.8832C7.33108 14.871 7.28876 14.8602 7.24618 14.8506C7.22089 14.845 7.19585 14.839 7.17031 14.8344C7.12437 14.8256 7.07766 14.8186 7.03044 14.813C7.00773 14.8101 6.98553 14.8065 6.96256 14.8042C6.89263 14.7977 6.82218 14.7934 6.75044 14.7934H3.23328C3.15303 14.7934 3.07406 14.798 2.99612 14.8063C2.99509 14.8063 2.99406 14.8063 2.99303 14.8063L8.64282 6.59777ZM1.77419 17.0264C1.77419 16.7043 1.88026 16.4075 2.05755 16.166C2.09032 16.1211 2.12567 16.0785 2.16309 16.038C2.16464 16.0365 2.16619 16.0346 2.16774 16.0328C2.32258 15.8669 2.51303 15.7405 2.72232 15.6615C2.72748 15.6594 2.7329 15.6576 2.73806 15.6558C2.78322 15.6395 2.82941 15.6256 2.87587 15.6135C2.8849 15.6112 2.89393 15.6086 2.90322 15.6065C2.94683 15.5962 2.99122 15.5887 3.03587 15.5825C3.0467 15.581 3.05754 15.5786 3.06864 15.5774C3.12309 15.5712 3.1778 15.5673 3.23328 15.5673H6.75044C7.55508 15.5673 8.20953 16.222 8.20953 17.0264C8.20953 17.0971 8.20282 17.167 8.19275 17.2359C8.19069 17.2501 8.18863 17.2643 8.1863 17.2785C8.17417 17.3466 8.15843 17.4137 8.13676 17.4793C8.13469 17.4852 8.13211 17.4909 8.1303 17.4968C8.08179 17.638 8.01159 17.7722 7.91972 17.8955C7.91843 17.8973 7.91688 17.8994 7.91559 17.901C7.8823 17.9454 7.84669 17.9872 7.80953 18.0269C7.80798 18.0287 7.80618 18.0305 7.80463 18.0323C7.72901 18.1121 7.64566 18.1817 7.55637 18.2416C7.54063 18.2522 7.52411 18.2612 7.50785 18.271C7.48101 18.2875 7.45366 18.3038 7.42579 18.3185C7.40411 18.3299 7.38166 18.3402 7.35947 18.3508C7.33521 18.3619 7.31069 18.3727 7.28592 18.3825C7.26243 18.3918 7.23843 18.4006 7.21443 18.4088C7.18811 18.4176 7.16153 18.4253 7.13469 18.4326C7.11173 18.4388 7.08876 18.4452 7.06527 18.4504C7.03353 18.4573 7.00102 18.4625 6.96876 18.4674C6.9494 18.4703 6.93031 18.4741 6.91069 18.4762C6.85779 18.4819 6.80437 18.4855 6.75044 18.4855H3.23328C2.4289 18.4857 1.77419 17.831 1.77419 17.0264ZM17.746 18.4857H8.43869C8.44411 18.4798 8.44901 18.4733 8.45417 18.4674C8.46398 18.4558 8.47404 18.4444 8.48359 18.4326C8.48463 18.4318 8.48514 18.4305 8.48617 18.4297C8.5125 18.4078 8.5365 18.3828 8.55663 18.3536L14.6072 9.56266L14.706 9.57557C14.7228 9.57763 14.7396 9.57892 14.7564 9.57892H23.8763L17.746 18.4857Z" fill="#B1B1B3"/>
	<path d="M24.6128 8.80421H15.129L15.2201 8.67183C15.2327 8.65325 15.2438 8.63389 15.2529 8.6135C15.4843 8.25351 15.6064 7.83828 15.6064 7.40809C15.6064 6.17661 14.6046 5.1748 13.3731 5.1748H9.85572C9.10914 5.1748 8.41521 5.5459 8.00205 6.16293L1.42374 15.7211C1.42219 15.7232 1.42142 15.7257 1.42013 15.7278C1.40026 15.7554 1.38064 15.7828 1.36206 15.8114C1.36155 15.8122 1.36077 15.813 1.36 15.8137L1.33961 15.8432C1.33135 15.855 1.32645 15.8685 1.31974 15.8808C1.11819 16.2163 1 16.6073 1 17.0264C1 18.2579 2.0018 19.2597 3.23328 19.2597H6.75044H17.9496C18.0771 19.2597 18.1963 19.197 18.2686 19.0922L24.9318 9.41092C25.0134 9.29247 25.0224 9.13866 24.9555 9.01144C24.8887 8.88421 24.7566 8.80421 24.6128 8.80421ZM8.64282 6.59777C8.91482 6.19158 9.36824 5.949 9.85598 5.949H13.3731C14.1778 5.949 14.8322 6.6037 14.8322 7.40809C14.8322 7.70357 14.7442 7.98822 14.5775 8.23131C14.5662 8.24783 14.5564 8.26512 14.5478 8.28293L14.105 8.92654C14.1047 8.92705 14.1042 8.92731 14.1037 8.92783L8.91353 16.4692C8.90811 16.4478 8.90037 16.4272 8.89443 16.406C8.8872 16.3812 8.87998 16.3567 8.87224 16.3325C8.85804 16.2891 8.84204 16.2465 8.82527 16.2045C8.81675 16.1835 8.80927 16.1621 8.80024 16.1415C8.77675 16.0875 8.75121 16.0349 8.72385 15.9833C8.71972 15.9755 8.71662 15.9675 8.7125 15.9603C8.68024 15.9012 8.6454 15.8445 8.60824 15.7887C8.5974 15.7725 8.58501 15.7567 8.57366 15.7407C8.54656 15.7023 8.51869 15.6643 8.48901 15.6277C8.47353 15.6086 8.45753 15.5903 8.44153 15.5717C8.41366 15.5394 8.38501 15.5077 8.35559 15.477C8.33804 15.4586 8.32024 15.4408 8.30192 15.4233C8.27095 15.3934 8.23895 15.3645 8.20643 15.3366C8.18811 15.3208 8.1703 15.3048 8.15172 15.2896C8.11353 15.2586 8.07379 15.2297 8.03353 15.2014C8.01908 15.191 8.00566 15.1802 7.99095 15.1704C7.93547 15.1332 7.87843 15.0984 7.81959 15.0664C7.80695 15.0594 7.79353 15.0537 7.78063 15.047C7.73418 15.0225 7.68695 14.9993 7.63843 14.9784C7.61676 14.9688 7.5943 14.9606 7.57211 14.9518C7.53108 14.9356 7.48979 14.9201 7.44772 14.9061C7.42295 14.8979 7.39818 14.8904 7.37289 14.8832C7.33108 14.871 7.28876 14.8602 7.24618 14.8506C7.22089 14.845 7.19585 14.839 7.17031 14.8344C7.12437 14.8256 7.07766 14.8186 7.03044 14.813C7.00773 14.8101 6.98553 14.8065 6.96256 14.8042C6.89263 14.7977 6.82218 14.7934 6.75044 14.7934H3.23328C3.15303 14.7934 3.07406 14.798 2.99612 14.8063C2.99509 14.8063 2.99406 14.8063 2.99303 14.8063L8.64282 6.59777ZM1.77419 17.0264C1.77419 16.7043 1.88026 16.4075 2.05755 16.166C2.09032 16.1211 2.12567 16.0785 2.16309 16.038C2.16464 16.0365 2.16619 16.0346 2.16774 16.0328C2.32258 15.8669 2.51303 15.7405 2.72232 15.6615C2.72748 15.6594 2.7329 15.6576 2.73806 15.6558C2.78322 15.6395 2.82941 15.6256 2.87587 15.6135C2.8849 15.6112 2.89393 15.6086 2.90322 15.6065C2.94683 15.5962 2.99122 15.5887 3.03587 15.5825C3.0467 15.581 3.05754 15.5786 3.06864 15.5774C3.12309 15.5712 3.1778 15.5673 3.23328 15.5673H6.75044C7.55508 15.5673 8.20953 16.222 8.20953 17.0264C8.20953 17.0971 8.20282 17.167 8.19275 17.2359C8.19069 17.2501 8.18863 17.2643 8.1863 17.2785C8.17417 17.3466 8.15843 17.4137 8.13676 17.4793C8.13469 17.4852 8.13211 17.4909 8.1303 17.4968C8.08179 17.638 8.01159 17.7722 7.91972 17.8955C7.91843 17.8973 7.91688 17.8994 7.91559 17.901C7.8823 17.9454 7.84669 17.9872 7.80953 18.0269C7.80798 18.0287 7.80618 18.0305 7.80463 18.0323C7.72901 18.1121 7.64566 18.1817 7.55637 18.2416C7.54063 18.2522 7.52411 18.2612 7.50785 18.271C7.48101 18.2875 7.45366 18.3038 7.42579 18.3185C7.40411 18.3299 7.38166 18.3402 7.35947 18.3508C7.33521 18.3619 7.31069 18.3727 7.28592 18.3825C7.26243 18.3918 7.23843 18.4006 7.21443 18.4088C7.18811 18.4176 7.16153 18.4253 7.13469 18.4326C7.11173 18.4388 7.08876 18.4452 7.06527 18.4504C7.03353 18.4573 7.00102 18.4625 6.96876 18.4674C6.9494 18.4703 6.93031 18.4741 6.91069 18.4762C6.85779 18.4819 6.80437 18.4855 6.75044 18.4855H3.23328C2.4289 18.4857 1.77419 17.831 1.77419 17.0264ZM17.746 18.4857H8.43869C8.44411 18.4798 8.44901 18.4733 8.45417 18.4674C8.46398 18.4558 8.47404 18.4444 8.48359 18.4326C8.48463 18.4318 8.48514 18.4305 8.48617 18.4297C8.5125 18.4078 8.5365 18.3828 8.55663 18.3536L14.6072 9.56266L14.706 9.57557C14.7228 9.57763 14.7396 9.57892 14.7564 9.57892H23.8763L17.746 18.4857Z" stroke="#B1B1B3" stroke-width="0.6" mask="url(#path-2-outside-1_7300_14883)"/>
</svg>