<svg width="25" height="15" viewBox="0 0 25 15" fill="none" xmlns="http://www.w3.org/2000/svg">
	<path d="M0.906947 9.02C0.84816 9.68542 1.16408 10.3255 1.75722 10.9097C2.35031 11.4938 3.22932 12.0316 4.32343 12.4979L4.36264 12.4059L4.32343 12.4979C6.34859 13.3611 9.17616 14.031 12.3269 14.3057C12.327 14.3057 12.3271 14.3057 12.3272 14.3057L12.3592 14.3086L12.3596 14.3087C15.5093 14.5804 18.4101 14.4078 20.5562 13.9068L20.5562 13.9068C21.7158 13.6357 22.6758 13.2574 23.3623 12.7842C24.0488 12.311 24.472 11.7351 24.5304 11.0694C24.6128 10.133 23.9758 9.25934 22.8617 8.51418C21.876 7.85495 20.468 7.25855 18.7839 6.78461C18.6533 6.06626 18.5255 5.417 18.4007 4.83744L18.4007 4.83739C18.1223 3.54796 17.8536 2.59352 17.5944 1.98032C17.5587 1.88785 17.4989 1.80309 17.4172 1.73596C16.3042 0.821261 14.9636 0.295494 13.5884 0.17606L13.5884 0.176057C12.2144 0.0572138 10.8027 0.344096 9.54639 1.05334L9.54631 1.05338C9.46579 1.09892 9.39463 1.16353 9.34055 1.24594L9.34047 1.24605C8.97425 1.80567 8.53872 2.7049 8.03492 3.93722C7.81102 4.48451 7.57163 5.10262 7.31623 5.79063C5.57391 5.96755 4.08283 6.31201 2.99732 6.79125C1.76984 7.33305 0.989331 8.08363 0.906947 9.02ZM0.906947 9.02L1.00656 9.0288L0.906943 9.02003C0.906944 9.02002 0.906945 9.02001 0.906947 9.02ZM9.14358 4.38393L9.14358 4.38392C9.48061 3.55962 9.77773 2.9051 10.0353 2.41999C11.0441 3.01124 12.1619 3.36059 13.3002 3.45915C14.4385 3.5577 15.5993 3.4063 16.696 2.9979C16.865 3.52046 17.0434 4.21611 17.231 5.08468C17.3944 5.84275 17.564 6.73056 17.7395 7.74828C16.1397 8.02452 14.5134 8.0915 12.9026 7.95167C11.2947 7.81213 9.70507 7.46636 8.17654 6.91793C8.52623 5.95057 8.84839 5.1057 9.14358 4.38393ZM12.7993 9.1366L12.8074 9.04301L12.7993 9.1366C14.5027 9.28433 16.2292 9.2126 17.9345 8.9184L18.0089 9.38453C16.2769 9.81608 14.4954 9.9522 12.7397 9.80004C10.9849 9.64789 9.25482 9.20666 7.62416 8.48326L7.77881 8.03777C9.40567 8.62082 11.0938 8.98858 12.7993 9.1366ZM19.0115 8.0914C20.3331 8.50116 21.4224 8.98395 22.1933 9.49958C22.5857 9.76211 22.8841 10.0228 23.0782 10.2733C23.2725 10.5242 23.3561 10.7565 23.3376 10.9666L23.3376 10.9666C23.3079 11.3043 23.03 11.64 22.4974 11.9519C21.9694 12.2611 21.2147 12.5323 20.2845 12.7497C18.258 13.2232 15.4846 13.3857 12.447 13.1223L12.4441 13.122L12.4437 13.122C9.4088 12.8585 6.70767 12.2202 4.79529 11.4054C3.91694 11.0311 3.22108 10.6339 2.75506 10.2383C2.28511 9.83932 2.07006 9.46066 2.0998 9.12287L2.09981 9.12286C2.11831 8.91242 2.24132 8.69786 2.47659 8.48418C2.7116 8.27073 3.051 8.06543 3.48331 7.87459L3.48332 7.87459C4.33333 7.49931 5.49168 7.21126 6.86508 7.03553C6.69233 7.52159 6.51356 8.03536 6.32856 8.57769C6.21408 8.8646 6.34027 9.19452 6.62328 9.33123C8.5244 10.2507 10.5644 10.8054 12.6364 10.985C14.7004 11.1639 16.7987 10.971 18.826 10.3975C19.1224 10.3252 19.3204 10.0385 19.2744 9.73203L19.2743 9.73162C19.1854 9.15569 19.0982 8.60916 19.0115 8.0914ZM13.4035 2.27421C12.6146 2.20565 11.8381 1.99537 11.1145 1.64756C11.8828 1.38632 12.6912 1.29223 13.4852 1.36099C14.278 1.42975 15.057 1.66156 15.7678 2.05131C14.9941 2.26936 14.1928 2.34279 13.4035 2.27421Z" fill="#B1B1B3" stroke="#B1B1B3" stroke-width="0.2"/>
</svg>