<svg width="34" height="33" viewBox="0 0 34 33" fill="none" xmlns="http://www.w3.org/2000/svg">
	<path d="M21.1213 32.0088L21.0312 32.1884L21.2288 32.152C21.5673 32.0898 21.9115 32.0288 22.2594 31.9672C24.1789 31.6272 26.2095 31.2677 28.0099 30.5581C30.1413 29.7181 31.9636 28.383 32.9131 25.9998C33.0551 25.6433 33.111 25.0362 33.0982 24.2589C33.0854 23.4768 33.0025 22.5079 32.8574 21.4182C32.5673 19.2386 32.0276 16.5688 31.2975 13.9302C30.5675 11.2922 29.6461 8.68139 28.5912 6.62147C28.0638 5.59155 27.5016 4.69647 26.9112 4.00395C26.3243 3.31552 25.7041 2.82081 25.0564 2.59813C24.3979 2.22504 23.7176 2.17838 23.0377 2.13176C22.9987 2.12909 22.9598 2.12642 22.9209 2.12369C22.1953 2.07278 21.4612 2.00121 20.6954 1.54348L20.6954 1.54346C20.2782 1.29426 19.7036 1.12417 19.0473 1.02172C18.3895 0.919043 17.6428 0.883268 16.8764 0.907079C15.345 0.954651 13.7237 1.24051 12.565 1.71546C7.21278 3.9086 4.44865 9.71691 3.50056 15.1116C1.54477 17.8242 0.22732 21.3258 1.26228 24.6864C2.1666 27.623 4.27722 29.344 6.77041 30.4039C9.2603 31.4624 12.1407 31.8654 14.6006 32.1645L14.7882 32.1873L14.7015 32.0193C14.5939 31.811 14.4864 31.6036 14.3794 31.3971C13.68 30.0478 13.0018 28.7393 12.4533 27.4777C11.821 26.023 11.3647 24.6381 11.2478 23.3345C11.1311 22.0334 11.3526 20.8143 12.0758 19.6862C12.7855 18.579 13.9837 17.551 15.84 16.62C15.8776 16.8588 15.8607 17.1674 15.8025 17.5232C15.7343 17.9397 15.6115 18.4094 15.4653 18.8868C15.266 19.5373 15.0261 20.1935 14.8247 20.7446C14.7297 21.0045 14.6432 21.2411 14.5736 21.4425L14.5124 21.6197L14.6937 21.5719C15.033 21.4823 15.3652 21.397 15.6902 21.3136C18.8307 20.507 21.2949 19.8742 23.0389 17.2736C23.2046 17.6473 23.3859 18.0242 23.5774 18.4219C23.7056 18.6882 23.8383 18.964 23.9739 19.2544L24.0645 19.2122L23.9739 19.2544C24.9468 21.3393 24.7386 23.5274 24.0315 25.6994C23.4627 27.4466 22.5753 29.1721 21.7296 30.8166C21.5226 31.2191 21.3181 31.6168 21.1213 32.0088ZM23.4688 30.3553C26.1761 24.9103 26.3569 22.18 25.754 20.1041C25.5212 19.3023 25.171 18.5992 24.8147 17.8836C24.7081 17.6696 24.6009 17.4544 24.4962 17.2352C24.0399 16.2799 23.6209 15.2322 23.4629 13.8225L23.2707 13.7964C22.4319 15.8861 21.6494 17.1125 20.6225 17.9409C19.6276 18.7434 18.3937 19.1807 16.625 19.6542C16.9398 18.7281 17.1928 17.8537 17.2253 17.0744C17.2602 16.2399 17.0424 15.5057 16.3755 14.9339L16.328 14.8932L16.2705 14.9182C12.1088 16.7281 10.2643 18.9646 9.92324 21.624C9.58972 24.2249 10.7002 27.2017 12.403 30.5254C7.26198 29.8615 4.13239 27.8129 2.88363 25.1327C1.62028 22.4212 2.26389 19.0236 4.76779 15.6794L4.78247 15.6598L4.78643 15.6356C5.54454 11.0048 7.42365 7.216 10.0759 4.8669C12.7219 2.52337 16.1431 1.60673 20.0135 2.72058C21.0458 3.33462 21.9134 3.44036 22.6517 3.48233C22.7491 3.48786 22.8436 3.49235 22.9354 3.4967C23.549 3.52582 24.0432 3.54928 24.4865 3.8434L24.501 3.853L24.5178 3.85716C24.8916 3.94942 25.296 4.23745 25.7185 4.70338C26.1395 5.16753 26.5699 5.79881 26.9976 6.56057C27.8528 8.08378 28.6904 10.1168 29.4154 12.3469C30.8638 16.8025 31.8559 22.0233 31.649 25.5074C30.3557 28.7213 27.1209 29.672 23.4688 30.3553Z" fill="#B1B1B3" stroke="#B1B1B3" stroke-width="0.2"/>
</svg>