<svg width="24" height="26" viewBox="0 0 24 26" fill="none" xmlns="http://www.w3.org/2000/svg">
	<mask id="path-1-outside-1_7300_27274" maskUnits="userSpaceOnUse" x="1.25" y="0" width="21" height="26" fill="black">
	<rect fill="white" x="1.25" width="21" height="26"/>
	<path d="M20.8184 6.0208C20.6363 5.69705 20.3453 5.46649 19.9958 5.36927C19.7115 5.29209 19.4253 5.31314 19.1712 5.41037L19.3679 4.65861C19.4603 4.29978 19.4126 3.92488 19.2306 3.60113C19.0486 3.27738 18.7575 3.04683 18.408 2.9496C18.1237 2.87242 17.8375 2.89347 17.5835 2.9907L17.6428 2.75715C17.8375 2.01342 17.4063 1.24563 16.683 1.04815C15.9607 0.847678 15.215 1.29172 15.0232 2.03647L15.0086 2.09059C14.8343 1.87208 14.5978 1.7087 14.3135 1.62851C13.5912 1.42804 12.8455 1.87208 12.6537 2.61683L11.393 7.45604V6.78146C11.393 6.01167 10.7846 5.3852 10.0369 5.3852C9.74295 5.3852 9.47136 5.48243 9.24939 5.6448V5.58867C9.24939 4.81887 8.64096 4.19241 7.89332 4.19241C7.14568 4.19241 6.53725 4.81887 6.53725 5.58867V5.83024C6.3153 5.66586 6.04369 5.57064 5.74969 5.57064C5.00205 5.57064 4.39363 6.1971 4.39363 6.9669V7.7447C4.17167 7.58032 3.90006 7.4851 3.60607 7.4851C2.85843 7.4851 2.25 8.11156 2.25 8.88136V14.3831C2.25973 16.5873 2.27531 19.6072 2.91296 21.5068C3.06969 21.9739 3.05995 22.4871 3.05022 23.0314C3.04535 23.2319 3.04243 23.4363 3.0473 23.6398C3.05703 24.0758 3.34129 24.4457 3.75209 24.556C4.84823 24.8506 6.01739 25 7.22836 25C8.4423 25 9.6134 24.8486 10.7124 24.554C11.1134 24.4457 11.3899 24.0969 11.4152 23.6639L11.5622 21.165C11.7365 21.2211 11.9136 21.2733 12.0908 21.3244C13.26 21.6481 14.4281 21.8145 15.5623 21.8225H15.5672C15.9887 21.8225 16.3518 21.5429 16.4716 21.1249C16.5261 20.9295 16.5767 20.73 16.6215 20.5345C16.749 20.0063 16.8678 19.5081 17.1374 19.0972C18.2316 17.4323 19.0036 14.5194 19.5673 12.3925L20.9506 7.08111C21.0479 6.72128 21.0004 6.34655 20.8184 6.0208ZM2.82347 14.3803V8.88137C2.82347 8.43533 3.17783 8.07047 3.61103 8.07047C4.04424 8.07047 4.39859 8.43533 4.39859 8.88137V14.0875C4.39859 14.2489 4.52612 14.3802 4.68285 14.3802C4.83958 14.3802 4.9671 14.2489 4.9671 14.0875L4.96613 6.96483C4.96613 6.51878 5.32048 6.15392 5.75369 6.15392C6.18689 6.15392 6.54125 6.51878 6.54125 6.96483V14.0855C6.54125 14.2468 6.66878 14.3781 6.8255 14.3781C6.98223 14.3781 7.10975 14.2468 7.10975 14.0855V5.58971C7.10975 5.14367 7.46411 4.77881 7.89731 4.77881C8.33052 4.77881 8.68488 5.14367 8.68488 5.58971V14.0885C8.68488 14.2499 8.8124 14.3812 8.96913 14.3812C9.12586 14.3812 9.25338 14.2499 9.25338 14.0885L9.25241 6.78059C9.25241 6.33454 9.60676 5.96969 10.04 5.96969C10.4732 5.96969 10.8275 6.33454 10.8275 6.78059L10.8304 14.5758C10.8304 14.7452 10.8626 15.1612 11.1643 15.3637C11.3211 15.4719 11.5927 15.5431 11.9821 15.2865C11.9918 15.2785 12.0045 15.2715 12.0142 15.2634L13.8015 13.6978C14.2328 13.3209 14.8061 13.3129 15.1624 13.6827C15.3416 13.8672 15.4389 14.1137 15.4389 14.3753C15.4389 14.6369 15.3416 14.8835 15.1624 15.068L12.2409 18.0761C11.3658 18.9772 11.0893 19.6026 11.0143 20.8625L10.9043 22.7198C9.77312 23.0636 8.50953 23.2461 7.23142 23.2461C5.97758 23.2461 4.7393 23.0717 3.62556 22.7409C3.63043 22.2658 3.61096 21.7816 3.45326 21.3145C2.8458 19.5053 2.83319 16.5432 2.82347 14.3803ZM10.5715 23.9848C9.52011 24.2695 8.39574 24.4138 7.23254 24.4138C6.07116 24.4138 4.9497 24.2705 3.89833 23.9878C3.73088 23.9437 3.62185 23.8004 3.61699 23.623C3.61407 23.5308 3.61407 23.4385 3.61407 23.3463C4.74039 23.6621 5.97867 23.8315 7.23064 23.8315C8.48937 23.8315 9.73548 23.6621 10.8667 23.3413L10.8491 23.629C10.8433 23.8054 10.7331 23.9417 10.5715 23.9848ZM15.5704 21.2343H15.5675C14.4831 21.2263 13.3645 21.0679 12.24 20.7572C12.0278 20.6981 11.8166 20.6339 11.6073 20.5648C11.6297 20.3493 11.6598 20.1598 11.7017 19.9844C11.9285 20.0586 12.1553 20.1308 12.3841 20.1949C13.5708 20.5237 14.7886 20.6931 15.9354 20.6931C15.9549 20.6931 15.9753 20.6901 15.9977 20.6901C15.9753 20.7803 15.9529 20.8695 15.9257 20.9567C15.8838 21.1271 15.7428 21.2343 15.5704 21.2343ZM20.4047 6.92891L19.0213 12.2403C18.4684 14.3261 17.7101 17.1849 16.6684 18.7705C16.3998 19.1784 16.2596 19.6405 16.1447 20.1026C14.9862 20.1256 13.745 19.9643 12.5341 19.6305C12.3219 19.5713 12.1155 19.5072 11.9062 19.441C12.0658 19.1333 12.2975 18.8457 12.6392 18.4938L15.5598 15.4867C15.846 15.1921 16.0037 14.7991 16.0037 14.3812C16.0037 13.9632 15.8469 13.5702 15.5598 13.2756C14.9961 12.6952 14.0791 12.6882 13.4288 13.2605L11.659 14.8102C11.5441 14.8823 11.4818 14.8843 11.4721 14.8793C11.4448 14.8613 11.3952 14.751 11.3952 14.5786L11.3922 9.71323L13.202 2.7699C13.3139 2.33889 13.7481 2.08229 14.1667 2.19756C14.5853 2.31283 14.8345 2.75987 14.7225 3.19088L12.8856 10.2504C12.8457 10.4068 12.9352 10.5662 13.0871 10.6093C13.1124 10.6173 13.1367 10.6193 13.162 10.6193C13.2867 10.6193 13.4015 10.5321 13.4366 10.4008L15.5724 2.19268C15.6844 1.76167 16.1185 1.50507 16.5371 1.62034C16.9557 1.73561 17.2049 2.18265 17.093 2.61366L14.9572 10.8218C14.9173 10.9781 15.0068 11.1375 15.1587 11.1806C15.184 11.1886 15.2083 11.1906 15.2336 11.1906C15.3582 11.1906 15.4731 11.1034 15.5082 10.9721L17.2974 4.09293C17.4094 3.66192 17.8436 3.40532 18.2622 3.52059C18.4637 3.57672 18.6331 3.71003 18.7382 3.89748C18.8434 4.08492 18.8726 4.30242 18.818 4.51091L17.0288 11.3901C16.9889 11.5465 17.0784 11.7058 17.2303 11.7489C17.2556 11.7569 17.2799 11.7589 17.3052 11.7589C17.4298 11.7589 17.5447 11.6717 17.5798 11.5404L18.8881 6.51056V6.50756C19.0001 6.07655 19.4343 5.81995 19.8529 5.93521C20.0544 5.99134 20.2238 6.12465 20.3289 6.3121C20.4321 6.50255 20.4603 6.72107 20.4048 6.92853L20.4047 6.92891Z"/>
	</mask>
	<path d="M20.8184 6.0208C20.6363 5.69705 20.3453 5.46649 19.9958 5.36927C19.7115 5.29209 19.4253 5.31314 19.1712 5.41037L19.3679 4.65861C19.4603 4.29978 19.4126 3.92488 19.2306 3.60113C19.0486 3.27738 18.7575 3.04683 18.408 2.9496C18.1237 2.87242 17.8375 2.89347 17.5835 2.9907L17.6428 2.75715C17.8375 2.01342 17.4063 1.24563 16.683 1.04815C15.9607 0.847678 15.215 1.29172 15.0232 2.03647L15.0086 2.09059C14.8343 1.87208 14.5978 1.7087 14.3135 1.62851C13.5912 1.42804 12.8455 1.87208 12.6537 2.61683L11.393 7.45604V6.78146C11.393 6.01167 10.7846 5.3852 10.0369 5.3852C9.74295 5.3852 9.47136 5.48243 9.24939 5.6448V5.58867C9.24939 4.81887 8.64096 4.19241 7.89332 4.19241C7.14568 4.19241 6.53725 4.81887 6.53725 5.58867V5.83024C6.3153 5.66586 6.04369 5.57064 5.74969 5.57064C5.00205 5.57064 4.39363 6.1971 4.39363 6.9669V7.7447C4.17167 7.58032 3.90006 7.4851 3.60607 7.4851C2.85843 7.4851 2.25 8.11156 2.25 8.88136V14.3831C2.25973 16.5873 2.27531 19.6072 2.91296 21.5068C3.06969 21.9739 3.05995 22.4871 3.05022 23.0314C3.04535 23.2319 3.04243 23.4363 3.0473 23.6398C3.05703 24.0758 3.34129 24.4457 3.75209 24.556C4.84823 24.8506 6.01739 25 7.22836 25C8.4423 25 9.6134 24.8486 10.7124 24.554C11.1134 24.4457 11.3899 24.0969 11.4152 23.6639L11.5622 21.165C11.7365 21.2211 11.9136 21.2733 12.0908 21.3244C13.26 21.6481 14.4281 21.8145 15.5623 21.8225H15.5672C15.9887 21.8225 16.3518 21.5429 16.4716 21.1249C16.5261 20.9295 16.5767 20.73 16.6215 20.5345C16.749 20.0063 16.8678 19.5081 17.1374 19.0972C18.2316 17.4323 19.0036 14.5194 19.5673 12.3925L20.9506 7.08111C21.0479 6.72128 21.0004 6.34655 20.8184 6.0208ZM2.82347 14.3803V8.88137C2.82347 8.43533 3.17783 8.07047 3.61103 8.07047C4.04424 8.07047 4.39859 8.43533 4.39859 8.88137V14.0875C4.39859 14.2489 4.52612 14.3802 4.68285 14.3802C4.83958 14.3802 4.9671 14.2489 4.9671 14.0875L4.96613 6.96483C4.96613 6.51878 5.32048 6.15392 5.75369 6.15392C6.18689 6.15392 6.54125 6.51878 6.54125 6.96483V14.0855C6.54125 14.2468 6.66878 14.3781 6.8255 14.3781C6.98223 14.3781 7.10975 14.2468 7.10975 14.0855V5.58971C7.10975 5.14367 7.46411 4.77881 7.89731 4.77881C8.33052 4.77881 8.68488 5.14367 8.68488 5.58971V14.0885C8.68488 14.2499 8.8124 14.3812 8.96913 14.3812C9.12586 14.3812 9.25338 14.2499 9.25338 14.0885L9.25241 6.78059C9.25241 6.33454 9.60676 5.96969 10.04 5.96969C10.4732 5.96969 10.8275 6.33454 10.8275 6.78059L10.8304 14.5758C10.8304 14.7452 10.8626 15.1612 11.1643 15.3637C11.3211 15.4719 11.5927 15.5431 11.9821 15.2865C11.9918 15.2785 12.0045 15.2715 12.0142 15.2634L13.8015 13.6978C14.2328 13.3209 14.8061 13.3129 15.1624 13.6827C15.3416 13.8672 15.4389 14.1137 15.4389 14.3753C15.4389 14.6369 15.3416 14.8835 15.1624 15.068L12.2409 18.0761C11.3658 18.9772 11.0893 19.6026 11.0143 20.8625L10.9043 22.7198C9.77312 23.0636 8.50953 23.2461 7.23142 23.2461C5.97758 23.2461 4.7393 23.0717 3.62556 22.7409C3.63043 22.2658 3.61096 21.7816 3.45326 21.3145C2.8458 19.5053 2.83319 16.5432 2.82347 14.3803ZM10.5715 23.9848C9.52011 24.2695 8.39574 24.4138 7.23254 24.4138C6.07116 24.4138 4.9497 24.2705 3.89833 23.9878C3.73088 23.9437 3.62185 23.8004 3.61699 23.623C3.61407 23.5308 3.61407 23.4385 3.61407 23.3463C4.74039 23.6621 5.97867 23.8315 7.23064 23.8315C8.48937 23.8315 9.73548 23.6621 10.8667 23.3413L10.8491 23.629C10.8433 23.8054 10.7331 23.9417 10.5715 23.9848ZM15.5704 21.2343H15.5675C14.4831 21.2263 13.3645 21.0679 12.24 20.7572C12.0278 20.6981 11.8166 20.6339 11.6073 20.5648C11.6297 20.3493 11.6598 20.1598 11.7017 19.9844C11.9285 20.0586 12.1553 20.1308 12.3841 20.1949C13.5708 20.5237 14.7886 20.6931 15.9354 20.6931C15.9549 20.6931 15.9753 20.6901 15.9977 20.6901C15.9753 20.7803 15.9529 20.8695 15.9257 20.9567C15.8838 21.1271 15.7428 21.2343 15.5704 21.2343ZM20.4047 6.92891L19.0213 12.2403C18.4684 14.3261 17.7101 17.1849 16.6684 18.7705C16.3998 19.1784 16.2596 19.6405 16.1447 20.1026C14.9862 20.1256 13.745 19.9643 12.5341 19.6305C12.3219 19.5713 12.1155 19.5072 11.9062 19.441C12.0658 19.1333 12.2975 18.8457 12.6392 18.4938L15.5598 15.4867C15.846 15.1921 16.0037 14.7991 16.0037 14.3812C16.0037 13.9632 15.8469 13.5702 15.5598 13.2756C14.9961 12.6952 14.0791 12.6882 13.4288 13.2605L11.659 14.8102C11.5441 14.8823 11.4818 14.8843 11.4721 14.8793C11.4448 14.8613 11.3952 14.751 11.3952 14.5786L11.3922 9.71323L13.202 2.7699C13.3139 2.33889 13.7481 2.08229 14.1667 2.19756C14.5853 2.31283 14.8345 2.75987 14.7225 3.19088L12.8856 10.2504C12.8457 10.4068 12.9352 10.5662 13.0871 10.6093C13.1124 10.6173 13.1367 10.6193 13.162 10.6193C13.2867 10.6193 13.4015 10.5321 13.4366 10.4008L15.5724 2.19268C15.6844 1.76167 16.1185 1.50507 16.5371 1.62034C16.9557 1.73561 17.2049 2.18265 17.093 2.61366L14.9572 10.8218C14.9173 10.9781 15.0068 11.1375 15.1587 11.1806C15.184 11.1886 15.2083 11.1906 15.2336 11.1906C15.3582 11.1906 15.4731 11.1034 15.5082 10.9721L17.2974 4.09293C17.4094 3.66192 17.8436 3.40532 18.2622 3.52059C18.4637 3.57672 18.6331 3.71003 18.7382 3.89748C18.8434 4.08492 18.8726 4.30242 18.818 4.51091L17.0288 11.3901C16.9889 11.5465 17.0784 11.7058 17.2303 11.7489C17.2556 11.7569 17.2799 11.7589 17.3052 11.7589C17.4298 11.7589 17.5447 11.6717 17.5798 11.5404L18.8881 6.51056V6.50756C19.0001 6.07655 19.4343 5.81995 19.8529 5.93521C20.0544 5.99134 20.2238 6.12465 20.3289 6.3121C20.4321 6.50255 20.4603 6.72107 20.4048 6.92853L20.4047 6.92891Z" fill="#B1B1B3"/>
	<path d="M20.8184 6.0208C20.6363 5.69705 20.3453 5.46649 19.9958 5.36927C19.7115 5.29209 19.4253 5.31314 19.1712 5.41037L19.3679 4.65861C19.4603 4.29978 19.4126 3.92488 19.2306 3.60113C19.0486 3.27738 18.7575 3.04683 18.408 2.9496C18.1237 2.87242 17.8375 2.89347 17.5835 2.9907L17.6428 2.75715C17.8375 2.01342 17.4063 1.24563 16.683 1.04815C15.9607 0.847678 15.215 1.29172 15.0232 2.03647L15.0086 2.09059C14.8343 1.87208 14.5978 1.7087 14.3135 1.62851C13.5912 1.42804 12.8455 1.87208 12.6537 2.61683L11.393 7.45604V6.78146C11.393 6.01167 10.7846 5.3852 10.0369 5.3852C9.74295 5.3852 9.47136 5.48243 9.24939 5.6448V5.58867C9.24939 4.81887 8.64096 4.19241 7.89332 4.19241C7.14568 4.19241 6.53725 4.81887 6.53725 5.58867V5.83024C6.3153 5.66586 6.04369 5.57064 5.74969 5.57064C5.00205 5.57064 4.39363 6.1971 4.39363 6.9669V7.7447C4.17167 7.58032 3.90006 7.4851 3.60607 7.4851C2.85843 7.4851 2.25 8.11156 2.25 8.88136V14.3831C2.25973 16.5873 2.27531 19.6072 2.91296 21.5068C3.06969 21.9739 3.05995 22.4871 3.05022 23.0314C3.04535 23.2319 3.04243 23.4363 3.0473 23.6398C3.05703 24.0758 3.34129 24.4457 3.75209 24.556C4.84823 24.8506 6.01739 25 7.22836 25C8.4423 25 9.6134 24.8486 10.7124 24.554C11.1134 24.4457 11.3899 24.0969 11.4152 23.6639L11.5622 21.165C11.7365 21.2211 11.9136 21.2733 12.0908 21.3244C13.26 21.6481 14.4281 21.8145 15.5623 21.8225H15.5672C15.9887 21.8225 16.3518 21.5429 16.4716 21.1249C16.5261 20.9295 16.5767 20.73 16.6215 20.5345C16.749 20.0063 16.8678 19.5081 17.1374 19.0972C18.2316 17.4323 19.0036 14.5194 19.5673 12.3925L20.9506 7.08111C21.0479 6.72128 21.0004 6.34655 20.8184 6.0208ZM2.82347 14.3803V8.88137C2.82347 8.43533 3.17783 8.07047 3.61103 8.07047C4.04424 8.07047 4.39859 8.43533 4.39859 8.88137V14.0875C4.39859 14.2489 4.52612 14.3802 4.68285 14.3802C4.83958 14.3802 4.9671 14.2489 4.9671 14.0875L4.96613 6.96483C4.96613 6.51878 5.32048 6.15392 5.75369 6.15392C6.18689 6.15392 6.54125 6.51878 6.54125 6.96483V14.0855C6.54125 14.2468 6.66878 14.3781 6.8255 14.3781C6.98223 14.3781 7.10975 14.2468 7.10975 14.0855V5.58971C7.10975 5.14367 7.46411 4.77881 7.89731 4.77881C8.33052 4.77881 8.68488 5.14367 8.68488 5.58971V14.0885C8.68488 14.2499 8.8124 14.3812 8.96913 14.3812C9.12586 14.3812 9.25338 14.2499 9.25338 14.0885L9.25241 6.78059C9.25241 6.33454 9.60676 5.96969 10.04 5.96969C10.4732 5.96969 10.8275 6.33454 10.8275 6.78059L10.8304 14.5758C10.8304 14.7452 10.8626 15.1612 11.1643 15.3637C11.3211 15.4719 11.5927 15.5431 11.9821 15.2865C11.9918 15.2785 12.0045 15.2715 12.0142 15.2634L13.8015 13.6978C14.2328 13.3209 14.8061 13.3129 15.1624 13.6827C15.3416 13.8672 15.4389 14.1137 15.4389 14.3753C15.4389 14.6369 15.3416 14.8835 15.1624 15.068L12.2409 18.0761C11.3658 18.9772 11.0893 19.6026 11.0143 20.8625L10.9043 22.7198C9.77312 23.0636 8.50953 23.2461 7.23142 23.2461C5.97758 23.2461 4.7393 23.0717 3.62556 22.7409C3.63043 22.2658 3.61096 21.7816 3.45326 21.3145C2.8458 19.5053 2.83319 16.5432 2.82347 14.3803ZM10.5715 23.9848C9.52011 24.2695 8.39574 24.4138 7.23254 24.4138C6.07116 24.4138 4.9497 24.2705 3.89833 23.9878C3.73088 23.9437 3.62185 23.8004 3.61699 23.623C3.61407 23.5308 3.61407 23.4385 3.61407 23.3463C4.74039 23.6621 5.97867 23.8315 7.23064 23.8315C8.48937 23.8315 9.73548 23.6621 10.8667 23.3413L10.8491 23.629C10.8433 23.8054 10.7331 23.9417 10.5715 23.9848ZM15.5704 21.2343H15.5675C14.4831 21.2263 13.3645 21.0679 12.24 20.7572C12.0278 20.6981 11.8166 20.6339 11.6073 20.5648C11.6297 20.3493 11.6598 20.1598 11.7017 19.9844C11.9285 20.0586 12.1553 20.1308 12.3841 20.1949C13.5708 20.5237 14.7886 20.6931 15.9354 20.6931C15.9549 20.6931 15.9753 20.6901 15.9977 20.6901C15.9753 20.7803 15.9529 20.8695 15.9257 20.9567C15.8838 21.1271 15.7428 21.2343 15.5704 21.2343ZM20.4047 6.92891L19.0213 12.2403C18.4684 14.3261 17.7101 17.1849 16.6684 18.7705C16.3998 19.1784 16.2596 19.6405 16.1447 20.1026C14.9862 20.1256 13.745 19.9643 12.5341 19.6305C12.3219 19.5713 12.1155 19.5072 11.9062 19.441C12.0658 19.1333 12.2975 18.8457 12.6392 18.4938L15.5598 15.4867C15.846 15.1921 16.0037 14.7991 16.0037 14.3812C16.0037 13.9632 15.8469 13.5702 15.5598 13.2756C14.9961 12.6952 14.0791 12.6882 13.4288 13.2605L11.659 14.8102C11.5441 14.8823 11.4818 14.8843 11.4721 14.8793C11.4448 14.8613 11.3952 14.751 11.3952 14.5786L11.3922 9.71323L13.202 2.7699C13.3139 2.33889 13.7481 2.08229 14.1667 2.19756C14.5853 2.31283 14.8345 2.75987 14.7225 3.19088L12.8856 10.2504C12.8457 10.4068 12.9352 10.5662 13.0871 10.6093C13.1124 10.6173 13.1367 10.6193 13.162 10.6193C13.2867 10.6193 13.4015 10.5321 13.4366 10.4008L15.5724 2.19268C15.6844 1.76167 16.1185 1.50507 16.5371 1.62034C16.9557 1.73561 17.2049 2.18265 17.093 2.61366L14.9572 10.8218C14.9173 10.9781 15.0068 11.1375 15.1587 11.1806C15.184 11.1886 15.2083 11.1906 15.2336 11.1906C15.3582 11.1906 15.4731 11.1034 15.5082 10.9721L17.2974 4.09293C17.4094 3.66192 17.8436 3.40532 18.2622 3.52059C18.4637 3.57672 18.6331 3.71003 18.7382 3.89748C18.8434 4.08492 18.8726 4.30242 18.818 4.51091L17.0288 11.3901C16.9889 11.5465 17.0784 11.7058 17.2303 11.7489C17.2556 11.7569 17.2799 11.7589 17.3052 11.7589C17.4298 11.7589 17.5447 11.6717 17.5798 11.5404L18.8881 6.51056V6.50756C19.0001 6.07655 19.4343 5.81995 19.8529 5.93521C20.0544 5.99134 20.2238 6.12465 20.3289 6.3121C20.4321 6.50255 20.4603 6.72107 20.4048 6.92853L20.4047 6.92891Z" stroke="#B1B1B3" stroke-width="0.6" mask="url(#path-1-outside-1_7300_27274)"/>
</svg>