<svg width="26" height="24" viewBox="0 0 26 24" fill="none" xmlns="http://www.w3.org/2000/svg">
	<mask id="path-1-outside-1_7300_7662" maskUnits="userSpaceOnUse" x="0" y="1.25" width="26" height="21" fill="black">
	<rect fill="white" y="1.25" width="26" height="21"/>
	<path d="M8.70101 14.9129C9.30615 14.491 9.97695 14.2625 10.7113 14.226C11.4247 14.1909 12.1976 14.3367 13.0287 14.6634C15.3921 13.8643 17.4022 13.4956 19.0554 13.5587C20.6667 13.6204 21.9458 14.0942 22.8926 14.9788C23.2645 14.6298 23.5603 14.212 23.779 13.7283C24.0175 13.1998 24.1675 12.5858 24.2269 11.8904C23.9654 10.8908 22.5531 10.0861 20.5054 9.76649C18.3681 9.43283 15.5725 9.65994 12.6685 10.7675C12.3727 10.8796 12.0654 11.0072 11.7467 11.1488L11.7144 11.16C9.49171 11.9913 7.59293 12.2829 6.02107 12.0348C4.4181 11.7825 3.14854 10.9722 2.21316 9.60529L2.20795 9.59828L2.20379 9.59127L2.20066 9.58706L2.19962 9.58426L2.19129 9.57024C1.96943 9.24359 1.76738 8.88329 1.58614 8.49637L1.54136 8.39964C1.51636 9.42305 1.55281 10.3497 1.6528 11.1824C1.8507 12.8381 2.2965 14.1125 2.98913 15.0039C3.68075 15.8941 4.62752 16.4142 5.82834 16.5629C6.56368 16.654 7.39382 16.6077 8.31768 16.4241C8.34372 16.2376 8.37288 16.0511 8.40413 15.8717C8.44996 15.6039 8.501 15.3488 8.55203 15.1329C8.57703 15.0277 8.63432 14.9478 8.7041 14.91L8.70101 14.9129ZM4.539 6.19871C4.37859 6.19871 4.23902 6.08376 4.14423 5.90151C4.06924 5.75571 4.02341 5.56224 4.02341 5.35617C4.02341 5.14869 4.06924 4.95382 4.14423 4.80944L4.1609 4.78C4.25464 4.61457 4.38692 4.51363 4.539 4.51363C4.6994 4.51363 4.83897 4.62719 4.93272 4.80944C5.00876 4.95383 5.05458 5.1487 5.05458 5.35617C5.05458 5.56226 5.00771 5.75573 4.93376 5.90151C4.83898 6.08516 4.69941 6.19871 4.539 6.19871ZM6.91795 5.86366C6.75755 5.86366 6.61798 5.7487 6.52319 5.56645C6.44819 5.42205 6.40236 5.22719 6.40236 5.02112C6.40236 4.81363 6.44819 4.62156 6.52319 4.47578C6.61797 4.29213 6.75754 4.17858 6.91795 4.17858C7.07835 4.17858 7.21792 4.29213 7.31167 4.47438C7.38771 4.61878 7.43354 4.81364 7.43354 5.02112C7.43354 5.2272 7.38667 5.42067 7.31271 5.56645C7.21793 5.7501 7.07836 5.86366 6.91795 5.86366ZM9.84994 5.8258C9.68954 5.8258 9.54997 5.71085 9.45518 5.5286C9.38019 5.3828 9.33436 5.18934 9.33436 4.98326C9.33436 4.77578 9.38019 4.58091 9.45518 4.43653L9.47184 4.40709C9.56559 4.24166 9.69787 4.14072 9.84994 4.14072C10.0103 4.14072 10.1499 4.25428 10.2437 4.43653C10.3197 4.58093 10.3655 4.77579 10.3655 4.98326C10.3655 5.18935 10.3187 5.38282 10.2447 5.5286C10.1499 5.71225 10.0104 5.8258 9.84994 5.8258ZM11.9904 8.30861C11.9654 8.32403 11.9393 8.33244 11.9133 8.33665C11.9008 8.33945 11.8872 8.33945 11.8747 8.33805H11.8685C11.8445 8.33665 11.8216 8.33104 11.7998 8.32123L11.7935 8.31843C9.40831 7.37354 7.44297 7.01185 5.90018 7.23475C4.48989 7.43803 3.43687 8.13478 2.74314 9.32221C3.57536 10.4381 4.68776 11.1083 6.0815 11.3269C7.5876 11.5639 9.41879 11.2793 11.5717 10.4746L11.58 10.4704C11.8852 10.3358 12.2008 10.2054 12.5257 10.0806C15.5004 8.94508 18.37 8.71377 20.5666 9.05583C22.8383 9.41052 24.4257 10.4087 24.739 11.6872L24.7515 11.7461V11.7489L24.7536 11.7559V11.7573L24.7546 11.7643L24.7557 11.7671L24.7567 11.7741L24.7578 11.7769L24.7588 11.784V11.7868L24.7598 11.7924L24.7609 11.7952L24.7619 11.8008V11.8036C25.5337 16.8449 24.3672 19.5 22.157 20.7744C20.0166 22.0081 16.8961 21.8904 13.6359 21.4095C12.3631 21.5146 11.3174 21.4992 10.5018 21.366C9.65498 21.2272 9.03733 20.9525 8.65091 20.5459L8.6405 20.5347L8.63945 20.5333L8.63529 20.5291L8.6332 20.5277L8.63008 20.5235L8.628 20.522L8.603 20.4884L8.60092 20.4842L8.59883 20.4814L8.59675 20.4772L8.59467 20.4744L8.59258 20.4702L8.59154 20.4674L8.58946 20.4632L8.58842 20.4604L8.58633 20.4562L8.58529 20.4534L8.58321 20.4492L8.58217 20.4463L8.58008 20.4421L8.57904 20.4393L8.57696 20.4351L8.57592 20.4323L8.57384 20.4281L8.57279 20.4239L8.56654 20.4113L8.56446 20.4029L8.56238 20.3987L8.55196 20.3706L8.54988 20.3636L8.54884 20.3622L8.54467 20.3454C8.4551 19.9711 8.39364 19.6122 8.34886 19.2435L8.34677 19.2323C8.31448 18.9743 8.29053 18.715 8.27074 18.4472C8.15825 18.4402 8.06659 18.3953 7.99682 18.3266C7.91036 18.2411 7.85829 18.1262 7.83745 17.993C7.82183 17.8893 7.82704 17.7785 7.85412 17.6677L7.86141 17.6397C7.90724 17.4771 8.00827 17.3075 8.16034 17.1827C7.28648 17.3383 6.49175 17.372 5.77723 17.2836C4.4513 17.1182 3.39932 16.5336 2.61912 15.5312C1.84106 14.5303 1.34215 13.1185 1.1255 11.3031C0.97968 10.0835 0.960933 8.67735 1.06926 7.08618C1.06926 7.06935 1.0703 7.05393 1.07238 7.03711C1.08592 6.91234 1.10571 6.78056 1.13071 6.64739C1.4286 5.02538 2.42955 3.70897 4.06377 2.95332C5.64488 2.22151 7.83622 2.01123 10.5685 2.55937C11.3622 2.71779 12.2038 2.94349 13.0933 3.23929L13.0995 3.24069L13.1058 3.24349L13.1099 3.24489L13.112 3.2463L13.1162 3.2477L13.1183 3.2491L13.1224 3.2505L13.1287 3.25471H13.1308L13.136 3.25751H13.137L13.1422 3.26032H13.1433L13.1485 3.26312H13.1495L13.1599 3.26873L13.186 3.28976L13.187 3.29116L13.1922 3.29536L13.1933 3.29677L13.1985 3.30097L13.1995 3.30237L13.2037 3.30658L13.2047 3.30798L13.2089 3.31219L13.2099 3.31359L13.2141 3.31779L13.2151 3.3192L13.2193 3.3234L13.2204 3.3248L13.2245 3.32901L13.2256 3.33041L13.2297 3.33462L13.2308 3.33602L13.2349 3.34022L13.236 3.34163L13.2401 3.34583L13.2506 3.35985L13.2537 3.36546L13.2547 3.36686L13.2578 3.37247L13.2589 3.37387C13.2703 3.3949 13.2808 3.41593 13.2891 3.43976C13.2943 3.45518 13.2995 3.472 13.3026 3.48742L13.3037 3.49023L13.3047 3.49584L13.3058 3.49864L13.3068 3.50425L13.3078 3.50705L13.6203 5.12206C13.7224 5.63517 13.8213 6.11041 13.9141 6.54783C13.9474 6.70625 13.8953 6.87167 13.7953 6.95298C13.5391 7.20252 13.2641 7.43946 12.9704 7.66096C12.6673 7.89088 12.3413 8.10958 11.9944 8.31425L11.9904 8.30861ZM11.8633 7.59923C12.1643 7.41698 12.4455 7.2263 12.7059 7.03006C12.9351 6.85623 13.1486 6.67818 13.3454 6.49593C13.2652 6.1146 13.183 5.71645 13.1007 5.3015L12.8268 3.88417C12.0102 3.6178 11.23 3.41312 10.4895 3.26451C7.84492 2.73317 5.74005 2.93085 4.23379 3.6276C2.7808 4.30052 1.89755 5.43468 1.64446 6.81415C1.63092 6.88565 1.61946 6.96276 1.60904 7.04267C1.73507 7.42819 1.87569 7.78848 2.03191 8.11934C2.14128 8.35206 2.25689 8.57355 2.38084 8.77963C3.16514 7.49268 4.31919 6.73983 5.84105 6.51973C7.4357 6.28981 9.44392 6.6501 11.8613 7.5992L11.8633 7.59923ZM13.9693 15.0983L14.0287 15.1291L14.0412 15.1347L14.0527 15.1417H14.0537L14.06 15.1459C14.0724 15.1543 14.0849 15.1655 14.0964 15.1768L14.1006 15.1824L14.1037 15.1852L14.1058 15.188L14.1089 15.1908L14.111 15.1936L14.1235 15.209L14.1256 15.2118L14.1287 15.2146L14.1412 15.2314L14.1433 15.2356L14.1454 15.2384L14.1474 15.2427L14.1495 15.2455L14.1516 15.2497L14.1527 15.2525L14.1547 15.2567L14.1558 15.2595L14.1579 15.2637L14.1599 15.2665L14.162 15.2707L14.1631 15.2735L14.1651 15.2777L14.1662 15.2805L14.1683 15.2847L14.1704 15.2875L14.1766 15.3001L14.1776 15.3043L14.1818 15.3127L14.1839 15.3212L14.1849 15.324L14.187 15.3282L14.1881 15.331L14.1891 15.3366L14.1964 15.3562L14.1974 15.3632L14.1985 15.366L14.1995 15.373V15.3744L14.2016 15.3814V15.3828L14.2037 15.3913L14.2058 15.4081L14.2068 15.4109C14.2297 15.5721 14.2506 15.7333 14.2693 15.8932C16.2816 16.3025 17.9951 16.4455 19.4083 16.3193C20.6353 16.21 21.63 15.8988 22.3904 15.3871C21.5509 14.7001 20.4364 14.33 19.0481 14.2767C17.6367 14.2234 15.9462 14.4982 13.9765 15.0997L13.9693 15.0983ZM24.4268 13.6094C24.3695 13.7805 24.3049 13.9445 24.233 14.1029C23.9435 14.7436 23.5414 15.2819 23.0279 15.7179C22.1541 16.4595 20.9552 16.8969 19.4344 17.0329C18.02 17.1577 16.3171 17.0231 14.3255 16.6278C14.3683 17.3133 14.362 17.996 14.3078 18.6746C14.2526 19.3657 14.1485 20.0541 13.9943 20.7396C17.0668 21.1714 19.9751 21.2499 21.9445 20.1129C23.661 19.1232 24.6651 17.1619 24.4255 13.6109L24.4268 13.6094ZM10.251 19.3951C10.2562 19.283 10.2573 19.1638 10.2573 19.0404C10.2562 18.8358 10.2489 18.61 10.2354 18.3647C10.0573 18.3002 9.87395 18.2596 9.68336 18.2427C9.68232 18.4194 9.6844 18.596 9.68961 18.7755C9.69377 18.9367 9.70106 19.0979 9.71044 19.2606C9.79168 19.2872 9.87917 19.3124 9.97083 19.3349C10.0573 19.3559 10.151 19.3769 10.251 19.3965L10.251 19.3951ZM10.7791 18.603C10.7853 18.7545 10.7885 18.8988 10.7885 19.0376C10.7895 19.1932 10.7864 19.3404 10.7801 19.4778C11.0489 19.5115 11.3405 19.5367 11.655 19.5535C12.0269 19.5746 12.4331 19.583 12.8716 19.583C12.931 19.2115 12.9716 18.7895 12.9924 18.3171C13.0164 17.7829 13.0153 17.1871 12.9903 16.5268C12.6039 16.3642 12.2133 16.2506 11.8207 16.1847C11.4478 16.1217 11.0728 16.102 10.6957 16.1259C10.6916 16.2815 10.6895 16.4329 10.6885 16.5815C10.6885 16.7427 10.6905 16.9081 10.6947 17.0736L10.8968 17.1394H10.8978L10.8999 17.1408L10.9134 17.1451L10.9176 17.1465L10.9207 17.1479L10.9405 17.1563L10.9426 17.1577L10.9645 17.1703H10.9655L10.9759 17.1773H10.977L10.9822 17.1815L11.0041 17.1997L11.0197 17.2165L11.029 17.2278C11.0665 17.274 11.0957 17.3343 11.1092 17.4072C11.1415 17.5824 11.1488 17.7563 11.1301 17.9273L11.128 17.9399C11.1092 18.0997 11.0686 18.2568 11.0051 18.4082L11.003 18.411L10.9988 18.4222L10.9968 18.4264L10.9957 18.4292L10.9936 18.4334L10.9926 18.4362L10.9905 18.4404L10.9884 18.4432L10.9863 18.4474L10.9822 18.4544L10.9801 18.4586L10.978 18.4614L10.9697 18.4755L10.9676 18.4797L10.9655 18.4825L10.9572 18.4951L10.9551 18.4993L10.9395 18.5203L10.9363 18.5231L10.9343 18.5245L10.9155 18.5428L10.9134 18.5442L10.9103 18.547L10.9051 18.5512L10.903 18.5526L10.8999 18.5554L10.8561 18.5848L10.8374 18.5918L10.8332 18.5932H10.8311L10.827 18.5946H10.8249L10.8145 18.5974H10.8124L10.8062 18.5988L10.802 18.6002L10.778 18.603H10.7791ZM10.1614 16.9305C10.1594 16.8156 10.1594 16.6992 10.1594 16.5815C10.1594 16.4497 10.1614 16.3179 10.1646 16.1875L10.0573 16.2071C9.97813 16.2226 9.90105 16.2394 9.82398 16.2576L9.78857 16.5156L9.75523 16.8548C9.88439 16.873 10.0198 16.8969 10.1614 16.9291L10.1614 16.9305ZM9.15322 18.2539C9.03761 18.268 8.91886 18.2904 8.79909 18.3198C8.81992 18.5974 8.84284 18.8596 8.87408 19.1105L8.87513 19.1217C8.91262 19.4259 8.96262 19.7246 9.0324 20.033C9.34592 20.3274 9.85838 20.5349 10.5656 20.6512C11.3186 20.7746 12.279 20.7928 13.4456 20.7059C13.6133 20.005 13.7247 19.3026 13.7799 18.6002C13.8414 17.8222 13.8362 17.0413 13.7633 16.259L13.7622 16.2506V16.2492L13.7612 16.2422V16.2408C13.7445 16.0698 13.7247 15.8988 13.7018 15.7305C13.5904 15.673 13.4841 15.6198 13.3862 15.5735C13.2435 15.5062 13.0977 15.4431 12.9508 15.3828L12.9383 15.3772C12.1374 15.0548 11.401 14.9104 10.7302 14.9427C10.1074 14.9735 9.53866 15.1585 9.02415 15.495C8.98666 15.6661 8.95124 15.8511 8.91791 16.039C8.87312 16.2955 8.83458 16.5577 8.80438 16.8002L8.79605 16.8801C8.92624 16.8479 9.06685 16.8296 9.21995 16.8254L9.26266 16.4077L9.3314 15.8833C9.35432 15.7305 9.44598 15.6212 9.55326 15.5988L9.55742 15.5974L9.56055 15.596C9.70428 15.5567 9.84489 15.5245 9.9803 15.4978C10.1282 15.4698 10.2751 15.4474 10.4198 15.4319C10.9115 15.3773 11.401 15.3913 11.8853 15.4726C12.3655 15.5539 12.8457 15.7025 13.3216 15.9198L13.3435 15.9296L13.3456 15.931L13.3498 15.9324L13.3748 15.9492L13.3758 15.9506L13.38 15.9534L13.381 15.9548L13.3852 15.9591L13.3862 15.9605L13.3914 15.9647L13.3925 15.9661L13.3977 15.9703L13.3987 15.9717L13.4039 15.9759L13.405 15.9773L13.4102 15.9815L13.431 16.0039L13.4404 16.0151L13.4654 16.0572L13.4685 16.0642L13.4727 16.0712L13.4914 16.1133L13.4956 16.1273V16.1287L13.4977 16.1357V16.1371L13.5018 16.1525V16.1539L13.5039 16.1609V16.1623L13.507 16.1764V16.1806L13.5081 16.1876L13.5091 16.1904L13.5102 16.1974L13.5112 16.2002L13.5122 16.2058L13.5133 16.2086V16.2142L13.5143 16.217V16.2647C13.5487 17.0413 13.5539 17.7409 13.5258 18.3634C13.4977 19.0026 13.4352 19.5606 13.3414 20.0344C13.3081 20.2013 13.1925 20.3092 13.0685 20.2994H13.0623C12.5384 20.305 12.0634 20.2952 11.6364 20.2714C11.1958 20.2475 10.8062 20.2083 10.4688 20.1564L10.4625 20.155H10.4615L10.4552 20.1536H10.4521L10.449 20.1522C10.2469 20.1199 10.0553 20.0821 9.87717 20.0386C9.69908 19.9952 9.53867 19.9433 9.397 19.8872H9.39596L9.38971 19.8844L9.37201 19.876L9.36576 19.8718L9.35951 19.869L9.35742 19.8676L9.3543 19.8648L9.34493 19.8592L9.34284 19.8564C9.32201 19.8424 9.30326 19.8241 9.2866 19.8045L9.28139 19.7975L9.27722 19.7933L9.26785 19.7807L9.25952 19.7681L9.25639 19.7625L9.25535 19.761L9.25223 19.7554L9.25118 19.754L9.24806 19.7484L9.24702 19.747L9.2366 19.726L9.23348 19.7176L9.23035 19.7106L9.21473 19.6685L9.21369 19.6629L9.21265 19.6601L9.20327 19.6223L9.20223 19.6167L9.20119 19.6138L9.20015 19.6082V19.6054L9.19911 19.5998V19.597L9.19806 19.59V19.5872L9.19702 19.5802V19.5508C9.17931 19.2998 9.16682 19.0475 9.15952 18.7951C9.15432 18.6143 9.15223 18.432 9.15327 18.2484L9.15322 18.2539Z"/>
	</mask>
	<path d="M8.70101 14.9129C9.30615 14.491 9.97695 14.2625 10.7113 14.226C11.4247 14.1909 12.1976 14.3367 13.0287 14.6634C15.3921 13.8643 17.4022 13.4956 19.0554 13.5587C20.6667 13.6204 21.9458 14.0942 22.8926 14.9788C23.2645 14.6298 23.5603 14.212 23.779 13.7283C24.0175 13.1998 24.1675 12.5858 24.2269 11.8904C23.9654 10.8908 22.5531 10.0861 20.5054 9.76649C18.3681 9.43283 15.5725 9.65994 12.6685 10.7675C12.3727 10.8796 12.0654 11.0072 11.7467 11.1488L11.7144 11.16C9.49171 11.9913 7.59293 12.2829 6.02107 12.0348C4.4181 11.7825 3.14854 10.9722 2.21316 9.60529L2.20795 9.59828L2.20379 9.59127L2.20066 9.58706L2.19962 9.58426L2.19129 9.57024C1.96943 9.24359 1.76738 8.88329 1.58614 8.49637L1.54136 8.39964C1.51636 9.42305 1.55281 10.3497 1.6528 11.1824C1.8507 12.8381 2.2965 14.1125 2.98913 15.0039C3.68075 15.8941 4.62752 16.4142 5.82834 16.5629C6.56368 16.654 7.39382 16.6077 8.31768 16.4241C8.34372 16.2376 8.37288 16.0511 8.40413 15.8717C8.44996 15.6039 8.501 15.3488 8.55203 15.1329C8.57703 15.0277 8.63432 14.9478 8.7041 14.91L8.70101 14.9129ZM4.539 6.19871C4.37859 6.19871 4.23902 6.08376 4.14423 5.90151C4.06924 5.75571 4.02341 5.56224 4.02341 5.35617C4.02341 5.14869 4.06924 4.95382 4.14423 4.80944L4.1609 4.78C4.25464 4.61457 4.38692 4.51363 4.539 4.51363C4.6994 4.51363 4.83897 4.62719 4.93272 4.80944C5.00876 4.95383 5.05458 5.1487 5.05458 5.35617C5.05458 5.56226 5.00771 5.75573 4.93376 5.90151C4.83898 6.08516 4.69941 6.19871 4.539 6.19871ZM6.91795 5.86366C6.75755 5.86366 6.61798 5.7487 6.52319 5.56645C6.44819 5.42205 6.40236 5.22719 6.40236 5.02112C6.40236 4.81363 6.44819 4.62156 6.52319 4.47578C6.61797 4.29213 6.75754 4.17858 6.91795 4.17858C7.07835 4.17858 7.21792 4.29213 7.31167 4.47438C7.38771 4.61878 7.43354 4.81364 7.43354 5.02112C7.43354 5.2272 7.38667 5.42067 7.31271 5.56645C7.21793 5.7501 7.07836 5.86366 6.91795 5.86366ZM9.84994 5.8258C9.68954 5.8258 9.54997 5.71085 9.45518 5.5286C9.38019 5.3828 9.33436 5.18934 9.33436 4.98326C9.33436 4.77578 9.38019 4.58091 9.45518 4.43653L9.47184 4.40709C9.56559 4.24166 9.69787 4.14072 9.84994 4.14072C10.0103 4.14072 10.1499 4.25428 10.2437 4.43653C10.3197 4.58093 10.3655 4.77579 10.3655 4.98326C10.3655 5.18935 10.3187 5.38282 10.2447 5.5286C10.1499 5.71225 10.0104 5.8258 9.84994 5.8258ZM11.9904 8.30861C11.9654 8.32403 11.9393 8.33244 11.9133 8.33665C11.9008 8.33945 11.8872 8.33945 11.8747 8.33805H11.8685C11.8445 8.33665 11.8216 8.33104 11.7998 8.32123L11.7935 8.31843C9.40831 7.37354 7.44297 7.01185 5.90018 7.23475C4.48989 7.43803 3.43687 8.13478 2.74314 9.32221C3.57536 10.4381 4.68776 11.1083 6.0815 11.3269C7.5876 11.5639 9.41879 11.2793 11.5717 10.4746L11.58 10.4704C11.8852 10.3358 12.2008 10.2054 12.5257 10.0806C15.5004 8.94508 18.37 8.71377 20.5666 9.05583C22.8383 9.41052 24.4257 10.4087 24.739 11.6872L24.7515 11.7461V11.7489L24.7536 11.7559V11.7573L24.7546 11.7643L24.7557 11.7671L24.7567 11.7741L24.7578 11.7769L24.7588 11.784V11.7868L24.7598 11.7924L24.7609 11.7952L24.7619 11.8008V11.8036C25.5337 16.8449 24.3672 19.5 22.157 20.7744C20.0166 22.0081 16.8961 21.8904 13.6359 21.4095C12.3631 21.5146 11.3174 21.4992 10.5018 21.366C9.65498 21.2272 9.03733 20.9525 8.65091 20.5459L8.6405 20.5347L8.63945 20.5333L8.63529 20.5291L8.6332 20.5277L8.63008 20.5235L8.628 20.522L8.603 20.4884L8.60092 20.4842L8.59883 20.4814L8.59675 20.4772L8.59467 20.4744L8.59258 20.4702L8.59154 20.4674L8.58946 20.4632L8.58842 20.4604L8.58633 20.4562L8.58529 20.4534L8.58321 20.4492L8.58217 20.4463L8.58008 20.4421L8.57904 20.4393L8.57696 20.4351L8.57592 20.4323L8.57384 20.4281L8.57279 20.4239L8.56654 20.4113L8.56446 20.4029L8.56238 20.3987L8.55196 20.3706L8.54988 20.3636L8.54884 20.3622L8.54467 20.3454C8.4551 19.9711 8.39364 19.6122 8.34886 19.2435L8.34677 19.2323C8.31448 18.9743 8.29053 18.715 8.27074 18.4472C8.15825 18.4402 8.06659 18.3953 7.99682 18.3266C7.91036 18.2411 7.85829 18.1262 7.83745 17.993C7.82183 17.8893 7.82704 17.7785 7.85412 17.6677L7.86141 17.6397C7.90724 17.4771 8.00827 17.3075 8.16034 17.1827C7.28648 17.3383 6.49175 17.372 5.77723 17.2836C4.4513 17.1182 3.39932 16.5336 2.61912 15.5312C1.84106 14.5303 1.34215 13.1185 1.1255 11.3031C0.97968 10.0835 0.960933 8.67735 1.06926 7.08618C1.06926 7.06935 1.0703 7.05393 1.07238 7.03711C1.08592 6.91234 1.10571 6.78056 1.13071 6.64739C1.4286 5.02538 2.42955 3.70897 4.06377 2.95332C5.64488 2.22151 7.83622 2.01123 10.5685 2.55937C11.3622 2.71779 12.2038 2.94349 13.0933 3.23929L13.0995 3.24069L13.1058 3.24349L13.1099 3.24489L13.112 3.2463L13.1162 3.2477L13.1183 3.2491L13.1224 3.2505L13.1287 3.25471H13.1308L13.136 3.25751H13.137L13.1422 3.26032H13.1433L13.1485 3.26312H13.1495L13.1599 3.26873L13.186 3.28976L13.187 3.29116L13.1922 3.29536L13.1933 3.29677L13.1985 3.30097L13.1995 3.30237L13.2037 3.30658L13.2047 3.30798L13.2089 3.31219L13.2099 3.31359L13.2141 3.31779L13.2151 3.3192L13.2193 3.3234L13.2204 3.3248L13.2245 3.32901L13.2256 3.33041L13.2297 3.33462L13.2308 3.33602L13.2349 3.34022L13.236 3.34163L13.2401 3.34583L13.2506 3.35985L13.2537 3.36546L13.2547 3.36686L13.2578 3.37247L13.2589 3.37387C13.2703 3.3949 13.2808 3.41593 13.2891 3.43976C13.2943 3.45518 13.2995 3.472 13.3026 3.48742L13.3037 3.49023L13.3047 3.49584L13.3058 3.49864L13.3068 3.50425L13.3078 3.50705L13.6203 5.12206C13.7224 5.63517 13.8213 6.11041 13.9141 6.54783C13.9474 6.70625 13.8953 6.87167 13.7953 6.95298C13.5391 7.20252 13.2641 7.43946 12.9704 7.66096C12.6673 7.89088 12.3413 8.10958 11.9944 8.31425L11.9904 8.30861ZM11.8633 7.59923C12.1643 7.41698 12.4455 7.2263 12.7059 7.03006C12.9351 6.85623 13.1486 6.67818 13.3454 6.49593C13.2652 6.1146 13.183 5.71645 13.1007 5.3015L12.8268 3.88417C12.0102 3.6178 11.23 3.41312 10.4895 3.26451C7.84492 2.73317 5.74005 2.93085 4.23379 3.6276C2.7808 4.30052 1.89755 5.43468 1.64446 6.81415C1.63092 6.88565 1.61946 6.96276 1.60904 7.04267C1.73507 7.42819 1.87569 7.78848 2.03191 8.11934C2.14128 8.35206 2.25689 8.57355 2.38084 8.77963C3.16514 7.49268 4.31919 6.73983 5.84105 6.51973C7.4357 6.28981 9.44392 6.6501 11.8613 7.5992L11.8633 7.59923ZM13.9693 15.0983L14.0287 15.1291L14.0412 15.1347L14.0527 15.1417H14.0537L14.06 15.1459C14.0724 15.1543 14.0849 15.1655 14.0964 15.1768L14.1006 15.1824L14.1037 15.1852L14.1058 15.188L14.1089 15.1908L14.111 15.1936L14.1235 15.209L14.1256 15.2118L14.1287 15.2146L14.1412 15.2314L14.1433 15.2356L14.1454 15.2384L14.1474 15.2427L14.1495 15.2455L14.1516 15.2497L14.1527 15.2525L14.1547 15.2567L14.1558 15.2595L14.1579 15.2637L14.1599 15.2665L14.162 15.2707L14.1631 15.2735L14.1651 15.2777L14.1662 15.2805L14.1683 15.2847L14.1704 15.2875L14.1766 15.3001L14.1776 15.3043L14.1818 15.3127L14.1839 15.3212L14.1849 15.324L14.187 15.3282L14.1881 15.331L14.1891 15.3366L14.1964 15.3562L14.1974 15.3632L14.1985 15.366L14.1995 15.373V15.3744L14.2016 15.3814V15.3828L14.2037 15.3913L14.2058 15.4081L14.2068 15.4109C14.2297 15.5721 14.2506 15.7333 14.2693 15.8932C16.2816 16.3025 17.9951 16.4455 19.4083 16.3193C20.6353 16.21 21.63 15.8988 22.3904 15.3871C21.5509 14.7001 20.4364 14.33 19.0481 14.2767C17.6367 14.2234 15.9462 14.4982 13.9765 15.0997L13.9693 15.0983ZM24.4268 13.6094C24.3695 13.7805 24.3049 13.9445 24.233 14.1029C23.9435 14.7436 23.5414 15.2819 23.0279 15.7179C22.1541 16.4595 20.9552 16.8969 19.4344 17.0329C18.02 17.1577 16.3171 17.0231 14.3255 16.6278C14.3683 17.3133 14.362 17.996 14.3078 18.6746C14.2526 19.3657 14.1485 20.0541 13.9943 20.7396C17.0668 21.1714 19.9751 21.2499 21.9445 20.1129C23.661 19.1232 24.6651 17.1619 24.4255 13.6109L24.4268 13.6094ZM10.251 19.3951C10.2562 19.283 10.2573 19.1638 10.2573 19.0404C10.2562 18.8358 10.2489 18.61 10.2354 18.3647C10.0573 18.3002 9.87395 18.2596 9.68336 18.2427C9.68232 18.4194 9.6844 18.596 9.68961 18.7755C9.69377 18.9367 9.70106 19.0979 9.71044 19.2606C9.79168 19.2872 9.87917 19.3124 9.97083 19.3349C10.0573 19.3559 10.151 19.3769 10.251 19.3965L10.251 19.3951ZM10.7791 18.603C10.7853 18.7545 10.7885 18.8988 10.7885 19.0376C10.7895 19.1932 10.7864 19.3404 10.7801 19.4778C11.0489 19.5115 11.3405 19.5367 11.655 19.5535C12.0269 19.5746 12.4331 19.583 12.8716 19.583C12.931 19.2115 12.9716 18.7895 12.9924 18.3171C13.0164 17.7829 13.0153 17.1871 12.9903 16.5268C12.6039 16.3642 12.2133 16.2506 11.8207 16.1847C11.4478 16.1217 11.0728 16.102 10.6957 16.1259C10.6916 16.2815 10.6895 16.4329 10.6885 16.5815C10.6885 16.7427 10.6905 16.9081 10.6947 17.0736L10.8968 17.1394H10.8978L10.8999 17.1408L10.9134 17.1451L10.9176 17.1465L10.9207 17.1479L10.9405 17.1563L10.9426 17.1577L10.9645 17.1703H10.9655L10.9759 17.1773H10.977L10.9822 17.1815L11.0041 17.1997L11.0197 17.2165L11.029 17.2278C11.0665 17.274 11.0957 17.3343 11.1092 17.4072C11.1415 17.5824 11.1488 17.7563 11.1301 17.9273L11.128 17.9399C11.1092 18.0997 11.0686 18.2568 11.0051 18.4082L11.003 18.411L10.9988 18.4222L10.9968 18.4264L10.9957 18.4292L10.9936 18.4334L10.9926 18.4362L10.9905 18.4404L10.9884 18.4432L10.9863 18.4474L10.9822 18.4544L10.9801 18.4586L10.978 18.4614L10.9697 18.4755L10.9676 18.4797L10.9655 18.4825L10.9572 18.4951L10.9551 18.4993L10.9395 18.5203L10.9363 18.5231L10.9343 18.5245L10.9155 18.5428L10.9134 18.5442L10.9103 18.547L10.9051 18.5512L10.903 18.5526L10.8999 18.5554L10.8561 18.5848L10.8374 18.5918L10.8332 18.5932H10.8311L10.827 18.5946H10.8249L10.8145 18.5974H10.8124L10.8062 18.5988L10.802 18.6002L10.778 18.603H10.7791ZM10.1614 16.9305C10.1594 16.8156 10.1594 16.6992 10.1594 16.5815C10.1594 16.4497 10.1614 16.3179 10.1646 16.1875L10.0573 16.2071C9.97813 16.2226 9.90105 16.2394 9.82398 16.2576L9.78857 16.5156L9.75523 16.8548C9.88439 16.873 10.0198 16.8969 10.1614 16.9291L10.1614 16.9305ZM9.15322 18.2539C9.03761 18.268 8.91886 18.2904 8.79909 18.3198C8.81992 18.5974 8.84284 18.8596 8.87408 19.1105L8.87513 19.1217C8.91262 19.4259 8.96262 19.7246 9.0324 20.033C9.34592 20.3274 9.85838 20.5349 10.5656 20.6512C11.3186 20.7746 12.279 20.7928 13.4456 20.7059C13.6133 20.005 13.7247 19.3026 13.7799 18.6002C13.8414 17.8222 13.8362 17.0413 13.7633 16.259L13.7622 16.2506V16.2492L13.7612 16.2422V16.2408C13.7445 16.0698 13.7247 15.8988 13.7018 15.7305C13.5904 15.673 13.4841 15.6198 13.3862 15.5735C13.2435 15.5062 13.0977 15.4431 12.9508 15.3828L12.9383 15.3772C12.1374 15.0548 11.401 14.9104 10.7302 14.9427C10.1074 14.9735 9.53866 15.1585 9.02415 15.495C8.98666 15.6661 8.95124 15.8511 8.91791 16.039C8.87312 16.2955 8.83458 16.5577 8.80438 16.8002L8.79605 16.8801C8.92624 16.8479 9.06685 16.8296 9.21995 16.8254L9.26266 16.4077L9.3314 15.8833C9.35432 15.7305 9.44598 15.6212 9.55326 15.5988L9.55742 15.5974L9.56055 15.596C9.70428 15.5567 9.84489 15.5245 9.9803 15.4978C10.1282 15.4698 10.2751 15.4474 10.4198 15.4319C10.9115 15.3773 11.401 15.3913 11.8853 15.4726C12.3655 15.5539 12.8457 15.7025 13.3216 15.9198L13.3435 15.9296L13.3456 15.931L13.3498 15.9324L13.3748 15.9492L13.3758 15.9506L13.38 15.9534L13.381 15.9548L13.3852 15.9591L13.3862 15.9605L13.3914 15.9647L13.3925 15.9661L13.3977 15.9703L13.3987 15.9717L13.4039 15.9759L13.405 15.9773L13.4102 15.9815L13.431 16.0039L13.4404 16.0151L13.4654 16.0572L13.4685 16.0642L13.4727 16.0712L13.4914 16.1133L13.4956 16.1273V16.1287L13.4977 16.1357V16.1371L13.5018 16.1525V16.1539L13.5039 16.1609V16.1623L13.507 16.1764V16.1806L13.5081 16.1876L13.5091 16.1904L13.5102 16.1974L13.5112 16.2002L13.5122 16.2058L13.5133 16.2086V16.2142L13.5143 16.217V16.2647C13.5487 17.0413 13.5539 17.7409 13.5258 18.3634C13.4977 19.0026 13.4352 19.5606 13.3414 20.0344C13.3081 20.2013 13.1925 20.3092 13.0685 20.2994H13.0623C12.5384 20.305 12.0634 20.2952 11.6364 20.2714C11.1958 20.2475 10.8062 20.2083 10.4688 20.1564L10.4625 20.155H10.4615L10.4552 20.1536H10.4521L10.449 20.1522C10.2469 20.1199 10.0553 20.0821 9.87717 20.0386C9.69908 19.9952 9.53867 19.9433 9.397 19.8872H9.39596L9.38971 19.8844L9.37201 19.876L9.36576 19.8718L9.35951 19.869L9.35742 19.8676L9.3543 19.8648L9.34493 19.8592L9.34284 19.8564C9.32201 19.8424 9.30326 19.8241 9.2866 19.8045L9.28139 19.7975L9.27722 19.7933L9.26785 19.7807L9.25952 19.7681L9.25639 19.7625L9.25535 19.761L9.25223 19.7554L9.25118 19.754L9.24806 19.7484L9.24702 19.747L9.2366 19.726L9.23348 19.7176L9.23035 19.7106L9.21473 19.6685L9.21369 19.6629L9.21265 19.6601L9.20327 19.6223L9.20223 19.6167L9.20119 19.6138L9.20015 19.6082V19.6054L9.19911 19.5998V19.597L9.19806 19.59V19.5872L9.19702 19.5802V19.5508C9.17931 19.2998 9.16682 19.0475 9.15952 18.7951C9.15432 18.6143 9.15223 18.432 9.15327 18.2484L9.15322 18.2539Z" fill="#B1B1B3"/>
	<path d="M8.70101 14.9129C9.30615 14.491 9.97695 14.2625 10.7113 14.226C11.4247 14.1909 12.1976 14.3367 13.0287 14.6634C15.3921 13.8643 17.4022 13.4956 19.0554 13.5587C20.6667 13.6204 21.9458 14.0942 22.8926 14.9788C23.2645 14.6298 23.5603 14.212 23.779 13.7283C24.0175 13.1998 24.1675 12.5858 24.2269 11.8904C23.9654 10.8908 22.5531 10.0861 20.5054 9.76649C18.3681 9.43283 15.5725 9.65994 12.6685 10.7675C12.3727 10.8796 12.0654 11.0072 11.7467 11.1488L11.7144 11.16C9.49171 11.9913 7.59293 12.2829 6.02107 12.0348C4.4181 11.7825 3.14854 10.9722 2.21316 9.60529L2.20795 9.59828L2.20379 9.59127L2.20066 9.58706L2.19962 9.58426L2.19129 9.57024C1.96943 9.24359 1.76738 8.88329 1.58614 8.49637L1.54136 8.39964C1.51636 9.42305 1.55281 10.3497 1.6528 11.1824C1.8507 12.8381 2.2965 14.1125 2.98913 15.0039C3.68075 15.8941 4.62752 16.4142 5.82834 16.5629C6.56368 16.654 7.39382 16.6077 8.31768 16.4241C8.34372 16.2376 8.37288 16.0511 8.40413 15.8717C8.44996 15.6039 8.501 15.3488 8.55203 15.1329C8.57703 15.0277 8.63432 14.9478 8.7041 14.91L8.70101 14.9129ZM4.539 6.19871C4.37859 6.19871 4.23902 6.08376 4.14423 5.90151C4.06924 5.75571 4.02341 5.56224 4.02341 5.35617C4.02341 5.14869 4.06924 4.95382 4.14423 4.80944L4.1609 4.78C4.25464 4.61457 4.38692 4.51363 4.539 4.51363C4.6994 4.51363 4.83897 4.62719 4.93272 4.80944C5.00876 4.95383 5.05458 5.1487 5.05458 5.35617C5.05458 5.56226 5.00771 5.75573 4.93376 5.90151C4.83898 6.08516 4.69941 6.19871 4.539 6.19871ZM6.91795 5.86366C6.75755 5.86366 6.61798 5.7487 6.52319 5.56645C6.44819 5.42205 6.40236 5.22719 6.40236 5.02112C6.40236 4.81363 6.44819 4.62156 6.52319 4.47578C6.61797 4.29213 6.75754 4.17858 6.91795 4.17858C7.07835 4.17858 7.21792 4.29213 7.31167 4.47438C7.38771 4.61878 7.43354 4.81364 7.43354 5.02112C7.43354 5.2272 7.38667 5.42067 7.31271 5.56645C7.21793 5.7501 7.07836 5.86366 6.91795 5.86366ZM9.84994 5.8258C9.68954 5.8258 9.54997 5.71085 9.45518 5.5286C9.38019 5.3828 9.33436 5.18934 9.33436 4.98326C9.33436 4.77578 9.38019 4.58091 9.45518 4.43653L9.47184 4.40709C9.56559 4.24166 9.69787 4.14072 9.84994 4.14072C10.0103 4.14072 10.1499 4.25428 10.2437 4.43653C10.3197 4.58093 10.3655 4.77579 10.3655 4.98326C10.3655 5.18935 10.3187 5.38282 10.2447 5.5286C10.1499 5.71225 10.0104 5.8258 9.84994 5.8258ZM11.9904 8.30861C11.9654 8.32403 11.9393 8.33244 11.9133 8.33665C11.9008 8.33945 11.8872 8.33945 11.8747 8.33805H11.8685C11.8445 8.33665 11.8216 8.33104 11.7998 8.32123L11.7935 8.31843C9.40831 7.37354 7.44297 7.01185 5.90018 7.23475C4.48989 7.43803 3.43687 8.13478 2.74314 9.32221C3.57536 10.4381 4.68776 11.1083 6.0815 11.3269C7.5876 11.5639 9.41879 11.2793 11.5717 10.4746L11.58 10.4704C11.8852 10.3358 12.2008 10.2054 12.5257 10.0806C15.5004 8.94508 18.37 8.71377 20.5666 9.05583C22.8383 9.41052 24.4257 10.4087 24.739 11.6872L24.7515 11.7461V11.7489L24.7536 11.7559V11.7573L24.7546 11.7643L24.7557 11.7671L24.7567 11.7741L24.7578 11.7769L24.7588 11.784V11.7868L24.7598 11.7924L24.7609 11.7952L24.7619 11.8008V11.8036C25.5337 16.8449 24.3672 19.5 22.157 20.7744C20.0166 22.0081 16.8961 21.8904 13.6359 21.4095C12.3631 21.5146 11.3174 21.4992 10.5018 21.366C9.65498 21.2272 9.03733 20.9525 8.65091 20.5459L8.6405 20.5347L8.63945 20.5333L8.63529 20.5291L8.6332 20.5277L8.63008 20.5235L8.628 20.522L8.603 20.4884L8.60092 20.4842L8.59883 20.4814L8.59675 20.4772L8.59467 20.4744L8.59258 20.4702L8.59154 20.4674L8.58946 20.4632L8.58842 20.4604L8.58633 20.4562L8.58529 20.4534L8.58321 20.4492L8.58217 20.4463L8.58008 20.4421L8.57904 20.4393L8.57696 20.4351L8.57592 20.4323L8.57384 20.4281L8.57279 20.4239L8.56654 20.4113L8.56446 20.4029L8.56238 20.3987L8.55196 20.3706L8.54988 20.3636L8.54884 20.3622L8.54467 20.3454C8.4551 19.9711 8.39364 19.6122 8.34886 19.2435L8.34677 19.2323C8.31448 18.9743 8.29053 18.715 8.27074 18.4472C8.15825 18.4402 8.06659 18.3953 7.99682 18.3266C7.91036 18.2411 7.85829 18.1262 7.83745 17.993C7.82183 17.8893 7.82704 17.7785 7.85412 17.6677L7.86141 17.6397C7.90724 17.4771 8.00827 17.3075 8.16034 17.1827C7.28648 17.3383 6.49175 17.372 5.77723 17.2836C4.4513 17.1182 3.39932 16.5336 2.61912 15.5312C1.84106 14.5303 1.34215 13.1185 1.1255 11.3031C0.97968 10.0835 0.960933 8.67735 1.06926 7.08618C1.06926 7.06935 1.0703 7.05393 1.07238 7.03711C1.08592 6.91234 1.10571 6.78056 1.13071 6.64739C1.4286 5.02538 2.42955 3.70897 4.06377 2.95332C5.64488 2.22151 7.83622 2.01123 10.5685 2.55937C11.3622 2.71779 12.2038 2.94349 13.0933 3.23929L13.0995 3.24069L13.1058 3.24349L13.1099 3.24489L13.112 3.2463L13.1162 3.2477L13.1183 3.2491L13.1224 3.2505L13.1287 3.25471H13.1308L13.136 3.25751H13.137L13.1422 3.26032H13.1433L13.1485 3.26312H13.1495L13.1599 3.26873L13.186 3.28976L13.187 3.29116L13.1922 3.29536L13.1933 3.29677L13.1985 3.30097L13.1995 3.30237L13.2037 3.30658L13.2047 3.30798L13.2089 3.31219L13.2099 3.31359L13.2141 3.31779L13.2151 3.3192L13.2193 3.3234L13.2204 3.3248L13.2245 3.32901L13.2256 3.33041L13.2297 3.33462L13.2308 3.33602L13.2349 3.34022L13.236 3.34163L13.2401 3.34583L13.2506 3.35985L13.2537 3.36546L13.2547 3.36686L13.2578 3.37247L13.2589 3.37387C13.2703 3.3949 13.2808 3.41593 13.2891 3.43976C13.2943 3.45518 13.2995 3.472 13.3026 3.48742L13.3037 3.49023L13.3047 3.49584L13.3058 3.49864L13.3068 3.50425L13.3078 3.50705L13.6203 5.12206C13.7224 5.63517 13.8213 6.11041 13.9141 6.54783C13.9474 6.70625 13.8953 6.87167 13.7953 6.95298C13.5391 7.20252 13.2641 7.43946 12.9704 7.66096C12.6673 7.89088 12.3413 8.10958 11.9944 8.31425L11.9904 8.30861ZM11.8633 7.59923C12.1643 7.41698 12.4455 7.2263 12.7059 7.03006C12.9351 6.85623 13.1486 6.67818 13.3454 6.49593C13.2652 6.1146 13.183 5.71645 13.1007 5.3015L12.8268 3.88417C12.0102 3.6178 11.23 3.41312 10.4895 3.26451C7.84492 2.73317 5.74005 2.93085 4.23379 3.6276C2.7808 4.30052 1.89755 5.43468 1.64446 6.81415C1.63092 6.88565 1.61946 6.96276 1.60904 7.04267C1.73507 7.42819 1.87569 7.78848 2.03191 8.11934C2.14128 8.35206 2.25689 8.57355 2.38084 8.77963C3.16514 7.49268 4.31919 6.73983 5.84105 6.51973C7.4357 6.28981 9.44392 6.6501 11.8613 7.5992L11.8633 7.59923ZM13.9693 15.0983L14.0287 15.1291L14.0412 15.1347L14.0527 15.1417H14.0537L14.06 15.1459C14.0724 15.1543 14.0849 15.1655 14.0964 15.1768L14.1006 15.1824L14.1037 15.1852L14.1058 15.188L14.1089 15.1908L14.111 15.1936L14.1235 15.209L14.1256 15.2118L14.1287 15.2146L14.1412 15.2314L14.1433 15.2356L14.1454 15.2384L14.1474 15.2427L14.1495 15.2455L14.1516 15.2497L14.1527 15.2525L14.1547 15.2567L14.1558 15.2595L14.1579 15.2637L14.1599 15.2665L14.162 15.2707L14.1631 15.2735L14.1651 15.2777L14.1662 15.2805L14.1683 15.2847L14.1704 15.2875L14.1766 15.3001L14.1776 15.3043L14.1818 15.3127L14.1839 15.3212L14.1849 15.324L14.187 15.3282L14.1881 15.331L14.1891 15.3366L14.1964 15.3562L14.1974 15.3632L14.1985 15.366L14.1995 15.373V15.3744L14.2016 15.3814V15.3828L14.2037 15.3913L14.2058 15.4081L14.2068 15.4109C14.2297 15.5721 14.2506 15.7333 14.2693 15.8932C16.2816 16.3025 17.9951 16.4455 19.4083 16.3193C20.6353 16.21 21.63 15.8988 22.3904 15.3871C21.5509 14.7001 20.4364 14.33 19.0481 14.2767C17.6367 14.2234 15.9462 14.4982 13.9765 15.0997L13.9693 15.0983ZM24.4268 13.6094C24.3695 13.7805 24.3049 13.9445 24.233 14.1029C23.9435 14.7436 23.5414 15.2819 23.0279 15.7179C22.1541 16.4595 20.9552 16.8969 19.4344 17.0329C18.02 17.1577 16.3171 17.0231 14.3255 16.6278C14.3683 17.3133 14.362 17.996 14.3078 18.6746C14.2526 19.3657 14.1485 20.0541 13.9943 20.7396C17.0668 21.1714 19.9751 21.2499 21.9445 20.1129C23.661 19.1232 24.6651 17.1619 24.4255 13.6109L24.4268 13.6094ZM10.251 19.3951C10.2562 19.283 10.2573 19.1638 10.2573 19.0404C10.2562 18.8358 10.2489 18.61 10.2354 18.3647C10.0573 18.3002 9.87395 18.2596 9.68336 18.2427C9.68232 18.4194 9.6844 18.596 9.68961 18.7755C9.69377 18.9367 9.70106 19.0979 9.71044 19.2606C9.79168 19.2872 9.87917 19.3124 9.97083 19.3349C10.0573 19.3559 10.151 19.3769 10.251 19.3965L10.251 19.3951ZM10.7791 18.603C10.7853 18.7545 10.7885 18.8988 10.7885 19.0376C10.7895 19.1932 10.7864 19.3404 10.7801 19.4778C11.0489 19.5115 11.3405 19.5367 11.655 19.5535C12.0269 19.5746 12.4331 19.583 12.8716 19.583C12.931 19.2115 12.9716 18.7895 12.9924 18.3171C13.0164 17.7829 13.0153 17.1871 12.9903 16.5268C12.6039 16.3642 12.2133 16.2506 11.8207 16.1847C11.4478 16.1217 11.0728 16.102 10.6957 16.1259C10.6916 16.2815 10.6895 16.4329 10.6885 16.5815C10.6885 16.7427 10.6905 16.9081 10.6947 17.0736L10.8968 17.1394H10.8978L10.8999 17.1408L10.9134 17.1451L10.9176 17.1465L10.9207 17.1479L10.9405 17.1563L10.9426 17.1577L10.9645 17.1703H10.9655L10.9759 17.1773H10.977L10.9822 17.1815L11.0041 17.1997L11.0197 17.2165L11.029 17.2278C11.0665 17.274 11.0957 17.3343 11.1092 17.4072C11.1415 17.5824 11.1488 17.7563 11.1301 17.9273L11.128 17.9399C11.1092 18.0997 11.0686 18.2568 11.0051 18.4082L11.003 18.411L10.9988 18.4222L10.9968 18.4264L10.9957 18.4292L10.9936 18.4334L10.9926 18.4362L10.9905 18.4404L10.9884 18.4432L10.9863 18.4474L10.9822 18.4544L10.9801 18.4586L10.978 18.4614L10.9697 18.4755L10.9676 18.4797L10.9655 18.4825L10.9572 18.4951L10.9551 18.4993L10.9395 18.5203L10.9363 18.5231L10.9343 18.5245L10.9155 18.5428L10.9134 18.5442L10.9103 18.547L10.9051 18.5512L10.903 18.5526L10.8999 18.5554L10.8561 18.5848L10.8374 18.5918L10.8332 18.5932H10.8311L10.827 18.5946H10.8249L10.8145 18.5974H10.8124L10.8062 18.5988L10.802 18.6002L10.778 18.603H10.7791ZM10.1614 16.9305C10.1594 16.8156 10.1594 16.6992 10.1594 16.5815C10.1594 16.4497 10.1614 16.3179 10.1646 16.1875L10.0573 16.2071C9.97813 16.2226 9.90105 16.2394 9.82398 16.2576L9.78857 16.5156L9.75523 16.8548C9.88439 16.873 10.0198 16.8969 10.1614 16.9291L10.1614 16.9305ZM9.15322 18.2539C9.03761 18.268 8.91886 18.2904 8.79909 18.3198C8.81992 18.5974 8.84284 18.8596 8.87408 19.1105L8.87513 19.1217C8.91262 19.4259 8.96262 19.7246 9.0324 20.033C9.34592 20.3274 9.85838 20.5349 10.5656 20.6512C11.3186 20.7746 12.279 20.7928 13.4456 20.7059C13.6133 20.005 13.7247 19.3026 13.7799 18.6002C13.8414 17.8222 13.8362 17.0413 13.7633 16.259L13.7622 16.2506V16.2492L13.7612 16.2422V16.2408C13.7445 16.0698 13.7247 15.8988 13.7018 15.7305C13.5904 15.673 13.4841 15.6198 13.3862 15.5735C13.2435 15.5062 13.0977 15.4431 12.9508 15.3828L12.9383 15.3772C12.1374 15.0548 11.401 14.9104 10.7302 14.9427C10.1074 14.9735 9.53866 15.1585 9.02415 15.495C8.98666 15.6661 8.95124 15.8511 8.91791 16.039C8.87312 16.2955 8.83458 16.5577 8.80438 16.8002L8.79605 16.8801C8.92624 16.8479 9.06685 16.8296 9.21995 16.8254L9.26266 16.4077L9.3314 15.8833C9.35432 15.7305 9.44598 15.6212 9.55326 15.5988L9.55742 15.5974L9.56055 15.596C9.70428 15.5567 9.84489 15.5245 9.9803 15.4978C10.1282 15.4698 10.2751 15.4474 10.4198 15.4319C10.9115 15.3773 11.401 15.3913 11.8853 15.4726C12.3655 15.5539 12.8457 15.7025 13.3216 15.9198L13.3435 15.9296L13.3456 15.931L13.3498 15.9324L13.3748 15.9492L13.3758 15.9506L13.38 15.9534L13.381 15.9548L13.3852 15.9591L13.3862 15.9605L13.3914 15.9647L13.3925 15.9661L13.3977 15.9703L13.3987 15.9717L13.4039 15.9759L13.405 15.9773L13.4102 15.9815L13.431 16.0039L13.4404 16.0151L13.4654 16.0572L13.4685 16.0642L13.4727 16.0712L13.4914 16.1133L13.4956 16.1273V16.1287L13.4977 16.1357V16.1371L13.5018 16.1525V16.1539L13.5039 16.1609V16.1623L13.507 16.1764V16.1806L13.5081 16.1876L13.5091 16.1904L13.5102 16.1974L13.5112 16.2002L13.5122 16.2058L13.5133 16.2086V16.2142L13.5143 16.217V16.2647C13.5487 17.0413 13.5539 17.7409 13.5258 18.3634C13.4977 19.0026 13.4352 19.5606 13.3414 20.0344C13.3081 20.2013 13.1925 20.3092 13.0685 20.2994H13.0623C12.5384 20.305 12.0634 20.2952 11.6364 20.2714C11.1958 20.2475 10.8062 20.2083 10.4688 20.1564L10.4625 20.155H10.4615L10.4552 20.1536H10.4521L10.449 20.1522C10.2469 20.1199 10.0553 20.0821 9.87717 20.0386C9.69908 19.9952 9.53867 19.9433 9.397 19.8872H9.39596L9.38971 19.8844L9.37201 19.876L9.36576 19.8718L9.35951 19.869L9.35742 19.8676L9.3543 19.8648L9.34493 19.8592L9.34284 19.8564C9.32201 19.8424 9.30326 19.8241 9.2866 19.8045L9.28139 19.7975L9.27722 19.7933L9.26785 19.7807L9.25952 19.7681L9.25639 19.7625L9.25535 19.761L9.25223 19.7554L9.25118 19.754L9.24806 19.7484L9.24702 19.747L9.2366 19.726L9.23348 19.7176L9.23035 19.7106L9.21473 19.6685L9.21369 19.6629L9.21265 19.6601L9.20327 19.6223L9.20223 19.6167L9.20119 19.6138L9.20015 19.6082V19.6054L9.19911 19.5998V19.597L9.19806 19.59V19.5872L9.19702 19.5802V19.5508C9.17931 19.2998 9.16682 19.0475 9.15952 18.7951C9.15432 18.6143 9.15223 18.432 9.15327 18.2484L9.15322 18.2539Z" stroke="#B1B1B3" stroke-width="0.6" mask="url(#path-1-outside-1_7300_7662)"/>
</svg>