<svg width="25" height="26" viewBox="0 0 25 26" fill="none" xmlns="http://www.w3.org/2000/svg">
	<mask id="path-1-outside-1_7300_2658" maskUnits="userSpaceOnUse" x="-0.25" y="0" width="25" height="26" fill="black">
	<rect fill="white" x="-0.25" width="25" height="26"/>
	<path d="M1.2399 14.1624H1.23554C1.21955 14.1638 1.20356 14.1653 1.18466 14.1653C0.944804 14.1653 0.75 13.9761 0.75 13.7449C0.75 10.6508 2.05104 7.84945 4.15448 5.82046C6.16199 3.88388 8.90372 2.65354 11.9389 2.54703V1.4204C11.9389 1.18778 12.1351 1 12.375 1C12.6149 1 12.8111 1.18777 12.8111 1.4204V2.54703C15.8464 2.65353 18.5878 3.88388 20.5955 5.82046C22.6975 7.84952 24 10.6508 24 13.7449C24 13.9761 23.8052 14.1653 23.5639 14.1653C23.5464 14.1653 23.5319 14.1638 23.5145 14.1624H23.5101C23.3095 14.14 23.1452 13.9887 23.122 13.7897C23.0696 13.3258 22.7222 12.8985 22.1887 12.5818C21.6145 12.2399 20.8325 12.031 19.9675 12.031C19.1026 12.031 18.3219 12.2398 17.7463 12.5818C17.2186 12.8957 16.8697 13.3175 16.8145 13.7757C16.7985 13.9803 16.6284 14.1484 16.4104 14.1624C16.3987 14.1638 16.3871 14.1638 16.3755 14.1638C16.1516 14.1722 15.9539 14.0139 15.9277 13.7939C15.8711 13.3357 15.4815 12.9111 14.8855 12.5916C14.3331 12.2959 13.6135 12.0983 12.8111 12.0437V19.0501H13.2559C13.4972 19.0501 13.692 19.2392 13.692 19.4705V22.2226C13.692 22.2647 13.6847 22.3053 13.6717 22.3445V22.3754C13.6717 22.4244 13.6891 22.4693 13.7182 22.5029L13.7313 22.5141C13.7676 22.5491 13.8199 22.5715 13.8752 22.5715C13.9304 22.5715 13.9827 22.5491 14.0191 22.5141H14.0205C14.0554 22.4805 14.0787 22.4314 14.0787 22.3754C14.0787 22.3571 14.0772 22.3445 14.0743 22.3277C14.0583 22.2689 14.0554 22.2114 14.0671 22.1554L14.0656 22.1399C14.0656 21.7882 14.2139 21.4715 14.4523 21.2389L14.4537 21.2375C14.6951 21.0063 15.0251 20.8648 15.3884 20.8648C15.7533 20.8648 16.0848 21.0063 16.3232 21.2375C16.563 21.4687 16.7113 21.7882 16.7113 22.1399L16.7098 22.1778C16.7098 22.1918 16.7113 22.2072 16.7113 22.2226C16.7113 22.9891 16.3886 23.6842 15.8682 24.1859L15.842 24.2097C15.3231 24.6987 14.6122 25 13.8301 25C13.035 25 12.3154 24.6889 11.7935 24.1845C11.2702 23.6842 10.9475 22.9892 10.9475 22.2226H10.949V19.4705C10.949 19.2393 11.1423 19.0501 11.3822 19.0501H11.9389V12.0437C11.1365 12.0983 10.417 12.2959 9.86456 12.5916C9.26709 12.9111 8.87753 13.3356 8.82082 13.7939C8.79465 14.0139 8.59696 14.1722 8.3731 14.1638C8.36147 14.1638 8.34984 14.1638 8.33821 14.1624C8.12016 14.1484 7.95007 13.9802 7.93556 13.7757C7.87887 13.3175 7.53145 12.8957 7.00376 12.5818C6.42809 12.2399 5.6475 12.031 4.78253 12.031C3.91615 12.031 3.13552 12.2398 2.55986 12.5818C2.02781 12.8985 1.67893 13.3258 1.62806 13.7897C1.60625 13.9887 1.44052 14.14 1.2399 14.1624ZM14.9391 22.2339L14.942 22.2479L14.9435 22.2844C14.9493 22.3194 14.9507 22.3488 14.9507 22.3755C14.9507 22.6599 14.8301 22.9191 14.6353 23.1083C14.4405 23.2961 14.1716 23.411 13.875 23.411C13.5784 23.411 13.3095 23.2961 13.1147 23.1083L13.0871 23.0789C12.9083 22.8939 12.7993 22.6459 12.7993 22.3755C12.7993 22.3404 12.8036 22.297 12.8094 22.2452C12.8123 22.2241 12.8153 22.2045 12.8211 22.1849V19.891H11.8195V22.2339C11.8224 22.7636 12.0463 23.2443 12.4082 23.5918V23.5946C12.7716 23.9435 13.2731 24.1607 13.8299 24.1607C14.3765 24.1607 14.8707 23.9519 15.2312 23.6128L15.2516 23.5918C15.6048 23.2513 15.8272 22.7833 15.8389 22.2634C15.8359 22.2368 15.8359 22.2116 15.8389 22.1835L15.8403 22.1401C15.8403 22.021 15.788 21.9103 15.7066 21.8304C15.6252 21.7519 15.5132 21.7043 15.3882 21.7043C15.2617 21.7043 15.1484 21.7519 15.0684 21.8304H15.067C14.9855 21.9103 14.9361 22.0196 14.9361 22.1401L14.939 22.1919L14.9391 22.2339ZM12.3748 3.41304C11.4096 3.85306 10.6537 4.93905 10.0766 6.57157C9.55472 8.03871 9.18839 9.92629 8.94854 12.171C9.09972 12.0589 9.26399 11.9552 9.44133 11.8599C10.2176 11.4437 11.2497 11.1887 12.3748 11.1887C13.5 11.1887 14.5321 11.4437 15.3069 11.8599C15.4857 11.9552 15.6499 12.0589 15.7997 12.171C15.5613 9.92615 15.1935 8.03843 14.6731 6.57157C14.0945 4.93765 13.3386 3.85306 12.3748 3.41304ZM8.05727 12.3153C8.30439 9.90932 8.69396 7.8789 9.25217 6.30227C9.67808 5.09854 10.2087 4.14848 10.857 3.48145C8.49479 3.80375 6.37981 4.86454 4.7718 6.41437C3.20476 7.92496 2.11885 9.89799 1.75397 12.1035C1.86445 12.0208 1.98074 11.9424 2.10431 11.8695C2.81223 11.4477 3.75422 11.1885 4.78196 11.1885C5.80825 11.1885 6.7517 11.4477 7.45962 11.8695C7.68203 12.0026 7.88281 12.1514 8.05727 12.3153ZM13.8924 3.48156C14.5393 4.14859 15.0699 5.09865 15.4973 6.30238C16.0555 7.87883 16.4451 9.90943 16.6907 12.3154C16.8652 12.1515 17.0672 12.003 17.2896 11.8698C17.999 11.448 18.9396 11.1888 19.9673 11.1888C20.995 11.1888 21.9356 11.4481 22.6449 11.8698C22.767 11.9427 22.8848 12.0212 22.9938 12.1038C22.6304 9.89821 21.5445 7.92533 19.9789 6.41471C18.3697 4.86488 16.2544 3.80388 13.8924 3.48156Z"/>
	</mask>
	<path d="M1.2399 14.1624H1.23554C1.21955 14.1638 1.20356 14.1653 1.18466 14.1653C0.944804 14.1653 0.75 13.9761 0.75 13.7449C0.75 10.6508 2.05104 7.84945 4.15448 5.82046C6.16199 3.88388 8.90372 2.65354 11.9389 2.54703V1.4204C11.9389 1.18778 12.1351 1 12.375 1C12.6149 1 12.8111 1.18777 12.8111 1.4204V2.54703C15.8464 2.65353 18.5878 3.88388 20.5955 5.82046C22.6975 7.84952 24 10.6508 24 13.7449C24 13.9761 23.8052 14.1653 23.5639 14.1653C23.5464 14.1653 23.5319 14.1638 23.5145 14.1624H23.5101C23.3095 14.14 23.1452 13.9887 23.122 13.7897C23.0696 13.3258 22.7222 12.8985 22.1887 12.5818C21.6145 12.2399 20.8325 12.031 19.9675 12.031C19.1026 12.031 18.3219 12.2398 17.7463 12.5818C17.2186 12.8957 16.8697 13.3175 16.8145 13.7757C16.7985 13.9803 16.6284 14.1484 16.4104 14.1624C16.3987 14.1638 16.3871 14.1638 16.3755 14.1638C16.1516 14.1722 15.9539 14.0139 15.9277 13.7939C15.8711 13.3357 15.4815 12.9111 14.8855 12.5916C14.3331 12.2959 13.6135 12.0983 12.8111 12.0437V19.0501H13.2559C13.4972 19.0501 13.692 19.2392 13.692 19.4705V22.2226C13.692 22.2647 13.6847 22.3053 13.6717 22.3445V22.3754C13.6717 22.4244 13.6891 22.4693 13.7182 22.5029L13.7313 22.5141C13.7676 22.5491 13.8199 22.5715 13.8752 22.5715C13.9304 22.5715 13.9827 22.5491 14.0191 22.5141H14.0205C14.0554 22.4805 14.0787 22.4314 14.0787 22.3754C14.0787 22.3571 14.0772 22.3445 14.0743 22.3277C14.0583 22.2689 14.0554 22.2114 14.0671 22.1554L14.0656 22.1399C14.0656 21.7882 14.2139 21.4715 14.4523 21.2389L14.4537 21.2375C14.6951 21.0063 15.0251 20.8648 15.3884 20.8648C15.7533 20.8648 16.0848 21.0063 16.3232 21.2375C16.563 21.4687 16.7113 21.7882 16.7113 22.1399L16.7098 22.1778C16.7098 22.1918 16.7113 22.2072 16.7113 22.2226C16.7113 22.9891 16.3886 23.6842 15.8682 24.1859L15.842 24.2097C15.3231 24.6987 14.6122 25 13.8301 25C13.035 25 12.3154 24.6889 11.7935 24.1845C11.2702 23.6842 10.9475 22.9892 10.9475 22.2226H10.949V19.4705C10.949 19.2393 11.1423 19.0501 11.3822 19.0501H11.9389V12.0437C11.1365 12.0983 10.417 12.2959 9.86456 12.5916C9.26709 12.9111 8.87753 13.3356 8.82082 13.7939C8.79465 14.0139 8.59696 14.1722 8.3731 14.1638C8.36147 14.1638 8.34984 14.1638 8.33821 14.1624C8.12016 14.1484 7.95007 13.9802 7.93556 13.7757C7.87887 13.3175 7.53145 12.8957 7.00376 12.5818C6.42809 12.2399 5.6475 12.031 4.78253 12.031C3.91615 12.031 3.13552 12.2398 2.55986 12.5818C2.02781 12.8985 1.67893 13.3258 1.62806 13.7897C1.60625 13.9887 1.44052 14.14 1.2399 14.1624ZM14.9391 22.2339L14.942 22.2479L14.9435 22.2844C14.9493 22.3194 14.9507 22.3488 14.9507 22.3755C14.9507 22.6599 14.8301 22.9191 14.6353 23.1083C14.4405 23.2961 14.1716 23.411 13.875 23.411C13.5784 23.411 13.3095 23.2961 13.1147 23.1083L13.0871 23.0789C12.9083 22.8939 12.7993 22.6459 12.7993 22.3755C12.7993 22.3404 12.8036 22.297 12.8094 22.2452C12.8123 22.2241 12.8153 22.2045 12.8211 22.1849V19.891H11.8195V22.2339C11.8224 22.7636 12.0463 23.2443 12.4082 23.5918V23.5946C12.7716 23.9435 13.2731 24.1607 13.8299 24.1607C14.3765 24.1607 14.8707 23.9519 15.2312 23.6128L15.2516 23.5918C15.6048 23.2513 15.8272 22.7833 15.8389 22.2634C15.8359 22.2368 15.8359 22.2116 15.8389 22.1835L15.8403 22.1401C15.8403 22.021 15.788 21.9103 15.7066 21.8304C15.6252 21.7519 15.5132 21.7043 15.3882 21.7043C15.2617 21.7043 15.1484 21.7519 15.0684 21.8304H15.067C14.9855 21.9103 14.9361 22.0196 14.9361 22.1401L14.939 22.1919L14.9391 22.2339ZM12.3748 3.41304C11.4096 3.85306 10.6537 4.93905 10.0766 6.57157C9.55472 8.03871 9.18839 9.92629 8.94854 12.171C9.09972 12.0589 9.26399 11.9552 9.44133 11.8599C10.2176 11.4437 11.2497 11.1887 12.3748 11.1887C13.5 11.1887 14.5321 11.4437 15.3069 11.8599C15.4857 11.9552 15.6499 12.0589 15.7997 12.171C15.5613 9.92615 15.1935 8.03843 14.6731 6.57157C14.0945 4.93765 13.3386 3.85306 12.3748 3.41304ZM8.05727 12.3153C8.30439 9.90932 8.69396 7.8789 9.25217 6.30227C9.67808 5.09854 10.2087 4.14848 10.857 3.48145C8.49479 3.80375 6.37981 4.86454 4.7718 6.41437C3.20476 7.92496 2.11885 9.89799 1.75397 12.1035C1.86445 12.0208 1.98074 11.9424 2.10431 11.8695C2.81223 11.4477 3.75422 11.1885 4.78196 11.1885C5.80825 11.1885 6.7517 11.4477 7.45962 11.8695C7.68203 12.0026 7.88281 12.1514 8.05727 12.3153ZM13.8924 3.48156C14.5393 4.14859 15.0699 5.09865 15.4973 6.30238C16.0555 7.87883 16.4451 9.90943 16.6907 12.3154C16.8652 12.1515 17.0672 12.003 17.2896 11.8698C17.999 11.448 18.9396 11.1888 19.9673 11.1888C20.995 11.1888 21.9356 11.4481 22.6449 11.8698C22.767 11.9427 22.8848 12.0212 22.9938 12.1038C22.6304 9.89821 21.5445 7.92533 19.9789 6.41471C18.3697 4.86488 16.2544 3.80388 13.8924 3.48156Z" fill="#B1B1B3"/>
	<path d="M1.2399 14.1624H1.23554C1.21955 14.1638 1.20356 14.1653 1.18466 14.1653C0.944804 14.1653 0.75 13.9761 0.75 13.7449C0.75 10.6508 2.05104 7.84945 4.15448 5.82046C6.16199 3.88388 8.90372 2.65354 11.9389 2.54703V1.4204C11.9389 1.18778 12.1351 1 12.375 1C12.6149 1 12.8111 1.18777 12.8111 1.4204V2.54703C15.8464 2.65353 18.5878 3.88388 20.5955 5.82046C22.6975 7.84952 24 10.6508 24 13.7449C24 13.9761 23.8052 14.1653 23.5639 14.1653C23.5464 14.1653 23.5319 14.1638 23.5145 14.1624H23.5101C23.3095 14.14 23.1452 13.9887 23.122 13.7897C23.0696 13.3258 22.7222 12.8985 22.1887 12.5818C21.6145 12.2399 20.8325 12.031 19.9675 12.031C19.1026 12.031 18.3219 12.2398 17.7463 12.5818C17.2186 12.8957 16.8697 13.3175 16.8145 13.7757C16.7985 13.9803 16.6284 14.1484 16.4104 14.1624C16.3987 14.1638 16.3871 14.1638 16.3755 14.1638C16.1516 14.1722 15.9539 14.0139 15.9277 13.7939C15.8711 13.3357 15.4815 12.9111 14.8855 12.5916C14.3331 12.2959 13.6135 12.0983 12.8111 12.0437V19.0501H13.2559C13.4972 19.0501 13.692 19.2392 13.692 19.4705V22.2226C13.692 22.2647 13.6847 22.3053 13.6717 22.3445V22.3754C13.6717 22.4244 13.6891 22.4693 13.7182 22.5029L13.7313 22.5141C13.7676 22.5491 13.8199 22.5715 13.8752 22.5715C13.9304 22.5715 13.9827 22.5491 14.0191 22.5141H14.0205C14.0554 22.4805 14.0787 22.4314 14.0787 22.3754C14.0787 22.3571 14.0772 22.3445 14.0743 22.3277C14.0583 22.2689 14.0554 22.2114 14.0671 22.1554L14.0656 22.1399C14.0656 21.7882 14.2139 21.4715 14.4523 21.2389L14.4537 21.2375C14.6951 21.0063 15.0251 20.8648 15.3884 20.8648C15.7533 20.8648 16.0848 21.0063 16.3232 21.2375C16.563 21.4687 16.7113 21.7882 16.7113 22.1399L16.7098 22.1778C16.7098 22.1918 16.7113 22.2072 16.7113 22.2226C16.7113 22.9891 16.3886 23.6842 15.8682 24.1859L15.842 24.2097C15.3231 24.6987 14.6122 25 13.8301 25C13.035 25 12.3154 24.6889 11.7935 24.1845C11.2702 23.6842 10.9475 22.9892 10.9475 22.2226H10.949V19.4705C10.949 19.2393 11.1423 19.0501 11.3822 19.0501H11.9389V12.0437C11.1365 12.0983 10.417 12.2959 9.86456 12.5916C9.26709 12.9111 8.87753 13.3356 8.82082 13.7939C8.79465 14.0139 8.59696 14.1722 8.3731 14.1638C8.36147 14.1638 8.34984 14.1638 8.33821 14.1624C8.12016 14.1484 7.95007 13.9802 7.93556 13.7757C7.87887 13.3175 7.53145 12.8957 7.00376 12.5818C6.42809 12.2399 5.6475 12.031 4.78253 12.031C3.91615 12.031 3.13552 12.2398 2.55986 12.5818C2.02781 12.8985 1.67893 13.3258 1.62806 13.7897C1.60625 13.9887 1.44052 14.14 1.2399 14.1624ZM14.9391 22.2339L14.942 22.2479L14.9435 22.2844C14.9493 22.3194 14.9507 22.3488 14.9507 22.3755C14.9507 22.6599 14.8301 22.9191 14.6353 23.1083C14.4405 23.2961 14.1716 23.411 13.875 23.411C13.5784 23.411 13.3095 23.2961 13.1147 23.1083L13.0871 23.0789C12.9083 22.8939 12.7993 22.6459 12.7993 22.3755C12.7993 22.3404 12.8036 22.297 12.8094 22.2452C12.8123 22.2241 12.8153 22.2045 12.8211 22.1849V19.891H11.8195V22.2339C11.8224 22.7636 12.0463 23.2443 12.4082 23.5918V23.5946C12.7716 23.9435 13.2731 24.1607 13.8299 24.1607C14.3765 24.1607 14.8707 23.9519 15.2312 23.6128L15.2516 23.5918C15.6048 23.2513 15.8272 22.7833 15.8389 22.2634C15.8359 22.2368 15.8359 22.2116 15.8389 22.1835L15.8403 22.1401C15.8403 22.021 15.788 21.9103 15.7066 21.8304C15.6252 21.7519 15.5132 21.7043 15.3882 21.7043C15.2617 21.7043 15.1484 21.7519 15.0684 21.8304H15.067C14.9855 21.9103 14.9361 22.0196 14.9361 22.1401L14.939 22.1919L14.9391 22.2339ZM12.3748 3.41304C11.4096 3.85306 10.6537 4.93905 10.0766 6.57157C9.55472 8.03871 9.18839 9.92629 8.94854 12.171C9.09972 12.0589 9.26399 11.9552 9.44133 11.8599C10.2176 11.4437 11.2497 11.1887 12.3748 11.1887C13.5 11.1887 14.5321 11.4437 15.3069 11.8599C15.4857 11.9552 15.6499 12.0589 15.7997 12.171C15.5613 9.92615 15.1935 8.03843 14.6731 6.57157C14.0945 4.93765 13.3386 3.85306 12.3748 3.41304ZM8.05727 12.3153C8.30439 9.90932 8.69396 7.8789 9.25217 6.30227C9.67808 5.09854 10.2087 4.14848 10.857 3.48145C8.49479 3.80375 6.37981 4.86454 4.7718 6.41437C3.20476 7.92496 2.11885 9.89799 1.75397 12.1035C1.86445 12.0208 1.98074 11.9424 2.10431 11.8695C2.81223 11.4477 3.75422 11.1885 4.78196 11.1885C5.80825 11.1885 6.7517 11.4477 7.45962 11.8695C7.68203 12.0026 7.88281 12.1514 8.05727 12.3153ZM13.8924 3.48156C14.5393 4.14859 15.0699 5.09865 15.4973 6.30238C16.0555 7.87883 16.4451 9.90943 16.6907 12.3154C16.8652 12.1515 17.0672 12.003 17.2896 11.8698C17.999 11.448 18.9396 11.1888 19.9673 11.1888C20.995 11.1888 21.9356 11.4481 22.6449 11.8698C22.767 11.9427 22.8848 12.0212 22.9938 12.1038C22.6304 9.89821 21.5445 7.92533 19.9789 6.41471C18.3697 4.86488 16.2544 3.80388 13.8924 3.48156Z" stroke="#B1B1B3" stroke-width="0.6" mask="url(#path-1-outside-1_7300_2658)"/>
</svg>