<svg width="24" height="24" viewBox="0 0 24 24" fill="none" xmlns="http://www.w3.org/2000/svg">
	<path d="M23.9369 17.6575L21.503 13.2767C21.5849 11.6983 23.2078 10.8556 23.2233 10.8476C23.2878 10.8154 23.3446 10.7695 23.3898 10.7133C23.4349 10.657 23.4674 10.5917 23.4849 10.5217L23.9849 8.52172C24.0124 8.41134 24.0015 8.29486 23.954 8.1915C23.9064 8.08814 23.825 8.00409 23.7233 7.95319L20.7233 6.45319C20.6539 6.4183 20.5774 6.40004 20.4998 6.39986H18.9998V4.90039H20.5918C20.7098 5.234 20.9418 5.51517 21.2471 5.69421C21.5523 5.87324 21.9109 5.93862 22.2597 5.87879C22.6084 5.81895 22.9248 5.63775 23.1529 5.36722C23.3809 5.09669 23.506 4.75423 23.506 4.40039C23.506 4.04655 23.3809 3.7041 23.1529 3.43356C22.9248 3.16303 22.6084 2.98183 22.2597 2.92199C21.9109 2.86216 21.5523 2.92754 21.2471 3.10658C20.9418 3.28561 20.7098 3.56678 20.5918 3.90039H18.9998C18.9998 3.50257 18.8418 3.12103 18.5605 2.83973C18.2792 2.55843 17.8976 2.40039 17.4998 2.40039C17.102 2.40039 16.7205 2.55843 16.4392 2.83973C16.1579 3.12103 15.9998 3.50257 15.9998 3.90039H9.99981C9.99981 3.50257 9.84178 3.12103 9.56048 2.83973C9.27917 2.55843 8.89764 2.40039 8.49981 2.40039C8.10199 2.40039 7.72046 2.55843 7.43915 2.83973C7.15785 3.12103 6.99981 3.50257 6.99981 3.90039H3.40755C3.2896 3.56678 3.05751 3.28561 2.75231 3.10658C2.4471 2.92754 2.08843 2.86216 1.73968 2.92199C1.39093 2.98183 1.07457 3.16303 0.846495 3.43356C0.618424 3.7041 0.493334 4.04655 0.493334 4.40039C0.493334 4.75423 0.618424 5.09669 0.846495 5.36722C1.07457 5.63775 1.39093 5.81895 1.73968 5.87879C2.08843 5.93862 2.4471 5.87324 2.75231 5.69421C3.05751 5.51517 3.2896 5.234 3.40755 4.90039H8.99981V6.40039H7.49981C7.46687 6.40039 7.434 6.40361 7.40168 6.40999L4.90168 6.90999C4.82895 6.92459 4.76038 6.95518 4.70093 6.99955C4.64148 7.04392 4.59264 7.10095 4.55795 7.16652L0.0579478 15.6665C0.0268236 15.7254 0.00777875 15.79 0.00193092 15.8563C-0.0039169 15.9227 0.00355008 15.9896 0.0238938 16.053C0.0442375 16.1164 0.0770481 16.1752 0.1204 16.2258C0.163752 16.2764 0.216772 16.3178 0.276348 16.3476L2.27635 17.3476C2.39217 17.4055 2.52593 17.4162 2.64948 17.3774C2.77302 17.3387 2.87672 17.2535 2.93875 17.1399L4.99981 13.3612V20.9004C4.99989 21.033 5.05259 21.1601 5.14634 21.2539C5.24009 21.3476 5.36723 21.4003 5.49981 21.4004H13.4998C13.6324 21.4003 13.7595 21.3476 13.8533 21.2539C13.947 21.1601 13.9997 21.033 13.9998 20.9004V13.3612L16.0609 17.1399C16.1229 17.2535 16.2266 17.3387 16.3502 17.3774C16.4737 17.4162 16.6075 17.4055 16.7233 17.3476L18.7233 16.3476C18.7829 16.3178 18.8359 16.2764 18.8792 16.2258C18.9226 16.1752 18.9554 16.1164 18.9757 16.053C18.9961 15.9896 19.0035 15.9227 18.9977 15.8563C18.9919 15.79 18.9728 15.7254 18.9417 15.6665L14.4417 7.16652C14.407 7.10095 14.3582 7.04392 14.2987 6.99955C14.2393 6.95518 14.1707 6.92459 14.0979 6.90999L11.5979 6.40999C11.5656 6.40361 11.5328 6.40039 11.4998 6.40039H9.99981V4.90039H17.9998V6.40039H16.4998C16.4221 6.40061 16.3455 6.41887 16.2761 6.45372L15.7761 6.70386C15.7174 6.73321 15.665 6.77384 15.622 6.82343C15.579 6.87303 15.5461 6.93061 15.5254 6.99289C15.5046 7.05517 15.4964 7.12093 15.501 7.18642C15.5057 7.2519 15.5232 7.31582 15.5526 7.37452C15.604 7.47514 15.6884 7.55505 15.7916 7.60088C15.8949 7.64671 16.0107 7.65567 16.1198 7.62626C16.272 8.13714 16.5845 8.5855 17.0111 8.90505C17.4378 9.22461 17.9559 9.39838 18.489 9.40068C19.022 9.40298 19.5417 9.23369 19.9711 8.91784C20.4005 8.60199 20.7169 8.15634 20.8734 7.64679L22.9174 8.66892L22.5665 10.0719C22.0529 10.3847 20.7718 11.3159 20.5398 12.9009H19.2497C19.1171 12.9009 18.9899 12.9536 18.8961 13.0474C18.8024 13.1411 18.7497 13.2683 18.7497 13.4009C18.7497 13.5335 18.8024 13.6607 18.8961 13.7545C18.9899 13.8482 19.1171 13.9009 19.2497 13.9009H20.7057L22.9249 17.8953C22.6512 18.3241 22.3223 18.7149 21.9465 19.0577C21.0129 19.9315 19.7787 20.4123 18.5001 20.4004C17.5386 20.4129 16.5875 20.2008 15.7225 19.7809C15.6037 19.7219 15.4664 19.7124 15.3407 19.7546C15.2149 19.7968 15.1111 19.8872 15.0521 20.006C14.993 20.1247 14.9836 20.2621 15.0258 20.3878C15.068 20.5135 15.1584 20.6173 15.2771 20.6764C16.2803 21.1654 17.3839 21.4133 18.4998 21.4004C20.0417 21.4069 21.5274 20.8224 22.6515 19.7671C23.1711 19.2947 23.6087 18.7395 23.9465 18.1239C23.983 18.0512 24.0012 17.9707 23.9995 17.8895C23.9978 17.8082 23.9763 17.7285 23.9369 17.6575ZM21.9998 3.90039C22.0987 3.90039 22.1954 3.92971 22.2776 3.98466C22.3598 4.0396 22.4239 4.11769 22.4618 4.20905C22.4996 4.30041 22.5095 4.40095 22.4902 4.49794C22.4709 4.59493 22.4233 4.68402 22.3534 4.75394C22.2834 4.82387 22.1943 4.87149 22.0974 4.89078C22.0004 4.91008 21.8998 4.90017 21.8085 4.86233C21.7171 4.82449 21.639 4.7604 21.5841 4.67818C21.5291 4.59595 21.4998 4.49928 21.4998 4.40039C21.5 4.26783 21.5527 4.14073 21.6464 4.04699C21.7402 3.95326 21.8673 3.90053 21.9998 3.90039ZM1.99981 4.90039C1.90092 4.90039 1.80425 4.87107 1.72203 4.81613C1.6398 4.76118 1.57572 4.6831 1.53787 4.59173C1.50003 4.50037 1.49013 4.39984 1.50942 4.30285C1.52871 4.20585 1.57633 4.11676 1.64626 4.04684C1.71619 3.97691 1.80528 3.92929 1.90227 3.91C1.99926 3.89071 2.09979 3.90061 2.19116 3.93845C2.28252 3.97629 2.36061 4.04038 2.41555 4.12261C2.47049 4.20483 2.49981 4.3015 2.49981 4.40039C2.49967 4.53296 2.44695 4.66005 2.35321 4.75379C2.25947 4.84753 2.13238 4.90025 1.99981 4.90039ZM11.1465 9.75372L11.7929 10.4001L10.3313 11.8617L11.2395 7.50226C11.2425 7.47211 11.2425 7.44174 11.2395 7.41159L11.8561 8.33639L11.1465 9.04706C11.0528 9.14085 11.0002 9.26798 11.0002 9.40052C11.0002 9.53307 11.0528 9.65993 11.1465 9.75372ZM7.85341 9.04706L7.14328 8.33692L7.75981 7.41186C7.75688 7.44201 7.75688 7.47237 7.75981 7.50252L8.66808 11.862L7.20648 10.4004L7.85288 9.75399C7.9466 9.66026 7.9993 9.53318 7.9994 9.40063C7.9995 9.26809 7.94699 9.14092 7.85341 9.04706ZM8.76008 7.40066H10.2398L9.49981 10.9487L8.76008 7.40066ZM5.99981 20.4004V11.4004C5.99994 11.2892 5.96302 11.1812 5.8949 11.0934C5.82677 11.0056 5.73133 10.9429 5.62364 10.9154C5.51595 10.8879 5.40216 10.897 5.30025 10.9414C5.19834 10.9858 5.11411 11.0628 5.06088 11.1604L2.29315 16.2375L1.18115 15.682L5.33075 7.84412L6.41421 7.62732L6.08381 8.12306C6.01968 8.21923 5.99085 8.33465 6.00223 8.44968C6.0136 8.56471 6.06449 8.67225 6.14621 8.75399L6.79261 9.40039L6.14621 10.0468C6.05248 10.1406 5.99983 10.2678 5.99983 10.4004C5.99983 10.533 6.05248 10.6602 6.14621 10.754L8.99955 13.6073V20.4004H5.99981ZM17.8185 15.682L16.7078 16.2375L13.9387 11.1609C13.8855 11.0633 13.8013 10.9863 13.6994 10.9419C13.5975 10.8976 13.4837 10.8884 13.376 10.9159C13.2683 10.9435 13.1729 11.0061 13.1047 11.0939C13.0366 11.1818 12.9997 11.2898 12.9998 11.4009V20.4009H9.99981V13.6071L12.8531 10.7537C12.9469 10.6599 12.9995 10.5327 12.9995 10.4001C12.9995 10.2675 12.9469 10.1403 12.8531 10.0465L12.2067 9.40012L12.8531 8.75372C12.9349 8.67198 12.9858 8.56444 12.9971 8.44941C13.0085 8.33438 12.9797 8.21896 12.9155 8.12279L12.5865 7.62732L13.6699 7.84412L17.8185 15.682ZM7.99981 3.90039C7.99981 3.76778 8.05249 3.64061 8.14626 3.54684C8.24003 3.45307 8.36721 3.40039 8.49981 3.40039C8.63242 3.40039 8.7596 3.45307 8.85337 3.54684C8.94714 3.64061 8.99981 3.76778 8.99981 3.90039H7.99981ZM16.9998 3.90039C16.9998 3.76778 17.0525 3.64061 17.1463 3.54684C17.24 3.45307 17.3672 3.40039 17.4998 3.40039C17.6324 3.40039 17.7596 3.45307 17.8534 3.54684C17.9471 3.64061 17.9998 3.76778 17.9998 3.90039H16.9998ZM18.4998 8.40039C18.1906 8.39942 17.8893 8.30278 17.6372 8.12374C17.3851 7.94469 17.1946 7.69202 17.0918 7.40039H19.9075C19.8049 7.69202 19.6144 7.9447 19.3624 8.12376C19.1103 8.30281 18.809 8.39944 18.4998 8.40039Z" fill="#B1B1B3"/>
</svg>