<svg width="26" height="24" viewBox="0 0 26 24" fill="none" xmlns="http://www.w3.org/2000/svg">
	<path d="M1.64767 15.7678H1.66115L1.67441 15.7654L11.335 14.0156C11.3053 14.1428 11.2905 14.2755 11.2905 14.4217C11.2905 14.7564 11.3914 15.0566 11.5321 15.2928C11.2208 15.9749 10.6111 17.3319 10.1492 18.6905C9.90967 19.3949 9.70812 20.1048 9.60925 20.7242C9.51185 21.3344 9.50786 21.8914 9.69991 22.2648L9.69962 22.2649L9.70468 22.2734C9.85251 22.5198 10.1648 22.6357 10.4338 22.4743C10.6788 22.3273 10.7948 22.0175 10.6373 21.7495C10.6068 21.6899 10.585 21.5934 10.5812 21.4527C10.5774 21.3121 10.5917 21.1397 10.6233 20.9394C10.6865 20.5389 10.816 20.0424 10.9901 19.4944C11.2534 18.666 11.6155 17.7298 11.9939 16.8471C11.9542 17.3275 11.9137 17.8842 11.8841 18.4364C11.8329 19.3914 11.8128 20.3505 11.8902 20.8726L11.89 20.8726L11.8915 20.88C11.9419 21.1323 12.196 21.3533 12.4791 21.2967C12.7299 21.2466 12.9498 20.9952 12.8968 20.7141C12.8437 20.3185 12.8611 19.5416 12.9078 18.7004C12.9408 18.1065 12.9879 17.4888 13.0324 16.9669C13.2806 17.5696 13.5655 18.3598 13.7519 19.1741C14.0028 20.2707 14.0651 21.3706 13.6646 22.1225C13.5063 22.3906 13.6223 22.7009 13.8676 22.8481C14.1366 23.0095 14.4489 22.8935 14.5967 22.6471L14.5968 22.6472L14.5997 22.642C15.1697 21.6002 15.0737 20.1883 14.7825 18.911C14.5102 17.7165 14.0591 16.6059 13.7704 15.9571C14.3451 15.6793 14.7302 15.1024 14.7302 14.4217C14.7302 14.2755 14.7154 14.1428 14.6858 14.0156L24.3436 15.7649C24.3441 15.765 24.3446 15.7651 24.3451 15.7652C24.4859 15.7928 24.6281 15.7495 24.7366 15.6772C24.8455 15.6046 24.9404 15.4895 24.9687 15.3482L24.9687 15.3482L24.9694 15.3445C26.2561 7.96452 20.5045 1.07754 12.973 1.07754C5.40403 1.07754 -0.311009 7.965 1.05164 15.346L1.05162 15.346L1.05206 15.3482C1.1045 15.6104 1.31996 15.7678 1.57292 15.7678H1.57314H1.57336H1.57357H1.57379H1.574H1.57422H1.57443H1.57464H1.57486H1.57507H1.57528H1.57549H1.5757H1.5759H1.57611H1.57632H1.57652H1.57673H1.57693H1.57713H1.57733H1.57754H1.57774H1.57794H1.57814H1.57833H1.57853H1.57873H1.57892H1.57912H1.57931H1.57951H1.5797H1.57989H1.58008H1.58027H1.58047H1.58065H1.58084H1.58103H1.58122H1.5814H1.58159H1.58177H1.58196H1.58214H1.58233H1.58251H1.58269H1.58287H1.58305H1.58323H1.58341H1.58359H1.58376H1.58394H1.58412H1.58429H1.58447H1.58464H1.58481H1.58499H1.58516H1.58533H1.5855H1.58567H1.58584H1.58601H1.58618H1.58634H1.58651H1.58668H1.58684H1.58701H1.58717H1.58734H1.5875H1.58766H1.58783H1.58799H1.58815H1.58831H1.58847H1.58863H1.58879H1.58894H1.5891H1.58926H1.58942H1.58957H1.58973H1.58988H1.59004H1.59019H1.59034H1.59049H1.59065H1.5908H1.59095H1.5911H1.59125H1.5914H1.59155H1.5917H1.59184H1.59199H1.59214H1.59228H1.59243H1.59258H1.59272H1.59286H1.59301H1.59315H1.5933H1.59344H1.59358H1.59372H1.59386H1.594H1.59414H1.59428H1.59442H1.59456H1.5947H1.59484H1.59497H1.59511H1.59525H1.59538H1.59552H1.59566H1.59579H1.59593H1.59606H1.59619H1.59633H1.59646H1.59659H1.59672H1.59686H1.59699H1.59712H1.59725H1.59738H1.59751H1.59764H1.59777H1.5979H1.59803H1.59815H1.59828H1.59841H1.59854H1.59866H1.59879H1.59892H1.59904H1.59917H1.59929H1.59942H1.59954H1.59966H1.59979H1.59991H1.60004H1.60016H1.60028H1.6004H1.60052H1.60065H1.60077H1.60089H1.60101H1.60113H1.60125H1.60137H1.60149H1.60161H1.60173H1.60185H1.60197H1.60209H1.6022H1.60232H1.60244H1.60256H1.60268H1.60279H1.60291H1.60303H1.60314H1.60326H1.60337H1.60349H1.60361H1.60372H1.60384H1.60395H1.60407H1.60418H1.6043H1.60441H1.60452H1.60464H1.60475H1.60487H1.60498H1.60509H1.6052H1.60532H1.60543H1.60554H1.60566H1.60577H1.60588H1.60599H1.6061H1.60622H1.60633H1.60644H1.60655H1.60666H1.60677H1.60689H1.607H1.60711H1.60722H1.60733H1.60744H1.60755H1.60766H1.60777H1.60788H1.60799H1.6081H1.60821H1.60832H1.60843H1.60854H1.60865H1.60876H1.60887H1.60898H1.60909H1.6092H1.60931H1.60942H1.60953H1.60964H1.60975H1.60986H1.60997H1.61008H1.61019H1.6103H1.61041H1.61052H1.61062H1.61073H1.61084H1.61095H1.61106H1.61117H1.61128H1.61139H1.6115H1.61161H1.61172H1.61183H1.61194H1.61205H1.61216H1.61227H1.61238H1.61249H1.6126H1.61271H1.61282H1.61293H1.61304H1.61315H1.61326H1.61337H1.61349H1.6136H1.61371H1.61382H1.61393H1.61404H1.61415H1.61426H1.61438H1.61449H1.6146H1.61471H1.61482H1.61494H1.61505H1.61516H1.61527H1.61539H1.6155H1.61561H1.61573H1.61584H1.61595H1.61607H1.61618H1.6163H1.61641H1.61653H1.61664H1.61676H1.61687H1.61699H1.6171H1.61722H1.61733H1.61745H1.61757H1.61768H1.6178H1.61792H1.61804H1.61815H1.61827H1.61839H1.61851H1.61863H1.61874H1.61886H1.61898H1.6191H1.61922H1.61934H1.61946H1.61958H1.6197H1.61982H1.61995H1.62007H1.62019H1.62031H1.62043H1.62056H1.62068H1.6208H1.62093H1.62105H1.62118H1.6213H1.62143H1.62155H1.62168H1.6218H1.62193H1.62206H1.62218H1.62231H1.62244H1.62257H1.6227H1.62282H1.62295H1.62308H1.62321H1.62334H1.62347H1.62361H1.62374H1.62387H1.624H1.62413H1.62427H1.6244H1.62453H1.62467H1.6248H1.62494H1.62507H1.62521H1.62534H1.62548H1.62562H1.62576H1.62589H1.62603H1.62617H1.62631H1.62645H1.62659H1.62673H1.62687H1.62701H1.62716H1.6273H1.62744H1.62758H1.62773H1.62787H1.62802H1.62816H1.62831H1.62845H1.6286H1.62875H1.6289H1.62905H1.62919H1.62934H1.62949H1.62964H1.62979H1.62995H1.6301H1.63025H1.6304H1.63056H1.63071H1.63087H1.63102H1.63118H1.63133H1.63149H1.63165H1.63181H1.63197H1.63212H1.63228H1.63244H1.63261H1.63277H1.63293H1.63309H1.63326H1.63342H1.63358H1.63375H1.63391H1.63408H1.63425H1.63442H1.63458H1.63475H1.63492H1.63509H1.63526H1.63543H1.63561H1.63578H1.63595H1.63613H1.6363H1.63648H1.63665H1.63683H1.63701H1.63718H1.63736H1.63754H1.63772H1.6379H1.63809H1.63827H1.63845H1.63863H1.63882H1.639H1.63919H1.63938H1.63956H1.63975H1.63994H1.64013H1.64032H1.64051H1.6407H1.64089H1.64109H1.64128H1.64147H1.64167H1.64186H1.64206H1.64226H1.64246H1.64266H1.64286H1.64306H1.64326H1.64346H1.64366H1.64387H1.64407H1.64428H1.64448H1.64469H1.6449H1.64511H1.64532H1.64553H1.64574H1.64595H1.64616H1.64637H1.64659H1.6468H1.64702H1.64724H1.64746H1.64767ZM12.973 15.094C12.6073 15.094 12.3007 14.7874 12.3007 14.4217C12.3007 14.056 12.6073 13.7494 12.973 13.7494C13.3387 13.7494 13.6453 14.056 13.6453 14.4217C13.6453 14.7874 13.3387 15.094 12.973 15.094ZM12.973 10.6097C14.3621 10.6097 15.4941 11.7162 15.5502 13.1216C14.9644 13.018 14.5311 12.9325 14.1917 12.8656C14.092 12.846 14.0005 12.8279 13.9155 12.8115C13.5148 12.7339 13.2537 12.6903 12.9884 12.6879C12.7226 12.6854 12.459 12.7242 12.0522 12.8008C11.9099 12.8277 11.7503 12.8591 11.5664 12.8953C11.2559 12.9564 10.876 13.0312 10.3918 13.1208C10.4179 11.7197 11.58 10.6097 12.973 10.6097ZM23.7397 10.676C24.0621 12.012 24.1014 13.3485 23.945 14.657L16.6083 13.3263C16.6254 12.9952 16.5921 12.6794 16.4909 12.3267L23.7397 10.676ZM15.9629 11.1795L20.7617 5.37043C21.9911 6.53438 22.925 8.02084 23.4699 9.6765L16.0682 11.3374L16.0132 11.2549L15.9629 11.1795ZM14.6336 9.96966L15.8964 2.50092C17.4089 2.93631 18.7906 3.66226 20.0118 4.64894L15.238 10.3561C15.055 10.2049 14.8449 10.0876 14.659 9.98387C14.6505 9.9791 14.642 9.97437 14.6336 9.96966ZM12.973 2.12508C13.6208 2.12508 14.2382 2.18821 14.856 2.28588L13.6355 9.60881C13.5389 9.58948 13.4414 9.57243 13.3351 9.56549L10.3023 2.45278C11.1418 2.25422 12.042 2.12508 12.973 2.12508ZM5.60651 4.96215C6.65469 3.98428 7.92581 3.26024 9.30163 2.76195L12.2022 9.63745C11.8502 9.71524 11.5397 9.84103 11.2351 10.0135L5.60651 4.96215ZM2.52001 9.49452C3.05718 8.08586 3.85106 6.78004 4.87027 5.69726L10.3951 10.6481C10.198 10.8415 10.0254 11.0696 9.87678 11.2976L2.52001 9.49452ZM9.45615 12.2497C9.35375 12.6109 9.32045 12.9518 9.33779 13.2896L1.99829 14.6568C1.8109 13.2774 1.88179 11.8688 2.24055 10.4907L9.45615 12.2497Z" fill="#B1B1B3" stroke="#B1B1B3" stroke-width="0.3"/>
</svg>