<svg width="26" height="26" viewBox="0 0 26 26" fill="none" xmlns="http://www.w3.org/2000/svg">
	<mask id="path-1-outside-1_7300_19408" maskUnits="userSpaceOnUse" x="0" y="0" width="26" height="26" fill="black">
	<rect fill="white" width="26" height="26"/>
	<path d="M24.7691 1.00849C24.6086 0.96923 24.4463 1.07001 24.4082 1.23114C23.9209 3.28536 22.8552 5.15461 21.3291 6.66026C20.9531 6.31951 20.4562 6.10989 19.9099 6.10989C18.7425 6.10989 17.7927 7.05969 17.7927 8.22745C17.7927 8.49844 17.8457 8.7568 17.9389 8.99518C16.9623 9.43855 15.9299 9.74647 14.8633 9.91256C14.6887 9.46544 14.256 9.14677 13.7479 9.14677H12.2521C11.744 9.14677 11.3113 9.46544 11.1367 9.91256C10.0701 9.74647 9.03773 9.43855 8.06109 8.99518C8.15429 8.7568 8.20733 8.49844 8.20733 8.22745C8.20733 7.05969 7.25753 6.10989 6.08976 6.10989C5.54365 6.10989 5.04679 6.31951 4.67088 6.66025C3.14473 5.15462 2.07911 3.28536 1.59182 1.23114C1.55373 1.07001 1.39172 0.96923 1.23088 1.00849C1.06945 1.04657 0.969845 1.20829 1.00822 1.36942C1.52539 3.55042 2.65989 5.53295 4.28601 7.12412C4.08849 7.44591 3.97248 7.82292 3.97248 8.22745C3.97248 9.39491 4.92228 10.3447 6.08976 10.3447C6.77107 10.3447 7.37649 10.02 7.76409 9.51882C8.80755 9.99802 9.91138 10.3296 11.0523 10.5068V12.0328H10.4386C10.3589 12.0328 10.2827 12.0644 10.2265 12.1207L10.2254 12.1217C10.2252 12.122 10.2249 12.1222 10.2247 12.1225L6.60613 15.741C6.60589 15.7412 6.60564 15.7414 6.6054 15.7417L6.60421 15.7429C6.54796 15.7991 6.51632 15.8753 6.51632 15.955V21.0778C6.51632 21.1176 6.52423 21.1566 6.53917 21.1926C6.55334 21.2269 6.57442 21.2556 6.59837 21.2812C6.6008 21.2838 6.60168 21.2874 6.60421 21.2899L10.2247 24.9103C10.2249 24.9106 10.2252 24.9108 10.2254 24.911L10.2265 24.9121C10.2546 24.9402 10.2877 24.9622 10.3237 24.9771C10.3598 24.9921 10.3987 25 10.4386 25H15.5614C15.6013 25 15.6402 24.9921 15.6763 24.9771C15.7123 24.9622 15.7454 24.9402 15.7735 24.9121L15.7746 24.9111C15.7748 24.9108 15.7751 24.9105 15.7754 24.9103L19.3958 21.2899C19.3983 21.2874 19.3992 21.2838 19.4016 21.2812C19.4256 21.2556 19.4467 21.2269 19.4608 21.1926C19.4758 21.1566 19.4837 21.1176 19.4837 21.0778V15.955C19.4837 15.8753 19.452 15.7991 19.3958 15.7429L19.3946 15.7417C19.3944 15.7415 19.3942 15.7413 19.3939 15.741L15.7754 12.1225C15.7751 12.1222 15.7748 12.122 15.7746 12.1217L15.7735 12.1207C15.7173 12.0644 15.6411 12.0328 15.5614 12.0328H15.56C15.5598 12.0328 15.5597 12.0328 15.5596 12.0328H14.9477V10.5068C16.0886 10.3296 17.1924 9.99804 18.2359 9.51884C18.6235 10.02 19.2288 10.3447 19.9099 10.3447C21.0777 10.3447 22.0275 9.39491 22.0275 8.22745C22.0275 7.82292 21.9115 7.44592 21.714 7.12414C23.3401 5.53295 24.4746 3.55042 24.9918 1.36942C25.0302 1.20829 24.9305 1.04657 24.7691 1.00849ZM6.08976 9.74471C5.25304 9.74471 4.57248 9.06415 4.57248 8.22745C4.57248 7.39074 5.25304 6.70989 6.08976 6.70989C6.92648 6.70989 7.60733 7.39074 7.60733 8.22745C7.60733 9.06415 6.92648 9.74471 6.08976 9.74471ZM15.1124 12.6328L14.1375 14.9864H11.8625L10.8876 12.6328H15.1124ZM18.6541 15.8496L16.3003 16.8246L14.6918 15.2161L15.6668 12.8623L18.6541 15.8496ZM18.8837 20.6288L16.53 19.6536V17.3789L18.8837 16.404V20.6288ZM15.6668 24.1704L14.6918 21.8164L16.3003 20.2079L18.6541 21.1831L15.6668 24.1704ZM7.34588 21.1831L9.69968 20.2079L11.3082 21.8164L10.3332 24.1704L7.34588 21.1831ZM7.11632 16.404L9.47003 17.3789V19.6536L7.11632 20.6288V16.404ZM10.3332 12.8623L11.3082 15.2161L9.69966 16.8246L7.3459 15.8496L10.3332 12.8623ZM14.2138 15.5864L15.93 17.3026V19.7298L14.2138 21.446H11.7862L10.07 19.7298V17.3026L11.7862 15.5864H14.2138ZM11.8625 22.046H14.1375L15.1125 24.4H10.8875L11.8625 22.046ZM11.6523 12.0328V10.3468C11.6523 10.016 11.9213 9.74676 12.2521 9.74676H13.7479C14.0787 9.74676 14.3477 10.016 14.3477 10.3468V12.0328H11.6523ZM19.9099 9.74471C19.0732 9.74471 18.3927 9.06415 18.3927 8.22745C18.3927 7.39074 19.0732 6.70989 19.9099 6.70989C20.7467 6.70989 21.4275 7.39074 21.4275 8.22745C21.4275 9.06415 20.7467 9.74471 19.9099 9.74471Z"/>
	</mask>
	<path d="M24.7691 1.00849C24.6086 0.96923 24.4463 1.07001 24.4082 1.23114C23.9209 3.28536 22.8552 5.15461 21.3291 6.66026C20.9531 6.31951 20.4562 6.10989 19.9099 6.10989C18.7425 6.10989 17.7927 7.05969 17.7927 8.22745C17.7927 8.49844 17.8457 8.7568 17.9389 8.99518C16.9623 9.43855 15.9299 9.74647 14.8633 9.91256C14.6887 9.46544 14.256 9.14677 13.7479 9.14677H12.2521C11.744 9.14677 11.3113 9.46544 11.1367 9.91256C10.0701 9.74647 9.03773 9.43855 8.06109 8.99518C8.15429 8.7568 8.20733 8.49844 8.20733 8.22745C8.20733 7.05969 7.25753 6.10989 6.08976 6.10989C5.54365 6.10989 5.04679 6.31951 4.67088 6.66025C3.14473 5.15462 2.07911 3.28536 1.59182 1.23114C1.55373 1.07001 1.39172 0.96923 1.23088 1.00849C1.06945 1.04657 0.969845 1.20829 1.00822 1.36942C1.52539 3.55042 2.65989 5.53295 4.28601 7.12412C4.08849 7.44591 3.97248 7.82292 3.97248 8.22745C3.97248 9.39491 4.92228 10.3447 6.08976 10.3447C6.77107 10.3447 7.37649 10.02 7.76409 9.51882C8.80755 9.99802 9.91138 10.3296 11.0523 10.5068V12.0328H10.4386C10.3589 12.0328 10.2827 12.0644 10.2265 12.1207L10.2254 12.1217C10.2252 12.122 10.2249 12.1222 10.2247 12.1225L6.60613 15.741C6.60589 15.7412 6.60564 15.7414 6.6054 15.7417L6.60421 15.7429C6.54796 15.7991 6.51632 15.8753 6.51632 15.955V21.0778C6.51632 21.1176 6.52423 21.1566 6.53917 21.1926C6.55334 21.2269 6.57442 21.2556 6.59837 21.2812C6.6008 21.2838 6.60168 21.2874 6.60421 21.2899L10.2247 24.9103C10.2249 24.9106 10.2252 24.9108 10.2254 24.911L10.2265 24.9121C10.2546 24.9402 10.2877 24.9622 10.3237 24.9771C10.3598 24.9921 10.3987 25 10.4386 25H15.5614C15.6013 25 15.6402 24.9921 15.6763 24.9771C15.7123 24.9622 15.7454 24.9402 15.7735 24.9121L15.7746 24.9111C15.7748 24.9108 15.7751 24.9105 15.7754 24.9103L19.3958 21.2899C19.3983 21.2874 19.3992 21.2838 19.4016 21.2812C19.4256 21.2556 19.4467 21.2269 19.4608 21.1926C19.4758 21.1566 19.4837 21.1176 19.4837 21.0778V15.955C19.4837 15.8753 19.452 15.7991 19.3958 15.7429L19.3946 15.7417C19.3944 15.7415 19.3942 15.7413 19.3939 15.741L15.7754 12.1225C15.7751 12.1222 15.7748 12.122 15.7746 12.1217L15.7735 12.1207C15.7173 12.0644 15.6411 12.0328 15.5614 12.0328H15.56C15.5598 12.0328 15.5597 12.0328 15.5596 12.0328H14.9477V10.5068C16.0886 10.3296 17.1924 9.99804 18.2359 9.51884C18.6235 10.02 19.2288 10.3447 19.9099 10.3447C21.0777 10.3447 22.0275 9.39491 22.0275 8.22745C22.0275 7.82292 21.9115 7.44592 21.714 7.12414C23.3401 5.53295 24.4746 3.55042 24.9918 1.36942C25.0302 1.20829 24.9305 1.04657 24.7691 1.00849ZM6.08976 9.74471C5.25304 9.74471 4.57248 9.06415 4.57248 8.22745C4.57248 7.39074 5.25304 6.70989 6.08976 6.70989C6.92648 6.70989 7.60733 7.39074 7.60733 8.22745C7.60733 9.06415 6.92648 9.74471 6.08976 9.74471ZM15.1124 12.6328L14.1375 14.9864H11.8625L10.8876 12.6328H15.1124ZM18.6541 15.8496L16.3003 16.8246L14.6918 15.2161L15.6668 12.8623L18.6541 15.8496ZM18.8837 20.6288L16.53 19.6536V17.3789L18.8837 16.404V20.6288ZM15.6668 24.1704L14.6918 21.8164L16.3003 20.2079L18.6541 21.1831L15.6668 24.1704ZM7.34588 21.1831L9.69968 20.2079L11.3082 21.8164L10.3332 24.1704L7.34588 21.1831ZM7.11632 16.404L9.47003 17.3789V19.6536L7.11632 20.6288V16.404ZM10.3332 12.8623L11.3082 15.2161L9.69966 16.8246L7.3459 15.8496L10.3332 12.8623ZM14.2138 15.5864L15.93 17.3026V19.7298L14.2138 21.446H11.7862L10.07 19.7298V17.3026L11.7862 15.5864H14.2138ZM11.8625 22.046H14.1375L15.1125 24.4H10.8875L11.8625 22.046ZM11.6523 12.0328V10.3468C11.6523 10.016 11.9213 9.74676 12.2521 9.74676H13.7479C14.0787 9.74676 14.3477 10.016 14.3477 10.3468V12.0328H11.6523ZM19.9099 9.74471C19.0732 9.74471 18.3927 9.06415 18.3927 8.22745C18.3927 7.39074 19.0732 6.70989 19.9099 6.70989C20.7467 6.70989 21.4275 7.39074 21.4275 8.22745C21.4275 9.06415 20.7467 9.74471 19.9099 9.74471Z" fill="#B1B1B3"/>
	<path d="M24.7691 1.00849C24.6086 0.96923 24.4463 1.07001 24.4082 1.23114C23.9209 3.28536 22.8552 5.15461 21.3291 6.66026C20.9531 6.31951 20.4562 6.10989 19.9099 6.10989C18.7425 6.10989 17.7927 7.05969 17.7927 8.22745C17.7927 8.49844 17.8457 8.7568 17.9389 8.99518C16.9623 9.43855 15.9299 9.74647 14.8633 9.91256C14.6887 9.46544 14.256 9.14677 13.7479 9.14677H12.2521C11.744 9.14677 11.3113 9.46544 11.1367 9.91256C10.0701 9.74647 9.03773 9.43855 8.06109 8.99518C8.15429 8.7568 8.20733 8.49844 8.20733 8.22745C8.20733 7.05969 7.25753 6.10989 6.08976 6.10989C5.54365 6.10989 5.04679 6.31951 4.67088 6.66025C3.14473 5.15462 2.07911 3.28536 1.59182 1.23114C1.55373 1.07001 1.39172 0.96923 1.23088 1.00849C1.06945 1.04657 0.969845 1.20829 1.00822 1.36942C1.52539 3.55042 2.65989 5.53295 4.28601 7.12412C4.08849 7.44591 3.97248 7.82292 3.97248 8.22745C3.97248 9.39491 4.92228 10.3447 6.08976 10.3447C6.77107 10.3447 7.37649 10.02 7.76409 9.51882C8.80755 9.99802 9.91138 10.3296 11.0523 10.5068V12.0328H10.4386C10.3589 12.0328 10.2827 12.0644 10.2265 12.1207L10.2254 12.1217C10.2252 12.122 10.2249 12.1222 10.2247 12.1225L6.60613 15.741C6.60589 15.7412 6.60564 15.7414 6.6054 15.7417L6.60421 15.7429C6.54796 15.7991 6.51632 15.8753 6.51632 15.955V21.0778C6.51632 21.1176 6.52423 21.1566 6.53917 21.1926C6.55334 21.2269 6.57442 21.2556 6.59837 21.2812C6.6008 21.2838 6.60168 21.2874 6.60421 21.2899L10.2247 24.9103C10.2249 24.9106 10.2252 24.9108 10.2254 24.911L10.2265 24.9121C10.2546 24.9402 10.2877 24.9622 10.3237 24.9771C10.3598 24.9921 10.3987 25 10.4386 25H15.5614C15.6013 25 15.6402 24.9921 15.6763 24.9771C15.7123 24.9622 15.7454 24.9402 15.7735 24.9121L15.7746 24.9111C15.7748 24.9108 15.7751 24.9105 15.7754 24.9103L19.3958 21.2899C19.3983 21.2874 19.3992 21.2838 19.4016 21.2812C19.4256 21.2556 19.4467 21.2269 19.4608 21.1926C19.4758 21.1566 19.4837 21.1176 19.4837 21.0778V15.955C19.4837 15.8753 19.452 15.7991 19.3958 15.7429L19.3946 15.7417C19.3944 15.7415 19.3942 15.7413 19.3939 15.741L15.7754 12.1225C15.7751 12.1222 15.7748 12.122 15.7746 12.1217L15.7735 12.1207C15.7173 12.0644 15.6411 12.0328 15.5614 12.0328H15.56C15.5598 12.0328 15.5597 12.0328 15.5596 12.0328H14.9477V10.5068C16.0886 10.3296 17.1924 9.99804 18.2359 9.51884C18.6235 10.02 19.2288 10.3447 19.9099 10.3447C21.0777 10.3447 22.0275 9.39491 22.0275 8.22745C22.0275 7.82292 21.9115 7.44592 21.714 7.12414C23.3401 5.53295 24.4746 3.55042 24.9918 1.36942C25.0302 1.20829 24.9305 1.04657 24.7691 1.00849ZM6.08976 9.74471C5.25304 9.74471 4.57248 9.06415 4.57248 8.22745C4.57248 7.39074 5.25304 6.70989 6.08976 6.70989C6.92648 6.70989 7.60733 7.39074 7.60733 8.22745C7.60733 9.06415 6.92648 9.74471 6.08976 9.74471ZM15.1124 12.6328L14.1375 14.9864H11.8625L10.8876 12.6328H15.1124ZM18.6541 15.8496L16.3003 16.8246L14.6918 15.2161L15.6668 12.8623L18.6541 15.8496ZM18.8837 20.6288L16.53 19.6536V17.3789L18.8837 16.404V20.6288ZM15.6668 24.1704L14.6918 21.8164L16.3003 20.2079L18.6541 21.1831L15.6668 24.1704ZM7.34588 21.1831L9.69968 20.2079L11.3082 21.8164L10.3332 24.1704L7.34588 21.1831ZM7.11632 16.404L9.47003 17.3789V19.6536L7.11632 20.6288V16.404ZM10.3332 12.8623L11.3082 15.2161L9.69966 16.8246L7.3459 15.8496L10.3332 12.8623ZM14.2138 15.5864L15.93 17.3026V19.7298L14.2138 21.446H11.7862L10.07 19.7298V17.3026L11.7862 15.5864H14.2138ZM11.8625 22.046H14.1375L15.1125 24.4H10.8875L11.8625 22.046ZM11.6523 12.0328V10.3468C11.6523 10.016 11.9213 9.74676 12.2521 9.74676H13.7479C14.0787 9.74676 14.3477 10.016 14.3477 10.3468V12.0328H11.6523ZM19.9099 9.74471C19.0732 9.74471 18.3927 9.06415 18.3927 8.22745C18.3927 7.39074 19.0732 6.70989 19.9099 6.70989C20.7467 6.70989 21.4275 7.39074 21.4275 8.22745C21.4275 9.06415 20.7467 9.74471 19.9099 9.74471Z" stroke="#B1B1B3" stroke-width="0.6" mask="url(#path-1-outside-1_7300_19408)"/>
</svg>