<svg width="24" height="34" viewBox="0 0 24 34" fill="none" xmlns="http://www.w3.org/2000/svg">
	<path d="M12.9157 24.1531C14.8171 24.1503 16.6416 23.3946 17.9856 22.0503C19.3298 20.7046 20.087 18.8817 20.0898 16.9804C19.697 7.46458 6.13718 7.46458 5.74294 16.9804C5.7458 18.8818 6.5015 20.7048 7.84579 22.0503C9.1915 23.3946 11.0144 24.1503 12.9157 24.1531ZM12.3271 10.9791L12.3457 12.0276L12.3443 12.0291C12.35 12.3434 12.6114 12.5948 12.9271 12.5905C13.0786 12.5877 13.2228 12.5248 13.3271 12.4148C13.4329 12.3062 13.49 12.1605 13.4871 12.0077L13.4686 10.9777H13.47C14.8671 11.1091 16.1771 11.722 17.1714 12.7134C18.1657 13.7048 18.7828 15.0119 18.9171 16.4089H17.9585C17.6428 16.4089 17.3871 16.6646 17.3871 16.9803C17.3871 17.296 17.6428 17.5517 17.9585 17.5517H18.9185H18.9171C18.7828 18.9474 18.1656 20.2531 17.1728 21.2447C16.18 22.2347 14.8742 22.849 13.4773 22.9818C13.4716 22.499 13.5558 21.869 12.8858 21.8375C12.5701 21.8433 12.3187 22.1033 12.3244 22.419L12.3344 22.9804C10.9416 22.8433 9.64013 22.2275 8.65168 21.2376C7.66313 20.2476 7.05027 18.9447 6.91455 17.5519H7.95456C8.26599 17.5462 8.516 17.2919 8.516 16.9805C8.516 16.6691 8.26601 16.4148 7.95456 16.4091H6.91455C7.04884 15.0176 7.6617 13.7162 8.64883 12.7263C9.63596 11.7349 10.9355 11.1176 12.3271 10.9791Z" fill="#B1B1B3"/>
	<path d="M23.0654 16.98C23.0668 14.9186 22.4354 12.9056 21.2583 11.2128L18.5283 1.46288C18.4597 1.21717 18.2369 1.04718 17.9812 1.04575L7.82133 1.00004C7.56419 0.997178 7.33706 1.16861 7.26849 1.41717L4.47423 11.3558C3.81708 12.3443 3.33851 13.44 3.06137 14.5943H1.10855C0.957119 14.5943 0.811404 14.6543 0.70425 14.7615C0.597108 14.8686 0.537109 15.0143 0.537109 15.1658V18.8828C0.537109 19.0343 0.597108 19.18 0.70425 19.2871C0.811393 19.3943 0.957108 19.4543 1.10855 19.4543H3.08566H3.08423C3.36708 20.5929 3.84707 21.6728 4.49994 22.6471L7.33135 32.5857C7.40135 32.8314 7.62564 33 7.88134 33H18.0412H18.0398C18.2969 33 18.5226 32.8286 18.5912 32.5814L21.3383 22.6374C22.4668 20.966 23.0683 18.9958 23.0654 16.98ZM8.25116 2.14603L17.5454 2.18746L19.5368 9.30458C17.6868 7.69603 15.3154 6.81744 12.864 6.83032C10.414 6.84317 8.05122 7.74745 6.21827 9.37458L8.25116 2.14603ZM2.76694 18.3116H1.67979V15.7373H2.76694V18.3116ZM12.9154 7.97292C15.304 7.97578 17.594 8.92578 19.2825 10.6143C20.9711 12.3029 21.9196 14.5915 21.9225 16.9799C21.4282 28.9285 4.40123 28.9255 3.90825 16.9799H3.90968C3.91254 14.5914 4.86112 12.3028 6.54968 10.6143C8.23825 8.92578 10.5284 7.97581 12.9154 7.97292ZM17.6053 31.8572H8.31259L6.24833 24.6128C8.0969 26.2399 10.4756 27.1342 12.9368 27.1299C15.3983 27.1242 17.7727 26.2199 19.614 24.5857L17.6053 31.8572Z" fill="#B1B1B3"/>
	<path d="M10.6069 17.5516H12.9169H12.9154C13.2326 17.5502 13.4883 17.2931 13.4869 16.9759L13.4669 13.9231C13.4611 13.6102 13.204 13.3616 12.8926 13.3645C12.5797 13.366 12.3269 13.6188 12.324 13.9317L12.3411 16.4088H10.6069C10.2954 16.4145 10.0454 16.6688 10.0454 16.9802C10.0454 17.2916 10.2954 17.5459 10.6069 17.5516Z" fill="#B1B1B3"/>
	<path d="M12.9157 24.1531C14.8171 24.1503 16.6416 23.3946 17.9856 22.0503C19.3298 20.7046 20.087 18.8817 20.0898 16.9804C19.697 7.46458 6.13718 7.46458 5.74294 16.9804C5.7458 18.8818 6.5015 20.7048 7.84579 22.0503C9.1915 23.3946 11.0144 24.1503 12.9157 24.1531ZM12.3271 10.9791L12.3457 12.0276L12.3443 12.0291C12.35 12.3434 12.6114 12.5948 12.9271 12.5905C13.0786 12.5877 13.2228 12.5248 13.3271 12.4148C13.4329 12.3062 13.49 12.1605 13.4871 12.0077L13.4686 10.9777H13.47C14.8671 11.1091 16.1771 11.722 17.1714 12.7134C18.1657 13.7048 18.7828 15.0119 18.9171 16.4089H17.9585C17.6428 16.4089 17.3871 16.6646 17.3871 16.9803C17.3871 17.296 17.6428 17.5517 17.9585 17.5517H18.9185H18.9171C18.7828 18.9474 18.1656 20.2531 17.1728 21.2447C16.18 22.2347 14.8742 22.849 13.4773 22.9818C13.4716 22.499 13.5558 21.869 12.8858 21.8375C12.5701 21.8433 12.3187 22.1033 12.3244 22.419L12.3344 22.9804C10.9416 22.8433 9.64013 22.2275 8.65168 21.2376C7.66313 20.2476 7.05027 18.9447 6.91455 17.5519H7.95456C8.26599 17.5462 8.516 17.2919 8.516 16.9805C8.516 16.6691 8.26601 16.4148 7.95456 16.4091H6.91455C7.04884 15.0176 7.6617 13.7162 8.64883 12.7263C9.63596 11.7349 10.9355 11.1176 12.3271 10.9791Z" stroke="#B1B1B3" stroke-width="0.2"/>
	<path d="M23.0654 16.98C23.0668 14.9186 22.4354 12.9056 21.2583 11.2128L18.5283 1.46288C18.4597 1.21717 18.2369 1.04718 17.9812 1.04575L7.82133 1.00004C7.56419 0.997178 7.33706 1.16861 7.26849 1.41717L4.47423 11.3558C3.81708 12.3443 3.33851 13.44 3.06137 14.5943H1.10855C0.957119 14.5943 0.811404 14.6543 0.70425 14.7615C0.597108 14.8686 0.537109 15.0143 0.537109 15.1658V18.8828C0.537109 19.0343 0.597108 19.18 0.70425 19.2871C0.811393 19.3943 0.957108 19.4543 1.10855 19.4543H3.08566H3.08423C3.36708 20.5929 3.84707 21.6728 4.49994 22.6471L7.33135 32.5857C7.40135 32.8314 7.62564 33 7.88134 33H18.0412H18.0398C18.2969 33 18.5226 32.8286 18.5912 32.5814L21.3383 22.6374C22.4668 20.966 23.0683 18.9958 23.0654 16.98ZM8.25116 2.14603L17.5454 2.18746L19.5368 9.30458C17.6868 7.69603 15.3154 6.81744 12.864 6.83032C10.414 6.84317 8.05122 7.74745 6.21827 9.37458L8.25116 2.14603ZM2.76694 18.3116H1.67979V15.7373H2.76694V18.3116ZM12.9154 7.97292C15.304 7.97578 17.594 8.92578 19.2825 10.6143C20.9711 12.3029 21.9196 14.5915 21.9225 16.9799C21.4282 28.9285 4.40123 28.9255 3.90825 16.9799H3.90968C3.91254 14.5914 4.86112 12.3028 6.54968 10.6143C8.23825 8.92578 10.5284 7.97581 12.9154 7.97292ZM17.6053 31.8572H8.31259L6.24833 24.6128C8.0969 26.2399 10.4756 27.1342 12.9368 27.1299C15.3983 27.1242 17.7727 26.2199 19.614 24.5857L17.6053 31.8572Z" stroke="#B1B1B3" stroke-width="0.2"/>
	<path d="M10.6069 17.5516H12.9169H12.9154C13.2326 17.5502 13.4883 17.2931 13.4869 16.9759L13.4669 13.9231C13.4611 13.6102 13.204 13.3616 12.8926 13.3645C12.5797 13.366 12.3269 13.6188 12.324 13.9317L12.3411 16.4088H10.6069C10.2954 16.4145 10.0454 16.6688 10.0454 16.9802C10.0454 17.2916 10.2954 17.5459 10.6069 17.5516Z" stroke="#B1B1B3" stroke-width="0.2"/>
</svg>