<svg width="25" height="22" viewBox="0 0 25 22" fill="none" xmlns="http://www.w3.org/2000/svg">
	<path d="M19.2218 1.75196C20.3359 1.73063 21.4541 1.70923 22.547 1.6321C21.2097 3.10238 20.1193 4.72944 19.0552 6.42887L19.0552 6.42889C17.7224 8.55789 16.1893 10.3702 14.5973 12.2523C14.2878 12.6182 13.976 12.9868 13.663 13.3608L13.663 13.3608C13.0749 14.0639 12.5259 14.7959 11.9801 15.5239C11.8524 15.6941 11.7249 15.8642 11.5971 16.0336C10.9215 16.929 10.236 17.8087 9.46554 18.6225C8.61696 19.5187 7.63122 20.2105 6.46495 20.5934C4.01719 21.3963 1.63152 19.3198 2.09731 16.8298L2.09732 16.8297C2.16727 16.4549 1.9099 16.1933 1.64011 16.1184C1.50409 16.0806 1.35055 16.0846 1.21735 16.153C1.07939 16.2238 0.97957 16.3555 0.945479 16.538C0.546287 18.6731 1.39291 20.8695 3.68121 21.5699C6.34693 22.386 8.42928 21.28 10.303 19.4571L10.2047 19.356L10.3031 19.4571C11.491 18.3014 12.5394 16.9944 13.5663 15.6773C13.7017 15.5037 13.8366 15.3299 13.9715 15.1562C14.8616 14.0103 15.7469 12.8704 16.7106 11.8185L16.6222 11.7375L16.7106 11.8185C18.0789 10.3251 19.1496 8.62672 20.2118 6.94189C20.3101 6.78606 20.4082 6.63035 20.5065 6.47492C21.6708 4.63455 22.8583 2.83185 24.4557 1.31761L24.4559 1.31748C24.5632 1.21549 24.6227 1.095 24.6334 0.968904C24.6441 0.844459 24.6061 0.727518 24.5418 0.631893C24.4158 0.444528 24.1743 0.31842 23.9205 0.356879C22.4858 0.573035 20.8787 0.625091 19.2149 0.678985C19.1668 0.680542 19.1187 0.682101 19.0705 0.683665C17.3594 0.739239 15.5941 0.801805 13.9209 1.05465C10.5718 1.56075 7.55642 2.83547 6.04876 6.37475C5.96189 6.57843 6.05867 6.77162 6.20183 6.85975C6.27404 6.90419 6.36556 6.9273 6.45941 6.90743C6.55638 6.88689 6.6384 6.82415 6.69343 6.72942L6.69355 6.72922C8.42825 3.73254 10.9735 2.57494 13.8443 2.10386C15.2828 1.8678 16.8002 1.80482 18.3376 1.76992C18.6317 1.76325 18.9266 1.75761 19.2218 1.75196Z" fill="#B1B1B3" stroke="#B1B1B3" stroke-width="0.3"/>
	<path d="M6.19221 14.8225L6.19199 14.8227C6.0498 14.9673 5.84879 15.1513 5.62276 15.2518C5.50796 15.3029 5.37998 15.3355 5.24591 15.3255C5.10948 15.3154 4.97704 15.2619 4.85568 15.1573M6.19221 14.8225L5.37891 13.285C5.47436 13.0836 5.63611 12.9081 5.79315 12.7376C5.85425 12.6713 5.91464 12.6058 5.97014 12.5398L6.08478 12.6366C6.0848 12.6365 6.08483 12.6365 6.08485 12.6365C6.46151 12.19 6.576 11.7441 6.44708 11.3294C6.32141 10.9252 5.97556 10.5892 5.51792 10.3271L5.51789 10.3271C5.37428 10.2449 5.22552 10.232 5.09342 10.2759C4.96475 10.3186 4.86349 10.4112 4.80031 10.5204C4.67386 10.7391 4.68507 11.0617 4.97124 11.2489C5.24729 11.4296 5.3329 11.5668 5.35044 11.6638C5.36756 11.7585 5.3289 11.8646 5.21986 12.0108C5.16678 12.082 5.10252 12.1556 5.03059 12.236C5.01854 12.2495 5.00627 12.2632 4.99384 12.277C4.93339 12.3444 4.86903 12.4161 4.80732 12.4904C4.65878 12.6693 4.51197 12.8788 4.4443 13.1276L4.44426 13.1278C4.36383 13.4249 4.33649 13.8138 4.39044 14.1829C4.44395 14.549 4.58148 14.9215 4.85568 15.1573M6.19221 14.8225C6.31553 14.6966 6.4299 14.5593 6.53955 14.4277C6.57759 14.3821 6.61506 14.3371 6.65214 14.2935C6.79931 14.1206 6.94591 13.9623 7.11881 13.8333C7.20991 13.7657 7.35196 13.7239 7.54296 13.7091C7.73123 13.6945 7.94931 13.7074 8.17707 13.7334C8.37749 13.7562 8.57993 13.7885 8.77155 13.819C8.79737 13.8231 8.82298 13.8272 8.84837 13.8312C9.05858 13.8646 9.25807 13.8947 9.41289 13.9013L9.41291 13.9013C10.4679 13.9457 11.2221 13.5213 11.6903 12.864C12.1536 12.2135 12.3284 11.3481 12.2628 10.5128C12.1971 9.67752 11.8894 8.85194 11.3622 8.28033C10.8297 7.70303 10.0758 7.3895 9.14975 7.59063C9.06322 7.60943 8.99292 7.6561 8.94667 7.72268C8.90175 7.78733 8.88519 7.86232 8.88821 7.9319C8.89406 8.06643 8.97667 8.21397 9.13412 8.26638C9.85053 8.50535 10.4422 8.90787 10.8159 9.43918C11.1876 9.96763 11.3506 10.633 11.197 11.4175C11.0813 12.0081 10.8385 12.3276 10.5354 12.5058C10.2236 12.6891 9.82396 12.7377 9.36552 12.7328C9.13785 12.7303 8.90175 12.7149 8.65993 12.6989L8.64807 12.6981C8.41155 12.6825 8.1697 12.6664 7.93308 12.663C7.45448 12.656 6.97439 12.6995 6.57026 12.9174C6.57026 12.9174 6.57025 12.9174 6.57025 12.9174L6.64144 13.0494L6.19221 14.8225ZM4.85568 15.1573C4.85565 15.1572 4.85561 15.1572 4.85558 15.1572L4.95355 15.0436L4.85578 15.1573C4.85575 15.1573 4.85571 15.1573 4.85568 15.1573Z" fill="#B1B1B3" stroke="#B1B1B3" stroke-width="0.3"/>
	<path d="M14.3664 8.44124C14.3124 8.54691 14.3064 8.66306 14.3496 8.76586C14.3923 8.8674 14.4776 8.94323 14.5829 8.98228C14.997 9.13631 15.3981 8.95164 15.7086 8.69863C16.0227 8.44266 16.2811 8.08904 16.4331 7.81849L16.4331 7.81843L14.0305 5.08893L14.0635 5.23526C14.0635 5.23524 14.0636 5.23523 14.0636 5.23521C14.5232 5.13161 14.8813 5.13019 15.1426 5.25307C15.3929 5.37084 15.5882 5.61996 15.6846 6.105C15.7691 6.53189 15.6573 7.00768 15.4395 7.39366C15.3289 7.58924 15.1482 7.71929 14.9366 7.86988L14.93 7.87456C14.7301 8.0168 14.4987 8.18146 14.3664 8.44124ZM14.3664 8.44124C14.3664 8.4412 14.3664 8.44117 14.3665 8.44113L14.5 8.50942L14.3663 8.44135C14.3664 8.44131 14.3664 8.44128 14.3664 8.44124Z" fill="#B1B1B3" stroke="#B1B1B3" stroke-width="0.3"/>
</svg>