<svg width="25" height="24" viewBox="0 0 25 24" fill="none" xmlns="http://www.w3.org/2000/svg">
	<path d="M24.1031 0.10264C24.0197 0.0462126 23.9233 0.0117772 23.823 0.00252716C23.7227 -0.00672292 23.6216 0.0095118 23.5292 0.0497257L19.3735 1.78367V0.672482C19.3735 0.510555 19.3091 0.355261 19.1946 0.240761C19.0801 0.126262 18.9248 0.0619367 18.7629 0.0619367H5.97403C5.8121 0.0619367 5.65681 0.126262 5.54231 0.240761C5.42781 0.355261 5.36348 0.510555 5.36348 0.672482V1.78367L1.20771 0.0497257C1.11533 0.0095118 1.01429 -0.00672292 0.913959 0.00252716C0.813632 0.0117772 0.717264 0.0462126 0.633794 0.10264C0.549898 0.158372 0.481092 0.233994 0.43351 0.322767C0.385928 0.41154 0.361046 0.510706 0.361084 0.611427V5.93131C0.361084 8.21475 1.94036 10.2906 4.4843 11.357L6.05543 12.0083C6.49197 12.9144 7.11737 13.7167 7.88963 14.3612C8.66188 15.0057 9.5631 15.4774 10.5328 15.7448C10.6035 16.9166 10.3669 18.0866 9.84646 19.1389C9.32601 20.1913 8.53975 21.0894 7.56552 21.7444C7.33819 21.887 7.16415 22.1005 7.07031 22.3519C6.97647 22.6032 6.96804 22.8785 7.04633 23.1352C7.12463 23.3919 7.28528 23.6156 7.50346 23.7718C7.72164 23.928 7.9852 24.008 8.2534 23.9994H16.4835C16.7517 24.008 17.0153 23.928 17.2335 23.7718C17.4517 23.6156 17.6123 23.3919 17.6906 23.1352C17.7689 22.8785 17.7605 22.6032 17.6666 22.3519C17.5728 22.1005 17.3987 21.887 17.1714 21.7444C16.1942 21.0913 15.4047 20.194 14.8813 19.1416C14.358 18.0892 14.1189 16.9182 14.1879 15.7448C15.1576 15.4774 16.0588 15.0057 16.831 14.3612C17.6033 13.7167 18.2287 12.9144 18.6652 12.0083L20.2364 11.3529C22.7803 10.2906 24.3596 8.21475 24.3596 5.93131V0.611427C24.3614 0.512163 24.339 0.413945 24.2943 0.325288C24.2497 0.23663 24.184 0.160206 24.1031 0.10264ZM4.97273 10.2295C2.87653 9.3585 1.58217 7.71003 1.58217 5.93131V1.52724L5.36348 3.10652V8.98403C5.36423 9.48076 5.41744 9.97601 5.52222 10.4616L4.97273 10.2295ZM16.4835 22.7783L8.24933 22.7579C9.36105 22.0124 10.2671 20.9989 10.8839 19.8109C11.5006 18.6229 11.8082 17.2987 11.7783 15.9605C11.9737 15.9605 12.7633 15.9605 12.9587 15.9605C12.9312 17.3007 13.2393 18.6265 13.8549 19.8172C14.4705 21.008 15.3742 22.0259 16.4835 22.7783ZM12.3685 14.772C10.8344 14.7698 9.36392 14.1592 8.27958 13.0741C7.19524 11.989 6.58565 10.5181 6.58457 8.98403V1.28303H18.1524V8.98403C18.1513 10.5181 17.5417 11.989 16.4574 13.0741C15.373 14.1592 13.9025 14.7698 12.3685 14.772ZM23.1548 5.93131C23.1548 7.71003 21.8604 9.3585 19.7805 10.2255L19.2147 10.4616C19.3195 9.97601 19.3727 9.48076 19.3735 8.98403V3.10652L23.1548 1.52724V5.93131Z" fill="#B1B1B3"/>
</svg>