<svg width="26" height="24" viewBox="0 0 26 24" fill="none" xmlns="http://www.w3.org/2000/svg">
	<path d="M6.73773 12.4548L6.73783 12.4547C7.48636 12.1604 8.20752 11.7368 8.70882 11.2598C9.20249 10.7901 9.52271 10.2275 9.35566 9.66952C9.18538 9.10079 8.61424 8.87672 7.96703 8.85234C7.31096 8.82761 6.51176 9.00085 5.76226 9.295L5.76217 9.29504C5.01364 9.58939 4.29248 10.013 3.79118 10.4899C3.29751 10.9597 2.97729 11.5223 3.14434 12.0803L3.14439 12.0804C3.32667 12.6864 3.96039 12.9 4.65971 12.9C5.28945 12.9 6.03427 12.7308 6.73773 12.4548ZM6.08614 10.2805L6.08642 10.2804C6.82562 9.98888 7.42994 9.89524 7.84886 9.89524C8.0644 9.89524 8.22698 9.92037 8.3348 9.95418C8.38894 9.97115 8.42437 9.98879 8.44493 10.0029C8.44617 10.0037 8.44732 10.0045 8.44839 10.0053C8.44746 10.0087 8.44626 10.0127 8.4447 10.0172C8.43481 10.0464 8.41477 10.0877 8.38044 10.1403C8.31208 10.2451 8.19676 10.3799 8.02911 10.5303C7.69467 10.8303 7.16317 11.1826 6.41662 11.4758C5.66989 11.7692 5.06287 11.8643 4.64133 11.8627C4.4298 11.8619 4.2697 11.8368 4.16366 11.8034C4.11038 11.7866 4.07585 11.7693 4.05615 11.7558C4.05538 11.7553 4.05464 11.7547 4.05395 11.7542C4.05496 11.7502 4.05635 11.7454 4.05828 11.7396C4.06817 11.71 4.08814 11.6683 4.12231 11.6155C4.19039 11.5103 4.30533 11.3755 4.47274 11.2252C4.80667 10.9253 5.33809 10.5738 6.08614 10.2805Z" fill="#B1B1B3" stroke="#B1B1B3" stroke-width="0.3"/>
	<mask id="path-2-outside-1_7300_19427" maskUnits="userSpaceOnUse" x="0" y="1.25" width="26" height="21" fill="black">
	<rect fill="white" y="1.25" width="26" height="21"/>
	<path d="M24.994 2.53219C24.991 2.51764 24.982 2.506 24.979 2.49146C24.973 2.46819 24.967 2.44782 24.955 2.42746C24.946 2.41 24.934 2.39255 24.919 2.378C24.904 2.36055 24.892 2.346 24.874 2.33146C24.856 2.31691 24.838 2.30527 24.817 2.29364C24.799 2.28491 24.784 2.27618 24.766 2.27036C24.742 2.26164 24.718 2.25873 24.691 2.25582C24.679 2.25582 24.667 2.25 24.655 2.25C24.646 2.25 24.64 2.25291 24.631 2.25582C24.622 2.25582 24.613 2.25291 24.604 2.25582L22.3033 2.59619C22.0304 2.64273 21.7094 2.70092 21.3944 2.7911C20.2006 3.11111 19.0637 3.74821 18.1129 4.63259C17.138 5.53733 16.4241 6.66317 16.0551 7.86756C15.9831 8.05956 15.9291 8.28648 15.8841 8.49012C15.8601 8.59485 15.8391 8.69376 15.8092 8.79267L15.6742 9.38322L15.6622 9.41813C15.4732 9.40068 15.2782 9.41813 15.0922 9.48213C14.7623 9.5985 14.4983 9.83123 14.3483 10.1396C14.1984 10.448 14.1804 10.7942 14.3003 11.1142C14.3753 11.312 14.5013 11.4836 14.6573 11.6204C14.3093 12.1905 13.9134 12.72 13.4664 13.1913C13.4005 12.9411 13.3255 12.6851 13.2295 12.4087C12.8155 11.2422 12.1766 10.1658 11.3757 9.29595C11.3727 9.29304 11.3727 9.29013 11.3697 9.29013C10.7788 7.93738 8.17211 7.60574 5.33746 8.54539C2.49082 9.49668 0.637053 11.3294 1.06 12.7549C0.985009 13.9273 1.15899 15.1462 1.56394 16.2924C2.33784 18.4859 3.86165 20.2547 5.74841 21.1507C6.59131 21.5493 7.4522 21.75 8.28909 21.75C8.83802 21.75 9.37796 21.6627 9.89689 21.4911C9.93589 21.4824 9.97488 21.4678 10.0289 21.4475C10.0319 21.4475 10.0319 21.4445 10.0349 21.4445C10.0379 21.4445 10.0379 21.4445 10.0409 21.4445C12.2486 20.6678 14.1864 19.4721 15.6442 17.9943C16.964 16.7055 18.0049 15.1317 18.6948 13.4357C18.7308 13.4386 18.7638 13.4473 18.7998 13.4473C19.3067 13.4473 19.7747 13.1593 19.9876 12.7171C20.1376 12.4087 20.1526 12.0625 20.0356 11.7425C19.9246 11.4487 19.7117 11.2131 19.4327 11.0647C19.4927 10.7622 19.5497 10.4596 19.5977 10.1425L19.7327 8.73158C19.8196 8.06538 20.1136 7.4021 20.5786 6.80863C21.0405 6.22389 21.6824 5.73516 22.3993 5.42097C22.5133 5.36279 22.6393 5.32206 22.7653 5.27842L24.76 4.67041C24.766 4.6675 24.769 4.66459 24.775 4.66168C24.799 4.65295 24.817 4.64132 24.838 4.62677C24.856 4.61514 24.874 4.60641 24.889 4.59477C24.904 4.58023 24.916 4.56277 24.928 4.54532C24.94 4.52786 24.955 4.51332 24.964 4.49295C24.973 4.4755 24.976 4.45513 24.982 4.43768C24.988 4.4144 24.994 4.39404 24.997 4.36786C24.997 4.36204 25 4.35913 25 4.35331V2.58164C25 2.57291 24.997 2.5671 24.994 2.55837C24.991 2.54964 24.994 2.54091 24.994 2.53219ZM1.72292 12.6036C1.40196 11.6698 2.86577 10.0727 5.56543 9.17377C6.6303 8.81885 7.61118 8.66467 8.43008 8.66467C9.61493 8.66467 10.4518 8.98758 10.7188 9.49377C10.7278 9.5345 10.7458 9.57523 10.7758 9.61014C11.0877 10.544 9.62693 12.1382 6.93026 13.0342C5.68242 13.4502 4.43758 13.616 3.4207 13.5026C2.50882 13.4008 1.8939 13.0778 1.72592 12.6153C1.72592 12.6124 1.72292 12.6066 1.72292 12.6036ZM15.1522 17.5259C13.7634 18.9339 11.9126 20.0743 9.8039 20.8162C9.77991 20.8249 9.70492 20.8511 9.70192 20.8511C8.54106 21.238 7.27822 21.1333 6.04537 20.5514C4.32359 19.734 2.92577 18.1019 2.20886 16.0743C1.92689 15.283 1.76791 14.451 1.73192 13.6306C2.12787 13.9011 2.6708 14.0844 3.33971 14.16C3.57368 14.1862 3.81665 14.1979 4.06862 14.1979C5.0195 14.1979 6.09037 14.0117 7.14924 13.6597C9.39895 12.912 11.0248 11.6116 11.4087 10.3956C11.8976 11.0618 12.2996 11.8153 12.5846 12.6182C12.7435 13.0837 12.8575 13.4997 12.9265 13.8924C12.9385 14.3084 12.9025 14.7244 12.8155 15.1288C12.7315 15.5215 12.6026 15.9026 12.4286 16.2663C12.3506 16.4321 12.4256 16.6299 12.5966 16.7055C12.6445 16.7259 12.6925 16.7346 12.7405 16.7346C12.8695 16.7346 12.9925 16.6648 13.0495 16.5426C13.2445 16.1324 13.3915 15.7019 13.4844 15.2626C13.5744 14.8495 13.6104 14.4248 13.6044 13.9971C14.2343 13.4008 14.7863 12.7113 15.2482 11.9491L18.0349 13.2204C17.384 14.8262 16.3971 16.3099 15.1522 17.5259ZM19.3667 12.4291C19.2227 12.7258 18.8418 12.8626 18.5298 12.72L15.2722 11.2334C15.1192 11.1636 15.0053 11.0414 14.9483 10.8902C14.8913 10.736 14.9003 10.5702 14.9723 10.4218C15.0442 10.2734 15.1702 10.1629 15.3292 10.1076C15.3982 10.0843 15.4702 10.0727 15.5422 10.0727C15.6112 10.0727 15.6772 10.096 15.7432 10.1163C15.7462 10.1192 15.7492 10.1221 15.7522 10.1221C15.7732 10.1309 15.7972 10.1309 15.8212 10.1367L19.0697 11.6204C19.2227 11.6902 19.3367 11.8124 19.3937 11.9636C19.4477 12.1149 19.4387 12.2807 19.3667 12.4291ZM24.3131 4.10604L22.7083 4.58604L22.5343 4.64714C22.3753 4.70241 22.2223 4.75477 22.0964 4.81878C21.2865 5.17369 20.5726 5.7177 20.0326 6.39844C19.4957 7.085 19.1567 7.85883 19.0517 8.65012L18.9198 10.0523C18.8838 10.2851 18.8358 10.5207 18.7938 10.7534L16.3101 9.61887L16.4781 8.94685C16.5051 8.85376 16.5291 8.74321 16.5561 8.62394C16.5951 8.44648 16.64 8.25157 16.709 8.06538C17.048 6.95118 17.6989 5.92716 18.5898 5.10096C19.4597 4.29222 20.4946 3.71039 21.5894 3.41657C21.8744 3.3322 22.1714 3.27984 22.4203 3.2362L24.3161 2.95692V4.10604H24.3131Z"/>
	</mask>
	<path d="M24.994 2.53219C24.991 2.51764 24.982 2.506 24.979 2.49146C24.973 2.46819 24.967 2.44782 24.955 2.42746C24.946 2.41 24.934 2.39255 24.919 2.378C24.904 2.36055 24.892 2.346 24.874 2.33146C24.856 2.31691 24.838 2.30527 24.817 2.29364C24.799 2.28491 24.784 2.27618 24.766 2.27036C24.742 2.26164 24.718 2.25873 24.691 2.25582C24.679 2.25582 24.667 2.25 24.655 2.25C24.646 2.25 24.64 2.25291 24.631 2.25582C24.622 2.25582 24.613 2.25291 24.604 2.25582L22.3033 2.59619C22.0304 2.64273 21.7094 2.70092 21.3944 2.7911C20.2006 3.11111 19.0637 3.74821 18.1129 4.63259C17.138 5.53733 16.4241 6.66317 16.0551 7.86756C15.9831 8.05956 15.9291 8.28648 15.8841 8.49012C15.8601 8.59485 15.8391 8.69376 15.8092 8.79267L15.6742 9.38322L15.6622 9.41813C15.4732 9.40068 15.2782 9.41813 15.0922 9.48213C14.7623 9.5985 14.4983 9.83123 14.3483 10.1396C14.1984 10.448 14.1804 10.7942 14.3003 11.1142C14.3753 11.312 14.5013 11.4836 14.6573 11.6204C14.3093 12.1905 13.9134 12.72 13.4664 13.1913C13.4005 12.9411 13.3255 12.6851 13.2295 12.4087C12.8155 11.2422 12.1766 10.1658 11.3757 9.29595C11.3727 9.29304 11.3727 9.29013 11.3697 9.29013C10.7788 7.93738 8.17211 7.60574 5.33746 8.54539C2.49082 9.49668 0.637053 11.3294 1.06 12.7549C0.985009 13.9273 1.15899 15.1462 1.56394 16.2924C2.33784 18.4859 3.86165 20.2547 5.74841 21.1507C6.59131 21.5493 7.4522 21.75 8.28909 21.75C8.83802 21.75 9.37796 21.6627 9.89689 21.4911C9.93589 21.4824 9.97488 21.4678 10.0289 21.4475C10.0319 21.4475 10.0319 21.4445 10.0349 21.4445C10.0379 21.4445 10.0379 21.4445 10.0409 21.4445C12.2486 20.6678 14.1864 19.4721 15.6442 17.9943C16.964 16.7055 18.0049 15.1317 18.6948 13.4357C18.7308 13.4386 18.7638 13.4473 18.7998 13.4473C19.3067 13.4473 19.7747 13.1593 19.9876 12.7171C20.1376 12.4087 20.1526 12.0625 20.0356 11.7425C19.9246 11.4487 19.7117 11.2131 19.4327 11.0647C19.4927 10.7622 19.5497 10.4596 19.5977 10.1425L19.7327 8.73158C19.8196 8.06538 20.1136 7.4021 20.5786 6.80863C21.0405 6.22389 21.6824 5.73516 22.3993 5.42097C22.5133 5.36279 22.6393 5.32206 22.7653 5.27842L24.76 4.67041C24.766 4.6675 24.769 4.66459 24.775 4.66168C24.799 4.65295 24.817 4.64132 24.838 4.62677C24.856 4.61514 24.874 4.60641 24.889 4.59477C24.904 4.58023 24.916 4.56277 24.928 4.54532C24.94 4.52786 24.955 4.51332 24.964 4.49295C24.973 4.4755 24.976 4.45513 24.982 4.43768C24.988 4.4144 24.994 4.39404 24.997 4.36786C24.997 4.36204 25 4.35913 25 4.35331V2.58164C25 2.57291 24.997 2.5671 24.994 2.55837C24.991 2.54964 24.994 2.54091 24.994 2.53219ZM1.72292 12.6036C1.40196 11.6698 2.86577 10.0727 5.56543 9.17377C6.6303 8.81885 7.61118 8.66467 8.43008 8.66467C9.61493 8.66467 10.4518 8.98758 10.7188 9.49377C10.7278 9.5345 10.7458 9.57523 10.7758 9.61014C11.0877 10.544 9.62693 12.1382 6.93026 13.0342C5.68242 13.4502 4.43758 13.616 3.4207 13.5026C2.50882 13.4008 1.8939 13.0778 1.72592 12.6153C1.72592 12.6124 1.72292 12.6066 1.72292 12.6036ZM15.1522 17.5259C13.7634 18.9339 11.9126 20.0743 9.8039 20.8162C9.77991 20.8249 9.70492 20.8511 9.70192 20.8511C8.54106 21.238 7.27822 21.1333 6.04537 20.5514C4.32359 19.734 2.92577 18.1019 2.20886 16.0743C1.92689 15.283 1.76791 14.451 1.73192 13.6306C2.12787 13.9011 2.6708 14.0844 3.33971 14.16C3.57368 14.1862 3.81665 14.1979 4.06862 14.1979C5.0195 14.1979 6.09037 14.0117 7.14924 13.6597C9.39895 12.912 11.0248 11.6116 11.4087 10.3956C11.8976 11.0618 12.2996 11.8153 12.5846 12.6182C12.7435 13.0837 12.8575 13.4997 12.9265 13.8924C12.9385 14.3084 12.9025 14.7244 12.8155 15.1288C12.7315 15.5215 12.6026 15.9026 12.4286 16.2663C12.3506 16.4321 12.4256 16.6299 12.5966 16.7055C12.6445 16.7259 12.6925 16.7346 12.7405 16.7346C12.8695 16.7346 12.9925 16.6648 13.0495 16.5426C13.2445 16.1324 13.3915 15.7019 13.4844 15.2626C13.5744 14.8495 13.6104 14.4248 13.6044 13.9971C14.2343 13.4008 14.7863 12.7113 15.2482 11.9491L18.0349 13.2204C17.384 14.8262 16.3971 16.3099 15.1522 17.5259ZM19.3667 12.4291C19.2227 12.7258 18.8418 12.8626 18.5298 12.72L15.2722 11.2334C15.1192 11.1636 15.0053 11.0414 14.9483 10.8902C14.8913 10.736 14.9003 10.5702 14.9723 10.4218C15.0442 10.2734 15.1702 10.1629 15.3292 10.1076C15.3982 10.0843 15.4702 10.0727 15.5422 10.0727C15.6112 10.0727 15.6772 10.096 15.7432 10.1163C15.7462 10.1192 15.7492 10.1221 15.7522 10.1221C15.7732 10.1309 15.7972 10.1309 15.8212 10.1367L19.0697 11.6204C19.2227 11.6902 19.3367 11.8124 19.3937 11.9636C19.4477 12.1149 19.4387 12.2807 19.3667 12.4291ZM24.3131 4.10604L22.7083 4.58604L22.5343 4.64714C22.3753 4.70241 22.2223 4.75477 22.0964 4.81878C21.2865 5.17369 20.5726 5.7177 20.0326 6.39844C19.4957 7.085 19.1567 7.85883 19.0517 8.65012L18.9198 10.0523C18.8838 10.2851 18.8358 10.5207 18.7938 10.7534L16.3101 9.61887L16.4781 8.94685C16.5051 8.85376 16.5291 8.74321 16.5561 8.62394C16.5951 8.44648 16.64 8.25157 16.709 8.06538C17.048 6.95118 17.6989 5.92716 18.5898 5.10096C19.4597 4.29222 20.4946 3.71039 21.5894 3.41657C21.8744 3.3322 22.1714 3.27984 22.4203 3.2362L24.3161 2.95692V4.10604H24.3131Z" fill="#B1B1B3"/>
	<path d="M24.994 2.53219C24.991 2.51764 24.982 2.506 24.979 2.49146C24.973 2.46819 24.967 2.44782 24.955 2.42746C24.946 2.41 24.934 2.39255 24.919 2.378C24.904 2.36055 24.892 2.346 24.874 2.33146C24.856 2.31691 24.838 2.30527 24.817 2.29364C24.799 2.28491 24.784 2.27618 24.766 2.27036C24.742 2.26164 24.718 2.25873 24.691 2.25582C24.679 2.25582 24.667 2.25 24.655 2.25C24.646 2.25 24.64 2.25291 24.631 2.25582C24.622 2.25582 24.613 2.25291 24.604 2.25582L22.3033 2.59619C22.0304 2.64273 21.7094 2.70092 21.3944 2.7911C20.2006 3.11111 19.0637 3.74821 18.1129 4.63259C17.138 5.53733 16.4241 6.66317 16.0551 7.86756C15.9831 8.05956 15.9291 8.28648 15.8841 8.49012C15.8601 8.59485 15.8391 8.69376 15.8092 8.79267L15.6742 9.38322L15.6622 9.41813C15.4732 9.40068 15.2782 9.41813 15.0922 9.48213C14.7623 9.5985 14.4983 9.83123 14.3483 10.1396C14.1984 10.448 14.1804 10.7942 14.3003 11.1142C14.3753 11.312 14.5013 11.4836 14.6573 11.6204C14.3093 12.1905 13.9134 12.72 13.4664 13.1913C13.4005 12.9411 13.3255 12.6851 13.2295 12.4087C12.8155 11.2422 12.1766 10.1658 11.3757 9.29595C11.3727 9.29304 11.3727 9.29013 11.3697 9.29013C10.7788 7.93738 8.17211 7.60574 5.33746 8.54539C2.49082 9.49668 0.637053 11.3294 1.06 12.7549C0.985009 13.9273 1.15899 15.1462 1.56394 16.2924C2.33784 18.4859 3.86165 20.2547 5.74841 21.1507C6.59131 21.5493 7.4522 21.75 8.28909 21.75C8.83802 21.75 9.37796 21.6627 9.89689 21.4911C9.93589 21.4824 9.97488 21.4678 10.0289 21.4475C10.0319 21.4475 10.0319 21.4445 10.0349 21.4445C10.0379 21.4445 10.0379 21.4445 10.0409 21.4445C12.2486 20.6678 14.1864 19.4721 15.6442 17.9943C16.964 16.7055 18.0049 15.1317 18.6948 13.4357C18.7308 13.4386 18.7638 13.4473 18.7998 13.4473C19.3067 13.4473 19.7747 13.1593 19.9876 12.7171C20.1376 12.4087 20.1526 12.0625 20.0356 11.7425C19.9246 11.4487 19.7117 11.2131 19.4327 11.0647C19.4927 10.7622 19.5497 10.4596 19.5977 10.1425L19.7327 8.73158C19.8196 8.06538 20.1136 7.4021 20.5786 6.80863C21.0405 6.22389 21.6824 5.73516 22.3993 5.42097C22.5133 5.36279 22.6393 5.32206 22.7653 5.27842L24.76 4.67041C24.766 4.6675 24.769 4.66459 24.775 4.66168C24.799 4.65295 24.817 4.64132 24.838 4.62677C24.856 4.61514 24.874 4.60641 24.889 4.59477C24.904 4.58023 24.916 4.56277 24.928 4.54532C24.94 4.52786 24.955 4.51332 24.964 4.49295C24.973 4.4755 24.976 4.45513 24.982 4.43768C24.988 4.4144 24.994 4.39404 24.997 4.36786C24.997 4.36204 25 4.35913 25 4.35331V2.58164C25 2.57291 24.997 2.5671 24.994 2.55837C24.991 2.54964 24.994 2.54091 24.994 2.53219ZM1.72292 12.6036C1.40196 11.6698 2.86577 10.0727 5.56543 9.17377C6.6303 8.81885 7.61118 8.66467 8.43008 8.66467C9.61493 8.66467 10.4518 8.98758 10.7188 9.49377C10.7278 9.5345 10.7458 9.57523 10.7758 9.61014C11.0877 10.544 9.62693 12.1382 6.93026 13.0342C5.68242 13.4502 4.43758 13.616 3.4207 13.5026C2.50882 13.4008 1.8939 13.0778 1.72592 12.6153C1.72592 12.6124 1.72292 12.6066 1.72292 12.6036ZM15.1522 17.5259C13.7634 18.9339 11.9126 20.0743 9.8039 20.8162C9.77991 20.8249 9.70492 20.8511 9.70192 20.8511C8.54106 21.238 7.27822 21.1333 6.04537 20.5514C4.32359 19.734 2.92577 18.1019 2.20886 16.0743C1.92689 15.283 1.76791 14.451 1.73192 13.6306C2.12787 13.9011 2.6708 14.0844 3.33971 14.16C3.57368 14.1862 3.81665 14.1979 4.06862 14.1979C5.0195 14.1979 6.09037 14.0117 7.14924 13.6597C9.39895 12.912 11.0248 11.6116 11.4087 10.3956C11.8976 11.0618 12.2996 11.8153 12.5846 12.6182C12.7435 13.0837 12.8575 13.4997 12.9265 13.8924C12.9385 14.3084 12.9025 14.7244 12.8155 15.1288C12.7315 15.5215 12.6026 15.9026 12.4286 16.2663C12.3506 16.4321 12.4256 16.6299 12.5966 16.7055C12.6445 16.7259 12.6925 16.7346 12.7405 16.7346C12.8695 16.7346 12.9925 16.6648 13.0495 16.5426C13.2445 16.1324 13.3915 15.7019 13.4844 15.2626C13.5744 14.8495 13.6104 14.4248 13.6044 13.9971C14.2343 13.4008 14.7863 12.7113 15.2482 11.9491L18.0349 13.2204C17.384 14.8262 16.3971 16.3099 15.1522 17.5259ZM19.3667 12.4291C19.2227 12.7258 18.8418 12.8626 18.5298 12.72L15.2722 11.2334C15.1192 11.1636 15.0053 11.0414 14.9483 10.8902C14.8913 10.736 14.9003 10.5702 14.9723 10.4218C15.0442 10.2734 15.1702 10.1629 15.3292 10.1076C15.3982 10.0843 15.4702 10.0727 15.5422 10.0727C15.6112 10.0727 15.6772 10.096 15.7432 10.1163C15.7462 10.1192 15.7492 10.1221 15.7522 10.1221C15.7732 10.1309 15.7972 10.1309 15.8212 10.1367L19.0697 11.6204C19.2227 11.6902 19.3367 11.8124 19.3937 11.9636C19.4477 12.1149 19.4387 12.2807 19.3667 12.4291ZM24.3131 4.10604L22.7083 4.58604L22.5343 4.64714C22.3753 4.70241 22.2223 4.75477 22.0964 4.81878C21.2865 5.17369 20.5726 5.7177 20.0326 6.39844C19.4957 7.085 19.1567 7.85883 19.0517 8.65012L18.9198 10.0523C18.8838 10.2851 18.8358 10.5207 18.7938 10.7534L16.3101 9.61887L16.4781 8.94685C16.5051 8.85376 16.5291 8.74321 16.5561 8.62394C16.5951 8.44648 16.64 8.25157 16.709 8.06538C17.048 6.95118 17.6989 5.92716 18.5898 5.10096C19.4597 4.29222 20.4946 3.71039 21.5894 3.41657C21.8744 3.3322 22.1714 3.27984 22.4203 3.2362L24.3161 2.95692V4.10604H24.3131Z" stroke="#B1B1B3" stroke-width="0.6" mask="url(#path-2-outside-1_7300_19427)"/>
</svg>