<svg width="34" height="34" viewBox="0 0 34 34" fill="none" xmlns="http://www.w3.org/2000/svg">
	<path d="M32.6369 1.44093C32.3346 1.13868 31.9201 0.98338 31.4916 1.00141L25.0058 1.38964C24.2654 1.42985 23.5722 1.79034 23.1105 2.3768L12.6106 15.5635L11.7968 15.6939C11.7496 15.7022 11.7122 15.7244 11.6664 15.7355L10.8082 14.8786C10.0761 14.1604 8.88512 14.1618 8.14891 14.8814L6.7957 16.2346C6.43522 16.5937 6.23834 17.072 6.24111 17.5795C6.24388 18.0814 6.44215 18.5514 6.7957 18.898L8.68132 20.7823L4.5523 24.9113L4.30689 24.6659C3.77171 24.1307 2.89962 24.1307 2.36303 24.6659L1.79874 25.2316C0.837919 26.1924 0.837919 27.755 1.79874 28.7158L5.36199 32.279C5.84172 32.7588 6.47256 33 7.10481 33C7.73426 33 8.36652 32.7588 8.84622 32.2804L9.41192 31.7147C9.9471 31.1795 9.9471 30.3075 9.41192 29.7709L9.16651 29.5255L13.2955 25.3964L15.177 27.2793C15.5278 27.637 15.9964 27.8339 16.4997 27.8366H16.508C17.0127 27.8366 17.4869 27.6398 17.8446 27.2821L19.2006 25.9261C19.9188 25.194 19.9188 24.003 19.1978 23.2668L18.3423 22.4113C18.3534 22.367 18.3784 22.3281 18.3839 22.281L18.5143 21.4671L31.6996 10.9687C32.2874 10.5056 32.6465 9.81237 32.6881 9.07477L33.0764 2.58327C33.0986 2.16039 32.9391 1.7432 32.6369 1.44093ZM17.3592 15.7621C17.624 15.7149 17.8888 15.8037 18.0816 15.9964C18.2729 16.1877 18.3588 16.4511 18.3159 16.7187L17.4535 22.1344C17.3966 22.4921 17.1179 22.7708 16.7602 22.8277L11.3446 23.6901C11.0784 23.733 10.8135 23.6485 10.6222 23.4557C10.4308 23.2644 10.3449 23.001 10.3879 22.7334L11.2503 17.3177C11.3071 16.96 11.5858 16.6813 11.9435 16.6245L17.3592 15.7621ZM7.18233 17.5742C7.18095 17.3205 7.27939 17.0806 7.45963 16.9004L8.81007 15.5499C9.17889 15.1867 9.77785 15.1881 10.1439 15.5472L10.8038 16.2071C10.5529 16.465 10.3782 16.795 10.3186 17.1694L9.77923 20.5496L7.45686 18.2272C7.28078 18.0567 7.18372 17.8238 7.18233 17.5742ZM8.74488 31.0481L8.17918 31.6138C7.58576 32.2072 6.62217 32.2058 6.02736 31.6138L2.46411 28.0505C1.87069 27.4571 1.87069 26.4921 2.46411 25.8987L3.0284 25.333C3.11297 25.2484 3.22389 25.2068 3.33343 25.2068C3.44296 25.2068 3.55388 25.2484 3.63845 25.333L8.74356 30.4381C8.91132 30.6073 8.91126 30.8803 8.74488 31.0481ZM8.49948 28.8602L5.21766 25.5784L9.34668 21.4494L9.59764 21.7003L9.45621 22.5863C9.36471 23.1548 9.54772 23.7163 9.95533 24.1239C10.295 24.4622 10.7387 24.6452 11.2059 24.6452C11.3016 24.6452 11.3973 24.6369 11.4929 24.6217L12.3789 24.4802L12.6298 24.7312L8.49948 28.8602ZM18.528 25.2636L17.1761 26.6168C16.9959 26.797 16.7685 26.9371 16.5023 26.8941C16.2541 26.8927 16.0226 26.7957 15.8465 26.6168L13.5269 24.2972L16.9071 23.7579C17.2815 23.6982 17.6115 23.5222 17.8693 23.2726L18.5265 23.9298C18.887 24.2986 18.887 24.899 18.528 25.2636ZM31.7466 9.02224C31.7217 9.49364 31.4915 9.93454 31.1144 10.2312L18.733 20.0879L19.246 16.8657C19.3112 16.4581 19.2308 16.0561 19.0325 15.7094L27.3473 7.39459C27.5317 7.21019 27.5317 6.91209 27.3473 6.7277C27.1643 6.54329 26.8635 6.54329 26.6804 6.7277L18.3642 15.0439C18.0176 14.8471 17.6141 14.7666 17.2079 14.8304L13.9857 15.3434L23.8434 2.96204C24.1402 2.5863 24.581 2.35616 25.0552 2.33121L31.5411 1.94297C31.6991 1.9305 31.8516 1.99289 31.9667 2.10796C32.0818 2.22304 32.1414 2.37417 32.1317 2.53084L31.7466 9.02224Z" fill="#B1B1B3"/>
	<path d="M12.4441 22.1052C12.469 22.1052 12.4926 22.1038 12.5189 22.0996L15.8104 21.5755C16.0129 21.5436 16.1695 21.3856 16.2014 21.1845L16.7255 17.893C16.7491 17.7433 16.7006 17.5922 16.5924 17.4854C16.4857 17.3773 16.3346 17.3274 16.1848 17.3523L12.8933 17.8764C12.6909 17.9083 12.5342 18.0664 12.5023 18.2674L11.9782 21.5589C11.9547 21.7087 12.0032 21.8598 12.1113 21.9665C12.2001 22.0567 12.3193 22.1052 12.4441 22.1052ZM13.3786 18.754L15.6912 18.3852L15.3224 20.6979L13.0111 21.0667L13.3786 18.754Z" fill="#B1B1B3"/>
	<path d="M32.6369 1.44093C32.3346 1.13868 31.9201 0.98338 31.4916 1.00141L25.0058 1.38964C24.2654 1.42985 23.5722 1.79034 23.1105 2.3768L12.6106 15.5635L11.7968 15.6939C11.7496 15.7022 11.7122 15.7244 11.6664 15.7355L10.8082 14.8786C10.0761 14.1604 8.88512 14.1618 8.14891 14.8814L6.7957 16.2346C6.43522 16.5937 6.23834 17.072 6.24111 17.5795C6.24388 18.0814 6.44215 18.5514 6.7957 18.898L8.68132 20.7823L4.5523 24.9113L4.30689 24.6659C3.77171 24.1307 2.89962 24.1307 2.36303 24.6659L1.79874 25.2316C0.837919 26.1924 0.837919 27.755 1.79874 28.7158L5.36199 32.279C5.84172 32.7588 6.47256 33 7.10481 33C7.73426 33 8.36652 32.7588 8.84622 32.2804L9.41192 31.7147C9.9471 31.1795 9.9471 30.3075 9.41192 29.7709L9.16651 29.5255L13.2955 25.3964L15.177 27.2793C15.5278 27.637 15.9964 27.8339 16.4997 27.8366H16.508C17.0127 27.8366 17.4869 27.6398 17.8446 27.2821L19.2006 25.9261C19.9188 25.194 19.9188 24.003 19.1978 23.2668L18.3423 22.4113C18.3534 22.367 18.3784 22.3281 18.3839 22.281L18.5143 21.4671L31.6996 10.9687C32.2874 10.5056 32.6465 9.81237 32.6881 9.07477L33.0764 2.58327C33.0986 2.16039 32.9391 1.7432 32.6369 1.44093ZM17.3592 15.7621C17.624 15.7149 17.8888 15.8037 18.0816 15.9964C18.2729 16.1877 18.3588 16.4511 18.3159 16.7187L17.4535 22.1344C17.3966 22.4921 17.1179 22.7708 16.7602 22.8277L11.3446 23.6901C11.0784 23.733 10.8135 23.6485 10.6222 23.4557C10.4308 23.2644 10.3449 23.001 10.3879 22.7334L11.2503 17.3177C11.3071 16.96 11.5858 16.6813 11.9435 16.6245L17.3592 15.7621ZM7.18233 17.5742C7.18095 17.3205 7.27939 17.0806 7.45963 16.9004L8.81007 15.5499C9.17889 15.1867 9.77785 15.1881 10.1439 15.5472L10.8038 16.2071C10.5529 16.465 10.3782 16.795 10.3186 17.1694L9.77923 20.5496L7.45686 18.2272C7.28078 18.0567 7.18372 17.8238 7.18233 17.5742ZM8.74488 31.0481L8.17918 31.6138C7.58576 32.2072 6.62217 32.2058 6.02736 31.6138L2.46411 28.0505C1.87069 27.4571 1.87069 26.4921 2.46411 25.8987L3.0284 25.333C3.11297 25.2484 3.22389 25.2068 3.33343 25.2068C3.44296 25.2068 3.55388 25.2484 3.63845 25.333L8.74356 30.4381C8.91132 30.6073 8.91126 30.8803 8.74488 31.0481ZM8.49948 28.8602L5.21766 25.5784L9.34668 21.4494L9.59764 21.7003L9.45621 22.5863C9.36471 23.1548 9.54772 23.7163 9.95533 24.1239C10.295 24.4622 10.7387 24.6452 11.2059 24.6452C11.3016 24.6452 11.3973 24.6369 11.4929 24.6217L12.3789 24.4802L12.6298 24.7312L8.49948 28.8602ZM18.528 25.2636L17.1761 26.6168C16.9959 26.797 16.7685 26.9371 16.5023 26.8941C16.2541 26.8927 16.0226 26.7957 15.8465 26.6168L13.5269 24.2972L16.9071 23.7579C17.2815 23.6982 17.6115 23.5222 17.8693 23.2726L18.5265 23.9298C18.887 24.2986 18.887 24.899 18.528 25.2636ZM31.7466 9.02224C31.7217 9.49364 31.4915 9.93454 31.1144 10.2312L18.733 20.0879L19.246 16.8657C19.3112 16.4581 19.2308 16.0561 19.0325 15.7094L27.3473 7.39459C27.5317 7.21019 27.5317 6.91209 27.3473 6.7277C27.1643 6.54329 26.8635 6.54329 26.6804 6.7277L18.3642 15.0439C18.0176 14.8471 17.6141 14.7666 17.2079 14.8304L13.9857 15.3434L23.8434 2.96204C24.1402 2.5863 24.581 2.35616 25.0552 2.33121L31.5411 1.94297C31.6991 1.9305 31.8516 1.99289 31.9667 2.10796C32.0818 2.22304 32.1414 2.37417 32.1317 2.53084L31.7466 9.02224Z" stroke="#B1B1B3" stroke-width="0.3"/>
	<path d="M12.4441 22.1052C12.469 22.1052 12.4926 22.1038 12.5189 22.0996L15.8104 21.5755C16.0129 21.5436 16.1695 21.3856 16.2014 21.1845L16.7255 17.893C16.7491 17.7433 16.7006 17.5922 16.5924 17.4854C16.4857 17.3773 16.3346 17.3274 16.1848 17.3523L12.8933 17.8764C12.6909 17.9083 12.5342 18.0664 12.5023 18.2674L11.9782 21.5589C11.9547 21.7087 12.0032 21.8598 12.1113 21.9665C12.2001 22.0567 12.3193 22.1052 12.4441 22.1052ZM13.3786 18.754L15.6912 18.3852L15.3224 20.6979L13.0111 21.0667L13.3786 18.754Z" stroke="#B1B1B3" stroke-width="0.3"/>
</svg>