<svg width="20" height="26" viewBox="0 0 20 26" fill="none" xmlns="http://www.w3.org/2000/svg">
	<path d="M5.70435 24.8368L5.70423 24.8369L5.70825 24.8409C5.82122 24.9539 5.97637 25.0346 6.14113 25.0346H6.24002H6.25007L6.25992 25.0326C6.45025 24.9939 6.65191 24.8431 6.69858 24.6333L9.03415 18.1378C9.332 18.1682 9.61125 18.1959 9.9194 18.1959C10.2491 18.1959 10.5517 18.1686 10.8696 18.14C10.8808 18.1389 10.8921 18.1379 10.9034 18.1369L13.2774 24.7052L13.2774 24.7052L13.2786 24.7082C13.3534 24.8961 13.5088 25.0564 13.7137 25.098L13.7236 25.1H13.7336H13.8325C13.9959 25.1 14.1523 25.0194 14.2654 24.9063L14.2655 24.9064L14.2693 24.9022L16.1399 22.8061L18.9119 23.2568C19.1095 23.296 19.3467 23.2186 19.4695 23.054C19.5887 22.8959 19.6229 22.6679 19.5866 22.4817L19.5851 22.4742L19.5826 22.4671L16.8869 14.939L16.8877 14.9387L16.8819 14.9273C16.8626 14.8894 16.8436 14.8608 16.8274 14.8363L16.8267 14.8353C16.8225 14.8289 16.8184 14.8228 16.8145 14.8168C17.9532 13.3611 18.6021 11.5186 18.6021 9.54799C18.6021 4.79104 14.7111 0.9 9.95411 0.9C5.19716 0.9 1.30612 4.79104 1.30612 9.54799C1.30612 11.552 1.98783 13.3927 3.1567 14.8794C3.14862 14.8955 3.14645 14.8989 3.14226 14.9033L3.12766 14.9185L3.12043 14.9383L0.391804 22.3998C0.314097 22.5964 0.350556 22.8338 0.508765 22.9946C0.633713 23.1547 0.866067 23.2303 1.06177 23.1914L3.83375 22.7407L5.70435 24.8368ZM15.4678 21.7457L14.0665 23.3599L12.091 17.9037C13.5573 17.539 14.8448 16.7931 15.8969 15.7771L18.1189 21.8835L16.0208 21.5484C15.8156 21.5076 15.6197 21.5934 15.4726 21.7405L15.4724 21.7404L15.4678 21.7457ZM3.9518 21.5151L1.85347 21.8501L4.04479 15.808C5.09856 16.7942 6.41433 17.5401 7.88132 17.9036L5.90633 23.3268L4.50692 21.7147C4.38255 21.5527 4.14865 21.476 3.9518 21.5151ZM9.95282 2.05412C14.0726 2.05412 17.4145 5.396 17.4145 9.51581C17.4145 13.6356 14.0726 16.9775 9.95282 16.9775C5.83301 16.9775 2.49113 13.6356 2.49113 9.51581C2.49113 5.39469 5.833 2.05412 9.95282 2.05412Z" fill="#B1B1B3" stroke="#B1B1B3" stroke-width="0.2"/>
	<path d="M6.92835 13.2803L6.92839 13.2801L7.34722 10.8325L5.57507 9.09435L5.57439 9.09368L6.92835 13.2803ZM6.92835 13.2803C6.88847 13.5165 6.97169 13.7163 7.16241 13.8683C7.36136 14.0269 7.6036 14.0264 7.80016 13.9108L9.98718 12.7526L12.1763 13.9119L12.1763 13.9119M6.92835 13.2803L12.1763 13.9119M12.1763 13.9119L12.1776 13.9126C12.25 13.9495 12.3652 13.989 12.453 13.989C12.5747 13.989 12.692 13.9479 12.802 13.8745M12.1763 13.9119L12.802 13.8745M12.802 13.8745C13.0089 13.7487 13.0815 13.5067 13.0448 13.2809L13.0447 13.28L12.6246 10.8325L14.3954 9.09433L14.3961 9.09367C14.546 8.94379 14.6353 8.70504 14.5492 8.49248C14.4729 8.30139 14.3151 8.1426 14.0789 8.10245L14.0789 8.10242L14.0765 8.10208L11.6307 7.74746L10.5367 5.5267L10.537 5.52654L10.5326 5.51934C10.4185 5.32954 10.2239 5.20762 10.0193 5.20762C9.91839 5.20762 9.81068 5.23755 9.71826 5.29107C9.62726 5.34376 9.54437 5.42337 9.50077 5.52883L8.34256 7.74724L5.89402 8.10207L5.89401 8.10205L5.89171 8.10244C5.65376 8.14261 5.4973 8.30179 5.4212 8.4928L12.802 13.8745ZM8.84979 8.85861L8.84981 8.85876L8.85509 8.85768C9.0465 8.8188 9.20472 8.70369 9.28662 8.54149L9.28663 8.54149L9.28717 8.54039L9.98587 7.11337L10.6846 8.54039L10.6846 8.54039L10.685 8.54113C10.7656 8.70244 10.9253 8.81882 11.1167 8.85768L11.1166 8.85782L11.1219 8.8586L12.6969 9.09224L11.5642 10.1955C11.397 10.3255 11.3633 10.5323 11.4004 10.717L11.6626 12.2925L10.2619 11.5631L10.2619 11.5631L10.2612 11.5627C10.1888 11.5258 10.0736 11.4863 9.98587 11.4863C9.9389 11.4863 9.88702 11.4978 9.84212 11.5113C9.79585 11.5252 9.74967 11.5436 9.71197 11.562L9.71196 11.562L9.7098 11.5631L8.30917 12.2925L8.57138 10.717C8.6115 10.5158 8.53021 10.3196 8.41319 10.201L8.4132 10.201L8.41183 10.1997L7.2748 9.0911L8.84979 8.85861Z" fill="#B1B1B3" stroke="#B1B1B3" stroke-width="0.2"/>
</svg>