<svg width="26" height="24" viewBox="0 0 26 24" fill="none" xmlns="http://www.w3.org/2000/svg">
	<path d="M1.12903 21.5344L1.24301 21.3715M1.24301 21.3715L7 13.125M1.24301 21.3715C1.16119 21.3416 1.08018 21.3114 1 21.2809M1.24301 21.3715C7.55506 23.6768 18.6803 24.029 24.8319 21.4786M7 13.125L6.80645 13.4234M7 13.125C10.2234 14.0414 15.9488 14.2478 19.4089 13.094L24.8319 21.4786M7 13.125C6.96394 13.1147 6.71285 13.4339 6.67742 13.4235M24.871 21.5345L24.8319 21.4786M24.8319 21.4786C24.8883 21.4552 24.9444 21.4315 25 21.4076M13.129 16.2115L15.1404 17.3521V19.6333L13.129 20.774L11.1176 19.6333V17.3521L13.129 16.2115ZM7.19355 16.9719L8.53449 17.7323V19.2531L7.19355 20.0136L5.85261 19.2531V17.7323L7.19355 16.9719ZM19.0645 16.9719L20.4055 17.7323V19.2531L19.0645 20.0136L17.7236 19.2531V17.7323L19.0645 16.9719ZM19.0645 6.57976C19.0645 9.79945 16.4071 12.4095 13.129 12.4095C9.85096 12.4095 7.19355 9.79945 7.19355 6.57976C7.19355 3.36007 9.85096 0.75 13.129 0.75C16.4071 0.75 19.0645 3.36007 19.0645 6.57976Z" stroke="#B1B1B3" stroke-width="1.2"/>
</svg>