<svg width="24" height="24" viewBox="0 0 24 24" fill="none" xmlns="http://www.w3.org/2000/svg">
	<path d="M18.2722 10.7616C18.3289 10.8217 18.3729 10.8924 18.4017 10.9696C18.4305 11.0468 18.4435 11.129 18.4398 11.2112C18.4362 11.2935 18.416 11.3742 18.3805 11.4486C18.345 11.523 18.2949 11.5896 18.2331 11.6445C18.1713 11.6994 18.099 11.7415 18.0206 11.7683C17.9422 11.7951 17.8592 11.806 17.7764 11.8005C17.6937 11.795 17.6129 11.7731 17.5388 11.7362C17.4647 11.6993 17.3987 11.648 17.3449 11.5854C17.0275 11.2332 16.3346 10.9676 15.734 10.9676C15.1335 10.9676 14.4406 11.2332 14.1232 11.5854C14.012 11.7031 13.8589 11.773 13.6965 11.7801C13.534 11.7872 13.3753 11.7309 13.2541 11.6233C13.133 11.5157 13.0591 11.3653 13.0482 11.2042C13.0373 11.0432 13.0903 10.8843 13.1959 10.7616C13.7509 10.1438 14.7715 9.73194 15.734 9.73194C16.6966 9.73194 17.7172 10.1438 18.2722 10.7616ZM9.87678 11.5854C9.93065 11.648 9.99657 11.6993 10.0707 11.7362C10.1448 11.7731 10.2256 11.795 10.3083 11.8005C10.3911 11.806 10.4741 11.7951 10.5525 11.7683C10.631 11.7415 10.7032 11.6994 10.765 11.6445C10.8268 11.5896 10.8769 11.523 10.9124 11.4486C10.9479 11.3742 10.9681 11.2935 10.9717 11.2112C10.9754 11.129 10.9624 11.0468 10.9336 10.9696C10.9048 10.8924 10.8608 10.8217 10.8041 10.7616C10.2491 10.1438 9.22851 9.73194 8.26596 9.73194C7.3034 9.73194 6.28277 10.1438 5.72785 10.7616C5.67113 10.8217 5.62709 10.8924 5.5983 10.9696C5.5695 11.0468 5.55655 11.129 5.56019 11.2112C5.56383 11.2935 5.584 11.3742 5.6195 11.4486C5.655 11.523 5.70512 11.5896 5.76693 11.6445C5.82873 11.6994 5.90096 11.7415 5.97938 11.7683C6.0578 11.7951 6.14082 11.806 6.22357 11.8005C6.30631 11.795 6.38712 11.7731 6.46123 11.7362C6.53534 11.6993 6.60127 11.648 6.65513 11.5854C6.97253 11.2332 7.6654 10.9676 8.26596 10.9676C8.86652 10.9676 9.55939 11.2332 9.87678 11.5854ZM15.9685 14.8217C15.9063 14.769 15.8343 14.729 15.7565 14.7039C15.6788 14.6789 15.5968 14.6693 15.5153 14.6757C15.4338 14.6821 15.3544 14.7044 15.2816 14.7413C15.2088 14.7782 15.144 14.8289 15.091 14.8906C14.7123 15.3389 14.2394 15.6993 13.7054 15.9467C13.1714 16.194 12.5893 16.3221 12 16.3221C11.4107 16.3221 10.8286 16.194 10.2946 15.9467C9.76061 15.6993 9.28766 15.3389 8.90904 14.8906C8.85599 14.8289 8.79121 14.7782 8.7184 14.7413C8.64558 14.7044 8.56617 14.6821 8.48469 14.6757C8.4032 14.6693 8.32125 14.6789 8.2435 14.704C8.16574 14.729 8.09372 14.769 8.03154 14.8217C7.96936 14.8743 7.91824 14.9386 7.8811 15.0109C7.84395 15.0832 7.82151 15.162 7.81506 15.2429C7.80861 15.3238 7.81827 15.4052 7.84349 15.4824C7.86871 15.5595 7.90899 15.631 7.96205 15.6928C8.45763 16.2768 9.07579 16.7463 9.77328 17.0684C10.4708 17.3905 11.2307 17.5574 12 17.5574C12.7693 17.5574 13.5292 17.3905 14.2267 17.0684C14.9242 16.7463 15.5424 16.2768 16.038 15.6928C16.091 15.631 16.1313 15.5596 16.1565 15.4824C16.1818 15.4052 16.1914 15.3238 16.185 15.2429C16.1785 15.162 16.1561 15.0832 16.1189 15.0109C16.0818 14.9386 16.0306 14.8743 15.9685 14.8217ZM21.75 2.93604V8.67858C21.75 12.3288 20.7615 15.769 18.9671 18.3638C17.1239 21.0317 14.6491 22.5 12 22.5C9.3509 22.5 6.87606 21.0317 5.0329 18.3648C3.23848 15.77 2.25 12.3298 2.25 8.67961V2.93604C2.2509 2.70223 2.30908 2.47216 2.41951 2.26564C2.52994 2.05913 2.68931 1.88238 2.88388 1.75064C3.07846 1.61889 3.30239 1.53611 3.53637 1.50942C3.77036 1.48273 4.00737 1.51295 4.22697 1.59745C5.6988 2.15966 8.66633 3.11109 12 3.11109C15.3337 3.11109 18.3012 2.15966 19.773 1.59745C19.9926 1.51295 20.2296 1.48273 20.4636 1.50942C20.6976 1.53611 20.9215 1.61889 21.1161 1.75064C21.3107 1.88238 21.4701 2.05913 21.5805 2.26564C21.6909 2.47216 21.7491 2.70223 21.75 2.93604ZM20.5053 2.93604C20.5055 2.9024 20.4973 2.86923 20.4816 2.83943C20.4659 2.80964 20.443 2.78412 20.4151 2.76511C20.3875 2.74574 20.3555 2.73359 20.3219 2.72981C20.2884 2.72603 20.2544 2.73074 20.2232 2.74349C18.6705 3.34791 15.537 4.3467 12 4.3467C8.46303 4.3467 5.32955 3.34791 3.77681 2.74452C3.74546 2.73241 3.7116 2.72805 3.67818 2.73181C3.64475 2.73558 3.61274 2.74736 3.58492 2.76614C3.5571 2.78505 3.53435 2.8104 3.51863 2.84001C3.5029 2.86961 3.49468 2.90257 3.49468 2.93604V8.67755C3.49468 15.6186 7.31067 21.2644 12 21.2644C16.6893 21.2644 20.5053 15.6186 20.5053 8.67961V2.93604Z" fill="#B1B1B3"/>
</svg>