<svg width="24" height="16" viewBox="0 0 24 16" fill="none" xmlns="http://www.w3.org/2000/svg">
	<path d="M9.75006 5.03961C8.62508 3.91464 5.27379 0.85134 3.74271 1.11571C-0.247569 1.80532 -0.247569 13.8988 3.74271 14.5884C5.27379 14.8527 8.62508 11.7906 9.75006 10.6645M14.2499 5.03961C15.3749 3.91464 18.7262 0.85134 20.2573 1.11571C24.2476 1.80532 24.2476 13.8988 20.2573 14.5884C18.7262 14.8527 15.3749 11.7906 14.2499 10.6645" stroke="#B1B1B3" stroke-width="1.5" stroke-linecap="round" stroke-linejoin="round"/>
	<path d="M8.62558 7.85245H7.50061M16.5004 7.85245H15.3754M9.18807 7.85245C9.18807 5.49114 9.8878 4.47754 12.0005 4.47754C13.9681 4.47754 14.8129 5.31677 14.8129 7.85245C14.8129 10.2138 14.1132 11.2274 12.0005 11.2274C9.8878 11.2274 9.18807 10.2138 9.18807 7.85245Z" stroke="#B1B1B3" stroke-width="1.5" stroke-linecap="round" stroke-linejoin="round"/>
</svg>