<svg width="22" height="24" viewBox="0 0 22 24" fill="none" xmlns="http://www.w3.org/2000/svg">
	<path d="M12.9103 23.0062C13.1761 23.3161 13.5057 23.5649 13.8766 23.7356C14.2476 23.9063 14.651 23.9948 15.0593 23.995C15.1318 23.998 15.203 23.9995 15.273 23.9995C18.4644 23.9995 18.9016 21.1463 18.9414 20.8197L20.3633 14.1452C21.0298 12.3718 21.2768 10.4682 21.0847 8.58354C20.6138 4.16297 19.1656 1.12043 17.11 0.235863C16.5783 0.0164703 15.9962 -0.0516611 15.4282 0.0389961C14.8602 0.129653 14.3283 0.37557 13.8912 0.749578C10.6605 3.21503 11.7854 9.99869 11.8334 10.2863C11.8342 10.2934 11.8355 10.3004 11.8371 10.3073C12.0936 11.4123 12.0621 16.5052 12.0074 19.0614C11.977 19.3232 11.7479 21.6345 12.9103 23.0062ZM20.3374 8.66266C20.3772 9.04972 20.3964 9.43861 20.3952 9.82771L17.0789 10.1003C16.8619 10.1186 16.6573 10.2087 16.4973 10.3565C16.3374 10.5042 16.2313 10.7011 16.1958 10.9159C16.003 10.9033 15.8097 10.9033 15.6169 10.9159C15.6262 10.7103 15.5701 10.5071 15.4565 10.3354C15.343 10.1638 15.1779 10.0326 14.985 9.96082L12.4352 9.00014C12.3323 7.866 12.3383 6.72461 12.4532 5.59162C13.1167 5.96696 13.8213 6.26442 14.5531 6.47806C15.2539 6.68544 15.9805 6.79275 16.7114 6.79679C17.8228 6.80155 18.9161 6.51534 19.8826 5.96659C20.0919 6.85459 20.2438 7.75514 20.3374 8.66266ZM16.7583 15.8453L17.1655 16.1756C16.1506 16.4749 15.0717 16.4814 14.0532 16.1944C14.0874 16.1167 14.1372 16.0469 14.1995 15.9893L14.7886 15.4437C15.1163 15.138 15.3252 14.7262 15.3784 14.2813C15.6037 14.2569 15.8306 14.2522 16.0567 14.2674V14.2891C16.0456 14.5851 16.1031 14.8796 16.2248 15.1496C16.3466 15.4196 16.5291 15.6577 16.7583 15.8453ZM13.9917 16.9548C14.551 17.0895 15.1238 17.1594 15.699 17.1633C16.3151 17.1681 16.9269 17.0599 17.5041 16.8442L17.3016 19.967C17.2792 20.4396 17.097 20.8906 16.7849 21.2462C16.4728 21.6017 16.0492 21.8408 15.5835 21.9244C15.4641 21.9423 15.3434 21.9492 15.2228 21.945C15.0559 21.9407 14.8918 21.9009 14.7415 21.8281C14.5913 21.7554 14.4582 21.6514 14.3513 21.5232C14.0808 21.203 13.9388 20.7939 13.9527 20.375L13.9917 16.9548ZM15.4399 13.5197L15.4774 12.9752C15.6861 12.9556 15.896 12.9531 16.1051 12.9677L16.0841 13.5167C15.8696 13.5025 15.6543 13.5035 15.4399 13.5197ZM15.5295 12.2159L15.567 11.6715C15.7627 11.6545 15.9594 11.653 16.1553 11.667L16.1351 12.2163C15.9335 12.2028 15.7312 12.2027 15.5295 12.2159ZM19.6508 13.9086C19.6443 13.9262 19.6389 13.9442 19.6347 13.9625L18.2034 20.681C18.2001 20.6966 18.1977 20.7123 18.1963 20.7282C18.1881 20.8354 17.9376 23.3437 15.0874 23.2458C14.7835 23.2494 14.4826 23.1866 14.2055 23.0617C13.9284 22.9369 13.6819 22.7532 13.4833 22.5232C12.4896 21.3525 12.7513 19.1567 12.7543 19.1346C12.7543 19.1218 12.7566 19.1087 12.7569 19.0971C12.7633 18.793 12.9092 11.6523 12.5695 10.1517C12.5642 10.1198 12.5466 10.0069 12.5241 9.83483L14.7196 10.662C14.7664 10.6789 14.8065 10.7106 14.8336 10.7524C14.8607 10.7942 14.8733 10.8437 14.8695 10.8934L14.8613 11.0164C14.4577 11.0965 14.0634 11.2179 13.6846 11.3786L13.9932 12.0618C14.2572 11.9527 14.5294 11.865 14.8073 11.7993L14.7698 12.3262C14.3802 12.4062 13.9995 12.5247 13.6333 12.6798L13.9422 13.363C14.193 13.2582 14.4517 13.1733 14.7158 13.1091L14.6783 13.6341C14.3028 13.714 13.9358 13.8295 13.5823 13.979L13.8909 14.6626C14.1135 14.5705 14.3421 14.4937 14.5752 14.4328C14.5141 14.6087 14.4112 14.7671 14.2752 14.8944L13.6888 15.4388C13.5518 15.5659 13.4421 15.7196 13.3663 15.8904C13.2905 16.0612 13.2502 16.2456 13.2478 16.4325L13.2028 20.366C13.1865 20.9708 13.3955 21.5602 13.7892 22.0196C13.9638 22.2231 14.1786 22.3881 14.4202 22.5043C14.6618 22.6205 14.9249 22.6853 15.1928 22.6946C15.2263 22.6961 15.2596 22.6968 15.2929 22.6968C15.4277 22.6966 15.5623 22.6863 15.6956 22.6661C16.3302 22.5563 16.9087 22.2344 17.3364 21.753C17.7641 21.2716 18.0158 20.6592 18.0501 20.0161L18.2556 16.8423C18.2698 16.6231 18.2313 16.4036 18.1434 16.2022C18.0555 16.0008 17.9206 15.8234 17.7501 15.6848L17.2311 15.2633C17.1073 15.161 17.0061 15.034 16.9339 14.8904C16.8618 14.7469 16.8204 14.5899 16.8123 14.4294C17.0262 14.5074 17.2259 14.6197 17.4036 14.762L17.8768 14.1797C17.568 13.9312 17.2116 13.7485 16.8295 13.6427L16.8494 13.1245C17.0682 13.2027 17.2725 13.3167 17.4539 13.462L17.9271 12.88C17.6184 12.6313 17.2619 12.4486 16.8798 12.343L16.8997 11.8244C17.1185 11.9026 17.3228 12.0167 17.5041 12.1619L17.977 11.5796C17.6696 11.3318 17.3149 11.1495 16.9345 11.0437C16.9419 10.993 16.9662 10.9462 17.0035 10.911C17.0408 10.8758 17.0889 10.8543 17.14 10.8499L20.3723 10.5829C20.2956 11.7208 20.0526 12.8412 19.6508 13.9086ZM14.3468 1.34579C14.678 1.05263 15.0845 0.857855 15.5205 0.783449C15.9564 0.709042 16.4045 0.757963 16.8142 0.924691C18.0313 1.44965 19.034 2.9773 19.6831 5.2054C18.9551 5.64577 18.1405 5.92353 17.2951 6.01964C16.4497 6.11575 15.5935 6.02794 14.7852 5.76223C14.008 5.53601 13.2642 5.2082 12.5728 4.7873C12.8218 3.41639 13.3408 2.11336 14.3468 1.34579Z" fill="#B1B1B3"/>
	<path d="M10.1651 10.2868C10.2146 9.99917 11.3365 3.21551 8.10646 0.750055C7.6693 0.375728 7.13712 0.12962 6.56878 0.0389558C6.00044 -0.0517081 5.4181 0.0166056 4.88618 0.23634C2.83282 1.1209 1.38467 4.16345 0.9152 8.58402C0.722443 10.4686 0.968999 12.3723 1.63553 14.1456L3.05705 20.8202C3.0968 21.1468 3.53327 24 6.72543 24C6.79555 24 6.86679 24 6.93954 23.9955C7.34783 23.9952 7.75126 23.9068 8.12217 23.7361C8.49309 23.5654 8.82273 23.3166 9.08851 23.0066C10.2509 21.635 10.0214 19.3237 9.9907 19.0619C9.93745 16.5057 9.90483 11.4124 10.1613 10.3078C10.1624 10.301 10.1639 10.2939 10.1651 10.2868ZM9.56248 8.99874L7.01266 9.95942C6.81979 10.0313 6.65468 10.1624 6.54108 10.334C6.42747 10.5056 6.37123 10.7089 6.38045 10.9145C6.18779 10.9019 5.99452 10.9019 5.80186 10.9145C5.76631 10.6998 5.66023 10.503 5.50038 10.3553C5.34053 10.2076 5.13602 10.1174 4.91917 10.0989L1.60215 9.82631C1.60126 9.43781 1.62104 9.04953 1.6614 8.66314C1.75485 7.75495 1.90691 6.85376 2.11662 5.9652C3.08278 6.51414 4.17581 6.80062 5.28702 6.79614C6.01789 6.79196 6.7445 6.68466 7.44538 6.47741C8.17711 6.26407 8.88174 5.96687 9.54523 5.59172C9.65961 6.72425 9.66538 7.86511 9.56248 8.99874ZM7.21102 15.4442L7.79973 15.9898C7.8623 16.0477 7.91232 16.1179 7.94672 16.196C6.92838 16.4844 5.84907 16.4776 4.83443 16.1765L5.24128 15.8458C5.47077 15.6586 5.65377 15.4207 5.77595 15.1509C5.89813 14.8811 5.95615 14.5867 5.94548 14.2907V14.2686C6.17156 14.2534 6.39854 14.2581 6.62381 14.2825C6.67641 14.7269 6.8844 15.1383 7.21102 15.4442ZM8.04571 20.3755C8.05957 20.7944 7.9174 21.2036 7.64674 21.5236C7.53978 21.6519 7.40668 21.7558 7.25634 21.8285C7.10599 21.9012 6.94186 21.9409 6.77492 21.9451C6.65429 21.949 6.53356 21.9419 6.4142 21.9241C5.94867 21.8406 5.52527 21.6016 5.21328 21.2462C4.90129 20.8907 4.7192 20.4399 4.69681 19.9675L4.49395 16.8454C5.07112 17.0612 5.68293 17.1693 6.29908 17.1646C6.87439 17.1606 7.44735 17.0907 8.00671 16.9561L8.04571 20.3755ZM5.91436 13.5172L5.89336 12.9675C6.10245 12.9528 6.3124 12.9554 6.52106 12.9753L6.55856 13.5202C6.34417 13.504 6.12889 13.503 5.91436 13.5172ZM5.86411 12.2168L5.84311 11.6671C6.0389 11.6531 6.23548 11.6543 6.43107 11.6708L6.46857 12.2156C6.26728 12.2027 6.06535 12.2031 5.86411 12.2168ZM5.18616 0.925168C5.45813 0.805931 5.75164 0.743656 6.0486 0.74218C6.63478 0.760308 7.1983 0.972815 7.65049 1.34626C8.65542 2.11346 9.17401 3.41687 9.42524 4.7889C8.73381 5.20964 7.98996 5.53744 7.21289 5.76384C6.4046 6.02933 5.54846 6.11696 4.70314 6.02072C3.85781 5.92448 3.04329 5.64664 2.31535 5.20625C2.96443 2.97778 3.96712 1.44901 5.18616 0.925168ZM9.24113 19.0953C9.24113 19.1084 9.24113 19.1215 9.24413 19.1328C9.24713 19.1549 9.50886 21.3508 8.51518 22.5214C8.3167 22.7518 8.07031 22.936 7.79323 23.0612C7.51615 23.1864 7.21507 23.2495 6.91104 23.2463C4.05786 23.3565 3.81113 20.8352 3.80175 20.7287C3.80032 20.7128 3.79794 20.697 3.79463 20.6814L2.36373 13.963C2.35954 13.9447 2.35416 13.9267 2.3476 13.909C1.94566 12.8418 1.7027 11.7213 1.62653 10.5834L4.8588 10.8496C4.90979 10.8542 4.95776 10.8758 4.99496 10.911C5.03217 10.9462 5.05646 10.9928 5.06391 11.0435C4.68354 11.1491 4.3288 11.3315 4.02149 11.5793L4.49358 12.1616C4.67523 12.0164 4.87975 11.9024 5.09879 11.8242L5.11866 12.3431C4.7365 12.4486 4.38005 12.6313 4.07136 12.8801L4.54383 13.4621C4.7256 13.317 4.93009 13.203 5.14903 13.1246L5.16891 13.6435C4.78687 13.7493 4.43048 13.932 4.1216 14.1805L4.59407 14.7628C4.77208 14.6205 4.97205 14.508 5.18616 14.4299C5.17798 14.5904 5.13648 14.7475 5.06431 14.8911C4.99214 15.0348 4.89086 15.1618 4.76694 15.2642L4.24872 15.6849C4.07837 15.8236 3.94359 16.0009 3.85561 16.2022C3.76763 16.4035 3.72898 16.6229 3.74288 16.8421L3.94912 20.0162C3.98323 20.6593 4.23475 21.2716 4.66244 21.753C5.09014 22.2344 5.66866 22.5562 6.3032 22.6658C6.43647 22.6863 6.57109 22.6967 6.70593 22.6969C6.7393 22.6969 6.77267 22.6969 6.8053 22.6947C7.07334 22.6855 7.33656 22.6208 7.57828 22.5046C7.82001 22.3884 8.03498 22.2233 8.20957 22.0197C8.60378 21.5604 8.81297 20.9708 8.79641 20.3657L8.75066 16.433C8.74807 16.2462 8.70762 16.0618 8.63176 15.8911C8.5559 15.7204 8.44621 15.5668 8.30932 15.4397L7.72098 14.8956C7.58508 14.7681 7.48214 14.6096 7.421 14.4336C7.65409 14.4945 7.88274 14.5713 8.10533 14.6635L8.41393 13.9799C8.06043 13.8302 7.6934 13.7147 7.31788 13.6349L7.28039 13.11C7.54453 13.1742 7.80319 13.2592 8.05396 13.3642L8.36294 12.681C7.99669 12.5259 7.61598 12.4074 7.22639 12.3274L7.18889 11.8002C7.46684 11.8657 7.73908 11.9535 8.00296 12.0627L8.31157 11.3794C7.93276 11.2187 7.53848 11.0972 7.1349 11.0168L7.12665 10.8942C7.12276 10.8448 7.13513 10.7954 7.16187 10.7537C7.1886 10.7119 7.22824 10.68 7.27476 10.6629L9.47324 9.83343C9.45036 10.0055 9.43274 10.1184 9.42786 10.1503C9.08964 11.6521 9.23588 18.7919 9.24113 19.0953Z" fill="#B1B1B3"/>
</svg>