<svg width="26" height="16" viewBox="0 0 26 16" fill="none" xmlns="http://www.w3.org/2000/svg">
	<path d="M24.3224 11.5002C24.3224 11.4778 24.309 11.4554 24.3 11.4285C24.2911 11.3972 24.2821 11.3613 24.2687 11.3344V11.3255C24.2552 11.3031 24.2373 11.2941 24.2239 11.2762C24.2059 11.2493 24.188 11.2269 24.1611 11.2045C24.1343 11.1821 24.1029 11.1686 24.0715 11.1552C24.0536 11.1462 24.0402 11.1328 24.0178 11.1238H24.0088C23.9729 11.1149 23.9371 11.1149 23.9013 11.1104C23.8788 11.1104 23.8564 11.1014 23.834 11.1059C23.8116 11.1059 23.7892 11.1194 23.7623 11.1283C23.731 11.1373 23.6951 11.1462 23.6683 11.1597H23.6593C23.1216 11.4689 22.454 11.5629 21.8222 11.554C22.9155 11.1911 23.74 10.6309 24.2956 9.87816C25.0618 8.82967 25.2634 7.45406 24.887 5.79168C24.887 5.77375 24.8736 5.76031 24.8646 5.74239C24.8557 5.71102 24.8422 5.68414 24.8288 5.65725C24.8153 5.63485 24.7974 5.61244 24.7795 5.59004C24.7616 5.56763 24.7392 5.54971 24.7168 5.53179C24.6944 5.51387 24.6675 5.50042 24.6406 5.48698C24.6227 5.47802 24.6092 5.46458 24.5913 5.4601H24.5599C24.5331 5.45113 24.5017 5.45113 24.4748 5.45113H24.3852H24.3583C24.3404 5.45113 24.3269 5.46458 24.309 5.47354C24.2776 5.4825 24.2508 5.49594 24.2239 5.51386C24.2015 5.52731 24.1791 5.54523 24.1611 5.56315C24.1387 5.58108 24.1208 5.60348 24.0984 5.62589C24.0805 5.64829 24.067 5.67518 24.0536 5.70206C24.0446 5.71998 24.0312 5.73342 24.0267 5.75135C23.5204 7.30169 22.2882 8.28749 20.9709 8.69075C22.6243 7.63775 23.1396 6.49067 23.2471 5.62144C23.4577 3.93666 22.342 2.14434 20.1104 0.571693C20.1015 0.567212 20.0925 0.567212 20.088 0.562731C20.0611 0.544808 20.0343 0.535846 20.0074 0.526885C19.9805 0.517923 19.9536 0.504481 19.9267 0.5H19.8506C19.8192 0.5 19.7833 0.5 19.752 0.508962H19.7296C19.7116 0.513442 19.6982 0.526885 19.6803 0.535846C19.6534 0.549289 19.622 0.562731 19.5996 0.580654C19.5727 0.598577 19.5548 0.62098 19.5324 0.643385C19.519 0.656828 19.501 0.665789 19.4921 0.683711C19.4876 0.692673 19.4876 0.701634 19.4831 0.706115C19.4652 0.733 19.4562 0.759885 19.4473 0.791252C19.4383 0.818136 19.4249 0.840542 19.4204 0.867424V0.948078C19.4204 0.979445 19.4204 1.01081 19.4294 1.04217V1.06906C20.1552 3.52901 20.4554 5.23613 18.1658 6.5177C14.5095 8.43996 13.4387 10.8505 14.469 14.8475C14.4825 14.9013 14.5093 14.9506 14.5407 14.9954C14.5407 14.9954 14.5407 15.0044 14.5452 15.0044C14.5497 15.0133 14.5586 15.0133 14.5676 15.0223C14.6034 15.0626 14.6393 15.094 14.6841 15.1209C14.6975 15.1298 14.711 15.1388 14.7244 15.1433C14.7782 15.1657 14.8364 15.1836 14.8992 15.1836C14.935 15.1836 14.9754 15.1791 15.0112 15.1702C15.0112 15.1702 15.0202 15.1702 15.0246 15.1657C15.0784 15.1522 15.1277 15.1298 15.1725 15.094C16.221 14.2964 16.9962 14.4218 18.1658 14.6056C18.3361 14.6325 18.5153 14.6593 18.7035 14.6862C21.168 14.9999 23.6862 13.6556 24.3179 11.684V11.6751C24.3269 11.6437 24.3269 11.6079 24.3269 11.5765C24.3269 11.5541 24.3358 11.5272 24.3314 11.5048L24.3224 11.5002ZM18.811 13.7989C18.6318 13.772 18.457 13.7451 18.2912 13.7182C17.2248 13.5479 16.2794 13.4001 15.1815 14.0095C14.5094 10.7922 15.4683 8.93705 18.578 7.3016C21.0469 5.91704 21.0514 3.95441 20.6347 2.14431C21.8624 3.269 22.4763 4.4564 22.3464 5.50928C22.1851 6.81767 20.8946 7.97373 18.6229 8.84299C18.605 8.84747 18.5961 8.86092 18.5826 8.86988C18.5557 8.88332 18.5333 8.89676 18.5109 8.91469C18.4885 8.93261 18.4661 8.95501 18.4482 8.97742C18.4303 8.99982 18.4168 9.01774 18.4034 9.04463C18.3899 9.07152 18.3765 9.0984 18.3675 9.12977C18.3631 9.14321 18.3541 9.15665 18.3496 9.17457V9.21042V9.30004C18.3496 9.3314 18.3541 9.35829 18.3631 9.38965C18.3631 9.4031 18.3631 9.41206 18.3675 9.4255C18.3765 9.4479 18.3899 9.46134 18.3989 9.48375C18.4079 9.49719 18.4123 9.51511 18.4258 9.52856C18.4572 9.56888 18.4885 9.60921 18.5333 9.63609C18.5781 9.66746 18.6274 9.68539 18.6812 9.69883C18.6857 9.69883 18.6902 9.70331 18.6991 9.70779C19.0083 9.77052 19.3309 9.80188 19.658 9.80188C21.3069 9.80188 23.0904 9.00879 24.1658 7.44947C24.1478 8.19777 23.9462 8.83403 23.5653 9.3538C22.8349 10.3486 21.4504 10.94 19.4519 11.1103C19.4429 11.1103 19.434 11.1148 19.4295 11.1192C19.3981 11.1192 19.3712 11.1327 19.3399 11.1461C19.313 11.1551 19.2906 11.164 19.2682 11.1775C19.2458 11.1909 19.2234 11.2089 19.2054 11.2313C19.183 11.2492 19.1606 11.2716 19.1427 11.294C19.1382 11.2985 19.1293 11.303 19.1248 11.3119C19.1113 11.3298 19.1113 11.3478 19.1024 11.3657C19.0889 11.3926 19.0755 11.4195 19.0665 11.4508C19.0576 11.4822 19.0576 11.5135 19.0576 11.5449C19.0576 11.5628 19.0486 11.5808 19.0531 11.6032C19.0531 11.6121 19.0576 11.6166 19.0576 11.6256C19.0576 11.6525 19.071 11.6793 19.08 11.7062C19.0889 11.7331 19.0979 11.76 19.1113 11.7869C19.1248 11.8093 19.1382 11.8272 19.1562 11.8451C19.1786 11.872 19.1965 11.8944 19.2234 11.9123C19.2323 11.9168 19.2368 11.9303 19.2458 11.9347C19.5101 12.114 20.6483 12.4635 21.8895 12.4635C22.2255 12.4635 22.5705 12.4321 22.9066 12.3694C22.0732 13.3283 20.5228 14.0273 18.8201 13.8122L18.811 13.7989Z" fill="#B1B1B3"/>
	<path d="M7.78852 6.52211C5.48988 5.23165 5.79007 3.5245 6.51598 1.06458V1.03769C6.52494 1.00633 6.52494 0.979445 6.52494 0.948078V0.867424C6.52494 0.840539 6.51149 0.813654 6.50253 0.791252C6.49357 0.759885 6.48013 0.733003 6.46669 0.706115C6.46221 0.697154 6.46221 0.688192 6.45773 0.683711C6.44428 0.665788 6.43084 0.656826 6.4174 0.643385C6.395 0.620981 6.37707 0.598577 6.35019 0.580654C6.3233 0.562731 6.29642 0.549287 6.26953 0.535846C6.25161 0.526885 6.23816 0.513442 6.22024 0.508962H6.19784C6.16647 0.5 6.13062 0.5 6.09926 0.5H6.02757C5.9962 0.504481 5.96932 0.517923 5.93795 0.526885C5.91107 0.535846 5.88866 0.544808 5.86178 0.558252C5.85282 0.562733 5.84386 0.562733 5.83489 0.571694C3.60347 2.14446 2.49229 3.93666 2.70278 5.62144C2.81032 6.4907 3.33009 7.63778 4.97903 8.69075C3.66166 8.28749 2.42499 7.30169 1.9232 5.75135C1.91872 5.73343 1.90527 5.71998 1.89631 5.70654C1.88287 5.67966 1.86943 5.65277 1.8515 5.62589C1.83358 5.60348 1.81566 5.58556 1.79326 5.56316C1.77085 5.54523 1.75293 5.52731 1.72604 5.51387C1.69916 5.49594 1.67227 5.48698 1.64091 5.47802C1.62298 5.47354 1.60954 5.4601 1.59162 5.45562H1.56025C1.52888 5.45113 1.502 5.45562 1.47063 5.45562C1.44375 5.45562 1.41238 5.45562 1.3855 5.46458H1.35413C1.33621 5.46906 1.32276 5.4825 1.30484 5.49146C1.27795 5.5049 1.25555 5.51387 1.23315 5.53179C1.20626 5.54971 1.18834 5.57211 1.16593 5.59452C1.14801 5.61244 1.13009 5.63484 1.11664 5.65725C1.09872 5.68413 1.08976 5.71102 1.07632 5.74239C1.07184 5.76031 1.05839 5.77375 1.05391 5.79168C0.677526 7.45853 0.87916 8.82973 1.64538 9.87816C2.19652 10.6309 3.02546 11.191 4.11878 11.554C3.48699 11.563 2.81486 11.4689 2.27716 11.1597H2.2682C2.23683 11.1418 2.20547 11.1373 2.16962 11.1283C2.14722 11.1238 2.12482 11.1104 2.10241 11.1104C2.08 11.1104 2.05312 11.1104 2.03072 11.1149C1.99487 11.1149 1.9635 11.1149 1.93214 11.1238H1.92318C1.90077 11.1328 1.88285 11.1462 1.86493 11.1552C1.83804 11.1686 1.80668 11.1821 1.77979 11.2C1.75291 11.2224 1.73498 11.2493 1.71258 11.2762C1.69914 11.2941 1.68121 11.3031 1.66777 11.3255V11.3344C1.64985 11.3658 1.64537 11.3972 1.6364 11.433C1.63192 11.4554 1.61848 11.4778 1.61848 11.5002C1.61848 11.5226 1.61848 11.5495 1.62296 11.5719C1.62296 11.6078 1.62296 11.6391 1.6364 11.675V11.6839C2.26372 13.651 4.7863 14.9996 7.25539 14.6816C7.4391 14.6547 7.61833 14.6278 7.78861 14.6009C8.95809 14.4172 9.72879 14.2917 10.7773 15.0848C10.8221 15.1207 10.8714 15.1431 10.9252 15.1565C10.9252 15.1565 10.9342 15.1565 10.9386 15.161C10.9745 15.17 11.0103 15.1744 11.0462 15.1744C11.1089 15.1744 11.1672 15.1565 11.2209 15.1341C11.2344 15.1296 11.2478 15.1207 11.2657 15.1117C11.3106 15.0848 11.3509 15.0535 11.3822 15.0131C11.3867 15.0042 11.3957 15.0042 11.4047 14.9952C11.4047 14.9952 11.4047 14.9862 11.4091 14.9862C11.4405 14.9414 11.4674 14.8922 11.4808 14.8384C12.5114 10.8414 11.4405 8.43078 7.79754 6.51744L7.78852 6.52211ZM7.63617 13.7183C7.47039 13.7452 7.29563 13.7721 7.12538 13.799C5.4182 14.0186 3.86795 13.3151 3.0343 12.3607C3.37037 12.4234 3.71539 12.4548 4.05145 12.4548C5.29263 12.4548 6.42626 12.1052 6.69514 11.926C6.7041 11.9215 6.70858 11.9126 6.71754 11.9036C6.74442 11.8857 6.76235 11.8588 6.78475 11.8364C6.7982 11.8185 6.81164 11.8006 6.82508 11.7826C6.84748 11.7513 6.85645 11.7109 6.86989 11.6751C6.86989 11.6661 6.87885 11.6527 6.87885 11.6437C6.87885 11.6258 6.89229 11.6124 6.89229 11.5944C6.91469 11.348 6.73098 11.1329 6.48453 11.1105C4.48608 10.9402 3.1015 10.3533 2.37109 9.35404C1.99023 8.83426 1.7886 8.198 1.77065 7.4497C2.85051 9.00902 4.62941 9.80212 6.2827 9.80212C6.60979 9.80212 6.93241 9.77075 7.24161 9.70802C7.24609 9.70802 7.25057 9.70354 7.25953 9.69906C7.3133 9.68561 7.36259 9.66769 7.40739 9.63633H7.41187C7.4522 9.60944 7.48805 9.5736 7.51493 9.52879C7.5239 9.51535 7.53286 9.5019 7.54182 9.48398C7.55078 9.46606 7.56422 9.44813 7.57319 9.43021C7.57319 9.41677 7.57319 9.40781 7.57767 9.39436C7.58663 9.36748 7.59111 9.33611 7.59111 9.30475V9.21513V9.17929C7.59111 9.16136 7.57767 9.1524 7.57319 9.13448C7.56422 9.10311 7.55526 9.07623 7.53734 9.04934C7.5239 9.02246 7.50597 9.00005 7.48805 8.98213C7.47013 8.95972 7.4522 8.9418 7.4298 8.92388C7.4074 8.90596 7.38051 8.88803 7.35363 8.87459L7.3133 8.8477C5.04153 7.97394 3.75104 6.82238 3.58987 5.51399C3.45993 4.461 4.0738 3.2736 5.30155 2.14902C4.88484 3.95926 4.88932 5.92178 7.36719 7.3109C10.4678 8.94191 11.4267 10.7969 10.7545 14.0142C9.65223 13.4048 8.71128 13.5526 7.64478 13.7229L7.63617 13.7183Z" fill="#B1B1B3"/>
</svg>