<svg width="26" height="26" viewBox="0 0 26 26" fill="none" xmlns="http://www.w3.org/2000/svg">
	<mask id="path-1-outside-1_7300_28962" maskUnits="userSpaceOnUse" x="0" y="0" width="26" height="26" fill="black">
	<rect fill="white" width="26" height="26"/>
	<path d="M1.11939 4.33652C1.16451 3.8575 1.45037 1.44844 2.66325 1.0544C3.2196 0.873915 3.82679 1.14306 4.46818 1.85375C6.17667 3.74803 7.39376 6.02264 8.57069 8.22256L8.69936 8.46329C8.71424 8.49072 8.7244 8.52011 8.73035 8.55047L9.11886 10.5983L9.13002 10.4421C9.13969 10.3064 9.23837 10.193 9.37274 10.1634C9.50787 10.1337 9.64522 10.1947 9.71266 10.3132C10.0841 10.9683 10.4044 11.5012 10.7202 11.9903C11.5471 13.2706 12.514 14.5514 13.6766 15.906C13.7056 15.9398 13.7269 15.9792 13.7388 16.0221L13.9689 16.8329C14.0063 16.7773 14.0619 16.7342 14.1288 16.7119C14.2468 16.6727 14.3777 16.7065 14.4608 16.7989C14.9569 17.3494 15.479 17.9061 16.0123 18.4539C16.0785 18.522 16.2543 18.687 16.4938 18.9121C19.0435 21.3104 19.6274 22.0127 19.6485 22.3918C19.819 22.4712 19.9906 22.5503 20.1649 22.6287L19.941 22.1854C19.8642 22.0336 19.9269 21.8487 20.0806 21.773C20.2346 21.6966 20.4218 21.7585 20.4984 21.9106L21.0567 23.0161C21.1373 23.0501 21.2179 23.0842 21.2992 23.118L21.1187 22.7607C21.0418 22.6088 21.1046 22.4239 21.2583 22.3482C21.4125 22.2718 21.5994 22.334 21.676 22.4861L22.1729 23.4696C23.0054 23.7941 23.8749 24.1054 24.7853 24.4C24.949 24.4529 25.038 24.6268 24.9844 24.7882C24.9418 24.9177 24.8198 25 24.6889 25C24.6567 25 24.6239 24.9951 24.592 24.9846C23.7182 24.7017 22.8832 24.4037 22.0814 24.0941C22.0767 24.0956 22.0727 24.0978 22.068 24.099L20.8958 24.3885C20.8703 24.3949 20.845 24.3976 20.8199 24.3976C20.6804 24.3976 20.5534 24.3042 20.518 24.1644C20.4763 23.9998 20.5777 23.8326 20.7446 23.7914L21.1006 23.7035C20.9838 23.6553 20.871 23.6058 20.756 23.5571L19.7181 23.8135C19.6926 23.8198 19.6673 23.8225 19.6423 23.8225C19.5027 23.8225 19.3757 23.7292 19.3403 23.5894C19.2986 23.4248 19.4 23.2576 19.5669 23.2164L19.8287 23.1518C19.5882 23.043 19.3514 22.9336 19.1181 22.8226C18.9305 22.853 18.7309 22.8682 18.5216 22.8682C17.273 22.8682 15.7044 22.3791 14.5924 22.0326L14.2699 21.9324C12.4959 21.387 10.7864 20.6477 9.18878 19.7357C9.14093 19.7083 9.09159 19.6786 9.0425 19.649L8.93986 19.5878C8.83597 19.527 8.77697 19.4119 8.78862 19.2934C8.79953 19.1829 8.86944 19.0879 8.9706 19.0426L8.02351 18.9821C7.9702 18.9787 7.91863 18.962 7.87375 18.9332C6.9522 18.341 6.16601 17.7674 5.47032 17.1797C4.41413 16.2873 3.57266 15.3731 2.96994 14.463C2.90622 14.3665 2.90201 14.2431 2.95953 14.143C2.98903 14.0913 3.03217 14.0504 3.08324 14.0234L2.71804 13.8941C2.64515 13.8684 2.58441 13.8168 2.54821 13.7494C1.22228 11.2953 0.755176 8.21668 1.11939 4.33652ZM3.04184 13.3546L5.06371 14.0695C5.2085 14.1207 5.29404 14.2686 5.26478 14.4175C5.23553 14.5669 5.09669 14.6776 4.94694 14.6665L3.84736 14.6249C4.37918 15.3221 5.05875 16.0216 5.87519 16.711C6.53295 17.2666 7.27624 17.8108 8.14524 18.3723L10.5184 18.5242C10.6659 18.5335 10.7864 18.6442 10.8068 18.7887C10.8271 18.9334 10.7418 19.0723 10.6022 19.1212L9.83563 19.3901C11.2964 20.1936 12.8485 20.8502 14.4548 21.3442L14.7796 21.4448C15.6159 21.7054 16.833 22.0842 17.8812 22.2099C12.2212 19.2807 8.85184 15.7823 6.90807 13.0453C4.06257 9.03831 3.57414 5.82868 3.55481 5.69399C3.53051 5.52574 3.64902 5.36999 3.81935 5.34599C3.98918 5.32101 4.14711 5.43905 4.17141 5.60729C4.18752 5.71872 5.7475 15.4524 18.6337 21.903C17.9521 21.1338 16.5962 19.8579 16.0639 19.3571C15.8147 19.1227 15.632 18.9505 15.5631 18.8798C15.1959 18.5026 14.8339 18.1211 14.4818 17.7403L14.4216 18.4985C14.4097 18.6474 14.2917 18.7664 14.1414 18.7806C13.9907 18.7948 13.8519 18.701 13.8112 18.5572L13.1569 16.2515C11.9956 14.8945 11.0262 13.6079 10.1946 12.3202C10.0263 12.0594 9.85695 11.787 9.67968 11.4912L9.57009 13.0314C9.55919 13.1859 9.43373 13.3081 9.27729 13.3169C9.12283 13.3265 8.98201 13.2187 8.95325 13.0666L8.1264 8.70892L8.01954 8.50933C6.85997 6.34199 5.66073 4.10069 4.00257 2.26248C3.68571 1.9113 3.23002 1.51775 2.85763 1.63873C2.27573 1.82779 1.85475 3.16738 1.73995 4.39285C1.39236 8.09423 1.81805 11.0271 3.04184 13.3546Z"/>
	</mask>
	<path d="M1.11939 4.33652C1.16451 3.8575 1.45037 1.44844 2.66325 1.0544C3.2196 0.873915 3.82679 1.14306 4.46818 1.85375C6.17667 3.74803 7.39376 6.02264 8.57069 8.22256L8.69936 8.46329C8.71424 8.49072 8.7244 8.52011 8.73035 8.55047L9.11886 10.5983L9.13002 10.4421C9.13969 10.3064 9.23837 10.193 9.37274 10.1634C9.50787 10.1337 9.64522 10.1947 9.71266 10.3132C10.0841 10.9683 10.4044 11.5012 10.7202 11.9903C11.5471 13.2706 12.514 14.5514 13.6766 15.906C13.7056 15.9398 13.7269 15.9792 13.7388 16.0221L13.9689 16.8329C14.0063 16.7773 14.0619 16.7342 14.1288 16.7119C14.2468 16.6727 14.3777 16.7065 14.4608 16.7989C14.9569 17.3494 15.479 17.9061 16.0123 18.4539C16.0785 18.522 16.2543 18.687 16.4938 18.9121C19.0435 21.3104 19.6274 22.0127 19.6485 22.3918C19.819 22.4712 19.9906 22.5503 20.1649 22.6287L19.941 22.1854C19.8642 22.0336 19.9269 21.8487 20.0806 21.773C20.2346 21.6966 20.4218 21.7585 20.4984 21.9106L21.0567 23.0161C21.1373 23.0501 21.2179 23.0842 21.2992 23.118L21.1187 22.7607C21.0418 22.6088 21.1046 22.4239 21.2583 22.3482C21.4125 22.2718 21.5994 22.334 21.676 22.4861L22.1729 23.4696C23.0054 23.7941 23.8749 24.1054 24.7853 24.4C24.949 24.4529 25.038 24.6268 24.9844 24.7882C24.9418 24.9177 24.8198 25 24.6889 25C24.6567 25 24.6239 24.9951 24.592 24.9846C23.7182 24.7017 22.8832 24.4037 22.0814 24.0941C22.0767 24.0956 22.0727 24.0978 22.068 24.099L20.8958 24.3885C20.8703 24.3949 20.845 24.3976 20.8199 24.3976C20.6804 24.3976 20.5534 24.3042 20.518 24.1644C20.4763 23.9998 20.5777 23.8326 20.7446 23.7914L21.1006 23.7035C20.9838 23.6553 20.871 23.6058 20.756 23.5571L19.7181 23.8135C19.6926 23.8198 19.6673 23.8225 19.6423 23.8225C19.5027 23.8225 19.3757 23.7292 19.3403 23.5894C19.2986 23.4248 19.4 23.2576 19.5669 23.2164L19.8287 23.1518C19.5882 23.043 19.3514 22.9336 19.1181 22.8226C18.9305 22.853 18.7309 22.8682 18.5216 22.8682C17.273 22.8682 15.7044 22.3791 14.5924 22.0326L14.2699 21.9324C12.4959 21.387 10.7864 20.6477 9.18878 19.7357C9.14093 19.7083 9.09159 19.6786 9.0425 19.649L8.93986 19.5878C8.83597 19.527 8.77697 19.4119 8.78862 19.2934C8.79953 19.1829 8.86944 19.0879 8.9706 19.0426L8.02351 18.9821C7.9702 18.9787 7.91863 18.962 7.87375 18.9332C6.9522 18.341 6.16601 17.7674 5.47032 17.1797C4.41413 16.2873 3.57266 15.3731 2.96994 14.463C2.90622 14.3665 2.90201 14.2431 2.95953 14.143C2.98903 14.0913 3.03217 14.0504 3.08324 14.0234L2.71804 13.8941C2.64515 13.8684 2.58441 13.8168 2.54821 13.7494C1.22228 11.2953 0.755176 8.21668 1.11939 4.33652ZM3.04184 13.3546L5.06371 14.0695C5.2085 14.1207 5.29404 14.2686 5.26478 14.4175C5.23553 14.5669 5.09669 14.6776 4.94694 14.6665L3.84736 14.6249C4.37918 15.3221 5.05875 16.0216 5.87519 16.711C6.53295 17.2666 7.27624 17.8108 8.14524 18.3723L10.5184 18.5242C10.6659 18.5335 10.7864 18.6442 10.8068 18.7887C10.8271 18.9334 10.7418 19.0723 10.6022 19.1212L9.83563 19.3901C11.2964 20.1936 12.8485 20.8502 14.4548 21.3442L14.7796 21.4448C15.6159 21.7054 16.833 22.0842 17.8812 22.2099C12.2212 19.2807 8.85184 15.7823 6.90807 13.0453C4.06257 9.03831 3.57414 5.82868 3.55481 5.69399C3.53051 5.52574 3.64902 5.36999 3.81935 5.34599C3.98918 5.32101 4.14711 5.43905 4.17141 5.60729C4.18752 5.71872 5.7475 15.4524 18.6337 21.903C17.9521 21.1338 16.5962 19.8579 16.0639 19.3571C15.8147 19.1227 15.632 18.9505 15.5631 18.8798C15.1959 18.5026 14.8339 18.1211 14.4818 17.7403L14.4216 18.4985C14.4097 18.6474 14.2917 18.7664 14.1414 18.7806C13.9907 18.7948 13.8519 18.701 13.8112 18.5572L13.1569 16.2515C11.9956 14.8945 11.0262 13.6079 10.1946 12.3202C10.0263 12.0594 9.85695 11.787 9.67968 11.4912L9.57009 13.0314C9.55919 13.1859 9.43373 13.3081 9.27729 13.3169C9.12283 13.3265 8.98201 13.2187 8.95325 13.0666L8.1264 8.70892L8.01954 8.50933C6.85997 6.34199 5.66073 4.10069 4.00257 2.26248C3.68571 1.9113 3.23002 1.51775 2.85763 1.63873C2.27573 1.82779 1.85475 3.16738 1.73995 4.39285C1.39236 8.09423 1.81805 11.0271 3.04184 13.3546Z" fill="#B1B1B3"/>
	<path d="M1.11939 4.33652L0.820699 4.30849L0.820708 4.30839L1.11939 4.33652ZM2.66325 1.0544L2.57055 0.769084L2.57067 0.769045L2.66325 1.0544ZM4.46818 1.85375L4.69089 1.65275L4.69096 1.65282L4.46818 1.85375ZM8.57069 8.22256L8.83521 8.08104L8.83526 8.08114L8.57069 8.22256ZM8.69936 8.46329L8.43565 8.60632L8.43479 8.60471L8.69936 8.46329ZM8.73035 8.55047L9.02476 8.49279L9.0251 8.49456L8.73035 8.55047ZM9.11886 10.5983L9.4181 10.6197L8.82412 10.6542L9.11886 10.5983ZM9.13002 10.4421L9.42926 10.4634L9.42926 10.4634L9.13002 10.4421ZM9.37274 10.1634L9.30814 9.87041L9.30848 9.87033L9.37274 10.1634ZM9.71266 10.3132L9.97341 10.1649L9.97363 10.1653L9.71266 10.3132ZM10.7202 11.9903L10.9723 11.8275L10.9723 11.8276L10.7202 11.9903ZM13.6766 15.906L13.4489 16.1014L13.4489 16.1014L13.6766 15.906ZM13.7388 16.0221L13.4502 16.1039L13.4497 16.1023L13.7388 16.0221ZM13.9689 16.8329L14.2177 17.0005L13.8567 17.5366L13.6803 16.9148L13.9689 16.8329ZM14.1288 16.7119L14.034 16.4273L14.0343 16.4272L14.1288 16.7119ZM14.4608 16.7989L14.2379 16.9997L14.2377 16.9995L14.4608 16.7989ZM16.0123 18.4539L16.2273 18.2446L16.2274 18.2448L16.0123 18.4539ZM16.4938 18.9121L16.6992 18.6935L16.6993 18.6936L16.4938 18.9121ZM19.6485 22.3918L19.5219 22.6639L19.3589 22.588L19.3489 22.4085L19.6485 22.3918ZM20.1649 22.6287L20.4327 22.4934L20.8147 23.2497L20.0419 22.9023L20.1649 22.6287ZM19.941 22.1854L20.2087 22.0499L20.2088 22.0501L19.941 22.1854ZM20.0806 21.773L20.214 22.0417L20.2131 22.0421L20.0806 21.773ZM20.4984 21.9106L20.2306 22.0459L20.2304 22.0456L20.4984 21.9106ZM21.0567 23.0161L20.94 23.2924L20.8386 23.2496L20.7889 23.1513L21.0567 23.0161ZM21.2992 23.118L21.567 22.9827L21.9323 23.706L21.1841 23.395L21.2992 23.118ZM21.1187 22.7607L21.3864 22.6252L21.3865 22.6254L21.1187 22.7607ZM21.2583 22.3482L21.3915 22.6171L21.3908 22.6174L21.2583 22.3482ZM21.676 22.4861L21.4083 22.6214L21.4081 22.6211L21.676 22.4861ZM22.1729 23.4696L22.064 23.7492L21.9569 23.7074L21.9051 23.6049L22.1729 23.4696ZM24.7853 24.4L24.6931 24.6855L24.693 24.6854L24.7853 24.4ZM24.9844 24.7882L24.6995 24.6944L24.6997 24.6937L24.9844 24.7882ZM24.592 24.9846L24.6844 24.6992L24.6858 24.6996L24.592 24.9846ZM22.0814 24.0941L21.9921 23.8077L22.0919 23.7766L22.1895 23.8143L22.0814 24.0941ZM22.068 24.099L22.1435 24.3894L22.1399 24.3903L22.068 24.099ZM20.8958 24.3885L20.8232 24.0974L20.8239 24.0972L20.8958 24.3885ZM20.518 24.1644L20.2272 24.2381L20.2271 24.238L20.518 24.1644ZM20.7446 23.7914L20.8165 24.0827L20.8164 24.0827L20.7446 23.7914ZM21.1006 23.7035L21.2151 23.4262L22.0605 23.7755L21.1725 23.9948L21.1006 23.7035ZM20.756 23.5571L20.684 23.2658L20.781 23.2419L20.873 23.2808L20.756 23.5571ZM19.7181 23.8135L19.6456 23.5224L19.6462 23.5222L19.7181 23.8135ZM19.3403 23.5894L19.0495 23.6631L19.0495 23.663L19.3403 23.5894ZM19.5669 23.2164L19.6388 23.5077L19.6387 23.5077L19.5669 23.2164ZM19.8287 23.1518L19.9523 22.8784L20.7417 23.2353L19.9006 23.443L19.8287 23.1518ZM19.1181 22.8226L19.0702 22.5265L19.1625 22.5115L19.247 22.5517L19.1181 22.8226ZM14.5924 22.0326L14.6814 21.7461L14.6817 21.7462L14.5924 22.0326ZM14.2699 21.9324L14.358 21.6457L14.3588 21.6459L14.2699 21.9324ZM9.18878 19.7357L9.04005 19.9962L9.03959 19.996L9.18878 19.7357ZM9.0425 19.649L9.19618 19.3913L9.19754 19.3922L9.0425 19.649ZM8.93986 19.5878L9.09128 19.3288L9.09354 19.3301L8.93986 19.5878ZM8.78862 19.2934L8.49006 19.264L8.49007 19.2639L8.78862 19.2934ZM8.9706 19.0426L8.98972 18.7432L9.09323 19.3164L8.9706 19.0426ZM8.02351 18.9821L8.00438 19.2815L8.00425 19.2815L8.02351 18.9821ZM7.87375 18.9332L8.03593 18.6808L8.03618 18.6809L7.87375 18.9332ZM5.47032 17.1797L5.27671 17.4088L5.2767 17.4088L5.47032 17.1797ZM2.96994 14.463L2.71982 14.6287L2.7196 14.6284L2.96994 14.463ZM2.95953 14.143L3.22005 14.2917L3.21968 14.2924L2.95953 14.143ZM3.08324 14.0234L3.18337 13.7406L3.82903 13.9693L3.2232 14.2888L3.08324 14.0234ZM2.71804 13.8941L2.81785 13.6112L2.81817 13.6113L2.71804 13.8941ZM2.54821 13.7494L2.81215 13.6068L2.81246 13.6074L2.54821 13.7494ZM3.04184 13.3546L2.94184 13.6375L2.83101 13.5983L2.7763 13.4942L3.04184 13.3546ZM5.06371 14.0695L4.96372 14.3523L4.96371 14.3523L5.06371 14.0695ZM5.26478 14.4175L4.97038 14.3598L4.97041 14.3596L5.26478 14.4175ZM4.94694 14.6665L4.95829 14.3666L4.96895 14.3674L4.94694 14.6665ZM3.84736 14.6249L3.60883 14.8069L3.22303 14.3011L3.85872 14.3251L3.84736 14.6249ZM5.87519 16.711L6.06873 16.4817L6.06879 16.4818L5.87519 16.711ZM8.14524 18.3723L8.12608 18.6717L8.04807 18.6667L7.98242 18.6243L8.14524 18.3723ZM10.5184 18.5242L10.4995 18.8236L10.4993 18.8236L10.5184 18.5242ZM10.8068 18.7887L11.1038 18.7469L11.1039 18.7469L10.8068 18.7887ZM10.6022 19.1212L10.7016 19.4043L10.7015 19.4043L10.6022 19.1212ZM9.83563 19.3901L9.69104 19.653L9.10261 19.3293L9.73633 19.107L9.83563 19.3901ZM14.4548 21.3442L14.543 21.0574L14.5436 21.0576L14.4548 21.3442ZM14.7796 21.4448L14.8684 21.1583L14.8689 21.1584L14.7796 21.4448ZM17.8812 22.2099L18.0191 21.9434L17.8455 22.5078L17.8812 22.2099ZM6.90807 13.0453L6.66347 13.219L6.66347 13.219L6.90807 13.0453ZM3.55481 5.69399L3.85173 5.65111L3.85176 5.65135L3.55481 5.69399ZM3.81935 5.34599L3.863 5.6428L3.86121 5.64305L3.81935 5.34599ZM4.17141 5.60729L3.8745 5.65024L3.87449 5.65017L4.17141 5.60729ZM18.6337 21.903L18.8582 21.7041L18.4994 22.1713L18.6337 21.903ZM16.0639 19.3571L16.2694 19.1385L16.2695 19.1386L16.0639 19.3571ZM15.5631 18.8798L15.3481 19.0891L15.3481 19.089L15.5631 18.8798ZM14.4818 17.7403L14.1828 17.7165L14.2371 17.0335L14.7021 17.5366L14.4818 17.7403ZM14.4216 18.4985L14.7207 18.5222L14.7206 18.5224L14.4216 18.4985ZM14.1414 18.7806L14.1697 19.0792L14.1696 19.0793L14.1414 18.7806ZM13.8112 18.5572L14.0998 18.4753L14.0999 18.4756L13.8112 18.5572ZM13.1569 16.2515L13.3848 16.0565L13.4276 16.1064L13.4455 16.1696L13.1569 16.2515ZM10.1946 12.3202L9.94261 12.4829L9.94258 12.4829L10.1946 12.3202ZM9.67968 11.4912L9.38044 11.4699L9.44796 10.5209L9.93702 11.337L9.67968 11.4912ZM9.57009 13.0314L9.27084 13.0102L9.27085 13.0101L9.57009 13.0314ZM9.27729 13.3169L9.25877 13.0175L9.26041 13.0174L9.27729 13.3169ZM8.95325 13.0666L9.24799 13.0107L9.24802 13.0109L8.95325 13.0666ZM8.1264 8.70892L8.39088 8.56732L8.41257 8.60784L8.42114 8.653L8.1264 8.70892ZM8.01954 8.50933L7.75506 8.65093L7.75502 8.65085L8.01954 8.50933ZM4.00257 2.26248L4.22531 2.06152L4.22533 2.06154L4.00257 2.26248ZM2.85763 1.63873L2.76492 1.35341L2.76493 1.35341L2.85763 1.63873ZM1.73995 4.39285L2.03865 4.42083L2.03864 4.4209L1.73995 4.39285ZM0.820708 4.30839C0.844011 4.06101 0.929236 3.31383 1.16781 2.57177C1.28706 2.20084 1.44874 1.81793 1.66929 1.49641C1.88957 1.17528 2.18293 0.895014 2.57055 0.769084L2.75594 1.33972C2.53713 1.41081 2.33993 1.57944 2.16407 1.83581C1.98849 2.09178 1.84847 2.41495 1.73901 2.75542C1.52015 3.43616 1.43988 4.13302 1.41806 4.36466L0.820708 4.30839ZM2.57067 0.769045C3.30137 0.531999 4.02565 0.915642 4.69089 1.65275L4.24547 2.05475C3.62792 1.37047 3.13784 1.21583 2.75582 1.33976L2.57067 0.769045ZM4.69096 1.65282C6.42803 3.5788 7.66127 5.88671 8.83521 8.08104L8.30616 8.36407C7.12625 6.15857 5.92531 3.91726 4.24541 2.05468L4.69096 1.65282ZM8.83526 8.08114L8.96394 8.32187L8.43479 8.60471L8.30611 8.36398L8.83526 8.08114ZM8.96308 8.32027C8.99355 8.37646 9.01342 8.43495 9.02476 8.49279L8.43595 8.60816C8.43539 8.60527 8.43493 8.60498 8.43565 8.60631L8.96308 8.32027ZM9.0251 8.49456L9.41361 10.5424L8.82412 10.6542L8.43561 8.60639L9.0251 8.49456ZM8.81962 10.5769L8.83078 10.4207L9.42926 10.4634L9.4181 10.6197L8.81962 10.5769ZM8.83078 10.4207C8.85003 10.1506 9.04597 9.92822 9.30814 9.87041L9.43735 10.4563C9.43076 10.4578 9.42935 10.4622 9.42926 10.4634L8.83078 10.4207ZM9.30848 9.87033C9.57057 9.81286 9.84031 9.93096 9.97341 10.1649L9.4519 10.4616C9.45012 10.4585 9.44516 10.4546 9.43701 10.4564L9.30848 9.87033ZM9.97363 10.1653C10.3429 10.8167 10.6602 11.3444 10.9723 11.8275L10.4682 12.1531C10.1485 11.658 9.82518 11.12 9.45168 10.4612L9.97363 10.1653ZM10.9723 11.8276C11.7906 13.0947 12.7491 14.3647 13.9042 15.7106L13.4489 16.1014C12.279 14.7382 11.3036 13.4465 10.4682 12.1531L10.9723 11.8276ZM13.9042 15.7106C13.9611 15.7769 14.0039 15.8554 14.0279 15.9418L13.4497 16.1023C13.4499 16.103 13.45 16.1027 13.4489 16.1014L13.9042 15.7106ZM14.0274 15.9402L14.2575 16.751L13.6803 16.9148L13.4502 16.1039L14.0274 15.9402ZM13.72 16.6653C13.7942 16.5552 13.9038 16.4707 14.034 16.4273L14.2236 16.9966C14.2199 16.9978 14.2184 16.9995 14.2177 17.0005L13.72 16.6653ZM14.0343 16.4272C14.2638 16.351 14.5198 16.416 14.6838 16.5982L14.2377 16.9995C14.2367 16.9984 14.235 16.9971 14.2322 16.9964C14.2292 16.9956 14.2262 16.9957 14.2233 16.9966L14.0343 16.4272ZM14.6836 16.598C15.177 17.1456 15.6965 17.6994 16.2273 18.2446L15.7974 18.6631C15.2615 18.1127 14.7367 17.5532 14.2379 16.9997L14.6836 16.598ZM16.2274 18.2448C16.2874 18.3065 16.4557 18.4646 16.6992 18.6935L16.2884 19.1307C16.0529 18.9095 15.8696 18.7374 15.7972 18.663L16.2274 18.2448ZM16.6993 18.6936C17.9741 19.8926 18.7661 20.6757 19.243 21.2092C19.4812 21.4756 19.649 21.6888 19.7599 21.8669C19.8699 22.0435 19.9388 22.2088 19.948 22.3752L19.3489 22.4085C19.3476 22.3853 19.3356 22.3206 19.2506 22.184C19.1664 22.0489 19.0249 21.8654 18.7957 21.6091C18.338 21.0971 17.5633 20.3299 16.2883 19.1306L16.6993 18.6936ZM19.775 22.1198C19.945 22.1989 20.1153 22.2774 20.2879 22.355L20.0419 22.9023C19.8659 22.8232 19.6931 22.7435 19.5219 22.6639L19.775 22.1198ZM19.8971 22.7639L19.6732 22.3206L20.2088 22.0501L20.4327 22.4934L19.8971 22.7639ZM19.6734 22.3209C19.52 22.0179 19.6467 21.6522 19.9481 21.5038L20.2131 22.0421C20.2071 22.0451 20.2083 22.0492 20.2087 22.0499L19.6734 22.3209ZM19.9473 21.5043C20.2475 21.3553 20.6147 21.4747 20.7663 21.7757L20.2304 22.0456C20.2299 22.0444 20.2293 22.0438 20.2286 22.0432C20.2278 22.0425 20.2264 22.0416 20.2245 22.041C20.2207 22.0397 20.2173 22.0401 20.214 22.0417L19.9473 21.5043ZM20.7662 21.7754L21.3245 22.8808L20.7889 23.1513L20.2306 22.0459L20.7662 21.7754ZM21.1735 22.7397C21.2542 22.7738 21.3339 22.8075 21.4143 22.8409L21.1841 23.395C21.1018 23.3608 21.0204 23.3264 20.94 23.2924L21.1735 22.7397ZM21.0314 23.2532L20.8509 22.8959L21.3865 22.6254L21.567 22.9827L21.0314 23.2532ZM20.851 22.8961C20.6977 22.5932 20.8244 22.2275 21.1258 22.0791L21.3908 22.6174C21.3847 22.6204 21.386 22.6245 21.3864 22.6252L20.851 22.8961ZM21.1251 22.0794C21.4258 21.9304 21.7925 22.0505 21.944 22.3512L21.4081 22.6211C21.4075 22.6198 21.4069 22.6191 21.4062 22.6185C21.4053 22.6178 21.4039 22.6169 21.402 22.6163C21.3983 22.6151 21.3949 22.6153 21.3915 22.6171L21.1251 22.0794ZM21.9438 22.3509L22.4407 23.3344L21.9051 23.6049L21.4083 22.6214L21.9438 22.3509ZM22.2818 23.1901C23.109 23.5125 23.973 23.8218 24.8777 24.1146L24.693 24.6854C23.7769 24.389 22.9019 24.0757 22.064 23.7492L22.2818 23.1901ZM24.8776 24.1145C25.1972 24.2178 25.376 24.5606 25.2692 24.8826L24.6997 24.6937C24.7001 24.6925 24.7 24.6922 24.7 24.6922C24.7 24.6919 24.6999 24.6912 24.6994 24.6902C24.6989 24.6893 24.6982 24.6884 24.6973 24.6877C24.6967 24.6871 24.6955 24.6862 24.6931 24.6855L24.8776 24.1145ZM25.2694 24.882C25.1843 25.1405 24.943 25.3 24.6889 25.3V24.7C24.6916 24.7 24.6946 24.6991 24.697 24.6974C24.6988 24.6961 24.6992 24.6953 24.6995 24.6944L25.2694 24.882ZM24.6889 25.3C24.6262 25.3 24.5617 25.2905 24.4981 25.2695L24.6858 24.6996C24.6861 24.6997 24.6871 24.7 24.6889 24.7V25.3ZM24.4996 25.27C23.6204 24.9854 22.7801 24.6855 21.9734 24.374L22.1895 23.8143C22.9863 24.1219 23.8161 24.4181 24.6844 24.6992L24.4996 25.27ZM22.1707 24.3805C22.1784 24.3781 22.1842 24.3759 22.187 24.3748C22.1885 24.3743 22.1895 24.3738 22.1896 24.3738C22.1897 24.3738 22.1897 24.3738 22.1895 24.3739C22.1893 24.3739 22.1888 24.3741 22.1883 24.3743C22.1865 24.3751 22.1808 24.3774 22.1737 24.38C22.1662 24.3827 22.1559 24.3861 22.1435 24.3894L21.9925 23.8087C21.9825 23.8113 21.9744 23.814 21.9692 23.8159C21.9666 23.8169 21.9645 23.8177 21.9632 23.8182C21.9625 23.8184 21.962 23.8187 21.9617 23.8188C21.9615 23.8189 21.9614 23.8189 21.9613 23.8189C21.9612 23.819 21.9611 23.819 21.9611 23.819C21.9611 23.819 21.9611 23.819 21.9612 23.819C21.9612 23.819 21.9612 23.819 21.9612 23.819C21.9613 23.8189 21.9614 23.8189 21.9616 23.8188C21.9619 23.8187 21.9624 23.8185 21.9631 23.8182C21.9643 23.8177 21.9664 23.8168 21.9689 23.8159C21.974 23.8139 21.9821 23.8108 21.9921 23.8077L22.1707 24.3805ZM22.1399 24.3903L20.9677 24.6797L20.8239 24.0972L21.9961 23.8078L22.1399 24.3903ZM20.9684 24.6796C20.9166 24.6925 20.8668 24.6976 20.8199 24.6976V24.0976C20.8232 24.0976 20.8239 24.0972 20.8232 24.0974L20.9684 24.6796ZM20.8199 24.6976C20.5485 24.6976 20.2977 24.5163 20.2272 24.2381L20.8088 24.0907C20.8091 24.0921 20.8096 24.0932 20.8116 24.0947C20.814 24.0966 20.8171 24.0976 20.8199 24.0976V24.6976ZM20.2271 24.238C20.1439 23.9093 20.3471 23.5804 20.6727 23.5002L20.8164 24.0827C20.8083 24.0847 20.8087 24.0903 20.8088 24.0908L20.2271 24.238ZM20.6726 23.5002L21.0287 23.4123L21.1725 23.9948L20.8165 24.0827L20.6726 23.5002ZM20.986 23.9808C20.8683 23.9321 20.7488 23.8798 20.639 23.8333L20.873 23.2808C20.9932 23.3318 21.0994 23.3784 21.2151 23.4262L20.986 23.9808ZM20.8279 23.8483L19.7901 24.1047L19.6462 23.5222L20.684 23.2658L20.8279 23.8483ZM19.7907 24.1046C19.739 24.1175 19.6891 24.1225 19.6423 24.1225V23.5225C19.6455 23.5225 19.6462 23.5222 19.6456 23.5224L19.7907 24.1046ZM19.6423 24.1225C19.3708 24.1225 19.12 23.9412 19.0495 23.6631L19.6311 23.5157C19.6314 23.5171 19.632 23.5182 19.6339 23.5197C19.6364 23.5215 19.6394 23.5225 19.6423 23.5225V24.1225ZM19.0495 23.663C18.9663 23.3343 19.1695 23.0054 19.4951 22.9251L19.6387 23.5077C19.6306 23.5097 19.631 23.5153 19.6311 23.5158L19.0495 23.663ZM19.495 22.9252L19.7568 22.8605L19.9006 23.443L19.6388 23.5077L19.495 22.9252ZM19.7051 23.4251C19.4631 23.3157 19.2246 23.2054 18.9893 23.0935L19.247 22.5517C19.4783 22.6617 19.7133 22.7703 19.9523 22.8784L19.7051 23.4251ZM19.1661 23.1188C18.961 23.1519 18.7453 23.1682 18.5216 23.1682V22.5682C18.7165 22.5682 18.9 22.554 19.0702 22.5265L19.1661 23.1188ZM18.5216 23.1682C17.218 23.1682 15.6018 22.6614 14.5032 22.319L14.6817 21.7462C15.8069 22.0968 17.3281 22.5682 18.5216 22.5682V23.1682ZM14.5035 22.3191L14.1809 22.2189L14.3588 21.6459L14.6814 21.7461L14.5035 22.3191ZM14.1817 22.2192C12.3868 21.6673 10.657 20.9192 9.04005 19.9962L9.3375 19.4751C10.9159 20.3761 12.605 21.1067 14.358 21.6457L14.1817 22.2192ZM9.03959 19.996C8.98848 19.9667 8.93655 19.9355 8.88747 19.9058L9.19754 19.3922C9.24663 19.4218 9.29337 19.4498 9.33797 19.4754L9.03959 19.996ZM8.88882 19.9066L8.78618 19.8454L9.09354 19.3301L9.19618 19.3913L8.88882 19.9066ZM8.78844 19.8467C8.58443 19.7275 8.46683 19.5003 8.49006 19.264L9.08718 19.3227C9.0871 19.3235 9.08751 19.3266 9.09127 19.3288L8.78844 19.8467ZM8.49007 19.2639C8.51181 19.0438 8.65093 18.8571 8.84797 18.7688L9.09323 19.3164C9.08795 19.3188 9.08725 19.322 9.08717 19.3229L8.49007 19.2639ZM8.95148 19.342L8.00438 19.2815L8.04263 18.6827L8.98972 18.7432L8.95148 19.342ZM8.00425 19.2815C7.90124 19.2749 7.80018 19.2426 7.71133 19.1854L8.03618 18.6809C8.03708 18.6815 8.03916 18.6825 8.04276 18.6828L8.00425 19.2815ZM7.71158 19.1855C6.78118 18.5877 5.98412 18.0065 5.27671 17.4088L5.66392 16.9505C6.3479 17.5284 7.12322 18.0943 8.03593 18.6808L7.71158 19.1855ZM5.2767 17.4088C4.20427 16.5027 3.3418 15.5678 2.71982 14.6287L3.22006 14.2974C3.80351 15.1783 4.62399 16.0718 5.66394 16.9505L5.2767 17.4088ZM2.7196 14.6284C2.59386 14.4379 2.58496 14.1928 2.69937 13.9936L3.21968 14.2924C3.21905 14.2935 3.21858 14.2951 3.22028 14.2977L2.7196 14.6284ZM2.699 13.9942C2.7574 13.8919 2.84286 13.8111 2.94328 13.7581L3.2232 14.2888C3.22148 14.2897 3.22065 14.2906 3.22005 14.2917L2.699 13.9942ZM2.98311 14.3062L2.61791 14.1769L2.81817 13.6113L3.18337 13.7406L2.98311 14.3062ZM2.61824 14.1771C2.47605 14.1269 2.3561 14.0256 2.28396 13.8914L2.81246 13.6074C2.81272 13.6079 2.81425 13.61 2.81785 13.6112L2.61824 14.1771ZM2.28427 13.892C0.920984 11.3688 0.45307 8.22507 0.820699 4.30849L1.41807 4.36456C1.05728 8.20829 1.52357 11.2218 2.81215 13.6068L2.28427 13.892ZM3.14184 13.0718L5.16371 13.7866L4.96371 14.3523L2.94184 13.6375L3.14184 13.0718ZM5.1637 13.7866C5.44606 13.8865 5.61767 14.1775 5.55916 14.4753L4.97041 14.3596C4.97052 14.3591 4.97068 14.3585 4.96977 14.357C4.96883 14.3553 4.96715 14.3535 4.96372 14.3523L5.1637 13.7866ZM5.55919 14.4751C5.50234 14.7654 5.23412 14.9885 4.92492 14.9657L4.96895 14.3674C4.9625 14.3669 4.96176 14.3694 4.9654 14.3665C4.96925 14.3635 4.97029 14.3603 4.97038 14.3598L5.55919 14.4751ZM4.93558 14.9663L3.83601 14.9247L3.85872 14.3251L4.95829 14.3668L4.93558 14.9663ZM4.0859 14.443C4.60202 15.1196 5.26555 15.8035 6.06873 16.4817L5.68164 16.9402C4.85195 16.2396 4.15634 15.5246 3.60883 14.8069L4.0859 14.443ZM6.06879 16.4818C6.7151 17.0278 7.44778 17.5644 8.30806 18.1204L7.98242 18.6243C7.10471 18.0571 6.35079 17.5055 5.68159 16.9401L6.06879 16.4818ZM8.16439 18.0729L10.5376 18.2248L10.4993 18.8236L8.12608 18.6717L8.16439 18.0729ZM10.5373 18.2248C10.8246 18.2429 11.0634 18.4591 11.1038 18.7469L10.5097 18.8305C10.5095 18.8293 10.5073 18.8241 10.4995 18.8236L10.5373 18.2248ZM11.1039 18.7469C11.1444 19.0354 10.9739 19.3087 10.7016 19.4043L10.5029 18.8382C10.5097 18.8358 10.5098 18.8314 10.5097 18.8304L11.1039 18.7469ZM10.7015 19.4043L9.93493 19.6732L9.73633 19.107L10.5029 18.8381L10.7015 19.4043ZM9.98021 19.1273C11.4229 19.9208 12.9561 20.5694 14.543 21.0574L14.3666 21.6309C12.7409 21.131 11.1699 20.4664 9.69104 19.653L9.98021 19.1273ZM14.5436 21.0576L14.8684 21.1583L14.6908 21.7314L14.366 21.6307L14.5436 21.0576ZM14.8689 21.1584C15.711 21.4208 16.901 21.7903 17.9169 21.912L17.8455 22.5078C16.7649 22.3782 15.5207 21.99 14.6904 21.7312L14.8689 21.1584ZM17.7433 22.4763C12.0381 19.5237 8.63302 15.9923 6.66347 13.219L7.15266 12.8716C9.07066 15.5723 12.4044 19.0377 18.0191 21.9434L17.7433 22.4763ZM6.66347 13.219C3.7834 9.16332 3.28203 5.90504 3.25785 5.73662L3.85176 5.65135C3.86626 5.75233 4.34174 8.9133 7.15267 12.8716L6.66347 13.219ZM3.25789 5.73687C3.20933 5.40065 3.44631 5.09559 3.77749 5.04892L3.86121 5.64305C3.85679 5.64368 3.85443 5.64546 3.8529 5.64748C3.85209 5.64855 3.8518 5.64936 3.85171 5.64967C3.85169 5.64976 3.85157 5.65004 3.85173 5.65111L3.25789 5.73687ZM3.77569 5.04918C4.10912 5.00014 4.42021 5.23125 4.46833 5.56441L3.87449 5.65017C3.8743 5.64885 3.87376 5.64701 3.87091 5.64489C3.8695 5.64385 3.86808 5.64322 3.86693 5.64292C3.86599 5.64268 3.86485 5.64252 3.863 5.6428L3.77569 5.04918ZM4.46832 5.56435C4.46823 5.5637 4.46968 5.57336 4.47328 5.59398C4.47674 5.61382 4.48199 5.64269 4.48933 5.68018C4.504 5.75517 4.52699 5.86448 4.56067 6.005C4.62802 6.28603 4.73809 6.69166 4.90985 7.19682C5.25337 8.20717 5.84347 9.61516 6.83175 11.2207C8.80692 14.4295 12.3776 18.4358 18.768 21.6348L18.4994 22.1713C5.49788 15.663 3.8996 5.82381 3.8745 5.65024L4.46832 5.56435ZM18.4091 22.102C17.7388 21.3454 16.3949 20.0804 15.8583 19.5756L16.2695 19.1386C16.7975 19.6354 18.1655 20.9222 18.8582 21.7041L18.4091 22.102ZM15.8583 19.5756C15.6128 19.3446 15.423 19.166 15.3481 19.0891L15.778 18.6705C15.841 18.7351 16.0166 18.9008 16.2694 19.1385L15.8583 19.5756ZM15.3481 19.089C14.9791 18.7101 14.6154 18.3266 14.2616 17.9439L14.7021 17.5366C15.0524 17.9155 15.4126 18.2952 15.778 18.6705L15.3481 19.089ZM14.7809 17.764L14.7207 18.5222L14.1225 18.4747L14.1828 17.7165L14.7809 17.764ZM14.7206 18.5224C14.697 18.8183 14.4631 19.0515 14.1697 19.0792L14.1132 18.4819C14.1203 18.4812 14.1224 18.4764 14.1226 18.4746L14.7206 18.5224ZM14.1696 19.0793C13.8779 19.1067 13.6034 18.925 13.5225 18.6389L14.0999 18.4756C14.1003 18.477 14.1035 18.4828 14.1133 18.4819L14.1696 19.0793ZM13.5226 18.6391L12.8683 16.3334L13.4455 16.1696L14.0998 18.4753L13.5226 18.6391ZM12.929 16.4466C11.7603 15.081 10.7825 13.7836 9.94261 12.4829L10.4466 12.1574C11.2698 13.4322 12.2309 14.7081 13.3848 16.0565L12.929 16.4466ZM9.94258 12.4829C9.77231 12.2191 9.60121 11.9439 9.42234 11.6454L9.93702 11.337C10.1127 11.6302 10.2803 11.8997 10.4467 12.1575L9.94258 12.4829ZM9.97892 11.5125L9.86934 13.0527L9.27085 13.0101L9.38044 11.4699L9.97892 11.5125ZM9.86935 13.0525C9.8476 13.3606 9.59839 13.5993 9.29417 13.6164L9.26041 13.0174C9.26907 13.0169 9.27078 13.0111 9.27084 13.0102L9.86935 13.0525ZM9.2958 13.6163C8.99297 13.6351 8.7158 13.4255 8.65847 13.1224L9.24802 13.0109C9.24806 13.0111 9.2481 13.0113 9.24842 13.0118C9.24883 13.0125 9.2497 13.0136 9.25119 13.0147C9.25442 13.0172 9.25724 13.0176 9.25877 13.0175L9.2958 13.6163ZM8.6585 13.1226L7.83166 8.76485L8.42114 8.653L9.24799 13.0107L8.6585 13.1226ZM7.86192 8.85052L7.75506 8.65093L8.28402 8.36773L8.39088 8.56732L7.86192 8.85052ZM7.75502 8.65085C6.59226 6.47755 5.40928 4.26982 3.77981 2.46343L4.22533 2.06154C5.91218 3.93155 7.12768 6.20643 8.28406 8.36781L7.75502 8.65085ZM3.77983 2.46345C3.6289 2.29617 3.45684 2.13277 3.29001 2.02674C3.11398 1.91486 3.00677 1.90571 2.95032 1.92405L2.76493 1.35341C3.08087 1.25077 3.38771 1.3779 3.61184 1.52036C3.84516 1.66865 4.05938 1.87762 4.22531 2.06152L3.77983 2.46345ZM2.95033 1.92405C2.89122 1.94325 2.80266 2.00487 2.69728 2.15154C2.59477 2.29422 2.49508 2.49155 2.40445 2.73268C2.22346 3.21422 2.09414 3.82843 2.03865 4.42083L1.44126 4.36487C1.50056 3.7318 1.63913 3.06348 1.84281 2.52159C1.94451 2.25101 2.06634 2.0014 2.21001 1.80144C2.35082 1.60546 2.53309 1.42874 2.76492 1.35341L2.95033 1.92405ZM2.03864 4.4209C1.69432 8.08735 2.11971 10.9562 3.30737 13.215L2.7763 13.4942C1.5164 11.098 1.09039 8.10111 1.44127 4.3648L2.03864 4.4209Z" fill="#B1B1B3" mask="url(#path-1-outside-1_7300_28962)"/>
</svg>