<svg width="24" height="24" viewBox="0 0 24 24" fill="none" xmlns="http://www.w3.org/2000/svg">
	<path d="M3.79725 4.5L3.60975 4.992L0.98475 12H0V13.5H0.75V15C0.75 17.4727 2.77725 19.5 5.25 19.5H6.75C9.22275 19.5 11.25 17.4727 11.25 15V12.75C11.25 12.3255 11.5755 12 12 12C12.4245 12 12.75 12.3255 12.75 12.75V15C12.75 17.4727 14.7773 19.5 17.25 19.5H18.75C21.2227 19.5 23.25 17.4727 23.25 15V13.5H24V12H23.0153L20.3903 4.992L20.2028 4.5H18.75L18.5392 4.78125L16.6642 7.03125L17.8358 7.96875L19.266 6.234L21.4222 12H14.1097C13.7962 11.133 12.9697 10.5 12 10.5C11.0303 10.5 10.2038 11.133 9.89025 12H2.57775L4.73475 6.234L6.16425 7.96875L7.33575 7.03125L5.46075 4.78125L5.25 4.5H3.79725ZM2.25 13.5H9.75V15C9.75 16.6523 8.40225 18 6.75 18H5.25C3.59775 18 2.25 16.6523 2.25 15V13.5ZM14.25 13.5H21.75V15C21.75 16.6523 20.4023 18 18.75 18H17.25C15.5977 18 14.25 16.6523 14.25 15V13.5Z" fill="#B1B1B3"/>
</svg>