<svg width="25" height="26" viewBox="0 0 25 26" fill="none" xmlns="http://www.w3.org/2000/svg">
<mask id="path-1-outside-1_7325_17937" maskUnits="userSpaceOnUse" x="2.62109" y="0" width="19" height="26" fill="black">
<rect fill="white" x="2.62109" width="19" height="26"/>
<path d="M17.1647 14.3514H16.8513L16.869 14.6649C16.8704 14.6737 16.8704 14.6827 16.869 14.6915H15.1539L14.7813 13.9256L15.0563 13.8221C15.5718 13.6358 16.0181 13.2963 16.3352 12.8491C16.6524 12.4019 16.8252 11.8685 16.8306 11.3204V9.3864C16.9175 9.16657 16.9733 8.93564 16.9962 8.70035L17.0671 7.89601C17.0754 7.80593 17.0635 7.71513 17.0323 7.63022C17.0011 7.54532 16.9514 7.46842 16.8867 7.40513C16.856 7.37437 16.8223 7.34665 16.7862 7.32233C16.6445 6.44392 16.2211 5.6354 15.5797 5.01873C14.9916 4.45171 14.254 4.06397 13.4535 3.90094L13.4003 3.48103C13.3864 3.37766 13.3543 3.27755 13.3057 3.18531C13.8971 2.98423 15.0799 2.78314 15.8488 3.84771C16.5703 4.83539 18.5516 4.43913 18.7763 4.40365L19.5896 4.22031L18.8503 3.83588C18.2234 3.5106 18.1494 3.29768 18.1406 3.24446C19.1105 2.73583 19.1223 1.54707 19.1223 1.49384V1L17.2741 2.00838C16.659 2.30409 15.3786 1.62987 14.9794 1.36668L14.9262 1.34007C13.5156 0.787087 12.5191 2.01725 12.1406 2.81863C12.0237 2.88539 11.9236 2.97786 11.8478 3.08903C11.7719 3.20021 11.7224 3.32718 11.7029 3.46033L11.6526 3.88024C10.8113 4.04367 10.0406 4.46186 9.44496 5.07811C8.84933 5.69437 8.45762 6.47888 8.32292 7.32528C8.2853 7.34759 8.25055 7.37441 8.21942 7.40513C8.15546 7.46891 8.10619 7.54587 8.07503 7.63065C8.04388 7.71543 8.03159 7.80599 8.03903 7.89601L8.11296 8.70035C8.13342 8.93574 8.18821 9.16687 8.2756 9.3864V11.3204C8.28138 11.8684 8.45437 12.4017 8.77145 12.8487C9.08852 13.2958 9.53455 13.6354 10.0499 13.8221L10.2184 13.8842L9.83105 14.6915H8.11296C8.11153 14.6827 8.11153 14.6737 8.11296 14.6649L8.1307 14.3514H7.82021C6.70542 14.3561 5.63784 14.802 4.85095 15.5917C4.06405 16.3814 3.62187 17.4505 3.62109 18.5653V19.8221L3.99369 19.7186C4.63906 19.5392 5.30279 19.434 5.97201 19.4051C5.65241 21.1356 5.75898 22.9178 6.2825 24.5978L6.40966 25L6.74381 24.7427C8.8552 23.1281 12.4392 23.5096 12.4747 23.5126H12.5072H12.5398C12.5753 23.5126 16.1563 23.1252 18.2707 24.7427L18.6048 25L18.732 24.5978C19.2506 22.9166 19.3521 21.1344 19.0277 19.4051C19.6969 19.4338 20.3607 19.539 21.006 19.7186L21.3786 19.8221V18.5653C21.3778 17.4479 20.9336 16.3766 20.1435 15.5865C19.3534 14.7964 18.2821 14.3522 17.1647 14.3514ZM15.0415 15.2829H16.8572C16.7519 16.054 16.4729 16.7912 16.041 17.4386L16.0055 17.5155C15.905 17.8873 15.8621 18.2722 15.8784 18.657C14.8977 19.064 13.8439 19.2653 12.7823 19.2484V17.3884L15.0415 15.2829ZM16.4846 7.84278L16.4106 8.64712C16.3673 9.13091 16.1384 9.57915 15.7719 9.89798V7.85757C15.9907 7.85757 16.2155 7.83687 16.4461 7.81617C16.4609 7.81321 16.4698 7.81912 16.4846 7.84278ZM9.94934 10.8857L12.5575 11.6486L15.1539 10.8857C15.5231 10.7803 15.8644 10.5944 16.1534 10.3415C16.0547 10.6513 15.8868 10.9345 15.6624 11.1696C15.4379 11.4048 15.1629 11.5858 14.8582 11.6989L13.1726 12.3199C12.7789 12.4678 12.345 12.4678 11.9513 12.3199L10.2657 11.6959C9.95875 11.5858 9.68133 11.4063 9.45513 11.1714C9.22892 10.9365 9.06004 10.6525 8.96166 10.3415C9.24716 10.5929 9.5843 10.7787 9.94934 10.8857ZM9.93159 10.2587V7.85165C10.0617 7.85165 10.1889 7.83391 10.316 7.82208V10.377L10.1149 10.3179L9.93159 10.2587ZM10.9074 10.5545V7.73337C11.2019 7.67295 11.4915 7.59091 11.7739 7.48793V10.8029L10.9074 10.5545ZM12.3653 10.9803V7.22178C12.4304 7.18926 12.4954 7.15377 12.5575 7.11533C12.6196 7.15377 12.6847 7.18926 12.7468 7.22178V10.9773L12.5575 11.0335L12.3653 10.9803ZM13.3382 10.8058V7.48793C13.6217 7.59053 13.9123 7.67256 14.2076 7.73337V10.5515L13.3382 10.8058ZM14.799 10.38V7.82208C14.9232 7.82208 15.0504 7.84574 15.1805 7.85165V10.2587L15.0001 10.3179L14.799 10.38ZM14.6807 1.88418C14.9764 2.06456 16.5437 3.02267 17.5432 2.53475L18.4067 2.06161C18.3587 2.21029 18.2817 2.34799 18.1802 2.46676C18.0787 2.58553 17.9547 2.68301 17.8153 2.75357L17.7473 2.79793C17.6755 2.86403 17.6204 2.94619 17.5865 3.03768C17.5525 3.12916 17.5408 3.22738 17.5521 3.3243C17.5898 3.55551 17.7095 3.76544 17.8892 3.91572C17.2978 3.94234 16.5999 3.87432 16.3249 3.49877C16.0871 3.16307 15.7704 2.89095 15.4028 2.70635C15.0351 2.52175 14.6277 2.43032 14.2165 2.44012C13.7632 2.44347 13.3146 2.53277 12.8946 2.7033C13.214 2.20355 13.8232 1.56185 14.6807 1.88122V1.88418ZM12.2884 3.54017C12.2945 3.49271 12.3134 3.44781 12.3431 3.41029C12.3728 3.37278 12.4122 3.34407 12.457 3.32725C12.4873 3.31621 12.5193 3.31022 12.5516 3.30951C12.6155 3.30955 12.6772 3.33258 12.7256 3.37438C12.7739 3.41619 12.8056 3.47398 12.8148 3.53721L12.8473 3.80335C12.6504 3.79152 12.4529 3.79152 12.2559 3.80335L12.2884 3.54017ZM12.5575 4.3859C13.5302 4.3796 14.467 4.75305 15.1687 5.42681C15.6801 5.91657 16.0316 6.54946 16.177 7.24248C14.799 7.34894 13.6339 7.1035 12.7142 6.51799L12.5575 6.41745L12.3978 6.51799C11.4782 7.10941 10.3278 7.34598 8.93504 7.24248C9.11705 6.42199 9.57713 5.68966 10.2373 5.16959C10.8975 4.64952 11.7172 4.37369 12.5575 4.38886V4.3859ZM8.63046 7.84278L8.33475 7.86939L8.63046 7.82504C8.64096 7.82119 8.65248 7.82119 8.66299 7.82504C8.89068 7.84574 9.11543 7.86052 9.33425 7.86644V9.90685C8.9678 9.58802 8.73891 9.13978 8.69552 8.65599L8.63046 7.84278ZM8.86999 11.3913C9.17995 11.7763 9.58885 12.0697 10.0528 12.24L11.7384 12.864C12.264 13.0593 12.8422 13.0593 13.3678 12.864L15.0533 12.24C15.5171 12.0693 15.9259 11.776 16.2362 11.3913C16.216 11.805 16.0745 12.2035 15.8295 12.5374C15.5845 12.8713 15.2467 13.1257 14.8582 13.2691L13.1667 13.8901C12.7727 14.0364 12.3393 14.0364 11.9454 13.8901L10.2598 13.2691C9.87023 13.1294 9.53052 12.8778 9.28328 12.5459C9.03604 12.214 8.89227 11.8164 8.86999 11.4032V11.3913ZM4.21252 19.0532V18.5653C4.2133 17.6598 4.5526 16.7874 5.16377 16.1193C5.77494 15.4513 6.61381 15.0358 7.51562 14.9547C7.55357 15.939 7.86037 16.8942 8.40276 17.7166C8.51344 18.1597 8.52956 18.6212 8.45007 19.071C7.74088 18.8958 7.01302 18.8074 6.2825 18.8078C5.58543 18.8108 4.89096 18.8931 4.21252 19.0532ZM12.1967 22.8975C11.2741 22.8383 8.6482 22.7999 6.7172 24.0301C6.31317 22.5205 6.25956 20.9386 6.56047 19.4051C7.2537 19.4266 7.94179 19.5319 8.60976 19.7186L8.90547 19.7984L8.97644 19.5027C8.99714 19.4229 9.01488 19.3401 9.02967 19.2602C10.0361 19.6676 11.1141 19.8687 12.1997 19.8517L12.1967 22.8975ZM12.1967 19.2484C11.135 19.2668 10.0809 19.0654 9.10064 18.657C9.11691 18.2713 9.07403 17.8853 8.97348 17.5126L8.94391 17.4386C8.51373 16.7898 8.23666 16.0516 8.13366 15.2799H9.94934L12.1967 17.3884V19.2484ZM12.4925 16.8472L10.3929 14.8837L10.7832 14.0823L11.7414 14.4372C12.2669 14.6324 12.8452 14.6324 13.3707 14.4372L14.2224 14.1237L14.592 14.8837L12.4925 16.8472ZM18.2707 24.0301C16.7389 23.0483 14.7487 22.8768 13.5393 22.8768C13.2436 22.8768 12.9745 22.8768 12.7882 22.8975V19.8398C13.8736 19.8552 14.9513 19.6541 15.9582 19.2484C15.973 19.3282 15.9907 19.4081 16.0114 19.4909L16.0854 19.7866L16.3811 19.7068C17.0502 19.5203 17.7391 19.4141 18.4333 19.3903C18.7311 20.9293 18.6755 22.5158 18.2707 24.0301ZM20.7872 19.0532C19.3847 18.719 17.9227 18.7251 16.523 19.071C16.4435 18.6212 16.4597 18.1597 16.5703 17.7166C17.1127 16.8942 17.4195 15.939 17.4575 14.9547C18.3641 15.0295 19.2094 15.4422 19.8261 16.1109C20.4428 16.7797 20.7858 17.6556 20.7872 18.5653V19.0532Z"/>
</mask>
<path d="M17.1647 14.3514H16.8513L16.869 14.6649C16.8704 14.6737 16.8704 14.6827 16.869 14.6915H15.1539L14.7813 13.9256L15.0563 13.8221C15.5718 13.6358 16.0181 13.2963 16.3352 12.8491C16.6524 12.4019 16.8252 11.8685 16.8306 11.3204V9.3864C16.9175 9.16657 16.9733 8.93564 16.9962 8.70035L17.0671 7.89601C17.0754 7.80593 17.0635 7.71513 17.0323 7.63022C17.0011 7.54532 16.9514 7.46842 16.8867 7.40513C16.856 7.37437 16.8223 7.34665 16.7862 7.32233C16.6445 6.44392 16.2211 5.6354 15.5797 5.01873C14.9916 4.45171 14.254 4.06397 13.4535 3.90094L13.4003 3.48103C13.3864 3.37766 13.3543 3.27755 13.3057 3.18531C13.8971 2.98423 15.0799 2.78314 15.8488 3.84771C16.5703 4.83539 18.5516 4.43913 18.7763 4.40365L19.5896 4.22031L18.8503 3.83588C18.2234 3.5106 18.1494 3.29768 18.1406 3.24446C19.1105 2.73583 19.1223 1.54707 19.1223 1.49384V1L17.2741 2.00838C16.659 2.30409 15.3786 1.62987 14.9794 1.36668L14.9262 1.34007C13.5156 0.787087 12.5191 2.01725 12.1406 2.81863C12.0237 2.88539 11.9236 2.97786 11.8478 3.08903C11.7719 3.20021 11.7224 3.32718 11.7029 3.46033L11.6526 3.88024C10.8113 4.04367 10.0406 4.46186 9.44496 5.07811C8.84933 5.69437 8.45762 6.47888 8.32292 7.32528C8.2853 7.34759 8.25055 7.37441 8.21942 7.40513C8.15546 7.46891 8.10619 7.54587 8.07503 7.63065C8.04388 7.71543 8.03159 7.80599 8.03903 7.89601L8.11296 8.70035C8.13342 8.93574 8.18821 9.16687 8.2756 9.3864V11.3204C8.28138 11.8684 8.45437 12.4017 8.77145 12.8487C9.08852 13.2958 9.53455 13.6354 10.0499 13.8221L10.2184 13.8842L9.83105 14.6915H8.11296C8.11153 14.6827 8.11153 14.6737 8.11296 14.6649L8.1307 14.3514H7.82021C6.70542 14.3561 5.63784 14.802 4.85095 15.5917C4.06405 16.3814 3.62187 17.4505 3.62109 18.5653V19.8221L3.99369 19.7186C4.63906 19.5392 5.30279 19.434 5.97201 19.4051C5.65241 21.1356 5.75898 22.9178 6.2825 24.5978L6.40966 25L6.74381 24.7427C8.8552 23.1281 12.4392 23.5096 12.4747 23.5126H12.5072H12.5398C12.5753 23.5126 16.1563 23.1252 18.2707 24.7427L18.6048 25L18.732 24.5978C19.2506 22.9166 19.3521 21.1344 19.0277 19.4051C19.6969 19.4338 20.3607 19.539 21.006 19.7186L21.3786 19.8221V18.5653C21.3778 17.4479 20.9336 16.3766 20.1435 15.5865C19.3534 14.7964 18.2821 14.3522 17.1647 14.3514ZM15.0415 15.2829H16.8572C16.7519 16.054 16.4729 16.7912 16.041 17.4386L16.0055 17.5155C15.905 17.8873 15.8621 18.2722 15.8784 18.657C14.8977 19.064 13.8439 19.2653 12.7823 19.2484V17.3884L15.0415 15.2829ZM16.4846 7.84278L16.4106 8.64712C16.3673 9.13091 16.1384 9.57915 15.7719 9.89798V7.85757C15.9907 7.85757 16.2155 7.83687 16.4461 7.81617C16.4609 7.81321 16.4698 7.81912 16.4846 7.84278ZM9.94934 10.8857L12.5575 11.6486L15.1539 10.8857C15.5231 10.7803 15.8644 10.5944 16.1534 10.3415C16.0547 10.6513 15.8868 10.9345 15.6624 11.1696C15.4379 11.4048 15.1629 11.5858 14.8582 11.6989L13.1726 12.3199C12.7789 12.4678 12.345 12.4678 11.9513 12.3199L10.2657 11.6959C9.95875 11.5858 9.68133 11.4063 9.45513 11.1714C9.22892 10.9365 9.06004 10.6525 8.96166 10.3415C9.24716 10.5929 9.5843 10.7787 9.94934 10.8857ZM9.93159 10.2587V7.85165C10.0617 7.85165 10.1889 7.83391 10.316 7.82208V10.377L10.1149 10.3179L9.93159 10.2587ZM10.9074 10.5545V7.73337C11.2019 7.67295 11.4915 7.59091 11.7739 7.48793V10.8029L10.9074 10.5545ZM12.3653 10.9803V7.22178C12.4304 7.18926 12.4954 7.15377 12.5575 7.11533C12.6196 7.15377 12.6847 7.18926 12.7468 7.22178V10.9773L12.5575 11.0335L12.3653 10.9803ZM13.3382 10.8058V7.48793C13.6217 7.59053 13.9123 7.67256 14.2076 7.73337V10.5515L13.3382 10.8058ZM14.799 10.38V7.82208C14.9232 7.82208 15.0504 7.84574 15.1805 7.85165V10.2587L15.0001 10.3179L14.799 10.38ZM14.6807 1.88418C14.9764 2.06456 16.5437 3.02267 17.5432 2.53475L18.4067 2.06161C18.3587 2.21029 18.2817 2.34799 18.1802 2.46676C18.0787 2.58553 17.9547 2.68301 17.8153 2.75357L17.7473 2.79793C17.6755 2.86403 17.6204 2.94619 17.5865 3.03768C17.5525 3.12916 17.5408 3.22738 17.5521 3.3243C17.5898 3.55551 17.7095 3.76544 17.8892 3.91572C17.2978 3.94234 16.5999 3.87432 16.3249 3.49877C16.0871 3.16307 15.7704 2.89095 15.4028 2.70635C15.0351 2.52175 14.6277 2.43032 14.2165 2.44012C13.7632 2.44347 13.3146 2.53277 12.8946 2.7033C13.214 2.20355 13.8232 1.56185 14.6807 1.88122V1.88418ZM12.2884 3.54017C12.2945 3.49271 12.3134 3.44781 12.3431 3.41029C12.3728 3.37278 12.4122 3.34407 12.457 3.32725C12.4873 3.31621 12.5193 3.31022 12.5516 3.30951C12.6155 3.30955 12.6772 3.33258 12.7256 3.37438C12.7739 3.41619 12.8056 3.47398 12.8148 3.53721L12.8473 3.80335C12.6504 3.79152 12.4529 3.79152 12.2559 3.80335L12.2884 3.54017ZM12.5575 4.3859C13.5302 4.3796 14.467 4.75305 15.1687 5.42681C15.6801 5.91657 16.0316 6.54946 16.177 7.24248C14.799 7.34894 13.6339 7.1035 12.7142 6.51799L12.5575 6.41745L12.3978 6.51799C11.4782 7.10941 10.3278 7.34598 8.93504 7.24248C9.11705 6.42199 9.57713 5.68966 10.2373 5.16959C10.8975 4.64952 11.7172 4.37369 12.5575 4.38886V4.3859ZM8.63046 7.84278L8.33475 7.86939L8.63046 7.82504C8.64096 7.82119 8.65248 7.82119 8.66299 7.82504C8.89068 7.84574 9.11543 7.86052 9.33425 7.86644V9.90685C8.9678 9.58802 8.73891 9.13978 8.69552 8.65599L8.63046 7.84278ZM8.86999 11.3913C9.17995 11.7763 9.58885 12.0697 10.0528 12.24L11.7384 12.864C12.264 13.0593 12.8422 13.0593 13.3678 12.864L15.0533 12.24C15.5171 12.0693 15.9259 11.776 16.2362 11.3913C16.216 11.805 16.0745 12.2035 15.8295 12.5374C15.5845 12.8713 15.2467 13.1257 14.8582 13.2691L13.1667 13.8901C12.7727 14.0364 12.3393 14.0364 11.9454 13.8901L10.2598 13.2691C9.87023 13.1294 9.53052 12.8778 9.28328 12.5459C9.03604 12.214 8.89227 11.8164 8.86999 11.4032V11.3913ZM4.21252 19.0532V18.5653C4.2133 17.6598 4.5526 16.7874 5.16377 16.1193C5.77494 15.4513 6.61381 15.0358 7.51562 14.9547C7.55357 15.939 7.86037 16.8942 8.40276 17.7166C8.51344 18.1597 8.52956 18.6212 8.45007 19.071C7.74088 18.8958 7.01302 18.8074 6.2825 18.8078C5.58543 18.8108 4.89096 18.8931 4.21252 19.0532ZM12.1967 22.8975C11.2741 22.8383 8.6482 22.7999 6.7172 24.0301C6.31317 22.5205 6.25956 20.9386 6.56047 19.4051C7.2537 19.4266 7.94179 19.5319 8.60976 19.7186L8.90547 19.7984L8.97644 19.5027C8.99714 19.4229 9.01488 19.3401 9.02967 19.2602C10.0361 19.6676 11.1141 19.8687 12.1997 19.8517L12.1967 22.8975ZM12.1967 19.2484C11.135 19.2668 10.0809 19.0654 9.10064 18.657C9.11691 18.2713 9.07403 17.8853 8.97348 17.5126L8.94391 17.4386C8.51373 16.7898 8.23666 16.0516 8.13366 15.2799H9.94934L12.1967 17.3884V19.2484ZM12.4925 16.8472L10.3929 14.8837L10.7832 14.0823L11.7414 14.4372C12.2669 14.6324 12.8452 14.6324 13.3707 14.4372L14.2224 14.1237L14.592 14.8837L12.4925 16.8472ZM18.2707 24.0301C16.7389 23.0483 14.7487 22.8768 13.5393 22.8768C13.2436 22.8768 12.9745 22.8768 12.7882 22.8975V19.8398C13.8736 19.8552 14.9513 19.6541 15.9582 19.2484C15.973 19.3282 15.9907 19.4081 16.0114 19.4909L16.0854 19.7866L16.3811 19.7068C17.0502 19.5203 17.7391 19.4141 18.4333 19.3903C18.7311 20.9293 18.6755 22.5158 18.2707 24.0301ZM20.7872 19.0532C19.3847 18.719 17.9227 18.7251 16.523 19.071C16.4435 18.6212 16.4597 18.1597 16.5703 17.7166C17.1127 16.8942 17.4195 15.939 17.4575 14.9547C18.3641 15.0295 19.2094 15.4422 19.8261 16.1109C20.4428 16.7797 20.7858 17.6556 20.7872 18.5653V19.0532Z" fill="#153138"/>
<path d="M17.1647 14.3514H16.8513L16.869 14.6649C16.8704 14.6737 16.8704 14.6827 16.869 14.6915H15.1539L14.7813 13.9256L15.0563 13.8221C15.5718 13.6358 16.0181 13.2963 16.3352 12.8491C16.6524 12.4019 16.8252 11.8685 16.8306 11.3204V9.3864C16.9175 9.16657 16.9733 8.93564 16.9962 8.70035L17.0671 7.89601C17.0754 7.80593 17.0635 7.71513 17.0323 7.63022C17.0011 7.54532 16.9514 7.46842 16.8867 7.40513C16.856 7.37437 16.8223 7.34665 16.7862 7.32233C16.6445 6.44392 16.2211 5.6354 15.5797 5.01873C14.9916 4.45171 14.254 4.06397 13.4535 3.90094L13.4003 3.48103C13.3864 3.37766 13.3543 3.27755 13.3057 3.18531C13.8971 2.98423 15.0799 2.78314 15.8488 3.84771C16.5703 4.83539 18.5516 4.43913 18.7763 4.40365L19.5896 4.22031L18.8503 3.83588C18.2234 3.5106 18.1494 3.29768 18.1406 3.24446C19.1105 2.73583 19.1223 1.54707 19.1223 1.49384V1L17.2741 2.00838C16.659 2.30409 15.3786 1.62987 14.9794 1.36668L14.9262 1.34007C13.5156 0.787087 12.5191 2.01725 12.1406 2.81863C12.0237 2.88539 11.9236 2.97786 11.8478 3.08903C11.7719 3.20021 11.7224 3.32718 11.7029 3.46033L11.6526 3.88024C10.8113 4.04367 10.0406 4.46186 9.44496 5.07811C8.84933 5.69437 8.45762 6.47888 8.32292 7.32528C8.2853 7.34759 8.25055 7.37441 8.21942 7.40513C8.15546 7.46891 8.10619 7.54587 8.07503 7.63065C8.04388 7.71543 8.03159 7.80599 8.03903 7.89601L8.11296 8.70035C8.13342 8.93574 8.18821 9.16687 8.2756 9.3864V11.3204C8.28138 11.8684 8.45437 12.4017 8.77145 12.8487C9.08852 13.2958 9.53455 13.6354 10.0499 13.8221L10.2184 13.8842L9.83105 14.6915H8.11296C8.11153 14.6827 8.11153 14.6737 8.11296 14.6649L8.1307 14.3514H7.82021C6.70542 14.3561 5.63784 14.802 4.85095 15.5917C4.06405 16.3814 3.62187 17.4505 3.62109 18.5653V19.8221L3.99369 19.7186C4.63906 19.5392 5.30279 19.434 5.97201 19.4051C5.65241 21.1356 5.75898 22.9178 6.2825 24.5978L6.40966 25L6.74381 24.7427C8.8552 23.1281 12.4392 23.5096 12.4747 23.5126H12.5072H12.5398C12.5753 23.5126 16.1563 23.1252 18.2707 24.7427L18.6048 25L18.732 24.5978C19.2506 22.9166 19.3521 21.1344 19.0277 19.4051C19.6969 19.4338 20.3607 19.539 21.006 19.7186L21.3786 19.8221V18.5653C21.3778 17.4479 20.9336 16.3766 20.1435 15.5865C19.3534 14.7964 18.2821 14.3522 17.1647 14.3514ZM15.0415 15.2829H16.8572C16.7519 16.054 16.4729 16.7912 16.041 17.4386L16.0055 17.5155C15.905 17.8873 15.8621 18.2722 15.8784 18.657C14.8977 19.064 13.8439 19.2653 12.7823 19.2484V17.3884L15.0415 15.2829ZM16.4846 7.84278L16.4106 8.64712C16.3673 9.13091 16.1384 9.57915 15.7719 9.89798V7.85757C15.9907 7.85757 16.2155 7.83687 16.4461 7.81617C16.4609 7.81321 16.4698 7.81912 16.4846 7.84278ZM9.94934 10.8857L12.5575 11.6486L15.1539 10.8857C15.5231 10.7803 15.8644 10.5944 16.1534 10.3415C16.0547 10.6513 15.8868 10.9345 15.6624 11.1696C15.4379 11.4048 15.1629 11.5858 14.8582 11.6989L13.1726 12.3199C12.7789 12.4678 12.345 12.4678 11.9513 12.3199L10.2657 11.6959C9.95875 11.5858 9.68133 11.4063 9.45513 11.1714C9.22892 10.9365 9.06004 10.6525 8.96166 10.3415C9.24716 10.5929 9.5843 10.7787 9.94934 10.8857ZM9.93159 10.2587V7.85165C10.0617 7.85165 10.1889 7.83391 10.316 7.82208V10.377L10.1149 10.3179L9.93159 10.2587ZM10.9074 10.5545V7.73337C11.2019 7.67295 11.4915 7.59091 11.7739 7.48793V10.8029L10.9074 10.5545ZM12.3653 10.9803V7.22178C12.4304 7.18926 12.4954 7.15377 12.5575 7.11533C12.6196 7.15377 12.6847 7.18926 12.7468 7.22178V10.9773L12.5575 11.0335L12.3653 10.9803ZM13.3382 10.8058V7.48793C13.6217 7.59053 13.9123 7.67256 14.2076 7.73337V10.5515L13.3382 10.8058ZM14.799 10.38V7.82208C14.9232 7.82208 15.0504 7.84574 15.1805 7.85165V10.2587L15.0001 10.3179L14.799 10.38ZM14.6807 1.88418C14.9764 2.06456 16.5437 3.02267 17.5432 2.53475L18.4067 2.06161C18.3587 2.21029 18.2817 2.34799 18.1802 2.46676C18.0787 2.58553 17.9547 2.68301 17.8153 2.75357L17.7473 2.79793C17.6755 2.86403 17.6204 2.94619 17.5865 3.03768C17.5525 3.12916 17.5408 3.22738 17.5521 3.3243C17.5898 3.55551 17.7095 3.76544 17.8892 3.91572C17.2978 3.94234 16.5999 3.87432 16.3249 3.49877C16.0871 3.16307 15.7704 2.89095 15.4028 2.70635C15.0351 2.52175 14.6277 2.43032 14.2165 2.44012C13.7632 2.44347 13.3146 2.53277 12.8946 2.7033C13.214 2.20355 13.8232 1.56185 14.6807 1.88122V1.88418ZM12.2884 3.54017C12.2945 3.49271 12.3134 3.44781 12.3431 3.41029C12.3728 3.37278 12.4122 3.34407 12.457 3.32725C12.4873 3.31621 12.5193 3.31022 12.5516 3.30951C12.6155 3.30955 12.6772 3.33258 12.7256 3.37438C12.7739 3.41619 12.8056 3.47398 12.8148 3.53721L12.8473 3.80335C12.6504 3.79152 12.4529 3.79152 12.2559 3.80335L12.2884 3.54017ZM12.5575 4.3859C13.5302 4.3796 14.467 4.75305 15.1687 5.42681C15.6801 5.91657 16.0316 6.54946 16.177 7.24248C14.799 7.34894 13.6339 7.1035 12.7142 6.51799L12.5575 6.41745L12.3978 6.51799C11.4782 7.10941 10.3278 7.34598 8.93504 7.24248C9.11705 6.42199 9.57713 5.68966 10.2373 5.16959C10.8975 4.64952 11.7172 4.37369 12.5575 4.38886V4.3859ZM8.63046 7.84278L8.33475 7.86939L8.63046 7.82504C8.64096 7.82119 8.65248 7.82119 8.66299 7.82504C8.89068 7.84574 9.11543 7.86052 9.33425 7.86644V9.90685C8.9678 9.58802 8.73891 9.13978 8.69552 8.65599L8.63046 7.84278ZM8.86999 11.3913C9.17995 11.7763 9.58885 12.0697 10.0528 12.24L11.7384 12.864C12.264 13.0593 12.8422 13.0593 13.3678 12.864L15.0533 12.24C15.5171 12.0693 15.9259 11.776 16.2362 11.3913C16.216 11.805 16.0745 12.2035 15.8295 12.5374C15.5845 12.8713 15.2467 13.1257 14.8582 13.2691L13.1667 13.8901C12.7727 14.0364 12.3393 14.0364 11.9454 13.8901L10.2598 13.2691C9.87023 13.1294 9.53052 12.8778 9.28328 12.5459C9.03604 12.214 8.89227 11.8164 8.86999 11.4032V11.3913ZM4.21252 19.0532V18.5653C4.2133 17.6598 4.5526 16.7874 5.16377 16.1193C5.77494 15.4513 6.61381 15.0358 7.51562 14.9547C7.55357 15.939 7.86037 16.8942 8.40276 17.7166C8.51344 18.1597 8.52956 18.6212 8.45007 19.071C7.74088 18.8958 7.01302 18.8074 6.2825 18.8078C5.58543 18.8108 4.89096 18.8931 4.21252 19.0532ZM12.1967 22.8975C11.2741 22.8383 8.6482 22.7999 6.7172 24.0301C6.31317 22.5205 6.25956 20.9386 6.56047 19.4051C7.2537 19.4266 7.94179 19.5319 8.60976 19.7186L8.90547 19.7984L8.97644 19.5027C8.99714 19.4229 9.01488 19.3401 9.02967 19.2602C10.0361 19.6676 11.1141 19.8687 12.1997 19.8517L12.1967 22.8975ZM12.1967 19.2484C11.135 19.2668 10.0809 19.0654 9.10064 18.657C9.11691 18.2713 9.07403 17.8853 8.97348 17.5126L8.94391 17.4386C8.51373 16.7898 8.23666 16.0516 8.13366 15.2799H9.94934L12.1967 17.3884V19.2484ZM12.4925 16.8472L10.3929 14.8837L10.7832 14.0823L11.7414 14.4372C12.2669 14.6324 12.8452 14.6324 13.3707 14.4372L14.2224 14.1237L14.592 14.8837L12.4925 16.8472ZM18.2707 24.0301C16.7389 23.0483 14.7487 22.8768 13.5393 22.8768C13.2436 22.8768 12.9745 22.8768 12.7882 22.8975V19.8398C13.8736 19.8552 14.9513 19.6541 15.9582 19.2484C15.973 19.3282 15.9907 19.4081 16.0114 19.4909L16.0854 19.7866L16.3811 19.7068C17.0502 19.5203 17.7391 19.4141 18.4333 19.3903C18.7311 20.9293 18.6755 22.5158 18.2707 24.0301ZM20.7872 19.0532C19.3847 18.719 17.9227 18.7251 16.523 19.071C16.4435 18.6212 16.4597 18.1597 16.5703 17.7166C17.1127 16.8942 17.4195 15.939 17.4575 14.9547C18.3641 15.0295 19.2094 15.4422 19.8261 16.1109C20.4428 16.7797 20.7858 17.6556 20.7872 18.5653V19.0532Z" stroke="#B1B1B3" stroke-width="0.4" mask="url(#path-1-outside-1_7325_17937)"/>
</svg>
