<svg width="25" height="25" viewBox="0 0 25 25" fill="none" xmlns="http://www.w3.org/2000/svg">
<path d="M24.2519 0.135742H1.18019C0.959566 0.135742 0.77994 0.315368 0.77994 0.535993V5.50096V5.62883V23.1285C0.750663 23.2339 0.761582 23.3484 0.828754 23.4465C0.847327 23.5764 0.884419 23.8468 1.15675 24.0117C1.27584 24.0849 1.42421 24.1318 1.64777 24.1318C1.98653 24.1318 2.49607 24.0224 3.33565 23.7286C3.94384 23.5158 3.80521 22.9359 3.75934 22.7456C3.7564 22.7329 3.75351 22.7192 3.7496 22.7046C3.90187 22.7124 4.16446 22.7905 4.33338 22.8412C4.74632 22.9662 5.13581 23.0814 5.44234 22.8891C5.59173 22.7944 5.6893 22.6382 5.71761 22.4498C6.13435 19.7044 4.79246 15.8729 4.37267 14.7662C9.51903 11.5815 9.68035 7.1541 9.59793 5.83276C10.248 5.69643 10.6644 5.38589 11.0418 5.10264C11.4997 4.75902 11.896 4.46223 12.7238 4.46223C13.5507 4.46223 13.947 4.75902 14.4048 5.10264C14.7797 5.38391 15.1915 5.69274 15.8335 5.83051C15.7501 7.14318 15.903 11.5808 21.0584 14.7703C20.6386 15.877 19.2976 19.7086 19.7134 22.4557C19.7417 22.6441 19.8403 22.8003 19.9897 22.894C20.2963 23.0873 20.6857 22.9702 21.0987 22.8461C21.2666 22.7964 21.5243 22.7183 21.6815 22.7105C21.6786 22.7241 21.6757 22.7378 21.6727 22.7495C21.6269 22.9399 21.4882 23.5197 22.0954 23.7336C22.9349 24.0274 23.4445 24.1357 23.7833 24.1357C24.0068 24.1357 24.1562 24.0889 24.2753 24.0157C24.5476 23.8507 24.5847 23.5803 24.5818 23.4622C24.5895 23.4509 24.5907 23.4378 24.5971 23.4261C24.6103 23.4024 24.6203 23.3784 24.6285 23.352C24.6364 23.3261 24.6416 23.3011 24.6442 23.2747C24.6455 23.2612 24.6521 23.2495 24.6521 23.2357V5.62888V5.50492V0.535993C24.6521 0.315368 24.4725 0.135742 24.2519 0.135742ZM23.8516 5.06582C23.2905 4.98398 22.9441 4.74408 22.5699 4.46325C22.483 4.398 22.3889 4.332 22.2956 4.26628V0.936244H23.8517V5.06582H23.8516ZM16.5662 5.10366C15.7798 5.10366 15.3825 4.83315 14.9516 4.51115V0.936244H17.8226V4.75618C17.4999 4.95727 17.1379 5.10366 16.5662 5.10366ZM18.6231 0.936244H21.4951V3.85104C21.1939 3.7426 20.8523 3.66183 20.4085 3.66183C19.5744 3.66183 19.0484 3.90938 18.623 4.19338V0.936244H18.6231ZM10.4796 4.52244C10.0547 4.83914 9.65744 5.10366 8.87958 5.10366C8.29939 5.10366 7.93451 4.95449 7.60855 4.7497V0.936244H10.4796V4.52244ZM6.80805 4.1861C6.38377 3.9051 5.85822 3.66183 5.03037 3.66183C4.5835 3.66183 4.23966 3.74324 3.93704 3.85265V0.936244H6.80805V4.1861ZM3.13654 0.936244V4.26879C3.04437 4.33372 2.95113 4.39891 2.86517 4.4633C2.49002 4.74424 2.14319 4.9843 1.5805 5.06598V0.936244H3.13654ZM4.94741 22.1795C4.83517 22.1571 4.67893 22.1102 4.56279 22.076C4.16939 21.9589 3.76325 21.8379 3.41283 21.953C2.79682 22.158 2.93545 22.7398 2.98132 22.9312C2.98619 22.9517 2.99208 22.9761 2.99791 22.9995C2.10176 23.308 1.74251 23.3422 1.62048 23.3314C1.61389 23.284 1.60126 23.2228 1.58044 23.158V15.0092H3.60867C3.9752 15.9782 5.264 19.6237 4.94741 22.1795ZM3.76635 14.2087H1.58044V5.8645C2.40835 5.77153 2.91249 5.42699 3.34544 5.10269C3.80425 4.75907 4.20059 4.46228 5.03037 4.46228C5.85918 4.46228 6.25553 4.75907 6.71433 5.10269C7.20392 5.46938 7.76372 5.87713 8.8084 5.89709C8.89901 7.07617 8.81032 11.1988 3.76635 14.2087ZM11.2801 3.99957V0.936244H14.1511V3.99068C13.7858 3.80372 13.3443 3.66183 12.7239 3.66183C12.094 3.66178 11.6485 3.80822 11.2801 3.99957ZM16.6229 5.89854C17.676 5.88248 18.2366 5.4712 18.7276 5.10269C19.1854 4.75907 19.5818 4.46228 20.4086 4.46228C21.2354 4.46228 21.6318 4.75907 22.0896 5.10269C22.5217 5.42699 23.0249 5.77142 23.8517 5.86444V14.2127H21.6648C16.6165 11.2008 16.5319 7.07371 16.6229 5.89854ZM22.4342 23.0044C22.44 22.9809 22.445 22.9565 22.4498 22.936C22.4957 22.7447 22.6363 22.1629 22.0193 21.9569C21.6669 21.8397 21.2618 21.9627 20.8684 22.0799C20.7532 22.1151 20.596 22.1619 20.4837 22.1844C20.168 19.6286 21.4569 15.9823 21.8228 15.0132H23.8517V23.1576C23.8334 23.2141 23.8209 23.2728 23.8107 23.3353C23.6896 23.349 23.3304 23.3129 22.4342 23.0044Z" fill="#B1B1B3"/>
<path d="M22.3325 11.9399C22.396 11.977 22.4653 11.9955 22.5346 11.9955C22.6712 11.9955 22.805 11.9243 22.8792 11.7974C22.9914 11.607 22.927 11.362 22.7366 11.2507C19.7651 9.5072 20.1468 7.00711 20.1643 6.9007C20.2005 6.68399 20.055 6.47701 19.8373 6.43992C19.6206 6.40282 19.4146 6.54632 19.3765 6.764C19.3541 6.89091 18.865 9.90547 22.3325 11.9399Z" fill="#B1B1B3"/>
<path d="M5.59123 6.43508C5.37355 6.47313 5.22807 6.68107 5.26714 6.89779C5.27105 6.92412 5.68789 9.49059 2.69484 11.2468C2.50446 11.3581 2.44007 11.6031 2.55231 11.7935C2.62649 11.9204 2.76025 11.9916 2.89689 11.9916C2.96621 11.9916 3.03552 11.9731 3.09895 11.936C6.56643 9.90154 6.07637 6.88607 6.05394 6.75916C6.01588 6.54148 5.81185 6.3853 5.59123 6.43508Z" fill="#B1B1B3"/>
</svg>
