<svg width="25" height="26" viewBox="0 0 25 26" fill="none" xmlns="http://www.w3.org/2000/svg">
<mask id="path-1-outside-1_7325_8131" maskUnits="userSpaceOnUse" x="3.71582" y="0" width="17" height="26" fill="black">
<rect fill="white" x="3.71582" width="17" height="26"/>
<path d="M19.7706 16.6777C19.7669 16.6703 19.7632 16.6592 19.7558 16.6518C19.3794 16.0246 18.8223 15.5117 18.147 15.1943C18.147 15.1943 18.147 15.1906 18.1433 15.1906C18.1396 15.187 18.1322 15.187 18.1249 15.1833C18.0215 15.1353 17.9145 15.0947 17.8075 15.0541C18.2429 14.2719 18.4643 13.3014 18.4643 12.1649C18.4643 10.8144 18.1544 9.31635 17.5935 7.92526C17.5935 7.92157 17.5972 7.91788 17.5972 7.91788C17.6157 7.68173 17.6858 6.13198 17.7042 5.86262C17.7116 5.8331 17.7153 5.80358 17.7079 5.77037C17.5234 4.99549 17.3278 4.20955 17.1249 3.41991C17.1987 3.41253 17.2688 3.39408 17.3315 3.35349C17.4828 3.26125 17.5751 3.0952 17.5898 2.88488C17.6157 2.49744 17.3647 2.06203 17.029 1.91444C16.8482 1.83326 16.6563 1.84064 16.505 1.93289C16.3463 2.03252 16.2467 2.20963 16.2356 2.42733C16.2172 2.74466 16.3869 3.07306 16.6452 3.26494C16.5271 3.50109 16.088 4.37928 15.981 4.58961C15.8556 4.17634 15.4312 2.80001 15.4312 2.80001C15.5161 2.78156 15.5936 2.75573 15.6637 2.70407C15.815 2.59338 15.8999 2.41626 15.9109 2.20594C15.9294 1.80374 15.6416 1.39785 15.2726 1.30561C15.0844 1.25764 14.8962 1.29454 14.7486 1.40523C14.59 1.52331 14.4977 1.71519 14.4903 1.9292C14.4793 2.24653 14.6674 2.55279 14.9368 2.71145C14.8261 2.95499 14.3796 3.92912 14.2652 4.18003C14.1435 3.83318 13.7339 2.70776 13.6527 2.48268C13.745 2.45316 13.8335 2.40888 13.9073 2.34247C14.0512 2.21332 14.1324 2.02883 14.1361 1.82219C14.1435 1.40154 13.8298 1.03625 13.435 1.00304C13.2431 0.984588 13.0623 1.05101 12.9221 1.18015C12.7708 1.32037 12.6823 1.51962 12.6823 1.72994C12.6823 2.05096 12.8742 2.3314 13.1509 2.45316C13.0402 2.72621 12.6048 3.74462 12.4978 3.99922C12.3908 3.74462 11.9554 2.72621 11.8447 2.45685C12.1214 2.33509 12.317 2.05465 12.317 1.73363C12.317 1.52331 12.2284 1.32037 12.0771 1.18384C11.9369 1.0547 11.7561 0.991968 11.5679 1.00673C11.1694 1.03994 10.8558 1.40523 10.8632 1.82588C10.8669 2.02883 10.948 2.21332 11.0919 2.34616C11.1657 2.41257 11.2506 2.45685 11.3429 2.48637C11.2617 2.71145 10.8521 3.84056 10.7303 4.18741C10.6159 3.9365 10.1658 2.96606 10.0551 2.72252C10.3244 2.56755 10.5126 2.2576 10.5016 1.93658C10.4942 1.72256 10.4019 1.53069 10.2433 1.41261C10.0957 1.30192 9.90749 1.26502 9.72299 1.31299C9.35032 1.40523 9.06251 1.81112 9.08095 2.21701C9.09202 2.42364 9.17689 2.60076 9.32818 2.71145C9.39828 2.76311 9.47577 2.79263 9.56064 2.80739C9.56064 2.80739 9.1363 4.18741 9.01454 4.59699C8.90753 4.38666 8.46474 3.50847 8.35036 3.27232C8.60865 3.08044 8.77838 2.75204 8.75994 2.43102C8.74887 2.21332 8.64924 2.03252 8.49057 1.93658C8.33929 1.84433 8.14741 1.83695 7.9703 1.91813C7.63083 2.06572 7.37992 2.50482 7.40575 2.89226C7.42051 3.10258 7.51275 3.26863 7.66404 3.36087C7.72677 3.39777 7.79687 3.41622 7.86698 3.42729C7.66773 4.21693 7.47216 5.00287 7.28767 5.78144C7.28029 5.81465 7.28398 5.84786 7.29505 5.88107C7.30981 6.13567 7.37992 7.67435 7.39837 7.92526C7.39837 7.92895 7.40206 7.93264 7.40206 7.93633C6.84119 9.32742 6.53493 10.8255 6.53493 12.176C6.53493 13.3125 6.75633 14.2829 7.19173 15.0652C6.36151 15.353 5.67888 15.9286 5.24347 16.6592C5.23609 16.6666 5.23609 16.674 5.22871 16.6851C4.904 17.2385 4.71582 17.8769 4.71582 18.5448V22.397C4.71582 22.4671 4.75641 22.5298 4.81545 22.563L7.8596 24.1128C7.86698 24.1165 7.88912 24.1239 7.89281 24.1275L9.45363 24.574C9.46101 24.574 9.47577 24.5777 9.47577 24.5777L12.3022 24.9984C12.3096 24.9984 12.3317 25.0021 12.3613 24.9984L17.088 24.1312C17.0991 24.1275 17.1323 24.1165 17.1397 24.1128L20.1838 22.563C20.2465 22.5298 20.2834 22.4671 20.2834 22.397V18.5337C20.2834 17.8695 20.099 17.2312 19.7706 16.6777ZM19.3278 16.6629L17.0659 17.3271L18.1175 15.5892C18.6082 15.8474 19.0215 16.2164 19.3278 16.6629ZM17.4496 14.9434C17.4496 14.9434 15.3353 14.3051 15.2357 14.2792C14.8077 14.1759 14.4977 13.77 14.4977 13.3162V13.1391C15.0032 12.6631 15.4202 12.0284 15.7301 11.3163C15.8076 11.3421 15.8851 11.3532 15.9663 11.3605C15.8224 11.7627 15.601 12.4195 15.601 12.6225C15.601 12.9693 15.8814 13.2498 16.2283 13.2498C16.5751 13.2498 16.8555 12.9693 16.8555 12.6225C16.8555 12.4011 16.5936 11.6447 16.457 11.2609C16.7227 11.1318 16.9367 10.8956 17.0437 10.6078C17.1544 10.3126 17.147 9.98422 17.0216 9.71117C16.9072 9.46394 16.7116 9.27945 16.4644 9.19089C16.4054 9.16875 16.3463 9.15768 16.2873 9.14661C16.3021 8.96581 16.3131 8.78501 16.3131 8.6042C16.3131 8.55254 16.291 8.50457 16.2541 8.46767C16.2172 8.43447 16.1655 8.41602 16.1139 8.41971C14.4128 8.55254 13.2542 7.77029 12.3502 6.89578C14.0365 6.87364 15.7301 7.25001 17.2393 8.02858C17.7928 9.39015 18.099 10.8587 18.099 12.1723C18.0953 13.2756 17.8776 14.2054 17.4496 14.9434ZM14.1804 12.9251C13.6859 13.3752 13.114 13.652 12.4978 13.652C11.8816 13.652 11.3133 13.3752 10.8189 12.9287C10.8115 12.9177 10.8004 12.9103 10.7894 12.9029C9.78203 11.9731 9.10678 10.3237 9.05144 8.79239C10.2506 8.83297 11.1768 8.22783 11.889 6.95851C12.8446 7.93264 14.0697 8.86987 15.9331 8.79239C15.8777 10.3237 15.1988 11.9768 14.1914 12.9066C14.1914 12.914 14.1841 12.9214 14.1804 12.9251ZM8.76362 11.7258C8.90384 12.1428 9.02192 12.5229 9.02192 12.6151C9.02192 12.7553 8.90753 12.8734 8.76362 12.8734C8.61972 12.8734 8.50533 12.759 8.50533 12.6151C8.50902 12.5229 8.62341 12.1428 8.76362 11.7258ZM8.70828 10.9288C8.52378 10.844 8.3725 10.6779 8.2987 10.4713C8.22121 10.2683 8.2249 10.0433 8.30977 9.85876C8.37988 9.70379 8.50533 9.58571 8.65662 9.53036C8.68983 9.51929 8.71935 9.51191 8.75256 9.50453C8.82635 9.99898 8.9555 10.4897 9.13261 10.962C8.99609 11.0026 8.84849 10.9952 8.70828 10.9288ZM7.74522 7.61531C7.73415 7.39023 7.6788 6.15043 7.66404 5.89952C8.63448 5.39031 9.67503 5.04715 10.7451 4.86635C11.6786 4.70399 12.4129 4.64864 14.2542 4.86635C15.3242 5.04715 16.3648 5.39031 17.3352 5.89952C17.3168 6.16888 17.2614 7.40868 17.2504 7.61531C15.7707 6.88471 14.1361 6.51942 12.4978 6.51942C10.8595 6.51942 9.22486 6.88471 7.74522 7.61531ZM16.232 11.7258C16.3722 12.1428 16.4902 12.5229 16.4902 12.6151C16.4902 12.7553 16.3759 12.8734 16.232 12.8734C16.088 12.8734 15.9737 12.759 15.9737 12.6151C15.9737 12.5229 16.088 12.1428 16.232 11.7258ZM16.2873 10.9288C16.1508 10.9916 16.0069 11.0026 15.874 10.9657C16.0475 10.4971 16.1729 10.0027 16.243 9.50822C16.2762 9.5156 16.3058 9.52298 16.339 9.53405C16.4902 9.5894 16.6157 9.70748 16.6858 9.86245C16.7707 10.0469 16.7744 10.2683 16.6969 10.475C16.6231 10.6779 16.4718 10.844 16.2873 10.9288ZM16.7006 2.25391C16.7264 2.23915 16.7522 2.23177 16.7817 2.23177C16.8186 2.23177 16.8555 2.24284 16.8851 2.2576C17.0843 2.34616 17.243 2.63028 17.2282 2.86643C17.2208 2.95499 17.195 3.01771 17.147 3.04354C17.1028 3.06937 17.04 3.06568 16.9662 3.03616C16.7596 2.94761 16.5973 2.67825 16.6083 2.45316C16.6083 2.36092 16.6452 2.28712 16.7006 2.25391ZM16.8297 3.72986C16.9773 4.30548 17.1138 4.87742 17.2504 5.44566C16.9072 5.27592 16.553 5.12464 16.1951 4.99549C16.339 4.70399 16.7596 3.86639 16.8297 3.72986ZM14.97 1.70781C15.0106 1.67829 15.0586 1.65984 15.1102 1.65984C15.1324 1.65984 15.1582 1.66353 15.1803 1.67091C15.3833 1.72256 15.5493 1.96979 15.5419 2.19856C15.5383 2.2945 15.505 2.37198 15.446 2.41626C15.3907 2.45685 15.3169 2.46792 15.232 2.44947C15.0217 2.39781 14.8556 2.17273 14.8593 1.94765C14.863 1.84433 14.9036 1.75946 14.97 1.70781ZM15.1508 3.14317C15.1508 3.14317 15.5309 4.36821 15.6637 4.81838C15.2837 4.70399 14.8999 4.60806 14.5125 4.53426C14.6527 4.21693 15.0807 3.29446 15.1508 3.14317ZM13.1693 1.4532C13.2284 1.39785 13.3022 1.37203 13.376 1.37203C13.3834 1.37203 13.3944 1.37203 13.4018 1.37203C13.6011 1.38679 13.7671 1.59711 13.7634 1.81481C13.7634 1.91813 13.7228 2.00669 13.6564 2.06941C13.5937 2.12845 13.5051 2.15428 13.4166 2.1469C13.2136 2.12845 13.0476 1.94396 13.0476 1.72994C13.0513 1.62663 13.0956 1.52331 13.1693 1.4532ZM13.3871 2.84429C13.4387 2.99189 13.8261 4.05457 13.9664 4.44939C13.5642 4.39404 13.1583 4.36452 12.7487 4.35345C12.8852 4.02505 13.3096 3.02878 13.3871 2.84429ZM11.2285 1.8185C11.2248 1.59711 11.3945 1.39048 11.5938 1.37203C11.6011 1.37203 11.6122 1.37203 11.6196 1.37203C11.7118 1.37203 11.782 1.4163 11.8225 1.4532C11.8963 1.52331 11.9406 1.62294 11.9406 1.73363C11.9406 1.95134 11.782 2.13214 11.5753 2.15059C11.4794 2.15797 11.3982 2.12845 11.3318 2.0731C11.2691 2.01038 11.2322 1.91813 11.2285 1.8185ZM11.6048 2.84429C11.6823 3.02878 12.1104 4.02505 12.2432 4.35345C11.8373 4.36452 11.4314 4.39404 11.0255 4.44939C11.1657 4.05826 11.5495 2.99189 11.6048 2.84429ZM9.45363 2.19856C9.44256 1.97348 9.61599 1.71887 9.81893 1.67091C9.84476 1.66353 9.8669 1.66353 9.88904 1.66353C9.9407 1.66353 9.98498 1.67829 10.0256 1.70781C10.092 1.75946 10.1326 1.84802 10.1363 1.94765C10.1436 2.16904 9.9776 2.39412 9.77096 2.44578C9.6861 2.46792 9.60861 2.45316 9.55326 2.41257C9.49053 2.36829 9.45732 2.2945 9.45363 2.19856ZM9.84476 3.14317C9.91487 3.29446 10.3429 4.21693 10.4831 4.53426C10.0957 4.60806 9.71193 4.70399 9.33187 4.81838C9.4647 4.36821 9.84476 3.14317 9.84476 3.14317ZM8.80052 4.99918C8.4426 5.12833 8.08838 5.27961 7.74522 5.44935C7.88174 4.88111 8.02196 4.30917 8.16586 3.73355C8.23228 3.86639 8.65662 4.70399 8.80052 4.99918ZM7.77105 2.86643C7.75629 2.63397 7.92233 2.34247 8.11789 2.2576C8.14741 2.24653 8.18062 2.23546 8.21752 2.23546C8.24335 2.23546 8.26918 2.24284 8.29501 2.2576C8.35036 2.29081 8.38357 2.3646 8.39095 2.45685C8.40202 2.68193 8.23966 2.94761 8.03672 3.03616C7.96292 3.06937 7.8965 3.07306 7.85222 3.04354C7.80425 3.01402 7.77474 2.9513 7.77105 2.86643ZM7.75998 8.02489C8.9186 7.42713 10.1842 7.06921 11.472 6.94375C10.8115 8.02489 9.96653 8.51564 8.88539 8.41971C8.83373 8.41602 8.78207 8.43078 8.74518 8.46767C8.70828 8.50088 8.68614 8.55254 8.68614 8.6042C8.68614 8.78501 8.69721 8.96581 8.71197 9.14661C8.65293 9.15768 8.59389 9.16875 8.53485 9.19089C8.28763 9.27945 8.09207 9.46394 7.97768 9.71117C7.85222 9.98422 7.84484 10.3126 7.95554 10.6041C8.06255 10.8956 8.27656 11.1318 8.54223 11.2572C8.40571 11.641 8.14003 12.3974 8.14003 12.6188C8.14003 12.9656 8.42047 13.2461 8.76731 13.2461C9.11416 13.2461 9.3946 12.9656 9.3946 12.6188C9.3946 12.4159 9.1732 11.7591 9.0293 11.3569C9.11416 11.3532 9.19903 11.3384 9.28021 11.3089C9.59016 12.01 10.0071 12.6336 10.4979 13.1132V13.3014C10.4979 13.77 10.1953 14.1722 9.76727 14.2792C9.66765 14.3014 7.54965 14.9471 7.54965 14.9471C7.12163 14.2091 6.90392 13.2793 6.90392 12.1723C6.90023 10.8513 7.2028 9.38277 7.75998 8.02489ZM7.43896 15.3641L9.57171 14.7147C9.66027 14.6888 9.75251 14.6593 9.84476 14.6409C10.4056 14.5043 10.8041 14.0099 10.8521 13.4232C11.3465 13.7996 11.9037 14.0246 12.4941 14.0246C13.0919 14.0246 13.6453 13.8032 14.1398 13.4416C14.1914 14.021 14.59 14.508 15.1508 14.6409C15.1619 14.6445 15.1693 14.6445 15.1803 14.6482L12.1657 19.6222C11.6934 18.8141 10.9333 18.2127 10.0293 17.9433L5.6715 16.6629C6.08846 16.0541 6.70098 15.5855 7.43896 15.3641ZM7.93709 20.648C7.83377 20.648 7.7526 20.7292 7.7526 20.8325V23.6331L5.07743 22.2715V18.5337C5.07743 17.9839 5.21764 17.4562 5.46487 16.9876L9.91856 18.2975C10.7968 18.5558 11.5273 19.172 11.9406 19.9875L9.41304 24.1644L8.12158 23.7955V20.8325C8.12158 20.7329 8.04041 20.648 7.93709 20.648ZM15.5493 14.7516L17.5603 15.3641C17.6341 15.3862 17.7079 15.412 17.7817 15.4416L12.2358 24.6035L9.80417 24.2419L15.5493 14.7516ZM19.9145 22.2752L17.2393 23.6368V20.8362C17.2393 20.7329 17.1581 20.6517 17.0548 20.6517C16.9515 20.6517 16.8703 20.7329 16.8703 20.8362V23.7844L12.697 24.5482L16.7817 17.7994L19.527 16.9913C19.7742 17.4599 19.9145 17.9876 19.9145 18.5374V22.2752Z"/>
</mask>
<path d="M19.7706 16.6777C19.7669 16.6703 19.7632 16.6592 19.7558 16.6518C19.3794 16.0246 18.8223 15.5117 18.147 15.1943C18.147 15.1943 18.147 15.1906 18.1433 15.1906C18.1396 15.187 18.1322 15.187 18.1249 15.1833C18.0215 15.1353 17.9145 15.0947 17.8075 15.0541C18.2429 14.2719 18.4643 13.3014 18.4643 12.1649C18.4643 10.8144 18.1544 9.31635 17.5935 7.92526C17.5935 7.92157 17.5972 7.91788 17.5972 7.91788C17.6157 7.68173 17.6858 6.13198 17.7042 5.86262C17.7116 5.8331 17.7153 5.80358 17.7079 5.77037C17.5234 4.99549 17.3278 4.20955 17.1249 3.41991C17.1987 3.41253 17.2688 3.39408 17.3315 3.35349C17.4828 3.26125 17.5751 3.0952 17.5898 2.88488C17.6157 2.49744 17.3647 2.06203 17.029 1.91444C16.8482 1.83326 16.6563 1.84064 16.505 1.93289C16.3463 2.03252 16.2467 2.20963 16.2356 2.42733C16.2172 2.74466 16.3869 3.07306 16.6452 3.26494C16.5271 3.50109 16.088 4.37928 15.981 4.58961C15.8556 4.17634 15.4312 2.80001 15.4312 2.80001C15.5161 2.78156 15.5936 2.75573 15.6637 2.70407C15.815 2.59338 15.8999 2.41626 15.9109 2.20594C15.9294 1.80374 15.6416 1.39785 15.2726 1.30561C15.0844 1.25764 14.8962 1.29454 14.7486 1.40523C14.59 1.52331 14.4977 1.71519 14.4903 1.9292C14.4793 2.24653 14.6674 2.55279 14.9368 2.71145C14.8261 2.95499 14.3796 3.92912 14.2652 4.18003C14.1435 3.83318 13.7339 2.70776 13.6527 2.48268C13.745 2.45316 13.8335 2.40888 13.9073 2.34247C14.0512 2.21332 14.1324 2.02883 14.1361 1.82219C14.1435 1.40154 13.8298 1.03625 13.435 1.00304C13.2431 0.984588 13.0623 1.05101 12.9221 1.18015C12.7708 1.32037 12.6823 1.51962 12.6823 1.72994C12.6823 2.05096 12.8742 2.3314 13.1509 2.45316C13.0402 2.72621 12.6048 3.74462 12.4978 3.99922C12.3908 3.74462 11.9554 2.72621 11.8447 2.45685C12.1214 2.33509 12.317 2.05465 12.317 1.73363C12.317 1.52331 12.2284 1.32037 12.0771 1.18384C11.9369 1.0547 11.7561 0.991968 11.5679 1.00673C11.1694 1.03994 10.8558 1.40523 10.8632 1.82588C10.8669 2.02883 10.948 2.21332 11.0919 2.34616C11.1657 2.41257 11.2506 2.45685 11.3429 2.48637C11.2617 2.71145 10.8521 3.84056 10.7303 4.18741C10.6159 3.9365 10.1658 2.96606 10.0551 2.72252C10.3244 2.56755 10.5126 2.2576 10.5016 1.93658C10.4942 1.72256 10.4019 1.53069 10.2433 1.41261C10.0957 1.30192 9.90749 1.26502 9.72299 1.31299C9.35032 1.40523 9.06251 1.81112 9.08095 2.21701C9.09202 2.42364 9.17689 2.60076 9.32818 2.71145C9.39828 2.76311 9.47577 2.79263 9.56064 2.80739C9.56064 2.80739 9.1363 4.18741 9.01454 4.59699C8.90753 4.38666 8.46474 3.50847 8.35036 3.27232C8.60865 3.08044 8.77838 2.75204 8.75994 2.43102C8.74887 2.21332 8.64924 2.03252 8.49057 1.93658C8.33929 1.84433 8.14741 1.83695 7.9703 1.91813C7.63083 2.06572 7.37992 2.50482 7.40575 2.89226C7.42051 3.10258 7.51275 3.26863 7.66404 3.36087C7.72677 3.39777 7.79687 3.41622 7.86698 3.42729C7.66773 4.21693 7.47216 5.00287 7.28767 5.78144C7.28029 5.81465 7.28398 5.84786 7.29505 5.88107C7.30981 6.13567 7.37992 7.67435 7.39837 7.92526C7.39837 7.92895 7.40206 7.93264 7.40206 7.93633C6.84119 9.32742 6.53493 10.8255 6.53493 12.176C6.53493 13.3125 6.75633 14.2829 7.19173 15.0652C6.36151 15.353 5.67888 15.9286 5.24347 16.6592C5.23609 16.6666 5.23609 16.674 5.22871 16.6851C4.904 17.2385 4.71582 17.8769 4.71582 18.5448V22.397C4.71582 22.4671 4.75641 22.5298 4.81545 22.563L7.8596 24.1128C7.86698 24.1165 7.88912 24.1239 7.89281 24.1275L9.45363 24.574C9.46101 24.574 9.47577 24.5777 9.47577 24.5777L12.3022 24.9984C12.3096 24.9984 12.3317 25.0021 12.3613 24.9984L17.088 24.1312C17.0991 24.1275 17.1323 24.1165 17.1397 24.1128L20.1838 22.563C20.2465 22.5298 20.2834 22.4671 20.2834 22.397V18.5337C20.2834 17.8695 20.099 17.2312 19.7706 16.6777ZM19.3278 16.6629L17.0659 17.3271L18.1175 15.5892C18.6082 15.8474 19.0215 16.2164 19.3278 16.6629ZM17.4496 14.9434C17.4496 14.9434 15.3353 14.3051 15.2357 14.2792C14.8077 14.1759 14.4977 13.77 14.4977 13.3162V13.1391C15.0032 12.6631 15.4202 12.0284 15.7301 11.3163C15.8076 11.3421 15.8851 11.3532 15.9663 11.3605C15.8224 11.7627 15.601 12.4195 15.601 12.6225C15.601 12.9693 15.8814 13.2498 16.2283 13.2498C16.5751 13.2498 16.8555 12.9693 16.8555 12.6225C16.8555 12.4011 16.5936 11.6447 16.457 11.2609C16.7227 11.1318 16.9367 10.8956 17.0437 10.6078C17.1544 10.3126 17.147 9.98422 17.0216 9.71117C16.9072 9.46394 16.7116 9.27945 16.4644 9.19089C16.4054 9.16875 16.3463 9.15768 16.2873 9.14661C16.3021 8.96581 16.3131 8.78501 16.3131 8.6042C16.3131 8.55254 16.291 8.50457 16.2541 8.46767C16.2172 8.43447 16.1655 8.41602 16.1139 8.41971C14.4128 8.55254 13.2542 7.77029 12.3502 6.89578C14.0365 6.87364 15.7301 7.25001 17.2393 8.02858C17.7928 9.39015 18.099 10.8587 18.099 12.1723C18.0953 13.2756 17.8776 14.2054 17.4496 14.9434ZM14.1804 12.9251C13.6859 13.3752 13.114 13.652 12.4978 13.652C11.8816 13.652 11.3133 13.3752 10.8189 12.9287C10.8115 12.9177 10.8004 12.9103 10.7894 12.9029C9.78203 11.9731 9.10678 10.3237 9.05144 8.79239C10.2506 8.83297 11.1768 8.22783 11.889 6.95851C12.8446 7.93264 14.0697 8.86987 15.9331 8.79239C15.8777 10.3237 15.1988 11.9768 14.1914 12.9066C14.1914 12.914 14.1841 12.9214 14.1804 12.9251ZM8.76362 11.7258C8.90384 12.1428 9.02192 12.5229 9.02192 12.6151C9.02192 12.7553 8.90753 12.8734 8.76362 12.8734C8.61972 12.8734 8.50533 12.759 8.50533 12.6151C8.50902 12.5229 8.62341 12.1428 8.76362 11.7258ZM8.70828 10.9288C8.52378 10.844 8.3725 10.6779 8.2987 10.4713C8.22121 10.2683 8.2249 10.0433 8.30977 9.85876C8.37988 9.70379 8.50533 9.58571 8.65662 9.53036C8.68983 9.51929 8.71935 9.51191 8.75256 9.50453C8.82635 9.99898 8.9555 10.4897 9.13261 10.962C8.99609 11.0026 8.84849 10.9952 8.70828 10.9288ZM7.74522 7.61531C7.73415 7.39023 7.6788 6.15043 7.66404 5.89952C8.63448 5.39031 9.67503 5.04715 10.7451 4.86635C11.6786 4.70399 12.4129 4.64864 14.2542 4.86635C15.3242 5.04715 16.3648 5.39031 17.3352 5.89952C17.3168 6.16888 17.2614 7.40868 17.2504 7.61531C15.7707 6.88471 14.1361 6.51942 12.4978 6.51942C10.8595 6.51942 9.22486 6.88471 7.74522 7.61531ZM16.232 11.7258C16.3722 12.1428 16.4902 12.5229 16.4902 12.6151C16.4902 12.7553 16.3759 12.8734 16.232 12.8734C16.088 12.8734 15.9737 12.759 15.9737 12.6151C15.9737 12.5229 16.088 12.1428 16.232 11.7258ZM16.2873 10.9288C16.1508 10.9916 16.0069 11.0026 15.874 10.9657C16.0475 10.4971 16.1729 10.0027 16.243 9.50822C16.2762 9.5156 16.3058 9.52298 16.339 9.53405C16.4902 9.5894 16.6157 9.70748 16.6858 9.86245C16.7707 10.0469 16.7744 10.2683 16.6969 10.475C16.6231 10.6779 16.4718 10.844 16.2873 10.9288ZM16.7006 2.25391C16.7264 2.23915 16.7522 2.23177 16.7817 2.23177C16.8186 2.23177 16.8555 2.24284 16.8851 2.2576C17.0843 2.34616 17.243 2.63028 17.2282 2.86643C17.2208 2.95499 17.195 3.01771 17.147 3.04354C17.1028 3.06937 17.04 3.06568 16.9662 3.03616C16.7596 2.94761 16.5973 2.67825 16.6083 2.45316C16.6083 2.36092 16.6452 2.28712 16.7006 2.25391ZM16.8297 3.72986C16.9773 4.30548 17.1138 4.87742 17.2504 5.44566C16.9072 5.27592 16.553 5.12464 16.1951 4.99549C16.339 4.70399 16.7596 3.86639 16.8297 3.72986ZM14.97 1.70781C15.0106 1.67829 15.0586 1.65984 15.1102 1.65984C15.1324 1.65984 15.1582 1.66353 15.1803 1.67091C15.3833 1.72256 15.5493 1.96979 15.5419 2.19856C15.5383 2.2945 15.505 2.37198 15.446 2.41626C15.3907 2.45685 15.3169 2.46792 15.232 2.44947C15.0217 2.39781 14.8556 2.17273 14.8593 1.94765C14.863 1.84433 14.9036 1.75946 14.97 1.70781ZM15.1508 3.14317C15.1508 3.14317 15.5309 4.36821 15.6637 4.81838C15.2837 4.70399 14.8999 4.60806 14.5125 4.53426C14.6527 4.21693 15.0807 3.29446 15.1508 3.14317ZM13.1693 1.4532C13.2284 1.39785 13.3022 1.37203 13.376 1.37203C13.3834 1.37203 13.3944 1.37203 13.4018 1.37203C13.6011 1.38679 13.7671 1.59711 13.7634 1.81481C13.7634 1.91813 13.7228 2.00669 13.6564 2.06941C13.5937 2.12845 13.5051 2.15428 13.4166 2.1469C13.2136 2.12845 13.0476 1.94396 13.0476 1.72994C13.0513 1.62663 13.0956 1.52331 13.1693 1.4532ZM13.3871 2.84429C13.4387 2.99189 13.8261 4.05457 13.9664 4.44939C13.5642 4.39404 13.1583 4.36452 12.7487 4.35345C12.8852 4.02505 13.3096 3.02878 13.3871 2.84429ZM11.2285 1.8185C11.2248 1.59711 11.3945 1.39048 11.5938 1.37203C11.6011 1.37203 11.6122 1.37203 11.6196 1.37203C11.7118 1.37203 11.782 1.4163 11.8225 1.4532C11.8963 1.52331 11.9406 1.62294 11.9406 1.73363C11.9406 1.95134 11.782 2.13214 11.5753 2.15059C11.4794 2.15797 11.3982 2.12845 11.3318 2.0731C11.2691 2.01038 11.2322 1.91813 11.2285 1.8185ZM11.6048 2.84429C11.6823 3.02878 12.1104 4.02505 12.2432 4.35345C11.8373 4.36452 11.4314 4.39404 11.0255 4.44939C11.1657 4.05826 11.5495 2.99189 11.6048 2.84429ZM9.45363 2.19856C9.44256 1.97348 9.61599 1.71887 9.81893 1.67091C9.84476 1.66353 9.8669 1.66353 9.88904 1.66353C9.9407 1.66353 9.98498 1.67829 10.0256 1.70781C10.092 1.75946 10.1326 1.84802 10.1363 1.94765C10.1436 2.16904 9.9776 2.39412 9.77096 2.44578C9.6861 2.46792 9.60861 2.45316 9.55326 2.41257C9.49053 2.36829 9.45732 2.2945 9.45363 2.19856ZM9.84476 3.14317C9.91487 3.29446 10.3429 4.21693 10.4831 4.53426C10.0957 4.60806 9.71193 4.70399 9.33187 4.81838C9.4647 4.36821 9.84476 3.14317 9.84476 3.14317ZM8.80052 4.99918C8.4426 5.12833 8.08838 5.27961 7.74522 5.44935C7.88174 4.88111 8.02196 4.30917 8.16586 3.73355C8.23228 3.86639 8.65662 4.70399 8.80052 4.99918ZM7.77105 2.86643C7.75629 2.63397 7.92233 2.34247 8.11789 2.2576C8.14741 2.24653 8.18062 2.23546 8.21752 2.23546C8.24335 2.23546 8.26918 2.24284 8.29501 2.2576C8.35036 2.29081 8.38357 2.3646 8.39095 2.45685C8.40202 2.68193 8.23966 2.94761 8.03672 3.03616C7.96292 3.06937 7.8965 3.07306 7.85222 3.04354C7.80425 3.01402 7.77474 2.9513 7.77105 2.86643ZM7.75998 8.02489C8.9186 7.42713 10.1842 7.06921 11.472 6.94375C10.8115 8.02489 9.96653 8.51564 8.88539 8.41971C8.83373 8.41602 8.78207 8.43078 8.74518 8.46767C8.70828 8.50088 8.68614 8.55254 8.68614 8.6042C8.68614 8.78501 8.69721 8.96581 8.71197 9.14661C8.65293 9.15768 8.59389 9.16875 8.53485 9.19089C8.28763 9.27945 8.09207 9.46394 7.97768 9.71117C7.85222 9.98422 7.84484 10.3126 7.95554 10.6041C8.06255 10.8956 8.27656 11.1318 8.54223 11.2572C8.40571 11.641 8.14003 12.3974 8.14003 12.6188C8.14003 12.9656 8.42047 13.2461 8.76731 13.2461C9.11416 13.2461 9.3946 12.9656 9.3946 12.6188C9.3946 12.4159 9.1732 11.7591 9.0293 11.3569C9.11416 11.3532 9.19903 11.3384 9.28021 11.3089C9.59016 12.01 10.0071 12.6336 10.4979 13.1132V13.3014C10.4979 13.77 10.1953 14.1722 9.76727 14.2792C9.66765 14.3014 7.54965 14.9471 7.54965 14.9471C7.12163 14.2091 6.90392 13.2793 6.90392 12.1723C6.90023 10.8513 7.2028 9.38277 7.75998 8.02489ZM7.43896 15.3641L9.57171 14.7147C9.66027 14.6888 9.75251 14.6593 9.84476 14.6409C10.4056 14.5043 10.8041 14.0099 10.8521 13.4232C11.3465 13.7996 11.9037 14.0246 12.4941 14.0246C13.0919 14.0246 13.6453 13.8032 14.1398 13.4416C14.1914 14.021 14.59 14.508 15.1508 14.6409C15.1619 14.6445 15.1693 14.6445 15.1803 14.6482L12.1657 19.6222C11.6934 18.8141 10.9333 18.2127 10.0293 17.9433L5.6715 16.6629C6.08846 16.0541 6.70098 15.5855 7.43896 15.3641ZM7.93709 20.648C7.83377 20.648 7.7526 20.7292 7.7526 20.8325V23.6331L5.07743 22.2715V18.5337C5.07743 17.9839 5.21764 17.4562 5.46487 16.9876L9.91856 18.2975C10.7968 18.5558 11.5273 19.172 11.9406 19.9875L9.41304 24.1644L8.12158 23.7955V20.8325C8.12158 20.7329 8.04041 20.648 7.93709 20.648ZM15.5493 14.7516L17.5603 15.3641C17.6341 15.3862 17.7079 15.412 17.7817 15.4416L12.2358 24.6035L9.80417 24.2419L15.5493 14.7516ZM19.9145 22.2752L17.2393 23.6368V20.8362C17.2393 20.7329 17.1581 20.6517 17.0548 20.6517C16.9515 20.6517 16.8703 20.7329 16.8703 20.8362V23.7844L12.697 24.5482L16.7817 17.7994L19.527 16.9913C19.7742 17.4599 19.9145 17.9876 19.9145 18.5374V22.2752Z" fill="#B1B1B3"/>
<path d="M19.7706 16.6777C19.7669 16.6703 19.7632 16.6592 19.7558 16.6518C19.3794 16.0246 18.8223 15.5117 18.147 15.1943C18.147 15.1943 18.147 15.1906 18.1433 15.1906C18.1396 15.187 18.1322 15.187 18.1249 15.1833C18.0215 15.1353 17.9145 15.0947 17.8075 15.0541C18.2429 14.2719 18.4643 13.3014 18.4643 12.1649C18.4643 10.8144 18.1544 9.31635 17.5935 7.92526C17.5935 7.92157 17.5972 7.91788 17.5972 7.91788C17.6157 7.68173 17.6858 6.13198 17.7042 5.86262C17.7116 5.8331 17.7153 5.80358 17.7079 5.77037C17.5234 4.99549 17.3278 4.20955 17.1249 3.41991C17.1987 3.41253 17.2688 3.39408 17.3315 3.35349C17.4828 3.26125 17.5751 3.0952 17.5898 2.88488C17.6157 2.49744 17.3647 2.06203 17.029 1.91444C16.8482 1.83326 16.6563 1.84064 16.505 1.93289C16.3463 2.03252 16.2467 2.20963 16.2356 2.42733C16.2172 2.74466 16.3869 3.07306 16.6452 3.26494C16.5271 3.50109 16.088 4.37928 15.981 4.58961C15.8556 4.17634 15.4312 2.80001 15.4312 2.80001C15.5161 2.78156 15.5936 2.75573 15.6637 2.70407C15.815 2.59338 15.8999 2.41626 15.9109 2.20594C15.9294 1.80374 15.6416 1.39785 15.2726 1.30561C15.0844 1.25764 14.8962 1.29454 14.7486 1.40523C14.59 1.52331 14.4977 1.71519 14.4903 1.9292C14.4793 2.24653 14.6674 2.55279 14.9368 2.71145C14.8261 2.95499 14.3796 3.92912 14.2652 4.18003C14.1435 3.83318 13.7339 2.70776 13.6527 2.48268C13.745 2.45316 13.8335 2.40888 13.9073 2.34247C14.0512 2.21332 14.1324 2.02883 14.1361 1.82219C14.1435 1.40154 13.8298 1.03625 13.435 1.00304C13.2431 0.984588 13.0623 1.05101 12.9221 1.18015C12.7708 1.32037 12.6823 1.51962 12.6823 1.72994C12.6823 2.05096 12.8742 2.3314 13.1509 2.45316C13.0402 2.72621 12.6048 3.74462 12.4978 3.99922C12.3908 3.74462 11.9554 2.72621 11.8447 2.45685C12.1214 2.33509 12.317 2.05465 12.317 1.73363C12.317 1.52331 12.2284 1.32037 12.0771 1.18384C11.9369 1.0547 11.7561 0.991968 11.5679 1.00673C11.1694 1.03994 10.8558 1.40523 10.8632 1.82588C10.8669 2.02883 10.948 2.21332 11.0919 2.34616C11.1657 2.41257 11.2506 2.45685 11.3429 2.48637C11.2617 2.71145 10.8521 3.84056 10.7303 4.18741C10.6159 3.9365 10.1658 2.96606 10.0551 2.72252C10.3244 2.56755 10.5126 2.2576 10.5016 1.93658C10.4942 1.72256 10.4019 1.53069 10.2433 1.41261C10.0957 1.30192 9.90749 1.26502 9.72299 1.31299C9.35032 1.40523 9.06251 1.81112 9.08095 2.21701C9.09202 2.42364 9.17689 2.60076 9.32818 2.71145C9.39828 2.76311 9.47577 2.79263 9.56064 2.80739C9.56064 2.80739 9.1363 4.18741 9.01454 4.59699C8.90753 4.38666 8.46474 3.50847 8.35036 3.27232C8.60865 3.08044 8.77838 2.75204 8.75994 2.43102C8.74887 2.21332 8.64924 2.03252 8.49057 1.93658C8.33929 1.84433 8.14741 1.83695 7.9703 1.91813C7.63083 2.06572 7.37992 2.50482 7.40575 2.89226C7.42051 3.10258 7.51275 3.26863 7.66404 3.36087C7.72677 3.39777 7.79687 3.41622 7.86698 3.42729C7.66773 4.21693 7.47216 5.00287 7.28767 5.78144C7.28029 5.81465 7.28398 5.84786 7.29505 5.88107C7.30981 6.13567 7.37992 7.67435 7.39837 7.92526C7.39837 7.92895 7.40206 7.93264 7.40206 7.93633C6.84119 9.32742 6.53493 10.8255 6.53493 12.176C6.53493 13.3125 6.75633 14.2829 7.19173 15.0652C6.36151 15.353 5.67888 15.9286 5.24347 16.6592C5.23609 16.6666 5.23609 16.674 5.22871 16.6851C4.904 17.2385 4.71582 17.8769 4.71582 18.5448V22.397C4.71582 22.4671 4.75641 22.5298 4.81545 22.563L7.8596 24.1128C7.86698 24.1165 7.88912 24.1239 7.89281 24.1275L9.45363 24.574C9.46101 24.574 9.47577 24.5777 9.47577 24.5777L12.3022 24.9984C12.3096 24.9984 12.3317 25.0021 12.3613 24.9984L17.088 24.1312C17.0991 24.1275 17.1323 24.1165 17.1397 24.1128L20.1838 22.563C20.2465 22.5298 20.2834 22.4671 20.2834 22.397V18.5337C20.2834 17.8695 20.099 17.2312 19.7706 16.6777ZM19.3278 16.6629L17.0659 17.3271L18.1175 15.5892C18.6082 15.8474 19.0215 16.2164 19.3278 16.6629ZM17.4496 14.9434C17.4496 14.9434 15.3353 14.3051 15.2357 14.2792C14.8077 14.1759 14.4977 13.77 14.4977 13.3162V13.1391C15.0032 12.6631 15.4202 12.0284 15.7301 11.3163C15.8076 11.3421 15.8851 11.3532 15.9663 11.3605C15.8224 11.7627 15.601 12.4195 15.601 12.6225C15.601 12.9693 15.8814 13.2498 16.2283 13.2498C16.5751 13.2498 16.8555 12.9693 16.8555 12.6225C16.8555 12.4011 16.5936 11.6447 16.457 11.2609C16.7227 11.1318 16.9367 10.8956 17.0437 10.6078C17.1544 10.3126 17.147 9.98422 17.0216 9.71117C16.9072 9.46394 16.7116 9.27945 16.4644 9.19089C16.4054 9.16875 16.3463 9.15768 16.2873 9.14661C16.3021 8.96581 16.3131 8.78501 16.3131 8.6042C16.3131 8.55254 16.291 8.50457 16.2541 8.46767C16.2172 8.43447 16.1655 8.41602 16.1139 8.41971C14.4128 8.55254 13.2542 7.77029 12.3502 6.89578C14.0365 6.87364 15.7301 7.25001 17.2393 8.02858C17.7928 9.39015 18.099 10.8587 18.099 12.1723C18.0953 13.2756 17.8776 14.2054 17.4496 14.9434ZM14.1804 12.9251C13.6859 13.3752 13.114 13.652 12.4978 13.652C11.8816 13.652 11.3133 13.3752 10.8189 12.9287C10.8115 12.9177 10.8004 12.9103 10.7894 12.9029C9.78203 11.9731 9.10678 10.3237 9.05144 8.79239C10.2506 8.83297 11.1768 8.22783 11.889 6.95851C12.8446 7.93264 14.0697 8.86987 15.9331 8.79239C15.8777 10.3237 15.1988 11.9768 14.1914 12.9066C14.1914 12.914 14.1841 12.9214 14.1804 12.9251ZM8.76362 11.7258C8.90384 12.1428 9.02192 12.5229 9.02192 12.6151C9.02192 12.7553 8.90753 12.8734 8.76362 12.8734C8.61972 12.8734 8.50533 12.759 8.50533 12.6151C8.50902 12.5229 8.62341 12.1428 8.76362 11.7258ZM8.70828 10.9288C8.52378 10.844 8.3725 10.6779 8.2987 10.4713C8.22121 10.2683 8.2249 10.0433 8.30977 9.85876C8.37988 9.70379 8.50533 9.58571 8.65662 9.53036C8.68983 9.51929 8.71935 9.51191 8.75256 9.50453C8.82635 9.99898 8.9555 10.4897 9.13261 10.962C8.99609 11.0026 8.84849 10.9952 8.70828 10.9288ZM7.74522 7.61531C7.73415 7.39023 7.6788 6.15043 7.66404 5.89952C8.63448 5.39031 9.67503 5.04715 10.7451 4.86635C11.6786 4.70399 12.4129 4.64864 14.2542 4.86635C15.3242 5.04715 16.3648 5.39031 17.3352 5.89952C17.3168 6.16888 17.2614 7.40868 17.2504 7.61531C15.7707 6.88471 14.1361 6.51942 12.4978 6.51942C10.8595 6.51942 9.22486 6.88471 7.74522 7.61531ZM16.232 11.7258C16.3722 12.1428 16.4902 12.5229 16.4902 12.6151C16.4902 12.7553 16.3759 12.8734 16.232 12.8734C16.088 12.8734 15.9737 12.759 15.9737 12.6151C15.9737 12.5229 16.088 12.1428 16.232 11.7258ZM16.2873 10.9288C16.1508 10.9916 16.0069 11.0026 15.874 10.9657C16.0475 10.4971 16.1729 10.0027 16.243 9.50822C16.2762 9.5156 16.3058 9.52298 16.339 9.53405C16.4902 9.5894 16.6157 9.70748 16.6858 9.86245C16.7707 10.0469 16.7744 10.2683 16.6969 10.475C16.6231 10.6779 16.4718 10.844 16.2873 10.9288ZM16.7006 2.25391C16.7264 2.23915 16.7522 2.23177 16.7817 2.23177C16.8186 2.23177 16.8555 2.24284 16.8851 2.2576C17.0843 2.34616 17.243 2.63028 17.2282 2.86643C17.2208 2.95499 17.195 3.01771 17.147 3.04354C17.1028 3.06937 17.04 3.06568 16.9662 3.03616C16.7596 2.94761 16.5973 2.67825 16.6083 2.45316C16.6083 2.36092 16.6452 2.28712 16.7006 2.25391ZM16.8297 3.72986C16.9773 4.30548 17.1138 4.87742 17.2504 5.44566C16.9072 5.27592 16.553 5.12464 16.1951 4.99549C16.339 4.70399 16.7596 3.86639 16.8297 3.72986ZM14.97 1.70781C15.0106 1.67829 15.0586 1.65984 15.1102 1.65984C15.1324 1.65984 15.1582 1.66353 15.1803 1.67091C15.3833 1.72256 15.5493 1.96979 15.5419 2.19856C15.5383 2.2945 15.505 2.37198 15.446 2.41626C15.3907 2.45685 15.3169 2.46792 15.232 2.44947C15.0217 2.39781 14.8556 2.17273 14.8593 1.94765C14.863 1.84433 14.9036 1.75946 14.97 1.70781ZM15.1508 3.14317C15.1508 3.14317 15.5309 4.36821 15.6637 4.81838C15.2837 4.70399 14.8999 4.60806 14.5125 4.53426C14.6527 4.21693 15.0807 3.29446 15.1508 3.14317ZM13.1693 1.4532C13.2284 1.39785 13.3022 1.37203 13.376 1.37203C13.3834 1.37203 13.3944 1.37203 13.4018 1.37203C13.6011 1.38679 13.7671 1.59711 13.7634 1.81481C13.7634 1.91813 13.7228 2.00669 13.6564 2.06941C13.5937 2.12845 13.5051 2.15428 13.4166 2.1469C13.2136 2.12845 13.0476 1.94396 13.0476 1.72994C13.0513 1.62663 13.0956 1.52331 13.1693 1.4532ZM13.3871 2.84429C13.4387 2.99189 13.8261 4.05457 13.9664 4.44939C13.5642 4.39404 13.1583 4.36452 12.7487 4.35345C12.8852 4.02505 13.3096 3.02878 13.3871 2.84429ZM11.2285 1.8185C11.2248 1.59711 11.3945 1.39048 11.5938 1.37203C11.6011 1.37203 11.6122 1.37203 11.6196 1.37203C11.7118 1.37203 11.782 1.4163 11.8225 1.4532C11.8963 1.52331 11.9406 1.62294 11.9406 1.73363C11.9406 1.95134 11.782 2.13214 11.5753 2.15059C11.4794 2.15797 11.3982 2.12845 11.3318 2.0731C11.2691 2.01038 11.2322 1.91813 11.2285 1.8185ZM11.6048 2.84429C11.6823 3.02878 12.1104 4.02505 12.2432 4.35345C11.8373 4.36452 11.4314 4.39404 11.0255 4.44939C11.1657 4.05826 11.5495 2.99189 11.6048 2.84429ZM9.45363 2.19856C9.44256 1.97348 9.61599 1.71887 9.81893 1.67091C9.84476 1.66353 9.8669 1.66353 9.88904 1.66353C9.9407 1.66353 9.98498 1.67829 10.0256 1.70781C10.092 1.75946 10.1326 1.84802 10.1363 1.94765C10.1436 2.16904 9.9776 2.39412 9.77096 2.44578C9.6861 2.46792 9.60861 2.45316 9.55326 2.41257C9.49053 2.36829 9.45732 2.2945 9.45363 2.19856ZM9.84476 3.14317C9.91487 3.29446 10.3429 4.21693 10.4831 4.53426C10.0957 4.60806 9.71193 4.70399 9.33187 4.81838C9.4647 4.36821 9.84476 3.14317 9.84476 3.14317ZM8.80052 4.99918C8.4426 5.12833 8.08838 5.27961 7.74522 5.44935C7.88174 4.88111 8.02196 4.30917 8.16586 3.73355C8.23228 3.86639 8.65662 4.70399 8.80052 4.99918ZM7.77105 2.86643C7.75629 2.63397 7.92233 2.34247 8.11789 2.2576C8.14741 2.24653 8.18062 2.23546 8.21752 2.23546C8.24335 2.23546 8.26918 2.24284 8.29501 2.2576C8.35036 2.29081 8.38357 2.3646 8.39095 2.45685C8.40202 2.68193 8.23966 2.94761 8.03672 3.03616C7.96292 3.06937 7.8965 3.07306 7.85222 3.04354C7.80425 3.01402 7.77474 2.9513 7.77105 2.86643ZM7.75998 8.02489C8.9186 7.42713 10.1842 7.06921 11.472 6.94375C10.8115 8.02489 9.96653 8.51564 8.88539 8.41971C8.83373 8.41602 8.78207 8.43078 8.74518 8.46767C8.70828 8.50088 8.68614 8.55254 8.68614 8.6042C8.68614 8.78501 8.69721 8.96581 8.71197 9.14661C8.65293 9.15768 8.59389 9.16875 8.53485 9.19089C8.28763 9.27945 8.09207 9.46394 7.97768 9.71117C7.85222 9.98422 7.84484 10.3126 7.95554 10.6041C8.06255 10.8956 8.27656 11.1318 8.54223 11.2572C8.40571 11.641 8.14003 12.3974 8.14003 12.6188C8.14003 12.9656 8.42047 13.2461 8.76731 13.2461C9.11416 13.2461 9.3946 12.9656 9.3946 12.6188C9.3946 12.4159 9.1732 11.7591 9.0293 11.3569C9.11416 11.3532 9.19903 11.3384 9.28021 11.3089C9.59016 12.01 10.0071 12.6336 10.4979 13.1132V13.3014C10.4979 13.77 10.1953 14.1722 9.76727 14.2792C9.66765 14.3014 7.54965 14.9471 7.54965 14.9471C7.12163 14.2091 6.90392 13.2793 6.90392 12.1723C6.90023 10.8513 7.2028 9.38277 7.75998 8.02489ZM7.43896 15.3641L9.57171 14.7147C9.66027 14.6888 9.75251 14.6593 9.84476 14.6409C10.4056 14.5043 10.8041 14.0099 10.8521 13.4232C11.3465 13.7996 11.9037 14.0246 12.4941 14.0246C13.0919 14.0246 13.6453 13.8032 14.1398 13.4416C14.1914 14.021 14.59 14.508 15.1508 14.6409C15.1619 14.6445 15.1693 14.6445 15.1803 14.6482L12.1657 19.6222C11.6934 18.8141 10.9333 18.2127 10.0293 17.9433L5.6715 16.6629C6.08846 16.0541 6.70098 15.5855 7.43896 15.3641ZM7.93709 20.648C7.83377 20.648 7.7526 20.7292 7.7526 20.8325V23.6331L5.07743 22.2715V18.5337C5.07743 17.9839 5.21764 17.4562 5.46487 16.9876L9.91856 18.2975C10.7968 18.5558 11.5273 19.172 11.9406 19.9875L9.41304 24.1644L8.12158 23.7955V20.8325C8.12158 20.7329 8.04041 20.648 7.93709 20.648ZM15.5493 14.7516L17.5603 15.3641C17.6341 15.3862 17.7079 15.412 17.7817 15.4416L12.2358 24.6035L9.80417 24.2419L15.5493 14.7516ZM19.9145 22.2752L17.2393 23.6368V20.8362C17.2393 20.7329 17.1581 20.6517 17.0548 20.6517C16.9515 20.6517 16.8703 20.7329 16.8703 20.8362V23.7844L12.697 24.5482L16.7817 17.7994L19.527 16.9913C19.7742 17.4599 19.9145 17.9876 19.9145 18.5374V22.2752Z" stroke="#B1B1B3" stroke-width="0.4" mask="url(#path-1-outside-1_7325_8131)"/>
</svg>
