<svg width="25" height="26" viewBox="0 0 25 26" fill="none" xmlns="http://www.w3.org/2000/svg">
<path d="M12.4585 10.2347L12.4585 10.2345C12.4058 9.56136 12.3349 9.28509 12.1127 8.66047L12.4585 10.2347ZM12.4585 10.2347C12.4757 10.4509 12.656 10.6139 12.8686 10.6141L12.4585 10.2347ZM12.9021 10.6131L12.9018 10.6131L12.9021 10.6131ZM12.9021 10.6131C13.1287 10.5951 13.2979 10.3967 13.2799 10.1701L12.9021 10.6131ZM14.7791 1.33517C14.682 1.20755 14.5214 1.12248 14.3513 1.06219C14.1764 1.00016 13.9689 0.956629 13.7544 0.925751C13.325 0.863923 12.8468 0.849977 12.4999 0.85L14.7791 1.33517ZM14.7791 1.33517C14.8748 1.45725 14.9295 1.61945 14.905 1.95209C14.8808 2.27992 14.7782 2.79621 14.5384 3.64911C14.217 4.79226 13.678 6.43128 12.9368 8.52023C13.145 9.11863 13.2241 9.46443 13.2799 10.17L14.7791 1.33517ZM13.6985 3.58941L13.6985 3.5895C13.433 4.51468 13.0311 5.75151 12.5 7.27798C11.9694 5.75156 11.5675 4.51465 11.3014 3.58946C11.0978 2.88089 10.998 2.43624 10.9508 2.1598C10.9232 1.998 10.9142 1.89707 10.9121 1.83675C10.9337 1.82935 10.9611 1.82098 10.9951 1.81204C11.0805 1.78955 11.1953 1.76655 11.3383 1.74593C11.6241 1.70474 12.0161 1.67399 12.4999 1.674C12.9838 1.674 13.3759 1.70474 13.6616 1.74593C13.8047 1.76654 13.9194 1.78954 14.0049 1.81203C14.039 1.82101 14.0665 1.82942 14.0882 1.83685C14.0862 1.89693 14.0772 1.99776 14.0496 2.15977C14.0023 2.43617 13.9024 2.8808 13.6985 3.58941ZM10.4615 3.64912C10.7899 4.81654 11.3452 6.50114 12.1105 8.65446L12.4999 0.85C12.1532 0.85 11.6749 0.863939 11.2455 0.925757C11.031 0.95663 10.8235 1.00015 10.6486 1.06218C10.4786 1.12247 10.3179 1.20754 10.2208 1.33517C10.125 1.45734 10.0706 1.61973 10.0952 1.95233C10.1194 2.28019 10.222 2.79645 10.4615 3.64908L10.4615 3.64912Z" fill="#B1B1B3" stroke="#B1B1B3" stroke-width="0.3"/>
<path d="M8.81413 4.0434L8.77603 4.19504L8.93226 4.18882L8.97036 4.03719L8.81413 4.0434ZM13.1814 9.93232L9.51311 5.69156L13.1392 10.5135C13.1393 10.5134 13.1394 10.5133 13.1395 10.5132C13.3111 10.3645 13.3298 10.1047 13.1816 9.9326L13.1814 9.93232ZM12.5581 10.4714C12.6397 10.5658 12.7544 10.6139 12.8698 10.6139L12.5581 10.4714ZM8.68825 5.99723L12.558 10.4713L8.18269 4.40684L8.03722 4.37026C8.03722 4.37026 8.03721 4.37027 8.03721 4.37027C8.03721 4.37029 8.03721 4.3703 8.0372 4.37031C8.00542 4.49677 8.03567 4.62977 8.11692 4.72999L8.1171 4.73022C8.19928 4.8312 8.32268 4.88714 8.45339 4.88203L8.45341 4.88203L9.06933 4.85785L8.65314 5.50466L8.65308 5.50475C8.55423 5.65862 8.56903 5.85918 8.68817 5.99714L8.68825 5.99723ZM8.45954 2.68819L8.60519 2.724L8.45972 2.68747L8.45964 2.6878C8.45961 2.68793 8.45957 2.68806 8.45954 2.68819ZM8.62035 2.45222L8.62025 2.4523L8.70723 2.57451L8.62043 2.45217C8.6204 2.45219 8.62038 2.45221 8.62035 2.45222ZM10.8833 1.34714L10.7612 1.43426L10.8833 1.34718L10.8833 1.34714ZM9.17693 3.06783L9.22196 3.03578L9.23543 2.98218L9.08995 2.94562L9.17693 3.06783Z" fill="#B1B1B3" stroke="#B1B1B3" stroke-width="0.3"/>
<path d="M15.9107 2.94561L14.3005 1.7999C14.1826 1.71589 14.1547 1.55215 14.2387 1.43425C14.3228 1.31633 14.4865 1.28906 14.6044 1.37258L16.2927 2.57447M15.9107 2.94561L15.7652 2.98209L15.7786 3.03575M15.9107 2.94561L15.8237 3.06783L15.7786 3.03575M15.9107 2.94561L16.1859 4.04339L12.5063 9.76773C12.3345 9.61886 12.3149 9.35889 12.4638 9.18675C12.4638 9.18675 12.4638 9.18675 12.4638 9.18674L15.4869 5.69152L14.8096 4.638L14.8096 4.63795C14.7266 4.50873 14.722 4.34396 14.7985 4.21052M15.7786 3.03575L14.2135 1.92212L14.2135 1.92206C14.0285 1.79024 13.9842 1.53292 14.1166 1.34717L14.1166 1.34714C14.2489 1.16172 14.506 1.11904 14.6911 1.25018L14.6914 1.25038L16.3795 2.45213L16.2927 2.57447M15.7786 3.03575L16.0297 4.03719L15.172 4.00313L15.172 4.00313C15.0181 3.99711 14.8748 4.07716 14.7985 4.21052M16.2927 2.57447L16.3797 2.45228L16.3797 2.45225L16.1983 5.89912C16.2747 5.81124 16.2834 5.68348 16.2206 5.58579L15.7478 4.85065L15.9308 4.85783M16.2927 2.57447C16.3435 2.61045 16.38 2.664 16.3953 2.72404L16.8173 4.40681C16.8375 4.487 16.8183 4.57166 16.7665 4.63552M16.7665 4.63552C16.7147 4.6999 16.6366 4.73541 16.5525 4.73213L15.8317 4.70383L15.9308 4.85783M16.7665 4.63552L16.8829 4.73007C16.883 4.72998 16.8831 4.7299 16.8831 4.72981M16.7665 4.63552L16.8834 4.7295C16.8833 4.7296 16.8832 4.72971 16.8831 4.72981M15.9308 4.85783L16.3468 5.50464L16.3468 5.50471C16.4454 5.65803 16.4319 5.85887 16.3116 5.9974L16.9627 4.37005C16.9627 4.3701 16.9627 4.37015 16.9627 4.3702C16.9946 4.49669 16.9643 4.62973 16.8831 4.72981M15.9308 4.85783L16.5466 4.88201L16.5467 4.88201C16.6775 4.88712 16.8012 4.83146 16.8831 4.72981M14.7985 4.21052C14.7985 4.21059 14.7985 4.21066 14.7984 4.21073L14.9287 4.2851L14.7986 4.2104C14.7986 4.21044 14.7986 4.21048 14.7985 4.21052Z" fill="#B1B1B3" stroke="#B1B1B3" stroke-width="0.3"/>
<path d="M8.56238 13.7342C8.94669 12.5034 8.54455 11.178 7.47598 10.0072L7.47596 10.0072C7.32215 9.83879 7.06157 9.82796 6.89373 9.98042L6.89373 9.98041L6.89315 9.98095C6.72617 10.1342 6.71371 10.3947 6.86738 10.5626C7.75718 11.5381 8.06132 12.5755 7.77603 13.4887L7.77603 13.4887C6.54949 17.4165 6.65724 22.1307 6.69767 23.8996L6.69779 23.9045L6.84776 23.9014L6.69779 23.9048L6.69779 23.9047C6.7013 24.0699 6.80314 24.2157 6.95514 24.2773L6.95538 24.2774C8.32224 24.8288 9.27868 25.149 10.2407 25.149C11.2094 25.1491 12.1652 24.8248 13.536 24.1331M8.56238 13.7342L8.41947 13.6896L8.56238 13.7342ZM8.56238 13.7342C7.43456 17.347 7.4746 21.6965 7.51572 23.6138C8.70151 24.0848 9.48561 24.331 10.2546 24.3283C11.0224 24.3257 11.792 24.0744 12.9459 23.5066C12.9699 22.7499 13.0103 21.9455 13.0527 21.1006L13.053 21.0949L13.053 21.0949C13.238 17.4221 13.4433 13.3016 12.4772 10.33L12.4772 10.3299C12.4069 10.1137 12.5252 9.8811 12.7416 9.81072M12.7416 9.81072L12.788 9.95336L12.7415 9.81073C12.7416 9.81072 12.7416 9.81072 12.7416 9.81072ZM12.7416 9.81072C12.958 9.74028 13.1905 9.8588 13.2608 10.0751L13.2608 10.0751C14.2756 13.198 14.0629 17.4238 13.877 21.1192L13.8761 21.1366L13.8761 21.1367L13.8726 21.2054C13.827 22.1169 13.7839 22.9768 13.7621 23.7767L13.6122 23.7726M13.6122 23.7726L13.7621 23.7758C13.7589 23.9274 13.6718 24.0651 13.536 24.1331M13.6122 23.7726C13.6101 23.8686 13.5549 23.956 13.4686 23.9991M13.6122 23.7726C13.634 22.9709 13.6772 22.1096 13.7228 21.1987L13.7263 21.1291C13.9129 17.4203 14.1242 13.2173 13.1182 10.1215L7.0115 24.1383C8.37935 24.6901 9.31111 24.999 10.2407 24.999C11.1734 24.9991 12.1036 24.6879 13.4686 23.9991M13.536 24.1331C13.5359 24.1332 13.5358 24.1332 13.5357 24.1333L13.4686 23.9991M13.536 24.1331C13.536 24.1331 13.5361 24.133 13.5362 24.133L13.4686 23.9991M13.3507 23.7654H13.3513" fill="#B1B1B3" stroke="#B1B1B3" stroke-width="0.3"/>
<path d="M6.5774 5.19672C6.49659 5.19672 6.41632 5.15909 6.36501 5.08813C6.28044 4.97075 6.30662 4.80702 6.42396 4.72243M6.5774 5.19672L6.57731 5.34672M6.5774 5.19672V5.34672C6.57737 5.34672 6.57734 5.34672 6.57731 5.34672M6.5774 5.19672L6.57731 5.34672M6.57731 5.34672C6.45045 5.34669 6.32413 5.28759 6.24346 5.17603L6.24331 5.17582C6.11063 4.99165 6.15133 4.73425 6.336 4.60093M6.57731 5.34672C6.66178 5.34677 6.74602 5.32071 6.81816 5.26894L6.81862 5.26862C6.88312 5.22197 6.95885 5.16481 7.04347 5.10093C7.06188 5.08704 7.0807 5.07284 7.09992 5.05835L7.1001 5.05821L7.10225 5.05659C7.52566 4.73644 8.15671 4.2593 8.88076 3.85863L8.88101 3.85849C9.08022 3.74775 9.15116 3.49716 9.04155 3.2985M6.57731 5.34672L8.91021 3.37096M6.336 4.60093C6.33592 4.60099 6.33584 4.60105 6.33576 4.60111L6.42396 4.72243M6.336 4.60093C6.33609 4.60087 6.33617 4.60081 6.33625 4.60075L6.42396 4.72243M6.336 4.60093C6.4067 4.54953 6.49692 4.48131 6.60254 4.4014L6.60254 4.40139L6.60592 4.39883C7.04076 4.06985 7.70475 3.5675 8.4817 3.13764C8.68048 3.027 8.9317 3.0994 9.04155 3.2985M6.42396 4.72243L9.04155 3.2985M9.04155 3.2985L8.91021 3.37096M8.91021 3.37096C8.84034 3.24432 8.68042 3.19846 8.55432 3.26889C7.78673 3.69357 7.12969 4.19066 6.69463 4.51981L8.91021 3.37096ZM8.91021 3.37096C8.98007 3.49757 8.93477 3.65698 8.80813 3.72738L8.91021 3.37096Z" fill="#B1B1B3" stroke="#B1B1B3" stroke-width="0.3"/>
<path d="M2.17352 19.0975C2.79468 19.3753 3.46616 19.5155 4.14125 19.5155L4.14123 19.6655C3.44542 19.6655 2.75304 19.521 2.11227 19.2344L2.11196 19.2343C1.94216 19.1579 1.84451 18.977 1.87366 18.7929L1.87372 18.7926C2.56859 14.4736 3.13986 11.2516 3.80693 8.9517C4.47189 6.65902 5.24293 5.23997 6.36872 4.57958M2.17352 19.0975L4.14125 19.6655C4.59139 19.6656 5.04334 19.6048 5.48281 19.4821L5.48285 19.4821C5.65179 19.4349 5.77296 19.2857 5.78327 19.1096C5.87781 17.5101 6.31573 15.7046 6.82799 13.5927L6.82838 13.5911L6.82839 13.591L6.84463 13.524C7.08845 12.5178 7.34121 11.4747 7.57495 10.3702L7.57501 10.3702L7.57579 10.366C7.57879 10.3494 7.58115 10.332 7.58261 10.3144L7.58263 10.3144L7.5828 10.3119C7.68051 8.83308 7.71828 7.64279 7.62739 6.71551C7.53674 5.79068 7.31592 5.1 6.87161 4.64655L6.87156 4.64649C6.73969 4.51204 6.53224 4.48336 6.36872 4.57958M2.17352 19.0975C2.06549 19.0489 2.00323 18.9337 2.02181 18.8164L2.17352 19.0975ZM6.36872 4.57958L6.44462 4.70896L6.36844 4.57974C6.36853 4.57969 6.36863 4.57963 6.36872 4.57958ZM4.98237 18.7559C4.23379 18.9099 3.45535 18.8552 2.73975 18.5989C3.38146 14.6251 3.91207 11.6392 4.50322 9.4852C5.0724 7.4113 5.6891 6.14495 6.48227 5.50144C6.67596 5.86237 6.78746 6.40645 6.83126 7.14013C6.88041 7.96328 6.84343 8.99863 6.76234 10.2285C6.53044 11.3215 6.27962 12.3567 6.03626 13.3611L6.02757 13.397L6.02756 13.397L6.02674 13.4004C5.54148 15.4 5.11468 17.1587 4.98237 18.7559Z" fill="#B1B1B3" stroke="#B1B1B3" stroke-width="0.3"/>
<path d="M16.1929 3.72738C16.9268 4.13384 17.5656 4.61694 17.9885 4.93681L17.9908 4.93857C18.009 4.95224 18.0267 4.96561 18.044 4.97865C18.1302 5.04372 18.2057 5.10071 18.2698 5.14707C18.3162 5.18038 18.3697 5.19672 18.4232 5.19672C18.5045 5.19675 18.5842 5.15908 18.6355 5.08814C18.7206 4.97078 18.694 4.80698 18.5771 4.72243C18.5209 4.68192 18.4537 4.63126 18.3772 4.57357C18.3547 4.55663 18.3315 4.53909 18.3074 4.52102L16.1929 3.72738ZM16.1929 3.72738L16.1929 3.72739L16.1929 3.72738ZM16.1929 3.72738C16.0663 3.65699 16.0204 3.49759 16.0903 3.37097M16.1929 3.72738L16.0903 3.37097M18.7569 5.17622C18.8909 4.99156 18.8489 4.7339 18.665 4.60089L18.6649 4.60081C18.6101 4.56129 18.5447 4.51195 18.4684 4.45449C18.4458 4.4374 18.4222 4.4196 18.3976 4.40113L18.3945 4.39878C17.9597 4.06981 17.2958 3.56752 16.5195 3.13772M18.7569 5.17622L18.6355 5.08816L18.757 5.17604C18.757 5.1761 18.7569 5.17616 18.7569 5.17622ZM18.7569 5.17622C18.6764 5.28745 18.5508 5.34675 18.4232 5.34672V5.19703L18.4231 5.34672C18.3389 5.34671 18.2546 5.32086 18.1823 5.26891L18.1818 5.26858C18.1165 5.22126 18.0395 5.16315 17.9532 5.0981C17.936 5.08512 17.9185 5.07186 17.9006 5.05835L17.9004 5.05821L17.9 5.05792C17.4767 4.73777 16.8448 4.2599 16.1202 3.8586L16.12 3.85848C15.9213 3.74801 15.8491 3.49767 15.9589 3.29851L15.9592 3.29806L15.9592 3.29806C16.0697 3.09935 16.3201 3.02698 16.5195 3.13772M16.5195 3.13772C16.5195 3.13775 16.5196 3.13777 16.5196 3.1378L16.4467 3.2689M16.5195 3.13772C16.5194 3.1377 16.5194 3.13768 16.5194 3.13766L16.4467 3.2689M16.4467 3.2689C16.3201 3.19848 16.1607 3.24428 16.0903 3.37097M16.4467 3.2689L16.0903 3.37097" fill="#B1B1B3" stroke="#B1B1B3" stroke-width="0.3"/>
<path d="M17.572 10.3392L17.4253 10.3702C17.6643 11.4993 17.9225 12.564 18.1718 13.591C18.1719 13.5911 18.1719 13.5911 18.1719 13.5911L18.175 13.6039C18.6855 15.7111 19.1221 17.5129 19.2164 19.1096C19.2268 19.2857 19.348 19.4349 19.5168 19.4821L19.5169 19.4822C19.957 19.6048 20.4083 19.6656 20.859 19.6656C21.5545 19.6656 22.2473 19.5204 22.8874 19.2344L22.8876 19.2343C23.0575 19.158 23.1553 18.977 23.126 18.7929L23.126 18.7926C22.4312 14.4736 21.8599 11.2515 21.1928 8.95151C20.5279 6.65887 19.7568 5.23981 18.6311 4.57966M17.572 10.3392L17.4255 10.3712C17.4212 10.3517 17.4187 10.3326 17.4171 10.3151L17.4169 10.3119L17.4169 10.3119C17.3192 8.83306 17.2816 7.64278 17.3725 6.71551C17.4633 5.7907 17.6841 5.10005 18.128 4.6466L18.1285 4.64611L18.1285 4.64611C18.2608 4.51223 18.4673 4.48323 18.6311 4.57966M17.572 10.3392C17.5694 10.3271 17.5677 10.3146 17.5666 10.302M17.572 10.3392C17.8106 11.4657 18.0683 12.5285 18.3176 13.5557L18.3234 13.5795C18.8318 15.6779 19.2711 17.4906 19.3662 19.1008L17.5666 10.302M18.6311 4.57966C18.6311 4.57969 18.6312 4.57972 18.6312 4.57975L18.5551 4.70897M18.6311 4.57966C18.631 4.57963 18.631 4.5796 18.6309 4.57957L18.5551 4.70897M18.5551 4.70897C18.4514 4.64784 18.3199 4.6658 18.2352 4.75153M18.5551 4.70897C20.698 5.96545 21.5877 10.1749 22.9779 18.8164L18.2352 4.75153M18.2352 4.75153C17.4197 5.58447 17.3712 7.34474 17.5666 10.302M18.2352 4.75153L17.5666 10.302M20.859 19.5156C20.4218 19.5156 19.984 19.4566 19.5572 19.3377L22.8262 19.0975C22.2056 19.3748 21.5337 19.5156 20.859 19.5156ZM22.2601 18.599C21.5444 18.8552 20.7664 18.9099 20.0173 18.7559C19.885 17.1578 19.4578 15.398 18.9721 13.397C18.9721 13.397 18.9721 13.397 18.9721 13.397L18.9619 13.3548C18.7191 12.3524 18.4688 11.3192 18.2373 10.2285C18.1566 8.99866 18.1197 7.96329 18.1689 7.14013C18.2127 6.40649 18.324 5.86241 18.5175 5.50148C19.3109 6.14499 19.9276 7.41132 20.4967 9.4852C21.0878 11.6392 21.6183 14.6251 22.2601 18.599Z" fill="#B1B1B3" stroke="#B1B1B3" stroke-width="0.3"/>
<path d="M12.1208 24.0018L12.121 24.0013C12.2101 23.7923 12.4517 23.6942 12.6608 23.7828L12.1208 24.0018ZM12.1208 24.0018C12.0325 24.211 12.1301 24.4529 12.3396 24.5415L12.1208 24.0018ZM16.4377 13.7341L16.4376 13.7341C16.0534 12.5033 16.4556 11.1778 17.5246 10.0071C17.6784 9.83861 17.9385 9.8279 18.1063 9.98029L18.1066 9.98054C18.2749 10.1342 18.286 10.395 18.1332 10.5625C17.2429 11.5379 16.9393 12.5748 17.2245 13.4886C18.4506 17.415 18.3429 22.1261 18.3024 23.8969L18.3022 23.9043L16.4377 13.7341ZM16.4377 13.7341C17.5661 17.3469 17.5261 21.6964 17.4848 23.6142M16.4377 13.7341L17.4848 23.6142M17.4848 23.6142C16.3886 24.0498 15.6631 24.2865 14.9835 24.3241C14.2911 24.3623 13.6319 24.1942 12.6608 23.7828L17.4848 23.6142Z" fill="#B1B1B3" stroke="#B1B1B3" stroke-width="0.3"/>
<path d="M12.3945 11.9012C12.3945 12.0458 12.2771 12.1632 12.1326 12.1631H11.6986C11.5539 12.1631 11.4365 12.0458 11.4365 11.9012C11.4366 11.7565 11.5539 11.6392 11.6985 11.6392H12.1326C12.2771 11.6392 12.3945 11.7565 12.3945 11.9012ZM12.3945 11.9012H12.5445M12.3945 11.9012L12.5445 11.9011C12.5445 11.9011 12.5445 11.9011 12.5445 11.9012M12.5445 11.9012C12.5445 12.1287 12.3599 12.3132 12.1326 12.3131V12.1634L12.1326 12.3131H11.6986C11.4711 12.3131 11.2865 12.1287 11.2865 11.9012V11.9011C11.2866 11.6737 11.4709 11.4892 11.6985 11.4892H12.1326C12.36 11.4892 12.5445 11.6737 12.5445 11.9012Z" fill="#B1B1B3" stroke="#B1B1B3" stroke-width="0.3"/>
<path d="M11.6186 14.2264V14.2263C11.6186 13.9991 11.8023 13.8144 12.0305 13.8144C12.0305 13.8144 12.0305 13.8144 12.0305 13.8144L12.4646 13.8144H12.4646C12.6922 13.8144 12.8765 13.999 12.8765 14.2263L11.6186 14.2264ZM11.6186 14.2264C11.6186 14.4537 11.8024 14.6384 12.0306 14.6384H12.4646M11.6186 14.2264L12.4646 14.6384M12.4646 14.6384C12.6919 14.6384 12.8765 14.4539 12.8765 14.2264L12.4646 14.6384Z" fill="#B1B1B3" stroke="#B1B1B3" stroke-width="0.3"/>
<path d="M11.8148 16.5516V16.5515C11.8149 16.3245 11.9984 16.1396 12.2263 16.1396C12.2263 16.1396 12.2263 16.1396 12.2263 16.1396L12.6609 16.1396H12.6609C12.8887 16.1396 13.0722 16.3245 13.0722 16.5514L11.8148 16.5516ZM11.8148 16.5516C11.8148 16.7787 11.9985 16.9635 12.2264 16.9635L12.6608 16.9635L11.8148 16.5516Z" fill="#B1B1B3" stroke="#B1B1B3" stroke-width="0.3"/>
<path d="M11.6186 18.8768V18.8767C11.6186 18.6495 11.8023 18.4648 12.0305 18.4648C12.0305 18.4648 12.0305 18.4648 12.0305 18.4648L12.4646 18.4647H12.4646C12.6921 18.4647 12.8765 18.6493 12.8765 18.8767L11.6186 18.8768ZM11.6186 18.8768C11.6186 19.1041 11.8024 19.2887 12.0306 19.2887H12.4646M11.6186 18.8768L12.4646 19.2887M12.4646 19.2887C12.4646 19.2887 12.4646 19.2887 12.4646 19.2887M12.4646 19.2887H12.4646M12.4646 19.2887C12.692 19.2887 12.8765 19.1043 12.8765 18.8768L12.4646 19.2887Z" fill="#B1B1B3" stroke="#B1B1B3" stroke-width="0.3"/>
<path d="M11.6186 21.2019V21.2019C11.6186 20.9742 11.8027 20.7905 12.0305 20.7905C12.0305 20.7905 12.0305 20.7905 12.0305 20.7905L12.4646 20.7904H12.4646C12.6918 20.7904 12.8765 20.9741 12.8765 21.2019L11.6186 21.2019ZM11.6186 21.2019C11.6186 21.43 11.8026 21.6139 12.0306 21.6139H12.4646M11.6186 21.2019L12.4646 21.6139M12.4646 21.6139C12.6918 21.6139 12.8765 21.4301 12.8765 21.2019L12.4646 21.6139Z" fill="#B1B1B3" stroke="#B1B1B3" stroke-width="0.3"/>
</svg>
