<svg width="25" height="26" viewBox="0 0 25 26" fill="none" xmlns="http://www.w3.org/2000/svg">
<path d="M5.79007 10.1539L5.78983 10.2539C5.85307 10.2541 5.91569 10.2414 5.97393 10.2168C6.03138 10.1927 6.08353 10.1575 6.12739 10.1133C6.17131 10.069 6.20607 10.0164 6.22968 9.95871C6.25329 9.90098 6.26529 9.83916 6.265 9.77678C6.2647 9.71441 6.25212 9.6527 6.22797 9.59519L6.22797 9.59518C5.60435 8.11077 4.98329 6.62613 4.3648 5.14124L4.36471 5.14103C4.31607 5.02501 4.22339 4.93302 4.10701 4.88526C3.99062 4.8375 3.86005 4.83787 3.74393 4.88628C3.62782 4.93469 3.53565 5.0272 3.48767 5.14349C3.43968 5.25978 3.43979 5.39036 3.48798 5.50657L3.48807 5.50678C4.10784 6.99194 4.7292 8.47722 5.35214 9.96262C5.38829 10.0489 5.44914 10.1226 5.52705 10.1745C5.60498 10.2263 5.6965 10.254 5.7901 10.2539L5.79007 10.1539ZM5.79007 10.1539C5.71619 10.154 5.64395 10.1321 5.58244 10.0912C5.52093 10.0503 5.47289 9.9921 5.44436 9.92395M5.79007 10.1539C5.83989 10.154 5.88922 10.1441 5.93509 10.1246C5.9805 10.1056 6.02171 10.0778 6.05638 10.0428C6.09105 10.0079 6.11848 9.96643 6.13712 9.92086C6.15576 9.87528 6.16523 9.82649 6.165 9.77725C6.16477 9.72801 6.15484 9.67931 6.13577 9.63391C5.51212 8.14941 4.89102 6.66467 4.27249 5.17969L5.44436 9.92395M5.44436 9.92395C4.82144 8.4386 4.2001 6.95337 3.58035 5.46826L5.44436 9.92395Z" fill="#B1B1B3" stroke="#B1B1B3" stroke-width="0.2"/>
<path d="M4.19004 12.4939V12.4936C4.19358 11.3501 4.64772 10.2541 5.454 9.44317L5.45484 9.44233L5.45485 9.44233C5.54419 9.35459 5.66457 9.30569 5.78979 9.30625C5.91501 9.30682 6.03494 9.35682 6.12348 9.44536C6.21203 9.53391 6.26202 9.65384 6.26259 9.77906C6.26316 9.90428 6.21425 10.0247 6.12651 10.114L6.12608 10.1144C5.4971 10.747 5.14282 11.602 5.14004 12.494V21.7787V21.7788H5.04004C5.04007 21.8281 5.03039 21.8768 5.01155 21.9223C4.99272 21.9678 4.96509 22.0092 4.93027 22.044C4.89544 22.0789 4.85409 22.1065 4.80858 22.1253C4.76307 22.1441 4.71429 22.1538 4.66504 22.1538L4.19004 12.4939ZM4.19004 12.4939V21.7788V12.4939Z" fill="#B1B1B3" stroke="#B1B1B3" stroke-width="0.2"/>
<path d="M2.2681 5.9807L2.26822 5.98058C2.60837 5.66126 2.97523 5.37166 3.3648 5.11494C4.33415 4.47326 5.42644 4.04034 6.57219 3.84373L6.57311 3.84357L6.57311 3.84357L6.92577 3.78644L6.92585 3.78643C7.05022 3.76638 7.17747 3.79655 7.2796 3.87032C7.38173 3.94409 7.45037 4.05541 7.47042 4.17978C7.49047 4.30416 7.4603 4.43141 7.38653 4.53354C7.31277 4.63565 7.20146 4.70429 7.0771 4.72435C7.07709 4.72435 7.07708 4.72436 7.07706 4.72436L6.7291 4.78058C6.72894 4.78061 6.72878 4.78064 6.72861 4.78067C5.71443 4.95505 4.74763 5.33859 3.8897 5.90688L3.88947 5.90703C3.54532 6.13359 3.22125 6.38927 2.92082 6.67124C2.43775 7.12579 2.05159 7.67334 1.78557 8.28097L1.78553 8.28105C1.52437 8.87615 1.38969 9.51901 1.39004 10.1689V10.1689V21.3039H4.66504C4.79102 21.3039 4.91183 21.354 5.00091 21.4431C5.08999 21.5321 5.14004 21.653 5.14004 21.7789C5.14004 21.9049 5.08999 22.0257 5.00091 22.1148C4.91183 22.2039 4.79102 22.2539 4.66504 22.2539H0.915098H0.915041V22.1539L2.2681 5.9807ZM2.2681 5.9807C1.69227 6.52311 1.23203 7.17632 0.91503 7.90109L2.2681 5.9807ZM0.440041 10.169C0.439405 9.38832 0.60115 8.616 0.915001 7.90115L0.440041 10.169ZM0.440041 10.169L0.440041 21.7789L0.440041 10.169Z" fill="#B1B1B3" stroke="#B1B1B3" stroke-width="0.2"/>
<path d="M5.7901 25.2538C5.7277 25.2538 5.66591 25.2416 5.60826 25.2177C5.55061 25.1938 5.49822 25.1589 5.4541 25.1147C5.40998 25.0706 5.37499 25.0182 5.35113 24.9606C5.32727 24.9029 5.31501 24.8412 5.31504 24.7788V9.77881C5.31504 9.65283 5.36508 9.53201 5.45416 9.44293C5.54324 9.35385 5.66406 9.30381 5.79004 9.30381C5.91602 9.30381 6.03683 9.35385 6.12591 9.44293C6.21499 9.53201 6.26504 9.65283 6.26504 9.77881V24.3038H18.815V9.77881C18.815 9.65283 18.8651 9.53201 18.9542 9.44293C19.0432 9.35385 19.1641 9.30381 19.29 9.30381C19.416 9.30381 19.5368 9.35385 19.6259 9.44293C19.715 9.53201 19.765 9.65283 19.765 9.77881V24.7787L5.7901 25.2538ZM5.7901 25.2538H19.29M5.7901 25.2538H19.29M19.29 25.2538H19.29V25.1538L19.29 25.2538Z" fill="#B1B1B3" stroke="#B1B1B3" stroke-width="0.2"/>
<path d="M12.548 14.7538C12.6739 14.7537 12.7946 14.7037 12.8836 14.6147C12.9727 14.5256 13.0227 14.4048 13.0227 14.2788C13.0227 14.1528 12.9727 14.032 12.8836 13.9429C12.7945 13.8539 12.6737 13.8038 12.5477 13.8038H12.5441V13.8038L12.5436 13.8038C12.4176 13.8044 12.297 13.8551 12.2084 13.9446C12.1197 14.0341 12.0703 14.1551 12.0709 14.2811C12.0715 14.4071 12.1222 14.5277 12.2117 14.6163C12.3011 14.7049 12.4221 14.7544 12.548 14.7538ZM12.548 14.7538C12.5479 14.7538 12.5478 14.7538 12.5477 14.7538V14.6538L12.5482 14.7538C12.5481 14.7538 12.5481 14.7538 12.548 14.7538Z" fill="#B1B1B3" stroke="#B1B1B3" stroke-width="0.2"/>
<path d="M12.5431 18.5058C12.669 18.5057 12.7897 18.4557 12.8787 18.3666C12.9678 18.2776 13.0179 18.1567 13.0179 18.0308C13.0179 17.9048 12.9678 17.784 12.8787 17.6949C12.7896 17.6058 12.6688 17.5558 12.5429 17.5558H12.5392V17.5558L12.5387 17.5558C12.4127 17.5564 12.2921 17.607 12.2035 17.6965C12.1149 17.786 12.0654 17.9071 12.066 18.0331C12.0666 18.1591 12.1173 18.2796 12.2068 18.3683C12.2962 18.4569 12.4172 18.5063 12.5431 18.5058ZM12.5431 18.5058C12.543 18.5058 12.5429 18.5058 12.5429 18.5058V18.4058L12.5433 18.5058C12.5433 18.5058 12.5432 18.5058 12.5431 18.5058Z" fill="#B1B1B3" stroke="#B1B1B3" stroke-width="0.2"/>
<path d="M12.548 22.2538C12.6739 22.2537 12.7946 22.2037 12.8836 22.1147C12.9727 22.0256 13.0227 21.9048 13.0227 21.7788C13.0227 21.6528 12.9727 21.532 12.8836 21.4429C12.7945 21.3539 12.6737 21.3038 12.5477 21.3038H12.5441V21.3038L12.5436 21.3038C12.4176 21.3044 12.297 21.3551 12.2084 21.4446C12.1197 21.5341 12.0703 21.6551 12.0709 21.7811C12.0715 21.9071 12.1222 22.0277 12.2117 22.1163C12.3011 22.2049 12.4221 22.2544 12.548 22.2538ZM12.548 22.2538C12.5479 22.2538 12.5478 22.2538 12.5477 22.2538V22.1538L12.5482 22.2538C12.5481 22.2538 12.5481 22.2538 12.548 22.2538Z" fill="#B1B1B3" stroke="#B1B1B3" stroke-width="0.2"/>
<path d="M19.2896 10.2538H19.2896C19.2085 10.2538 19.1287 10.2329 19.058 10.1933C18.9872 10.1537 18.9277 10.0966 18.8853 10.0275C18.8428 9.95838 18.8187 9.87954 18.8154 9.79849C18.812 9.71746 18.8295 9.63692 18.8661 9.56455L19.2896 10.2538ZM19.2896 10.2538C19.3776 10.2539 19.4638 10.2295 19.5387 10.1835C19.6136 10.1375 19.6743 10.0716 19.714 9.99318L19.714 9.99316C20.1472 9.137 20.5808 8.28157 21.0147 7.42688L21.0147 7.42683L21.8772 5.72617C21.9297 5.62252 21.9425 5.50319 21.913 5.39077C21.8835 5.27835 21.8138 5.18064 21.7171 5.11616L21.7169 5.11598C20.7467 4.47348 19.6533 4.04002 18.5064 3.84323L18.5064 3.84323L18.506 3.84316L18.1233 3.77908L18.1233 3.77907C17.9991 3.75828 17.8717 3.7877 17.7691 3.86086C17.6665 3.93402 17.5972 4.04493 17.5764 4.16918C17.5556 4.29344 17.5851 4.42086 17.6582 4.52342C17.7314 4.62599 17.8423 4.69529 17.9665 4.71608L17.9666 4.71608M19.2896 10.2538L17.9666 4.71608M17.9666 4.71608L18.3476 4.77976C19.2238 4.93047 20.0657 5.23685 20.8335 5.68414L20.1673 6.99681M17.9666 4.71608L20.1673 6.99681M20.1673 6.99681L20.1673 6.99688C19.7327 7.85165 19.299 8.70753 18.8661 9.5645L20.1673 6.99681Z" fill="#B1B1B3" stroke="#B1B1B3" stroke-width="0.2"/>
<path d="M18.9535 10.1139L18.9535 10.1139C18.8656 10.0246 18.8165 9.9042 18.817 9.77887C18.8175 9.65355 18.8675 9.5335 18.9561 9.44488C19.0447 9.35626 19.1648 9.30626 19.2901 9.30577C19.4154 9.30528 19.5359 9.35434 19.6252 9.44226L19.6259 9.44301L19.6259 9.44301C20.4322 10.2539 20.8863 11.3499 20.8899 12.4934L20.8899 12.4937L20.8899 21.7786V21.7786L18.9535 10.1139ZM18.9535 10.1139L18.9538 10.1143C19.5828 10.7469 19.9371 11.6019 19.9399 12.4939V21.7786V21.7786H20.0399L18.9535 10.1139Z" fill="#B1B1B3" stroke="#B1B1B3" stroke-width="0.2"/>
<path d="M23.69 21.3038H20.415C20.2891 21.3038 20.1682 21.3538 20.0792 21.4429C19.9901 21.532 19.94 21.6528 19.94 21.7788C19.94 21.9048 19.9901 22.0256 20.0792 22.1147C20.1682 22.2037 20.2891 22.2538 20.415 22.2538H24.165L23.69 21.3038ZM23.69 21.3038V10.1688V10.1687C23.6903 9.51849 23.5556 8.87526 23.2945 8.27974C23.0282 7.67263 22.6418 7.12569 22.1586 6.67185L22.1585 6.67176C21.8584 6.38921 21.5348 6.13277 21.1911 5.90524C21.139 5.8709 21.0942 5.82662 21.0592 5.77493C21.0241 5.72316 20.9996 5.66498 20.9871 5.60373C20.9746 5.54247 20.9743 5.47935 20.9862 5.41798C20.9982 5.35661 21.0221 5.29821 21.0567 5.24611C21.0913 5.19402 21.1358 5.14926 21.1877 5.11441C21.2396 5.07956 21.2979 5.05531 21.3592 5.04303C21.4205 5.03076 21.4836 5.03071 21.5449 5.04289C21.6061 5.05505 21.6644 5.07916 21.7163 5.11384C22.1056 5.37114 22.4719 5.6616 22.8112 5.98197C23.3873 6.52341 23.848 7.1758 24.1654 7.89989L24.1654 7.8999C24.4789 8.61524 24.6405 9.38784 24.64 10.1688M23.69 21.3038L24.64 10.1688M24.64 21.7787V21.7788H24.5417L24.64 21.7787ZM24.64 21.7787V10.1688M24.64 21.7787V10.1688" fill="#B1B1B3" stroke="#B1B1B3" stroke-width="0.2"/>
<path d="M17.665 4.53246L17.665 4.53252L18.0457 4.6227L18.0457 4.7227C18.0457 4.7227 18.0458 4.7227 18.0458 4.7227C18.134 4.72266 18.2204 4.69809 18.2953 4.65174C18.3703 4.60536 18.431 4.53903 18.4704 4.46015C18.5098 4.38127 18.5265 4.29298 18.5186 4.20515C18.5107 4.11732 18.4785 4.03343 18.4256 3.96287C18.1393 3.58071 17.8402 3.14522 17.5495 2.72185L17.5495 2.72185C17.2553 2.29337 16.9494 1.84817 16.651 1.44928L16.651 1.44925C16.5755 1.34837 16.463 1.28164 16.3382 1.26372C16.2135 1.2458 16.0867 1.27816 15.9859 1.35369C15.885 1.42922 15.8183 1.54173 15.8003 1.66647C15.7824 1.79121 15.8148 1.91795 15.8903 2.01882L15.8903 2.01885C16.1767 2.40104 16.4758 2.83651 16.7665 3.25987C17.0607 3.68837 17.3665 4.13357 17.665 4.53246Z" fill="#B1B1B3" stroke="#B1B1B3" stroke-width="0.2"/>
<path d="M8.4309 1.44634L8.43093 1.4463C8.4687 1.39665 8.51588 1.35493 8.56977 1.32352C8.62366 1.2921 8.68321 1.27161 8.74502 1.26321C8.80683 1.25481 8.86969 1.25867 8.93001 1.27456C8.99033 1.29046 9.04693 1.31808 9.09658 1.35584C9.14622 1.39361 9.18794 1.44079 9.21936 1.49468C9.25077 1.54857 9.27127 1.60812 9.27966 1.66993C9.28806 1.73174 9.28421 1.7946 9.26831 1.85492C9.25242 1.91524 9.2248 1.97184 9.18704 2.02149C8.89588 2.40425 8.59207 2.83966 8.29657 3.26317L8.29446 3.26619L8.4309 1.44634ZM8.4309 1.44634C8.12696 1.84631 7.81524 2.29297 7.51555 2.72293L8.4309 1.44634ZM7.00054 4.73027C6.91209 4.73019 6.82541 4.70541 6.75028 4.65873C6.67515 4.61204 6.61454 4.5453 6.5753 4.46603C6.53605 4.38676 6.51971 4.29811 6.52813 4.21006L7.00054 4.73027ZM7.00054 4.73027L7.00063 4.63027M7.00054 4.73027L7.00063 4.63027M7.00063 4.63027L7.00041 4.73027C7.07374 4.73043 7.1461 4.71358 7.21181 4.68105C7.2775 4.64853 7.33476 4.60121 7.37908 4.54283L6.62768 4.21957C6.62103 4.28909 6.63393 4.35908 6.66491 4.42166C6.6959 4.48424 6.74374 4.53693 6.80306 4.57379C6.86237 4.61064 6.9308 4.63021 7.00063 4.63027ZM7.00063 4.63027C7.05849 4.6304 7.11559 4.6171 7.16744 4.59143C7.21929 4.56576 7.26448 4.52841 7.29946 4.48232L7.00063 4.63027ZM7.5134 2.72601C7.2179 3.14952 6.9141 3.58491 6.62295 3.96765L7.51552 2.72298L7.5134 2.72601ZM7.37912 4.54277C7.68305 4.14281 7.99475 3.69618 8.29443 3.26623L7.37912 4.54277Z" fill="#B1B1B3" stroke="#B1B1B3" stroke-width="0.2"/>
<path d="M11.0399 25.2539H11.0399C10.9207 25.2538 10.8059 25.2089 10.7183 25.1281C10.6306 25.0474 10.5766 24.9366 10.5668 24.8178L10.5667 24.8178L10.5631 24.7731L10.5624 24.765L10.5627 24.765C10.5617 22.1916 10.5617 18.3288 10.5653 15.2123C10.5653 15.2123 10.5653 15.2123 10.5653 15.2122L10.6653 15.2123L11.0399 25.2539ZM11.0399 25.2539C11.0527 25.2539 11.0652 25.2534 11.0779 25.2526L11.0794 25.2524C11.2049 25.242 11.3212 25.1821 11.4026 25.0861C11.4841 24.99 11.5241 24.8656 11.5139 24.74L11.5144 24.74L11.5126 24.73L11.5117 24.7251C11.5117 22.1823 11.5117 18.3259 11.5153 15.2128L11.5153 15.2127C11.5147 13.7897 11.7739 12.3785 12.28 11.0486L12.2802 11.0481M11.0399 25.2539L12.2802 11.0481M12.2802 11.0481C12.4345 10.6361 12.6361 10.0871 12.8269 9.49839C12.8465 9.43903 12.8542 9.37638 12.8496 9.31402C12.845 9.25155 12.8281 9.19061 12.7998 9.13471C12.7715 9.07881 12.7324 9.02905 12.6849 8.98831C12.6373 8.94757 12.5821 8.91664 12.5225 8.89731C12.4629 8.87797 12.4001 8.87062 12.3377 8.87567C12.2752 8.88071 12.2144 8.89806 12.1587 8.92671C12.103 8.95536 12.0535 8.99475 12.0131 9.04261C11.9726 9.09046 11.9421 9.14584 11.9231 9.20556L12.0185 9.23578M12.2802 11.0481L12.0185 9.23578M12.0185 9.23578C12.0334 9.18864 12.0575 9.14492 12.0895 9.10714C12.1214 9.06935 12.1604 9.03826 12.2044 9.01564C12.2484 8.99302 12.2964 8.97932 12.3457 8.97534C12.395 8.97136 12.4446 8.97716 12.4917 8.99242C12.5387 9.00769 12.5823 9.0321 12.6198 9.06427C12.6574 9.09644 12.6882 9.13572 12.7105 9.17985C12.7329 9.22398 12.7462 9.27209 12.7499 9.32141C12.7536 9.37073 12.7474 9.42029 12.7318 9.46723L11.3913 10.7133C11.5417 10.3109 11.7384 9.77542 11.9233 9.20495L12.0185 9.23578Z" fill="#B1B1B3" stroke="#B1B1B3" stroke-width="0.2"/>
<path d="M8.38765 1.51333C8.4519 1.37538 8.55438 1.25875 8.68294 1.1773C8.81154 1.09582 8.96082 1.05296 9.11306 1.05382M8.38765 1.51333L15.9672 1.05382H9.11306M8.38765 1.51333C8.32189 1.65155 8.29722 1.80576 8.31657 1.9576C8.33593 2.10955 8.39856 2.25273 8.497 2.37008C8.49703 2.37012 8.49707 2.37016 8.4971 2.3702L9.75577 3.87953L9.08971 5.87809L8.38765 1.51333ZM9.11306 1.05382C9.11316 1.05382 9.11327 1.05382 9.11337 1.05382L9.11277 1.15382V1.05382H9.11306ZM9.54014 6.50382H9.5401C9.4648 6.50379 9.39058 6.48586 9.32357 6.45152C9.25656 6.41717 9.19868 6.36739 9.15469 6.30628C9.1107 6.24516 9.08187 6.17447 9.07057 6.10002C9.05927 6.0256 9.06582 5.94957 9.08968 5.87818L9.54014 6.50382ZM9.54014 6.50382H11.3916L11.9036 9.40884C11.9175 9.52345 11.9726 9.62912 12.0589 9.70602C12.1459 9.78361 12.2584 9.82648 12.375 9.82645L9.54014 6.50382ZM15.5402 6.50382H15.5401H13.6687C13.4404 7.47536 13.1609 8.4701 12.8359 9.46643C12.8105 9.56852 12.7518 9.65929 12.6691 9.72447C12.5853 9.79052 12.4817 9.82644 12.375 9.82645L15.5402 6.50382ZM15.5402 6.50382C15.6155 6.50379 15.6897 6.48586 15.7567 6.45152C15.8237 6.41717 15.8816 6.36739 15.9256 6.30628C15.9696 6.24516 15.9984 6.17447 16.0097 6.10002C16.021 6.0256 16.0144 5.94957 15.9906 5.87818L15.5402 6.50382ZM15.6514 2.00382L14.4255 3.47412C14.3735 3.5364 14.3383 3.61096 14.3233 3.69069C14.3083 3.77039 14.3139 3.8526 14.3397 3.9295C14.3397 3.92954 14.3397 3.92957 14.3397 3.92961L14.881 5.55382H13.2901H13.2901C13.1821 5.55384 13.0773 5.59064 12.993 5.65816C12.9087 5.72569 12.8499 5.81991 12.8264 5.92531L12.8263 5.92542C12.7267 6.37286 12.6156 6.82629 12.4936 7.28328L12.2578 5.94629C12.2578 5.94628 12.2578 5.94627 12.2578 5.94626C12.2384 5.83631 12.1809 5.7367 12.0954 5.66493C12.0099 5.59316 11.9018 5.55381 11.7901 5.55382H10.1993L10.7405 3.92961L10.7406 3.92946L10.6457 3.89784C10.6661 3.8371 10.6705 3.77216 10.6587 3.70921C10.6468 3.64626 10.619 3.58739 10.578 3.53822L15.6514 2.00382ZM15.6514 2.00382H9.42888L10.6547 3.47413L15.6514 2.00382ZM16.6924 1.51284L16.6021 1.55592L15.9906 5.87809L15.3245 3.87953L16.5848 2.36818C16.6827 2.25088 16.7449 2.10792 16.764 1.95629C16.7831 1.80483 16.7583 1.65109 16.6926 1.5133C16.6925 1.51314 16.6924 1.51299 16.6924 1.51284Z" fill="#B1B1B3" stroke="#B1B1B3" stroke-width="0.2"/>
<path d="M10.29 4.25381H14.79C14.916 4.25381 15.0368 4.20376 15.1259 4.11468C15.215 4.0256 15.265 3.90479 15.265 3.77881C15.265 3.65283 15.215 3.53201 15.1259 3.44293C15.0368 3.35385 14.916 3.30381 14.79 3.30381H10.29C10.1641 3.30381 10.0432 3.35385 9.95416 3.44293C9.86508 3.53201 9.81504 3.65283 9.81504 3.77881C9.81504 3.90479 9.86508 4.0256 9.95416 4.11468C10.0432 4.20376 10.1641 4.25381 10.29 4.25381Z" fill="#B1B1B3" stroke="#B1B1B3" stroke-width="0.2"/>
</svg>
