<svg width="25" height="24" viewBox="0 0 25 24" fill="none" xmlns="http://www.w3.org/2000/svg">
<path d="M10 9C8.545 8.5 7.77 7.989 8 6C8.13 4.88 8.5 4 7.5 3L10 2C10.167 3.167 11 4.5 12.5 5C14 4.5 14.833 3.167 15 2L17.5 3C16.5 4 16.87 4.88 17 6C17.23 7.989 16.455 8.5 15 9M9 12H16C15.5 11 15.5 10 15.5 9H9.5C9.5 10 9.5 11 9 12Z" stroke="#B1B1B3" stroke-width="1.5" stroke-linecap="round" stroke-linejoin="round"/>
<path d="M16.812 21.448C18.099 22.184 19.789 22.168 21.095 21.432C21.455 21.225 21.642 20.748 21.372 20.461C19.445 18.408 17.997 15.901 16.992 13.355C16.727 12.682 16.595 12.347 16.34 12.173C16.085 11.999 15.743 12 15.06 12H9.94199C9.25699 12 8.91499 12 8.65999 12.173C8.40499 12.347 8.27299 12.683 8.00799 13.354C7.00299 15.902 5.55499 18.408 3.62799 20.461C3.35799 20.748 3.54599 21.225 3.90499 21.431C5.21099 22.167 6.90099 22.184 8.18799 21.448C8.58739 21.2263 9.03668 21.11 9.49349 21.11C9.9503 21.11 10.3996 21.2263 10.799 21.448C11.323 21.743 11.962 22 12.5 22C13.038 22 13.677 21.743 14.2 21.448C14.5995 21.2261 15.049 21.1097 15.506 21.1097C15.963 21.1097 16.4125 21.2261 16.812 21.448Z" stroke="#B1B1B3" stroke-width="1.5" stroke-linecap="round" stroke-linejoin="round"/>
</svg>
