<svg width="25" height="26" viewBox="0 0 25 26" fill="none" xmlns="http://www.w3.org/2000/svg">
<mask id="path-1-outside-1_7325_11007" maskUnits="userSpaceOnUse" x="3.20703" y="0" width="18" height="26" fill="black">
<rect fill="white" x="3.20703" width="18" height="26"/>
<path d="M10.2331 1.07538C8.3645 1.44272 7.02293 2.56069 6.86322 3.89427C6.83128 4.18175 6.85524 4.3734 6.95905 4.58901C7.0948 4.87649 7.0948 4.88447 6.85524 5.38756C6.67955 5.7549 6.51186 5.96252 6.25632 6.15417C4.73907 7.2402 4.4516 9.64384 5.73726 10.4264C5.84906 10.4983 5.85705 10.5462 5.77719 10.7778C5.69734 11.0014 5.61748 11.0653 5.32202 11.1531C4.91476 11.2729 4.47555 11.6562 4.31584 12.0395C4.14815 12.4228 4.18009 12.9978 4.37174 13.405C4.55541 13.7724 5.13036 14.2195 5.41784 14.2195C5.60151 14.2195 5.60151 14.2435 5.39389 14.7785C5.28209 15.066 5.22619 15.4014 5.22619 15.7368C5.22619 16.0402 5.16231 16.4555 5.06648 16.735C4.89878 17.2461 4.91476 17.805 5.11439 18.2043C5.17029 18.3161 5.24216 18.6196 5.2741 18.8671C5.37792 19.8254 5.86503 20.6639 6.63963 21.2069C6.85524 21.3666 7.16667 21.5263 7.32638 21.5662C7.54199 21.6301 7.6458 21.71 7.72566 21.8936C7.78156 22.0294 7.99717 22.3169 8.20479 22.5245C8.69191 23.0116 9.21895 23.2033 9.9057 23.1394L10.3928 23.0994L10.5765 23.4828C10.9358 24.2414 11.9021 25 12.517 25C13.0999 25 14.0502 24.2254 14.4255 23.4428L14.5932 23.0994L15.1043 23.1474C15.9907 23.2112 16.6455 22.8519 17.1965 21.9815C17.3402 21.7579 17.5079 21.5662 17.5638 21.5662C17.7714 21.5662 18.3145 21.2149 18.7057 20.8316C19.2248 20.3285 19.5203 19.7455 19.6321 19.0348C19.68 18.7394 19.7758 18.3481 19.8477 18.1724C20.0074 17.7891 20.0074 16.8947 19.8557 16.6152C19.7918 16.4954 19.7439 16.1441 19.7359 15.7368C19.7279 15.2257 19.68 14.9622 19.5522 14.6747L19.3845 14.2914L19.6001 14.2116C20.215 13.996 20.5983 13.6126 20.7421 13.0856C20.9736 12.2232 20.3747 11.2729 19.5203 11.1371C19.2488 11.0892 19.2088 11.0493 19.129 10.7698C19.0891 10.5941 19.0571 10.4424 19.0731 10.4344C19.0891 10.4264 19.2008 10.3785 19.3206 10.3226C19.4724 10.2587 19.6081 10.083 19.7598 9.76363C19.9355 9.38032 19.9754 9.19666 19.9754 8.62968C19.9754 8.03077 19.9435 7.88703 19.7119 7.39991C19.5362 7.02459 19.2967 6.70517 18.9533 6.3618C18.57 5.99446 18.3943 5.73893 18.2186 5.32368C17.3482 3.23147 15.4237 1.65034 13.1478 1.15524C12.3732 0.987541 10.8959 0.947613 10.2331 1.07538ZM13.2357 1.83401C15.0643 2.30515 16.6135 3.53492 17.452 5.17195C17.6517 5.57123 17.6437 5.57123 16.8691 5.35562C15.3918 4.94836 14.4814 4.84455 12.4691 4.83656C11.2153 4.83656 10.3449 4.87649 9.95362 4.94836C9.32276 5.06016 7.93328 5.38756 7.7017 5.4754C7.49408 5.55526 7.52602 5.4195 7.82148 4.98829C8.26867 4.34146 8.8037 4.00607 9.76197 3.75852C10.1053 3.67866 10.2251 3.53492 10.1453 3.31931C10.0734 3.12766 9.82585 3.1037 9.31478 3.23147C8.70788 3.39118 8.27666 3.60679 7.88537 3.95815C7.71767 4.10988 7.55796 4.23765 7.52602 4.23765C7.42221 4.23765 7.48609 3.79046 7.63782 3.47104C7.84544 3.04781 8.5322 2.40098 9.04327 2.13746C9.44254 1.93782 10.1053 1.72221 10.5525 1.65034C11.0556 1.57048 12.6368 1.68228 13.2357 1.83401ZM15.2241 5.63511C16.901 5.93856 18.0829 6.39374 18.6019 6.92078C19.2248 7.54365 19.5043 8.47796 19.2967 9.2286C19.1529 9.73967 19.0411 9.80356 18.7217 9.56399C18.035 9.03695 16.4458 8.44602 14.9845 8.18249C14.0342 8.00681 11.9101 7.95091 10.8161 8.0707C9.14708 8.25436 7.46214 8.76544 6.47992 9.38032C6.08863 9.63586 5.89697 9.71571 5.8251 9.65183C5.50568 9.38831 5.48173 8.26235 5.79316 7.67142C6.01676 7.22423 6.45596 6.76107 6.88718 6.50554C7.51005 6.1382 8.71586 5.78684 10.1533 5.55526C11.1594 5.39555 14.178 5.44346 15.2241 5.63511ZM14.721 8.78939C15.256 8.87723 16.0386 9.0609 16.4538 9.18867L17.2125 9.43622L17.3722 9.86744C17.5958 10.4584 17.7315 11.2889 17.6756 11.752C17.6437 11.9916 17.6596 12.1433 17.7076 12.1433C17.8753 12.1433 18.0429 11.5204 18.0988 10.7458L18.1468 9.94729L18.3384 10.3466C18.4981 10.666 18.538 10.8736 18.538 11.3927C18.538 11.9756 18.5141 12.0714 18.3065 12.3669L18.0749 12.7023L18.2586 13.1096C18.3783 13.405 18.4183 13.5967 18.3783 13.7963C18.3304 14.0758 18.3224 14.0758 18.1627 13.9241C18.0669 13.8442 17.9312 13.6286 17.8433 13.445C17.6836 13.0856 17.5718 13.0057 17.3642 13.1175C17.1486 13.2293 17.1885 13.6526 17.452 14.0758C17.5798 14.2754 17.7235 14.4671 17.7714 14.4911C17.9312 14.5949 17.8673 14.6827 17.5399 14.8105C16.901 15.066 16.5097 14.9782 15.7112 14.3872C15.0564 13.9001 14.6731 13.7404 14.178 13.7404C13.8026 13.7404 13.7947 13.7324 13.7148 13.437C13.5551 12.846 12.8284 12.3988 12.2215 12.5106C11.8302 12.5825 11.3351 13.0377 11.2313 13.421L11.1514 13.7244L10.6484 13.7564C10.1133 13.7883 9.86578 13.9081 8.9714 14.5629C8.54018 14.8744 8.46831 14.8983 8.00515 14.8983C7.66177 14.8983 7.44616 14.8504 7.28645 14.7546L7.07085 14.6108L7.35034 14.2994C7.63782 13.98 7.83746 13.4529 7.74961 13.2373C7.69372 13.0776 7.43019 13.0137 7.29444 13.1335C7.23056 13.1814 7.15869 13.3172 7.12674 13.429C7.07085 13.6845 6.7674 14.0758 6.67955 14.0199C6.52783 13.9241 6.51186 13.4849 6.64761 13.1016L6.79135 12.7103L6.55977 12.2631C6.36013 11.8558 6.34416 11.76 6.38409 11.2409C6.42402 10.7059 6.5997 10.131 6.73545 10.0431C6.77538 10.0192 6.79934 10.2987 6.80732 10.65C6.81531 11.2968 7.01495 12.0555 7.19861 12.1194C7.24653 12.1353 7.27847 11.8478 7.28645 11.3607C7.28645 10.3306 7.51803 9.57198 7.8694 9.38831C8.18882 9.2286 9.53039 8.87723 10.321 8.75745C11.4309 8.58177 13.5551 8.59774 14.721 8.78939ZM5.76122 11.9596C5.79316 12.0874 5.87302 12.327 5.95287 12.5027C6.08863 12.8061 6.08863 12.846 5.96086 13.1974C5.88899 13.405 5.80913 13.5967 5.78518 13.6206C5.69734 13.7085 5.18626 13.445 5.01857 13.2214C4.89878 13.0696 4.84289 12.886 4.84289 12.6464C4.84289 12.343 4.88281 12.2471 5.11439 12.0155C5.44979 11.6802 5.69734 11.6562 5.76122 11.9596ZM19.8077 11.9836C19.9595 12.1194 20.1112 12.335 20.1352 12.4627C20.247 12.9818 19.8557 13.5328 19.3446 13.5967C19.1529 13.6206 19.113 13.5807 19.0012 13.3012C18.8495 12.894 18.8495 12.8301 19.0252 12.343C19.097 12.1194 19.1769 11.8958 19.1849 11.8399C19.2328 11.6722 19.5203 11.7361 19.8077 11.9836ZM12.8524 13.2613C13.1159 13.4689 13.1798 13.7644 13.036 14.0519C12.9083 14.2994 12.7645 14.3793 12.4691 14.3793C12.3652 14.3793 12.2215 14.3553 12.1496 14.3313C11.958 14.2515 11.7823 13.8522 11.8382 13.6206C11.9021 13.3731 12.2295 13.1016 12.4691 13.1016C12.5649 13.1016 12.7406 13.1734 12.8524 13.2613ZM11.4549 14.531C11.6146 14.6188 11.8542 14.7865 11.974 14.9223L12.1975 15.1539L11.7663 15.5851C10.8959 16.4794 10.0415 16.8787 9.03528 16.8867C8.32457 16.8867 7.89335 16.743 7.40624 16.3277C7.06286 16.0402 6.67955 15.5132 6.67955 15.3295C6.67955 15.1938 6.70351 15.2018 7.06286 15.3535C7.32638 15.4813 7.59789 15.5292 7.99717 15.5292C8.61205 15.5292 9.01133 15.3695 9.59427 14.8983C9.76995 14.7626 10.0255 14.5869 10.1533 14.515C10.4807 14.3393 11.0955 14.3473 11.4549 14.531ZM14.7689 14.507C14.9126 14.5869 15.1682 14.7546 15.3438 14.8983C15.9428 15.3854 16.3181 15.5292 16.9809 15.5292C17.444 15.5292 17.6596 15.4892 17.9232 15.3455C18.1148 15.2497 18.2985 15.1858 18.3224 15.2098C18.3943 15.2896 18.1228 15.7847 17.8273 16.1201C16.7573 17.302 14.8088 17.1343 13.2676 15.7208C12.9801 15.4573 12.7485 15.1938 12.7485 15.1379C12.7485 15.0261 13.1239 14.7226 13.5072 14.515C13.8186 14.3473 14.4495 14.3473 14.7689 14.507ZM6.1046 15.6729C6.67956 16.9586 8.10896 17.7252 9.51441 17.4936C10.1932 17.3818 10.8161 17.1422 11.407 16.743C11.8302 16.4635 11.9101 16.4395 12.4451 16.4395C12.9961 16.4315 13.052 16.4475 13.5391 16.7589C14.138 17.1502 14.705 17.3738 15.3997 17.4936C16.7333 17.7252 18.1787 17.0305 18.7936 15.8566C18.9134 15.617 19.0411 15.4174 19.0811 15.4174C19.1609 15.4174 19.1529 15.8486 19.0571 16.0961C18.9852 16.2718 19.0092 16.3916 19.1849 16.743C19.4564 17.294 19.4244 17.7891 19.097 18.1325C18.9054 18.3321 18.8894 18.38 18.9693 18.6435C19.129 19.2345 18.6898 20.0969 17.9391 20.6798L17.5798 20.9513L17.4919 20.4802C17.3482 19.7216 17.1725 19.4101 16.885 19.4101C16.6615 19.4101 16.6295 19.6098 16.7812 20.0969C17.0288 20.8795 16.7812 21.7339 16.1664 22.229C15.7591 22.5564 15.0883 22.6283 14.8328 22.3728C14.7449 22.2849 14.6651 22.1252 14.6651 22.0214C14.6651 21.7259 14.3696 21.3267 14.154 21.3267C13.8665 21.3267 13.8266 21.4544 13.9943 21.9336C14.13 22.3328 14.13 22.3807 14.0023 22.78C13.8266 23.331 13.4752 23.8102 13.0121 24.1136C12.5569 24.4171 12.3812 24.425 11.9819 24.1296C11.2473 23.6025 10.864 22.8998 10.9518 22.253C11.0476 21.4864 11.0396 21.3746 10.8879 21.3426C10.6643 21.2947 10.4647 21.5263 10.3529 21.9495C10.2251 22.4047 10.0974 22.5245 9.6901 22.5245C9.26686 22.5245 8.89154 22.3328 8.52421 21.9176C8.03709 21.3586 7.90134 20.6319 8.18882 20.0011C8.29263 19.7775 8.31659 19.6337 8.26069 19.5459C8.16486 19.3622 7.93328 19.3782 7.76559 19.5619C7.60588 19.7375 7.39825 20.3764 7.39825 20.7038C7.39825 20.8236 7.36631 20.9274 7.32638 20.9274C7.28645 20.9274 7.07085 20.7597 6.84725 20.5601C6.1605 19.9452 5.79316 19.1306 5.96884 18.6196C6.0487 18.396 6.04071 18.3401 5.89697 18.1884C5.51367 17.7811 5.47374 17.302 5.76921 16.711C5.94489 16.3517 5.96086 16.2638 5.881 16.0243C5.80913 15.7927 5.83309 15.3375 5.92892 15.3375C5.94489 15.3375 6.02474 15.4892 6.1046 15.6729Z"/>
</mask>
<path d="M10.2331 1.07538C8.3645 1.44272 7.02293 2.56069 6.86322 3.89427C6.83128 4.18175 6.85524 4.3734 6.95905 4.58901C7.0948 4.87649 7.0948 4.88447 6.85524 5.38756C6.67955 5.7549 6.51186 5.96252 6.25632 6.15417C4.73907 7.2402 4.4516 9.64384 5.73726 10.4264C5.84906 10.4983 5.85705 10.5462 5.77719 10.7778C5.69734 11.0014 5.61748 11.0653 5.32202 11.1531C4.91476 11.2729 4.47555 11.6562 4.31584 12.0395C4.14815 12.4228 4.18009 12.9978 4.37174 13.405C4.55541 13.7724 5.13036 14.2195 5.41784 14.2195C5.60151 14.2195 5.60151 14.2435 5.39389 14.7785C5.28209 15.066 5.22619 15.4014 5.22619 15.7368C5.22619 16.0402 5.16231 16.4555 5.06648 16.735C4.89878 17.2461 4.91476 17.805 5.11439 18.2043C5.17029 18.3161 5.24216 18.6196 5.2741 18.8671C5.37792 19.8254 5.86503 20.6639 6.63963 21.2069C6.85524 21.3666 7.16667 21.5263 7.32638 21.5662C7.54199 21.6301 7.6458 21.71 7.72566 21.8936C7.78156 22.0294 7.99717 22.3169 8.20479 22.5245C8.69191 23.0116 9.21895 23.2033 9.9057 23.1394L10.3928 23.0994L10.5765 23.4828C10.9358 24.2414 11.9021 25 12.517 25C13.0999 25 14.0502 24.2254 14.4255 23.4428L14.5932 23.0994L15.1043 23.1474C15.9907 23.2112 16.6455 22.8519 17.1965 21.9815C17.3402 21.7579 17.5079 21.5662 17.5638 21.5662C17.7714 21.5662 18.3145 21.2149 18.7057 20.8316C19.2248 20.3285 19.5203 19.7455 19.6321 19.0348C19.68 18.7394 19.7758 18.3481 19.8477 18.1724C20.0074 17.7891 20.0074 16.8947 19.8557 16.6152C19.7918 16.4954 19.7439 16.1441 19.7359 15.7368C19.7279 15.2257 19.68 14.9622 19.5522 14.6747L19.3845 14.2914L19.6001 14.2116C20.215 13.996 20.5983 13.6126 20.7421 13.0856C20.9736 12.2232 20.3747 11.2729 19.5203 11.1371C19.2488 11.0892 19.2088 11.0493 19.129 10.7698C19.0891 10.5941 19.0571 10.4424 19.0731 10.4344C19.0891 10.4264 19.2008 10.3785 19.3206 10.3226C19.4724 10.2587 19.6081 10.083 19.7598 9.76363C19.9355 9.38032 19.9754 9.19666 19.9754 8.62968C19.9754 8.03077 19.9435 7.88703 19.7119 7.39991C19.5362 7.02459 19.2967 6.70517 18.9533 6.3618C18.57 5.99446 18.3943 5.73893 18.2186 5.32368C17.3482 3.23147 15.4237 1.65034 13.1478 1.15524C12.3732 0.987541 10.8959 0.947613 10.2331 1.07538ZM13.2357 1.83401C15.0643 2.30515 16.6135 3.53492 17.452 5.17195C17.6517 5.57123 17.6437 5.57123 16.8691 5.35562C15.3918 4.94836 14.4814 4.84455 12.4691 4.83656C11.2153 4.83656 10.3449 4.87649 9.95362 4.94836C9.32276 5.06016 7.93328 5.38756 7.7017 5.4754C7.49408 5.55526 7.52602 5.4195 7.82148 4.98829C8.26867 4.34146 8.8037 4.00607 9.76197 3.75852C10.1053 3.67866 10.2251 3.53492 10.1453 3.31931C10.0734 3.12766 9.82585 3.1037 9.31478 3.23147C8.70788 3.39118 8.27666 3.60679 7.88537 3.95815C7.71767 4.10988 7.55796 4.23765 7.52602 4.23765C7.42221 4.23765 7.48609 3.79046 7.63782 3.47104C7.84544 3.04781 8.5322 2.40098 9.04327 2.13746C9.44254 1.93782 10.1053 1.72221 10.5525 1.65034C11.0556 1.57048 12.6368 1.68228 13.2357 1.83401ZM15.2241 5.63511C16.901 5.93856 18.0829 6.39374 18.6019 6.92078C19.2248 7.54365 19.5043 8.47796 19.2967 9.2286C19.1529 9.73967 19.0411 9.80356 18.7217 9.56399C18.035 9.03695 16.4458 8.44602 14.9845 8.18249C14.0342 8.00681 11.9101 7.95091 10.8161 8.0707C9.14708 8.25436 7.46214 8.76544 6.47992 9.38032C6.08863 9.63586 5.89697 9.71571 5.8251 9.65183C5.50568 9.38831 5.48173 8.26235 5.79316 7.67142C6.01676 7.22423 6.45596 6.76107 6.88718 6.50554C7.51005 6.1382 8.71586 5.78684 10.1533 5.55526C11.1594 5.39555 14.178 5.44346 15.2241 5.63511ZM14.721 8.78939C15.256 8.87723 16.0386 9.0609 16.4538 9.18867L17.2125 9.43622L17.3722 9.86744C17.5958 10.4584 17.7315 11.2889 17.6756 11.752C17.6437 11.9916 17.6596 12.1433 17.7076 12.1433C17.8753 12.1433 18.0429 11.5204 18.0988 10.7458L18.1468 9.94729L18.3384 10.3466C18.4981 10.666 18.538 10.8736 18.538 11.3927C18.538 11.9756 18.5141 12.0714 18.3065 12.3669L18.0749 12.7023L18.2586 13.1096C18.3783 13.405 18.4183 13.5967 18.3783 13.7963C18.3304 14.0758 18.3224 14.0758 18.1627 13.9241C18.0669 13.8442 17.9312 13.6286 17.8433 13.445C17.6836 13.0856 17.5718 13.0057 17.3642 13.1175C17.1486 13.2293 17.1885 13.6526 17.452 14.0758C17.5798 14.2754 17.7235 14.4671 17.7714 14.4911C17.9312 14.5949 17.8673 14.6827 17.5399 14.8105C16.901 15.066 16.5097 14.9782 15.7112 14.3872C15.0564 13.9001 14.6731 13.7404 14.178 13.7404C13.8026 13.7404 13.7947 13.7324 13.7148 13.437C13.5551 12.846 12.8284 12.3988 12.2215 12.5106C11.8302 12.5825 11.3351 13.0377 11.2313 13.421L11.1514 13.7244L10.6484 13.7564C10.1133 13.7883 9.86578 13.9081 8.9714 14.5629C8.54018 14.8744 8.46831 14.8983 8.00515 14.8983C7.66177 14.8983 7.44616 14.8504 7.28645 14.7546L7.07085 14.6108L7.35034 14.2994C7.63782 13.98 7.83746 13.4529 7.74961 13.2373C7.69372 13.0776 7.43019 13.0137 7.29444 13.1335C7.23056 13.1814 7.15869 13.3172 7.12674 13.429C7.07085 13.6845 6.7674 14.0758 6.67955 14.0199C6.52783 13.9241 6.51186 13.4849 6.64761 13.1016L6.79135 12.7103L6.55977 12.2631C6.36013 11.8558 6.34416 11.76 6.38409 11.2409C6.42402 10.7059 6.5997 10.131 6.73545 10.0431C6.77538 10.0192 6.79934 10.2987 6.80732 10.65C6.81531 11.2968 7.01495 12.0555 7.19861 12.1194C7.24653 12.1353 7.27847 11.8478 7.28645 11.3607C7.28645 10.3306 7.51803 9.57198 7.8694 9.38831C8.18882 9.2286 9.53039 8.87723 10.321 8.75745C11.4309 8.58177 13.5551 8.59774 14.721 8.78939ZM5.76122 11.9596C5.79316 12.0874 5.87302 12.327 5.95287 12.5027C6.08863 12.8061 6.08863 12.846 5.96086 13.1974C5.88899 13.405 5.80913 13.5967 5.78518 13.6206C5.69734 13.7085 5.18626 13.445 5.01857 13.2214C4.89878 13.0696 4.84289 12.886 4.84289 12.6464C4.84289 12.343 4.88281 12.2471 5.11439 12.0155C5.44979 11.6802 5.69734 11.6562 5.76122 11.9596ZM19.8077 11.9836C19.9595 12.1194 20.1112 12.335 20.1352 12.4627C20.247 12.9818 19.8557 13.5328 19.3446 13.5967C19.1529 13.6206 19.113 13.5807 19.0012 13.3012C18.8495 12.894 18.8495 12.8301 19.0252 12.343C19.097 12.1194 19.1769 11.8958 19.1849 11.8399C19.2328 11.6722 19.5203 11.7361 19.8077 11.9836ZM12.8524 13.2613C13.1159 13.4689 13.1798 13.7644 13.036 14.0519C12.9083 14.2994 12.7645 14.3793 12.4691 14.3793C12.3652 14.3793 12.2215 14.3553 12.1496 14.3313C11.958 14.2515 11.7823 13.8522 11.8382 13.6206C11.9021 13.3731 12.2295 13.1016 12.4691 13.1016C12.5649 13.1016 12.7406 13.1734 12.8524 13.2613ZM11.4549 14.531C11.6146 14.6188 11.8542 14.7865 11.974 14.9223L12.1975 15.1539L11.7663 15.5851C10.8959 16.4794 10.0415 16.8787 9.03528 16.8867C8.32457 16.8867 7.89335 16.743 7.40624 16.3277C7.06286 16.0402 6.67955 15.5132 6.67955 15.3295C6.67955 15.1938 6.70351 15.2018 7.06286 15.3535C7.32638 15.4813 7.59789 15.5292 7.99717 15.5292C8.61205 15.5292 9.01133 15.3695 9.59427 14.8983C9.76995 14.7626 10.0255 14.5869 10.1533 14.515C10.4807 14.3393 11.0955 14.3473 11.4549 14.531ZM14.7689 14.507C14.9126 14.5869 15.1682 14.7546 15.3438 14.8983C15.9428 15.3854 16.3181 15.5292 16.9809 15.5292C17.444 15.5292 17.6596 15.4892 17.9232 15.3455C18.1148 15.2497 18.2985 15.1858 18.3224 15.2098C18.3943 15.2896 18.1228 15.7847 17.8273 16.1201C16.7573 17.302 14.8088 17.1343 13.2676 15.7208C12.9801 15.4573 12.7485 15.1938 12.7485 15.1379C12.7485 15.0261 13.1239 14.7226 13.5072 14.515C13.8186 14.3473 14.4495 14.3473 14.7689 14.507ZM6.1046 15.6729C6.67956 16.9586 8.10896 17.7252 9.51441 17.4936C10.1932 17.3818 10.8161 17.1422 11.407 16.743C11.8302 16.4635 11.9101 16.4395 12.4451 16.4395C12.9961 16.4315 13.052 16.4475 13.5391 16.7589C14.138 17.1502 14.705 17.3738 15.3997 17.4936C16.7333 17.7252 18.1787 17.0305 18.7936 15.8566C18.9134 15.617 19.0411 15.4174 19.0811 15.4174C19.1609 15.4174 19.1529 15.8486 19.0571 16.0961C18.9852 16.2718 19.0092 16.3916 19.1849 16.743C19.4564 17.294 19.4244 17.7891 19.097 18.1325C18.9054 18.3321 18.8894 18.38 18.9693 18.6435C19.129 19.2345 18.6898 20.0969 17.9391 20.6798L17.5798 20.9513L17.4919 20.4802C17.3482 19.7216 17.1725 19.4101 16.885 19.4101C16.6615 19.4101 16.6295 19.6098 16.7812 20.0969C17.0288 20.8795 16.7812 21.7339 16.1664 22.229C15.7591 22.5564 15.0883 22.6283 14.8328 22.3728C14.7449 22.2849 14.6651 22.1252 14.6651 22.0214C14.6651 21.7259 14.3696 21.3267 14.154 21.3267C13.8665 21.3267 13.8266 21.4544 13.9943 21.9336C14.13 22.3328 14.13 22.3807 14.0023 22.78C13.8266 23.331 13.4752 23.8102 13.0121 24.1136C12.5569 24.4171 12.3812 24.425 11.9819 24.1296C11.2473 23.6025 10.864 22.8998 10.9518 22.253C11.0476 21.4864 11.0396 21.3746 10.8879 21.3426C10.6643 21.2947 10.4647 21.5263 10.3529 21.9495C10.2251 22.4047 10.0974 22.5245 9.6901 22.5245C9.26686 22.5245 8.89154 22.3328 8.52421 21.9176C8.03709 21.3586 7.90134 20.6319 8.18882 20.0011C8.29263 19.7775 8.31659 19.6337 8.26069 19.5459C8.16486 19.3622 7.93328 19.3782 7.76559 19.5619C7.60588 19.7375 7.39825 20.3764 7.39825 20.7038C7.39825 20.8236 7.36631 20.9274 7.32638 20.9274C7.28645 20.9274 7.07085 20.7597 6.84725 20.5601C6.1605 19.9452 5.79316 19.1306 5.96884 18.6196C6.0487 18.396 6.04071 18.3401 5.89697 18.1884C5.51367 17.7811 5.47374 17.302 5.76921 16.711C5.94489 16.3517 5.96086 16.2638 5.881 16.0243C5.80913 15.7927 5.83309 15.3375 5.92892 15.3375C5.94489 15.3375 6.02474 15.4892 6.1046 15.6729Z" fill="#B1B1B3"/>
<path d="M10.2331 1.07538C8.3645 1.44272 7.02293 2.56069 6.86322 3.89427C6.83128 4.18175 6.85524 4.3734 6.95905 4.58901C7.0948 4.87649 7.0948 4.88447 6.85524 5.38756C6.67955 5.7549 6.51186 5.96252 6.25632 6.15417C4.73907 7.2402 4.4516 9.64384 5.73726 10.4264C5.84906 10.4983 5.85705 10.5462 5.77719 10.7778C5.69734 11.0014 5.61748 11.0653 5.32202 11.1531C4.91476 11.2729 4.47555 11.6562 4.31584 12.0395C4.14815 12.4228 4.18009 12.9978 4.37174 13.405C4.55541 13.7724 5.13036 14.2195 5.41784 14.2195C5.60151 14.2195 5.60151 14.2435 5.39389 14.7785C5.28209 15.066 5.22619 15.4014 5.22619 15.7368C5.22619 16.0402 5.16231 16.4555 5.06648 16.735C4.89878 17.2461 4.91476 17.805 5.11439 18.2043C5.17029 18.3161 5.24216 18.6196 5.2741 18.8671C5.37792 19.8254 5.86503 20.6639 6.63963 21.2069C6.85524 21.3666 7.16667 21.5263 7.32638 21.5662C7.54199 21.6301 7.6458 21.71 7.72566 21.8936C7.78156 22.0294 7.99717 22.3169 8.20479 22.5245C8.69191 23.0116 9.21895 23.2033 9.9057 23.1394L10.3928 23.0994L10.5765 23.4828C10.9358 24.2414 11.9021 25 12.517 25C13.0999 25 14.0502 24.2254 14.4255 23.4428L14.5932 23.0994L15.1043 23.1474C15.9907 23.2112 16.6455 22.8519 17.1965 21.9815C17.3402 21.7579 17.5079 21.5662 17.5638 21.5662C17.7714 21.5662 18.3145 21.2149 18.7057 20.8316C19.2248 20.3285 19.5203 19.7455 19.6321 19.0348C19.68 18.7394 19.7758 18.3481 19.8477 18.1724C20.0074 17.7891 20.0074 16.8947 19.8557 16.6152C19.7918 16.4954 19.7439 16.1441 19.7359 15.7368C19.7279 15.2257 19.68 14.9622 19.5522 14.6747L19.3845 14.2914L19.6001 14.2116C20.215 13.996 20.5983 13.6126 20.7421 13.0856C20.9736 12.2232 20.3747 11.2729 19.5203 11.1371C19.2488 11.0892 19.2088 11.0493 19.129 10.7698C19.0891 10.5941 19.0571 10.4424 19.0731 10.4344C19.0891 10.4264 19.2008 10.3785 19.3206 10.3226C19.4724 10.2587 19.6081 10.083 19.7598 9.76363C19.9355 9.38032 19.9754 9.19666 19.9754 8.62968C19.9754 8.03077 19.9435 7.88703 19.7119 7.39991C19.5362 7.02459 19.2967 6.70517 18.9533 6.3618C18.57 5.99446 18.3943 5.73893 18.2186 5.32368C17.3482 3.23147 15.4237 1.65034 13.1478 1.15524C12.3732 0.987541 10.8959 0.947613 10.2331 1.07538ZM13.2357 1.83401C15.0643 2.30515 16.6135 3.53492 17.452 5.17195C17.6517 5.57123 17.6437 5.57123 16.8691 5.35562C15.3918 4.94836 14.4814 4.84455 12.4691 4.83656C11.2153 4.83656 10.3449 4.87649 9.95362 4.94836C9.32276 5.06016 7.93328 5.38756 7.7017 5.4754C7.49408 5.55526 7.52602 5.4195 7.82148 4.98829C8.26867 4.34146 8.8037 4.00607 9.76197 3.75852C10.1053 3.67866 10.2251 3.53492 10.1453 3.31931C10.0734 3.12766 9.82585 3.1037 9.31478 3.23147C8.70788 3.39118 8.27666 3.60679 7.88537 3.95815C7.71767 4.10988 7.55796 4.23765 7.52602 4.23765C7.42221 4.23765 7.48609 3.79046 7.63782 3.47104C7.84544 3.04781 8.5322 2.40098 9.04327 2.13746C9.44254 1.93782 10.1053 1.72221 10.5525 1.65034C11.0556 1.57048 12.6368 1.68228 13.2357 1.83401ZM15.2241 5.63511C16.901 5.93856 18.0829 6.39374 18.6019 6.92078C19.2248 7.54365 19.5043 8.47796 19.2967 9.2286C19.1529 9.73967 19.0411 9.80356 18.7217 9.56399C18.035 9.03695 16.4458 8.44602 14.9845 8.18249C14.0342 8.00681 11.9101 7.95091 10.8161 8.0707C9.14708 8.25436 7.46214 8.76544 6.47992 9.38032C6.08863 9.63586 5.89697 9.71571 5.8251 9.65183C5.50568 9.38831 5.48173 8.26235 5.79316 7.67142C6.01676 7.22423 6.45596 6.76107 6.88718 6.50554C7.51005 6.1382 8.71586 5.78684 10.1533 5.55526C11.1594 5.39555 14.178 5.44346 15.2241 5.63511ZM14.721 8.78939C15.256 8.87723 16.0386 9.0609 16.4538 9.18867L17.2125 9.43622L17.3722 9.86744C17.5958 10.4584 17.7315 11.2889 17.6756 11.752C17.6437 11.9916 17.6596 12.1433 17.7076 12.1433C17.8753 12.1433 18.0429 11.5204 18.0988 10.7458L18.1468 9.94729L18.3384 10.3466C18.4981 10.666 18.538 10.8736 18.538 11.3927C18.538 11.9756 18.5141 12.0714 18.3065 12.3669L18.0749 12.7023L18.2586 13.1096C18.3783 13.405 18.4183 13.5967 18.3783 13.7963C18.3304 14.0758 18.3224 14.0758 18.1627 13.9241C18.0669 13.8442 17.9312 13.6286 17.8433 13.445C17.6836 13.0856 17.5718 13.0057 17.3642 13.1175C17.1486 13.2293 17.1885 13.6526 17.452 14.0758C17.5798 14.2754 17.7235 14.4671 17.7714 14.4911C17.9312 14.5949 17.8673 14.6827 17.5399 14.8105C16.901 15.066 16.5097 14.9782 15.7112 14.3872C15.0564 13.9001 14.6731 13.7404 14.178 13.7404C13.8026 13.7404 13.7947 13.7324 13.7148 13.437C13.5551 12.846 12.8284 12.3988 12.2215 12.5106C11.8302 12.5825 11.3351 13.0377 11.2313 13.421L11.1514 13.7244L10.6484 13.7564C10.1133 13.7883 9.86578 13.9081 8.9714 14.5629C8.54018 14.8744 8.46831 14.8983 8.00515 14.8983C7.66177 14.8983 7.44616 14.8504 7.28645 14.7546L7.07085 14.6108L7.35034 14.2994C7.63782 13.98 7.83746 13.4529 7.74961 13.2373C7.69372 13.0776 7.43019 13.0137 7.29444 13.1335C7.23056 13.1814 7.15869 13.3172 7.12674 13.429C7.07085 13.6845 6.7674 14.0758 6.67955 14.0199C6.52783 13.9241 6.51186 13.4849 6.64761 13.1016L6.79135 12.7103L6.55977 12.2631C6.36013 11.8558 6.34416 11.76 6.38409 11.2409C6.42402 10.7059 6.5997 10.131 6.73545 10.0431C6.77538 10.0192 6.79934 10.2987 6.80732 10.65C6.81531 11.2968 7.01495 12.0555 7.19861 12.1194C7.24653 12.1353 7.27847 11.8478 7.28645 11.3607C7.28645 10.3306 7.51803 9.57198 7.8694 9.38831C8.18882 9.2286 9.53039 8.87723 10.321 8.75745C11.4309 8.58177 13.5551 8.59774 14.721 8.78939ZM5.76122 11.9596C5.79316 12.0874 5.87302 12.327 5.95287 12.5027C6.08863 12.8061 6.08863 12.846 5.96086 13.1974C5.88899 13.405 5.80913 13.5967 5.78518 13.6206C5.69734 13.7085 5.18626 13.445 5.01857 13.2214C4.89878 13.0696 4.84289 12.886 4.84289 12.6464C4.84289 12.343 4.88281 12.2471 5.11439 12.0155C5.44979 11.6802 5.69734 11.6562 5.76122 11.9596ZM19.8077 11.9836C19.9595 12.1194 20.1112 12.335 20.1352 12.4627C20.247 12.9818 19.8557 13.5328 19.3446 13.5967C19.1529 13.6206 19.113 13.5807 19.0012 13.3012C18.8495 12.894 18.8495 12.8301 19.0252 12.343C19.097 12.1194 19.1769 11.8958 19.1849 11.8399C19.2328 11.6722 19.5203 11.7361 19.8077 11.9836ZM12.8524 13.2613C13.1159 13.4689 13.1798 13.7644 13.036 14.0519C12.9083 14.2994 12.7645 14.3793 12.4691 14.3793C12.3652 14.3793 12.2215 14.3553 12.1496 14.3313C11.958 14.2515 11.7823 13.8522 11.8382 13.6206C11.9021 13.3731 12.2295 13.1016 12.4691 13.1016C12.5649 13.1016 12.7406 13.1734 12.8524 13.2613ZM11.4549 14.531C11.6146 14.6188 11.8542 14.7865 11.974 14.9223L12.1975 15.1539L11.7663 15.5851C10.8959 16.4794 10.0415 16.8787 9.03528 16.8867C8.32457 16.8867 7.89335 16.743 7.40624 16.3277C7.06286 16.0402 6.67955 15.5132 6.67955 15.3295C6.67955 15.1938 6.70351 15.2018 7.06286 15.3535C7.32638 15.4813 7.59789 15.5292 7.99717 15.5292C8.61205 15.5292 9.01133 15.3695 9.59427 14.8983C9.76995 14.7626 10.0255 14.5869 10.1533 14.515C10.4807 14.3393 11.0955 14.3473 11.4549 14.531ZM14.7689 14.507C14.9126 14.5869 15.1682 14.7546 15.3438 14.8983C15.9428 15.3854 16.3181 15.5292 16.9809 15.5292C17.444 15.5292 17.6596 15.4892 17.9232 15.3455C18.1148 15.2497 18.2985 15.1858 18.3224 15.2098C18.3943 15.2896 18.1228 15.7847 17.8273 16.1201C16.7573 17.302 14.8088 17.1343 13.2676 15.7208C12.9801 15.4573 12.7485 15.1938 12.7485 15.1379C12.7485 15.0261 13.1239 14.7226 13.5072 14.515C13.8186 14.3473 14.4495 14.3473 14.7689 14.507ZM6.1046 15.6729C6.67956 16.9586 8.10896 17.7252 9.51441 17.4936C10.1932 17.3818 10.8161 17.1422 11.407 16.743C11.8302 16.4635 11.9101 16.4395 12.4451 16.4395C12.9961 16.4315 13.052 16.4475 13.5391 16.7589C14.138 17.1502 14.705 17.3738 15.3997 17.4936C16.7333 17.7252 18.1787 17.0305 18.7936 15.8566C18.9134 15.617 19.0411 15.4174 19.0811 15.4174C19.1609 15.4174 19.1529 15.8486 19.0571 16.0961C18.9852 16.2718 19.0092 16.3916 19.1849 16.743C19.4564 17.294 19.4244 17.7891 19.097 18.1325C18.9054 18.3321 18.8894 18.38 18.9693 18.6435C19.129 19.2345 18.6898 20.0969 17.9391 20.6798L17.5798 20.9513L17.4919 20.4802C17.3482 19.7216 17.1725 19.4101 16.885 19.4101C16.6615 19.4101 16.6295 19.6098 16.7812 20.0969C17.0288 20.8795 16.7812 21.7339 16.1664 22.229C15.7591 22.5564 15.0883 22.6283 14.8328 22.3728C14.7449 22.2849 14.6651 22.1252 14.6651 22.0214C14.6651 21.7259 14.3696 21.3267 14.154 21.3267C13.8665 21.3267 13.8266 21.4544 13.9943 21.9336C14.13 22.3328 14.13 22.3807 14.0023 22.78C13.8266 23.331 13.4752 23.8102 13.0121 24.1136C12.5569 24.4171 12.3812 24.425 11.9819 24.1296C11.2473 23.6025 10.864 22.8998 10.9518 22.253C11.0476 21.4864 11.0396 21.3746 10.8879 21.3426C10.6643 21.2947 10.4647 21.5263 10.3529 21.9495C10.2251 22.4047 10.0974 22.5245 9.6901 22.5245C9.26686 22.5245 8.89154 22.3328 8.52421 21.9176C8.03709 21.3586 7.90134 20.6319 8.18882 20.0011C8.29263 19.7775 8.31659 19.6337 8.26069 19.5459C8.16486 19.3622 7.93328 19.3782 7.76559 19.5619C7.60588 19.7375 7.39825 20.3764 7.39825 20.7038C7.39825 20.8236 7.36631 20.9274 7.32638 20.9274C7.28645 20.9274 7.07085 20.7597 6.84725 20.5601C6.1605 19.9452 5.79316 19.1306 5.96884 18.6196C6.0487 18.396 6.04071 18.3401 5.89697 18.1884C5.51367 17.7811 5.47374 17.302 5.76921 16.711C5.94489 16.3517 5.96086 16.2638 5.881 16.0243C5.80913 15.7927 5.83309 15.3375 5.92892 15.3375C5.94489 15.3375 6.02474 15.4892 6.1046 15.6729Z" stroke="#B1B1B3" stroke-width="0.4" mask="url(#path-1-outside-1_7325_11007)"/>
<path d="M10.7361 11.2479L10.7361 11.2479C10.964 11.3252 11.162 11.357 11.31 11.3224C11.3869 11.3045 11.455 11.2675 11.5031 11.2054C11.5509 11.1437 11.571 11.0674 11.571 10.9855C11.571 10.8169 11.4727 10.6914 11.3002 10.5923C11.1319 10.4957 10.876 10.4133 10.5199 10.3292M10.7361 11.2479L8.73302 11.0047C8.65007 10.9999 8.58204 10.992 8.52868 10.9749C8.47058 10.9562 8.42333 10.9245 8.39296 10.8707C8.36761 10.8259 8.35943 10.7737 8.35369 10.7301C8.32405 10.5749 8.38545 10.4169 8.50542 10.3296L8.56423 10.4105L8.50423 10.3305C8.54385 10.3008 8.59724 10.2813 8.65078 10.2671C8.70669 10.2522 8.77314 10.2406 8.84628 10.2318C8.99274 10.214 9.17372 10.2062 9.36657 10.2077C9.75134 10.2107 10.1946 10.251 10.5199 10.3292M10.7361 11.2479L10.7345 11.2473C10.3261 11.1009 9.83559 11.0295 9.06557 11.0136L10.7361 11.2479ZM10.5199 10.3292C10.5198 10.3292 10.5198 10.3292 10.5197 10.3292L10.4967 10.4265L10.5201 10.3293C10.52 10.3292 10.52 10.3292 10.5199 10.3292Z" fill="#B1B1B3" stroke="#B1B1B3" stroke-width="0.2"/>
<path d="M14.248 10.3696L14.248 10.3696L14.2484 10.3695C14.5815 10.2831 15.0445 10.2307 15.4547 10.2156C15.6603 10.208 15.8551 10.2097 16.0159 10.2217C16.1712 10.2332 16.3109 10.2552 16.3945 10.297L16.3946 10.2968L16.3994 10.2996C16.6254 10.4288 16.6658 10.7308 16.4764 10.9203C16.4572 10.9394 16.4342 10.9521 16.4148 10.9609C16.3943 10.9701 16.3712 10.9779 16.3469 10.9846C16.2983 10.9979 16.2375 11.0089 16.1676 11.0177C16.0274 11.0353 15.8413 11.0454 15.6231 11.0454C15.2373 11.0454 14.7525 11.1009 14.4934 11.1771L14.4934 11.1771L14.4915 11.1776C14.3574 11.2142 14.2092 11.2487 14.0768 11.2742C13.948 11.299 13.8269 11.3166 13.7486 11.3169C13.6978 11.3189 13.6512 11.3186 13.6103 11.3128C13.5681 11.3067 13.5254 11.2939 13.4882 11.2655C13.4137 11.2086 13.3954 11.1153 13.3839 11.0308L13.3839 11.0308L13.3836 11.0286C13.3749 10.952 13.3754 10.8763 13.4013 10.8049C13.4282 10.731 13.4783 10.6727 13.5486 10.6237C13.6807 10.5319 13.905 10.4603 14.248 10.3696Z" fill="#B1B1B3" stroke="#B1B1B3" stroke-width="0.2"/>
<path d="M10.3613 12.4947L10.4282 12.5691C10.28 12.7024 10.0653 12.7403 9.8747 12.7125C9.68464 12.6847 9.49148 12.5873 9.39561 12.4157C9.21606 12.0944 9.33933 11.6888 9.66875 11.5194L9.66874 11.5194L9.66976 11.5189C9.80353 11.452 9.91407 11.4055 10.0297 11.4181C10.1444 11.4305 10.2451 11.4991 10.3666 11.5931L10.3666 11.5931L10.367 11.5934C10.5197 11.7127 10.603 11.894 10.6158 12.0734C10.6285 12.2528 10.5711 12.441 10.4281 12.5692L10.3613 12.4947ZM10.3613 12.4947C10.5929 12.2871 10.5609 11.8719 10.3054 11.6722C10.0579 11.4806 9.98599 11.4726 9.71448 11.6083C9.43499 11.7521 9.33118 12.0955 9.4829 12.367C9.63463 12.6385 10.1217 12.7103 10.3613 12.4947Z" fill="#B1B1B3" stroke="#B1B1B3" stroke-width="0.2"/>
<path d="M14.7906 11.4664L14.7906 11.4664L14.7922 11.4659C14.9869 11.3992 15.1996 11.4713 15.3562 11.5934C15.5137 11.7163 15.6383 11.9077 15.6432 12.1171L15.6432 12.1171V12.1195C15.6432 12.3871 15.4402 12.5835 15.2143 12.6691C14.9877 12.7551 14.7012 12.745 14.5018 12.5608C14.324 12.4022 14.2853 12.1645 14.3428 11.9552C14.4004 11.7455 14.5573 11.5504 14.7906 11.4664Z" fill="#B1B1B3" stroke="#B1B1B3" stroke-width="0.2"/>
</svg>
