<svg width="25" height="24" viewBox="0 0 25 24" fill="none" xmlns="http://www.w3.org/2000/svg">
<g clip-path="url(#clip0_7325_11021)">
<path d="M23.4194 12.6728C23.176 12.339 22.7993 12.1398 22.3861 12.1265C21.5598 12.0987 20.4494 12.0541 19.3192 12.0036C19.4444 11.69 19.5554 11.364 19.6472 11.025C19.6833 10.891 19.6574 10.7476 19.5763 10.6349C19.4952 10.5223 19.3675 10.4519 19.2286 10.4438L14.8059 10.1837L14.1817 8.1809L20.4125 5.52345C20.9029 5.31521 21.2199 4.83564 21.2199 4.3017C21.2199 4.18032 21.204 4.06102 21.1721 3.94622C21.069 3.57875 20.8133 3.27253 20.4708 3.10638C20.1291 2.94081 19.7316 2.9297 19.3809 3.07542L12.4832 5.94921L9.52562 6.83112C9.2887 6.90112 9.03703 6.87468 8.81857 6.75748L3.36033 3.79293C2.81842 3.50327 2.13045 3.61595 1.71353 4.04773C1.41574 4.35392 1.27873 4.77308 1.33762 5.19736C1.39666 5.62225 1.64291 5.98853 2.01386 6.20308L7.73411 9.50207L9.04383 12.5174L6.81525 17.036C6.74854 17.1712 6.75214 17.3305 6.82485 17.4627C6.89756 17.5946 7.03008 17.6829 7.18002 17.6989C7.21008 17.7022 7.72223 17.7557 8.53128 17.7557C8.69605 17.7557 8.87377 17.7533 9.06162 17.7479L7.8782 22.0454C7.75199 22.3563 7.75063 22.6974 7.87519 23.0099C8.00485 23.3356 8.2547 23.5901 8.57922 23.7272C8.74479 23.7969 8.91666 23.8299 9.08583 23.8299C9.54602 23.8299 9.98562 23.5839 10.2189 23.1566C10.226 23.1433 10.2324 23.1301 10.2383 23.1163L12.7374 17.2534C14.5758 16.7888 16.0958 16.0195 17.2613 14.9635L22.3857 14.7906C22.9645 14.7717 23.4617 14.3859 23.6231 13.8303C23.6234 13.8299 23.6234 13.8294 23.6237 13.8287C23.7379 13.4291 23.6637 13.0078 23.4194 12.6728ZM8.3275 8.77859L2.4755 5.40358C2.35306 5.33296 2.27162 5.21158 2.25208 5.07065C2.23254 4.93032 2.27762 4.79182 2.37663 4.68995C2.46316 4.6001 2.5802 4.55084 2.70611 4.55084C2.78048 4.55084 2.85651 4.57038 2.92276 4.60582L8.37993 7.56976C8.81593 7.80382 9.31623 7.85582 9.78873 7.7161L12.7704 6.82699C12.7859 6.8225 12.801 6.81708 12.816 6.81078L19.7358 3.92767C19.8446 3.88228 19.9621 3.88561 20.0682 3.93699C20.1745 3.98868 20.2512 4.08062 20.283 4.1945C20.2923 4.22785 20.2968 4.26302 20.2968 4.30176C20.2968 4.46462 20.2007 4.61065 20.051 4.67407L13.4356 7.49558C13.2178 7.58844 13.1057 7.83121 13.1763 8.05748L13.9266 10.4649C13.8988 10.4873 13.8719 10.5116 13.8437 10.5334C13.8088 10.5605 13.7736 10.5869 13.7381 10.613C13.6577 10.6722 13.5762 10.7289 13.4938 10.7831C13.4618 10.8042 13.43 10.826 13.3978 10.8464C13.1694 10.9905 12.9356 11.1166 12.7012 11.2266C12.6671 11.2426 12.633 11.2573 12.5988 11.2727C12.5145 11.3107 12.4302 11.347 12.3463 11.3811C12.308 11.3965 12.2698 11.4119 12.2316 11.4266C12.1467 11.4594 12.0624 11.4901 11.9786 11.5192C11.9476 11.5299 11.9162 11.5416 11.8854 11.5519C11.7728 11.5895 11.6613 11.6244 11.5523 11.6558C11.536 11.6605 11.5205 11.6643 11.5043 11.6688C11.4111 11.6951 11.3194 11.7193 11.2299 11.7415C11.1951 11.75 11.1612 11.7579 11.127 11.7659C11.0562 11.7825 10.9867 11.7981 10.9191 11.8123C10.8861 11.8192 10.853 11.8262 10.8208 11.8326C10.749 11.8469 10.6796 11.8598 10.6124 11.8715C10.5903 11.8754 10.567 11.8798 10.5455 11.8834C10.4584 11.898 10.3753 11.9107 10.2977 11.9215C10.2817 11.9238 10.2676 11.9254 10.252 11.9275C10.1901 11.9357 10.1308 11.9431 10.0763 11.9493C10.0568 11.9515 10.0383 11.9534 10.0198 11.9554C9.97023 11.9607 9.92328 11.9653 9.88137 11.969C9.86993 11.97 9.85774 11.9711 9.84688 11.972C9.83457 11.973 9.8259 11.9735 9.81436 11.9744L8.52023 8.99468C8.48073 8.90395 8.41316 8.82816 8.3275 8.77859ZM7.95008 16.8219L9.88577 12.8964C9.89833 12.8955 9.91436 12.8939 9.92765 12.8928C9.9566 12.8906 9.98543 12.8881 10.0177 12.8852C10.0468 12.8826 10.0779 12.8794 10.1096 12.8762C10.1428 12.8728 10.1754 12.8694 10.2114 12.8654C10.2466 12.8614 10.284 12.8567 10.3217 12.8519C10.3593 12.8472 10.3961 12.8427 10.436 12.8371C10.4773 12.8315 10.521 12.8247 10.5646 12.8181C10.605 12.812 10.6442 12.8062 10.6865 12.7992C10.7345 12.7914 10.7851 12.7821 10.8354 12.773C10.8773 12.7655 10.918 12.7585 10.9614 12.7501C11.017 12.7394 11.0751 12.7268 11.1329 12.7146C11.1744 12.7058 11.2145 12.6978 11.257 12.6882C11.3222 12.6735 11.3899 12.6566 11.4574 12.6399C11.4954 12.6305 11.5322 12.6222 11.5709 12.6121C11.6555 12.59 11.7423 12.5653 11.8296 12.5399C11.8531 12.5331 11.8757 12.5274 11.8994 12.5203C12.0116 12.4867 12.1258 12.4502 12.2415 12.4105C12.2574 12.4051 12.2736 12.3985 12.2896 12.3929C12.3888 12.3583 12.4886 12.3221 12.5894 12.2827C12.6262 12.2682 12.6635 12.2516 12.7004 12.2365C12.7809 12.2037 12.8614 12.1709 12.9424 12.1348C12.9866 12.1151 13.0308 12.0929 13.0749 12.0723C13.1493 12.0375 13.2235 12.003 13.2978 11.9652C13.3451 11.9412 13.392 11.9148 13.4392 11.8895C13.5104 11.8514 13.5815 11.8136 13.6523 11.7726C13.7013 11.7443 13.7497 11.7135 13.7984 11.6837C13.8666 11.642 13.9348 11.6003 14.0024 11.5557C14.052 11.5229 14.1008 11.4878 14.15 11.4535C14.2157 11.4075 14.2812 11.3613 14.3459 11.3124C14.3948 11.2754 14.4427 11.2363 14.4909 11.1976C14.5333 11.1635 14.5768 11.1319 14.6187 11.0965L18.5877 11.3306C18.4786 11.6449 18.3527 11.9447 18.2106 12.2269C17.8431 12.9586 17.3566 13.6133 16.7644 14.1722C16.764 14.1725 16.7639 14.173 16.7636 14.1733C15.6533 15.2247 14.1502 15.9791 12.2956 16.4156C11.4589 16.613 10.5679 16.7416 9.64673 16.7978C8.95817 16.8402 8.36866 16.8366 7.95008 16.8219ZM9.39974 22.7296C9.30568 22.8828 9.10617 22.9471 8.93774 22.8765C8.8431 22.8366 8.77023 22.7627 8.73282 22.6683C8.69587 22.5757 8.69765 22.4742 8.73793 22.3822C8.74694 22.3618 8.7543 22.3407 8.76033 22.3194L10.0335 17.6959C10.0925 17.6912 10.1499 17.6831 10.2087 17.6779C10.3591 17.6644 10.5084 17.649 10.657 17.6318C10.7641 17.6195 10.8707 17.6068 10.9767 17.5925C11.1284 17.5721 11.2782 17.5488 11.4275 17.5245C11.4952 17.5135 11.5646 17.5055 11.6317 17.4937L9.39974 22.7296ZM22.7364 13.5737C22.6865 13.744 22.5336 13.8624 22.3551 13.8681L18.1634 14.0097C18.1899 13.9762 18.2127 13.9399 18.2387 13.906C18.3019 13.8236 18.3618 13.739 18.4217 13.6541C18.4915 13.5553 18.5601 13.4558 18.6253 13.3537C18.6815 13.2658 18.7348 13.1761 18.7876 13.0858C18.8226 13.0261 18.8616 12.9692 18.8951 12.9084C20.1574 12.9664 21.4323 13.0181 22.356 13.0491C22.53 13.0548 22.6297 13.1566 22.6736 13.2167C22.7487 13.3198 22.7716 13.4499 22.7364 13.5737Z" fill="#B1B1B3"/>
<path d="M10.1683 5.88973C11.7452 5.88973 13.0279 4.607 13.0279 3.03007C13.0279 1.45315 11.7452 0.17041 10.1683 0.17041C8.59133 0.17041 7.30859 1.45315 7.30859 3.03007C7.30859 4.607 8.59149 5.88973 10.1683 5.88973ZM10.1683 1.09346C11.2362 1.09346 12.105 1.96213 12.105 3.03004C12.105 4.09795 11.2362 4.96663 10.1683 4.96663C9.10035 4.96663 8.23167 4.09795 8.23167 3.03004C8.23167 1.96213 9.10035 1.09346 10.1683 1.09346Z" fill="#B1B1B3"/>
</g>
<defs>
<clipPath id="clip0_7325_11021">
<rect width="22.7692" height="24" fill="white" transform="translate(1.11523)"/>
</clipPath>
</defs>
</svg>
