<svg width="25" height="26" viewBox="0 0 25 26" fill="none" xmlns="http://www.w3.org/2000/svg">
<mask id="path-1-outside-1_7325_8460" maskUnits="userSpaceOnUse" x="1.35547" y="0" width="22" height="26" fill="black">
<rect fill="white" x="1.35547" width="22" height="26"/>
<path d="M22.6417 21.3423C22.3765 19.7082 21.3989 18.2643 19.9594 17.3806C19.2373 16.9396 18.502 16.5568 17.8657 16.2499C18.3901 16.0563 18.8162 15.6542 19.0244 15.1247C20.2206 15.2956 21.3059 14.3648 21.3059 13.1447C21.3059 12.4691 20.9587 11.8448 20.4095 11.4813C20.7389 11.1201 20.927 10.643 20.927 10.1396C20.927 9.01204 19.988 8.10702 18.8604 8.14461C18.8553 8.05118 18.8433 7.95903 18.8252 7.86853C18.9859 7.81367 19.1471 7.76123 19.3067 7.70201C19.3068 7.70201 19.3072 7.70164 19.3074 7.70164C19.6287 7.5811 19.8793 7.34185 20.0131 7.02748C20.1398 6.7296 20.1444 6.40352 20.0189 6.08769C20.0147 6.07377 20.0092 6.05948 20.0026 6.04519C19.7434 5.45054 19.0672 5.15999 18.4616 5.38495C18.1227 5.5109 17.7846 5.62027 17.4491 5.72075C17.3284 3.05914 15.1432 1 12.5004 1C9.84077 1 7.66921 3.09804 7.54834 5.72057C7.21898 5.62173 6.88681 5.51397 6.53834 5.38459C5.93362 5.16219 5.25689 5.45017 5.00647 6.0243C5.00335 6.03017 4.99291 6.05508 4.99016 6.06131C4.8546 6.37237 4.85313 6.71495 4.98631 7.02674C5.11877 7.33671 5.37707 7.58183 5.694 7.69834C5.85365 7.75769 6.01509 7.81027 6.17589 7.86537C6.15755 7.95673 6.14564 8.04993 6.14044 8.1446C4.97988 8.10805 4.06997 9.0373 4.06997 10.1396C4.06997 10.6415 4.25867 11.119 4.58878 11.4813C4.04103 11.8451 3.69479 12.4695 3.69479 13.1447C3.69479 14.2476 4.5919 15.1445 5.69455 15.1445C5.78871 15.1445 5.88196 15.1379 5.97374 15.1247C6.18377 15.6544 6.61064 16.0567 7.13421 16.2502C6.498 16.557 5.76297 16.9397 5.04109 17.3806C3.60228 18.2614 2.62457 19.7053 2.35912 21.3423C2.34171 21.4493 2.38751 21.557 2.47673 21.619C5.73668 23.873 9.05269 25.0004 12.4019 25C15.7494 25 19.1299 23.8741 22.5197 21.6219C22.6117 21.5607 22.6595 21.4515 22.6417 21.3423ZM8.42213 15.9062C8.42213 15.5148 8.58873 15.1306 8.90249 14.7815C8.99359 14.8847 9.0866 14.9864 9.18679 15.0818C10.1618 16.0103 11.425 16.4579 12.7122 16.3935C14.0497 16.3315 15.2324 15.7037 16.0606 14.7414C16.399 15.1007 16.5785 15.4987 16.5785 15.9062C16.5785 17.2362 14.7491 18.3185 12.5004 18.3185C10.2517 18.3185 8.42213 17.2362 8.42213 15.9062ZM8.24205 8.45237C9.64501 8.76596 11.0744 8.92355 12.5043 8.92355C13.917 8.92355 15.3298 8.76884 16.7174 8.46263V11.4264C16.7174 12.4423 16.3891 13.3775 15.8372 14.1237C15.8309 14.1298 15.8228 14.1327 15.817 14.1395C15.8045 14.1541 15.7991 14.1716 15.7901 14.1877C15.0562 15.1434 13.9477 15.773 12.6854 15.8315C11.5207 15.8864 10.4182 15.4775 9.5748 14.6744C8.71543 13.8559 8.24205 12.7479 8.24205 11.5539L8.24205 8.45237ZM18.3007 8.25598C18.3007 8.31681 18.2974 8.37763 18.291 8.43515C18.2699 8.62833 18.4466 8.78855 18.6433 8.73815C18.7226 8.7169 18.8183 8.70628 18.9273 8.70628C19.7196 8.70628 20.3642 9.34929 20.3642 10.1396C20.3642 10.61 20.1362 11.0479 19.7544 11.3106C19.6679 11.3703 19.6218 11.4729 19.6348 11.5769C19.6476 11.681 19.7172 11.7693 19.8154 11.8059C20.3703 12.0133 20.7431 12.5515 20.7431 13.1447C20.7431 13.9372 20.0984 14.5817 19.3061 14.5817C19.1718 14.5817 19.0361 14.5623 18.9139 14.526C18.7574 14.4808 18.5976 14.5736 18.5598 14.7301C18.4064 15.3694 17.834 15.8161 17.1677 15.8161C17.1576 15.8161 17.1457 15.8132 17.1356 15.813C17.11 15.2648 16.8616 14.7435 16.4065 14.2886C16.9553 13.4783 17.2802 12.4926 17.2802 11.4264V8.32651C17.6163 8.24178 17.9508 8.14927 18.2831 8.04641C18.2933 8.11515 18.3007 8.18472 18.3007 8.25598ZM12.5004 1.56277C14.9094 1.56277 16.857 3.48545 16.8965 5.87454C13.8973 6.67596 10.8869 6.61952 8.10049 5.87436C8.14054 3.48989 10.0987 1.56277 12.5004 1.56277ZM5.50384 6.80581C5.43221 6.638 5.43312 6.45371 5.51337 6.26795C5.65494 5.94441 6.02346 5.79389 6.34306 5.91255C10.3473 7.39863 14.7406 7.36542 18.6576 5.91255C18.9826 5.79128 19.347 5.94882 19.4869 6.27088C19.4877 6.27235 19.4882 6.27381 19.4889 6.27528C19.491 6.28041 19.4928 6.28517 19.4944 6.28883C19.6444 6.63695 19.4703 7.03912 19.1106 7.1744C14.8462 8.75757 10.1508 8.7561 5.88928 7.17037C5.7136 7.10589 5.57675 6.97619 5.50384 6.80581ZM6.43685 14.7286C6.41853 14.6539 6.37035 14.5898 6.30348 14.5517C6.2368 14.5132 6.15729 14.5044 6.0831 14.526C5.95908 14.563 5.82828 14.5817 5.69455 14.5817C4.90223 14.5817 4.25756 13.9372 4.25756 13.1447C4.25756 12.5519 4.62908 12.0137 5.18215 11.8059C5.27997 11.7689 5.34941 11.681 5.36223 11.5773C5.37524 11.4733 5.32944 11.371 5.24352 11.3113C4.86101 11.0457 4.63275 10.6078 4.63275 10.1396C4.63275 9.34929 5.27741 8.70628 6.06973 8.70628C6.18019 8.70628 6.27491 8.7169 6.35954 8.73888C6.44857 8.76123 6.5442 8.73925 6.61418 8.67879C6.68416 8.61834 6.7197 8.52711 6.70963 8.43515C6.70321 8.37762 6.7001 8.3168 6.7001 8.25598C6.7001 8.18366 6.70747 8.11313 6.71789 8.04357C7.03649 8.1424 7.35713 8.2318 7.67928 8.31387V11.5539C7.67928 12.552 7.98878 13.525 8.54819 14.3342C8.12227 14.7786 7.88979 15.2843 7.86492 15.8127C7.85347 15.813 7.84076 15.8161 7.82931 15.8161C7.16615 15.8161 6.59366 15.3691 6.43685 14.7286ZM2.94607 21.2581C3.22434 19.8555 4.08737 18.6241 5.33456 17.8605C6.26643 17.2917 7.22614 16.8188 7.94999 16.4889C8.37395 17.8512 10.2526 18.8813 12.5004 18.8813C14.7483 18.8813 16.6268 17.8512 17.0507 16.4889C17.7745 16.8187 18.734 17.2914 19.6654 17.8605C20.9122 18.6256 21.775 19.8555 22.054 21.2548C15.5876 25.4847 9.16041 25.4858 2.94607 21.2581Z"/>
</mask>
<path d="M22.6417 21.3423C22.3765 19.7082 21.3989 18.2643 19.9594 17.3806C19.2373 16.9396 18.502 16.5568 17.8657 16.2499C18.3901 16.0563 18.8162 15.6542 19.0244 15.1247C20.2206 15.2956 21.3059 14.3648 21.3059 13.1447C21.3059 12.4691 20.9587 11.8448 20.4095 11.4813C20.7389 11.1201 20.927 10.643 20.927 10.1396C20.927 9.01204 19.988 8.10702 18.8604 8.14461C18.8553 8.05118 18.8433 7.95903 18.8252 7.86853C18.9859 7.81367 19.1471 7.76123 19.3067 7.70201C19.3068 7.70201 19.3072 7.70164 19.3074 7.70164C19.6287 7.5811 19.8793 7.34185 20.0131 7.02748C20.1398 6.7296 20.1444 6.40352 20.0189 6.08769C20.0147 6.07377 20.0092 6.05948 20.0026 6.04519C19.7434 5.45054 19.0672 5.15999 18.4616 5.38495C18.1227 5.5109 17.7846 5.62027 17.4491 5.72075C17.3284 3.05914 15.1432 1 12.5004 1C9.84077 1 7.66921 3.09804 7.54834 5.72057C7.21898 5.62173 6.88681 5.51397 6.53834 5.38459C5.93362 5.16219 5.25689 5.45017 5.00647 6.0243C5.00335 6.03017 4.99291 6.05508 4.99016 6.06131C4.8546 6.37237 4.85313 6.71495 4.98631 7.02674C5.11877 7.33671 5.37707 7.58183 5.694 7.69834C5.85365 7.75769 6.01509 7.81027 6.17589 7.86537C6.15755 7.95673 6.14564 8.04993 6.14044 8.1446C4.97988 8.10805 4.06997 9.0373 4.06997 10.1396C4.06997 10.6415 4.25867 11.119 4.58878 11.4813C4.04103 11.8451 3.69479 12.4695 3.69479 13.1447C3.69479 14.2476 4.5919 15.1445 5.69455 15.1445C5.78871 15.1445 5.88196 15.1379 5.97374 15.1247C6.18377 15.6544 6.61064 16.0567 7.13421 16.2502C6.498 16.557 5.76297 16.9397 5.04109 17.3806C3.60228 18.2614 2.62457 19.7053 2.35912 21.3423C2.34171 21.4493 2.38751 21.557 2.47673 21.619C5.73668 23.873 9.05269 25.0004 12.4019 25C15.7494 25 19.1299 23.8741 22.5197 21.6219C22.6117 21.5607 22.6595 21.4515 22.6417 21.3423ZM8.42213 15.9062C8.42213 15.5148 8.58873 15.1306 8.90249 14.7815C8.99359 14.8847 9.0866 14.9864 9.18679 15.0818C10.1618 16.0103 11.425 16.4579 12.7122 16.3935C14.0497 16.3315 15.2324 15.7037 16.0606 14.7414C16.399 15.1007 16.5785 15.4987 16.5785 15.9062C16.5785 17.2362 14.7491 18.3185 12.5004 18.3185C10.2517 18.3185 8.42213 17.2362 8.42213 15.9062ZM8.24205 8.45237C9.64501 8.76596 11.0744 8.92355 12.5043 8.92355C13.917 8.92355 15.3298 8.76884 16.7174 8.46263V11.4264C16.7174 12.4423 16.3891 13.3775 15.8372 14.1237C15.8309 14.1298 15.8228 14.1327 15.817 14.1395C15.8045 14.1541 15.7991 14.1716 15.7901 14.1877C15.0562 15.1434 13.9477 15.773 12.6854 15.8315C11.5207 15.8864 10.4182 15.4775 9.5748 14.6744C8.71543 13.8559 8.24205 12.7479 8.24205 11.5539L8.24205 8.45237ZM18.3007 8.25598C18.3007 8.31681 18.2974 8.37763 18.291 8.43515C18.2699 8.62833 18.4466 8.78855 18.6433 8.73815C18.7226 8.7169 18.8183 8.70628 18.9273 8.70628C19.7196 8.70628 20.3642 9.34929 20.3642 10.1396C20.3642 10.61 20.1362 11.0479 19.7544 11.3106C19.6679 11.3703 19.6218 11.4729 19.6348 11.5769C19.6476 11.681 19.7172 11.7693 19.8154 11.8059C20.3703 12.0133 20.7431 12.5515 20.7431 13.1447C20.7431 13.9372 20.0984 14.5817 19.3061 14.5817C19.1718 14.5817 19.0361 14.5623 18.9139 14.526C18.7574 14.4808 18.5976 14.5736 18.5598 14.7301C18.4064 15.3694 17.834 15.8161 17.1677 15.8161C17.1576 15.8161 17.1457 15.8132 17.1356 15.813C17.11 15.2648 16.8616 14.7435 16.4065 14.2886C16.9553 13.4783 17.2802 12.4926 17.2802 11.4264V8.32651C17.6163 8.24178 17.9508 8.14927 18.2831 8.04641C18.2933 8.11515 18.3007 8.18472 18.3007 8.25598ZM12.5004 1.56277C14.9094 1.56277 16.857 3.48545 16.8965 5.87454C13.8973 6.67596 10.8869 6.61952 8.10049 5.87436C8.14054 3.48989 10.0987 1.56277 12.5004 1.56277ZM5.50384 6.80581C5.43221 6.638 5.43312 6.45371 5.51337 6.26795C5.65494 5.94441 6.02346 5.79389 6.34306 5.91255C10.3473 7.39863 14.7406 7.36542 18.6576 5.91255C18.9826 5.79128 19.347 5.94882 19.4869 6.27088C19.4877 6.27235 19.4882 6.27381 19.4889 6.27528C19.491 6.28041 19.4928 6.28517 19.4944 6.28883C19.6444 6.63695 19.4703 7.03912 19.1106 7.1744C14.8462 8.75757 10.1508 8.7561 5.88928 7.17037C5.7136 7.10589 5.57675 6.97619 5.50384 6.80581ZM6.43685 14.7286C6.41853 14.6539 6.37035 14.5898 6.30348 14.5517C6.2368 14.5132 6.15729 14.5044 6.0831 14.526C5.95908 14.563 5.82828 14.5817 5.69455 14.5817C4.90223 14.5817 4.25756 13.9372 4.25756 13.1447C4.25756 12.5519 4.62908 12.0137 5.18215 11.8059C5.27997 11.7689 5.34941 11.681 5.36223 11.5773C5.37524 11.4733 5.32944 11.371 5.24352 11.3113C4.86101 11.0457 4.63275 10.6078 4.63275 10.1396C4.63275 9.34929 5.27741 8.70628 6.06973 8.70628C6.18019 8.70628 6.27491 8.7169 6.35954 8.73888C6.44857 8.76123 6.5442 8.73925 6.61418 8.67879C6.68416 8.61834 6.7197 8.52711 6.70963 8.43515C6.70321 8.37762 6.7001 8.3168 6.7001 8.25598C6.7001 8.18366 6.70747 8.11313 6.71789 8.04357C7.03649 8.1424 7.35713 8.2318 7.67928 8.31387V11.5539C7.67928 12.552 7.98878 13.525 8.54819 14.3342C8.12227 14.7786 7.88979 15.2843 7.86492 15.8127C7.85347 15.813 7.84076 15.8161 7.82931 15.8161C7.16615 15.8161 6.59366 15.3691 6.43685 14.7286ZM2.94607 21.2581C3.22434 19.8555 4.08737 18.6241 5.33456 17.8605C6.26643 17.2917 7.22614 16.8188 7.94999 16.4889C8.37395 17.8512 10.2526 18.8813 12.5004 18.8813C14.7483 18.8813 16.6268 17.8512 17.0507 16.4889C17.7745 16.8187 18.734 17.2914 19.6654 17.8605C20.9122 18.6256 21.775 19.8555 22.054 21.2548C15.5876 25.4847 9.16041 25.4858 2.94607 21.2581Z" fill="#B1B1B3"/>
<path d="M22.6417 21.3423C22.3765 19.7082 21.3989 18.2643 19.9594 17.3806C19.2373 16.9396 18.502 16.5568 17.8657 16.2499C18.3901 16.0563 18.8162 15.6542 19.0244 15.1247C20.2206 15.2956 21.3059 14.3648 21.3059 13.1447C21.3059 12.4691 20.9587 11.8448 20.4095 11.4813C20.7389 11.1201 20.927 10.643 20.927 10.1396C20.927 9.01204 19.988 8.10702 18.8604 8.14461C18.8553 8.05118 18.8433 7.95903 18.8252 7.86853C18.9859 7.81367 19.1471 7.76123 19.3067 7.70201C19.3068 7.70201 19.3072 7.70164 19.3074 7.70164C19.6287 7.5811 19.8793 7.34185 20.0131 7.02748C20.1398 6.7296 20.1444 6.40352 20.0189 6.08769C20.0147 6.07377 20.0092 6.05948 20.0026 6.04519C19.7434 5.45054 19.0672 5.15999 18.4616 5.38495C18.1227 5.5109 17.7846 5.62027 17.4491 5.72075C17.3284 3.05914 15.1432 1 12.5004 1C9.84077 1 7.66921 3.09804 7.54834 5.72057C7.21898 5.62173 6.88681 5.51397 6.53834 5.38459C5.93362 5.16219 5.25689 5.45017 5.00647 6.0243C5.00335 6.03017 4.99291 6.05508 4.99016 6.06131C4.8546 6.37237 4.85313 6.71495 4.98631 7.02674C5.11877 7.33671 5.37707 7.58183 5.694 7.69834C5.85365 7.75769 6.01509 7.81027 6.17589 7.86537C6.15755 7.95673 6.14564 8.04993 6.14044 8.1446C4.97988 8.10805 4.06997 9.0373 4.06997 10.1396C4.06997 10.6415 4.25867 11.119 4.58878 11.4813C4.04103 11.8451 3.69479 12.4695 3.69479 13.1447C3.69479 14.2476 4.5919 15.1445 5.69455 15.1445C5.78871 15.1445 5.88196 15.1379 5.97374 15.1247C6.18377 15.6544 6.61064 16.0567 7.13421 16.2502C6.498 16.557 5.76297 16.9397 5.04109 17.3806C3.60228 18.2614 2.62457 19.7053 2.35912 21.3423C2.34171 21.4493 2.38751 21.557 2.47673 21.619C5.73668 23.873 9.05269 25.0004 12.4019 25C15.7494 25 19.1299 23.8741 22.5197 21.6219C22.6117 21.5607 22.6595 21.4515 22.6417 21.3423ZM8.42213 15.9062C8.42213 15.5148 8.58873 15.1306 8.90249 14.7815C8.99359 14.8847 9.0866 14.9864 9.18679 15.0818C10.1618 16.0103 11.425 16.4579 12.7122 16.3935C14.0497 16.3315 15.2324 15.7037 16.0606 14.7414C16.399 15.1007 16.5785 15.4987 16.5785 15.9062C16.5785 17.2362 14.7491 18.3185 12.5004 18.3185C10.2517 18.3185 8.42213 17.2362 8.42213 15.9062ZM8.24205 8.45237C9.64501 8.76596 11.0744 8.92355 12.5043 8.92355C13.917 8.92355 15.3298 8.76884 16.7174 8.46263V11.4264C16.7174 12.4423 16.3891 13.3775 15.8372 14.1237C15.8309 14.1298 15.8228 14.1327 15.817 14.1395C15.8045 14.1541 15.7991 14.1716 15.7901 14.1877C15.0562 15.1434 13.9477 15.773 12.6854 15.8315C11.5207 15.8864 10.4182 15.4775 9.5748 14.6744C8.71543 13.8559 8.24205 12.7479 8.24205 11.5539L8.24205 8.45237ZM18.3007 8.25598C18.3007 8.31681 18.2974 8.37763 18.291 8.43515C18.2699 8.62833 18.4466 8.78855 18.6433 8.73815C18.7226 8.7169 18.8183 8.70628 18.9273 8.70628C19.7196 8.70628 20.3642 9.34929 20.3642 10.1396C20.3642 10.61 20.1362 11.0479 19.7544 11.3106C19.6679 11.3703 19.6218 11.4729 19.6348 11.5769C19.6476 11.681 19.7172 11.7693 19.8154 11.8059C20.3703 12.0133 20.7431 12.5515 20.7431 13.1447C20.7431 13.9372 20.0984 14.5817 19.3061 14.5817C19.1718 14.5817 19.0361 14.5623 18.9139 14.526C18.7574 14.4808 18.5976 14.5736 18.5598 14.7301C18.4064 15.3694 17.834 15.8161 17.1677 15.8161C17.1576 15.8161 17.1457 15.8132 17.1356 15.813C17.11 15.2648 16.8616 14.7435 16.4065 14.2886C16.9553 13.4783 17.2802 12.4926 17.2802 11.4264V8.32651C17.6163 8.24178 17.9508 8.14927 18.2831 8.04641C18.2933 8.11515 18.3007 8.18472 18.3007 8.25598ZM12.5004 1.56277C14.9094 1.56277 16.857 3.48545 16.8965 5.87454C13.8973 6.67596 10.8869 6.61952 8.10049 5.87436C8.14054 3.48989 10.0987 1.56277 12.5004 1.56277ZM5.50384 6.80581C5.43221 6.638 5.43312 6.45371 5.51337 6.26795C5.65494 5.94441 6.02346 5.79389 6.34306 5.91255C10.3473 7.39863 14.7406 7.36542 18.6576 5.91255C18.9826 5.79128 19.347 5.94882 19.4869 6.27088C19.4877 6.27235 19.4882 6.27381 19.4889 6.27528C19.491 6.28041 19.4928 6.28517 19.4944 6.28883C19.6444 6.63695 19.4703 7.03912 19.1106 7.1744C14.8462 8.75757 10.1508 8.7561 5.88928 7.17037C5.7136 7.10589 5.57675 6.97619 5.50384 6.80581ZM6.43685 14.7286C6.41853 14.6539 6.37035 14.5898 6.30348 14.5517C6.2368 14.5132 6.15729 14.5044 6.0831 14.526C5.95908 14.563 5.82828 14.5817 5.69455 14.5817C4.90223 14.5817 4.25756 13.9372 4.25756 13.1447C4.25756 12.5519 4.62908 12.0137 5.18215 11.8059C5.27997 11.7689 5.34941 11.681 5.36223 11.5773C5.37524 11.4733 5.32944 11.371 5.24352 11.3113C4.86101 11.0457 4.63275 10.6078 4.63275 10.1396C4.63275 9.34929 5.27741 8.70628 6.06973 8.70628C6.18019 8.70628 6.27491 8.7169 6.35954 8.73888C6.44857 8.76123 6.5442 8.73925 6.61418 8.67879C6.68416 8.61834 6.7197 8.52711 6.70963 8.43515C6.70321 8.37762 6.7001 8.3168 6.7001 8.25598C6.7001 8.18366 6.70747 8.11313 6.71789 8.04357C7.03649 8.1424 7.35713 8.2318 7.67928 8.31387V11.5539C7.67928 12.552 7.98878 13.525 8.54819 14.3342C8.12227 14.7786 7.88979 15.2843 7.86492 15.8127C7.85347 15.813 7.84076 15.8161 7.82931 15.8161C7.16615 15.8161 6.59366 15.3691 6.43685 14.7286ZM2.94607 21.2581C3.22434 19.8555 4.08737 18.6241 5.33456 17.8605C6.26643 17.2917 7.22614 16.8188 7.94999 16.4889C8.37395 17.8512 10.2526 18.8813 12.5004 18.8813C14.7483 18.8813 16.6268 17.8512 17.0507 16.4889C17.7745 16.8187 18.734 17.2914 19.6654 17.8605C20.9122 18.6256 21.775 19.8555 22.054 21.2548C15.5876 25.4847 9.16041 25.4858 2.94607 21.2581Z" stroke="#B1B1B3" stroke-width="0.6" mask="url(#path-1-outside-1_7325_8460)"/>
<path d="M12.2273 19.4396C11.6279 19.4396 11.14 19.926 11.14 20.525C11.14 21.1239 11.6278 21.6108 12.2273 21.6108C12.8265 21.6108 13.3143 21.1239 13.3143 20.525C13.3143 19.926 12.8264 19.4396 12.2273 19.4396ZM12.2273 20.748C12.1031 20.748 12.0028 20.6472 12.0028 20.525C12.0028 20.403 12.1029 20.3024 12.2273 20.3024C12.3515 20.3024 12.4515 20.4029 12.4515 20.525C12.4515 20.6473 12.3513 20.748 12.2273 20.748Z" fill="#B1B1B3" stroke="#B1B1B3" stroke-width="0.3"/>
<path d="M12.2273 21.7848C11.6279 21.7848 11.14 22.2712 11.14 22.8702C11.14 23.4691 11.6278 23.956 12.2273 23.956C12.8265 23.956 13.3143 23.4691 13.3143 22.8702C13.3143 22.2712 12.8264 21.7848 12.2273 21.7848ZM12.2273 23.0932C12.1031 23.0932 12.0028 22.9924 12.0028 22.8702C12.0028 22.7482 12.1029 22.6476 12.2273 22.6476C12.3515 22.6476 12.4515 22.7481 12.4515 22.8702C12.4515 22.9925 12.3513 23.0932 12.2273 23.0932Z" fill="#B1B1B3" stroke="#B1B1B3" stroke-width="0.3"/>
<path d="M10.2089 10.7985L10.2089 10.7986C10.0908 11.0057 9.82703 11.0778 9.62012 10.9592C9.62009 10.9592 9.62007 10.9592 9.62004 10.9592L9.69465 10.829L10.2089 10.7985ZM10.2089 10.7985C10.2581 10.7123 10.3452 10.6617 10.4454 10.6617C10.5453 10.6617 10.6325 10.7123 10.6816 10.7985L10.6818 10.7988M10.2089 10.7985L10.6818 10.7988M10.6818 10.7988C10.7616 10.9381 10.9072 11.0161 11.0565 11.0161C11.129 11.0161 11.2027 10.998 11.2705 10.9592L11.1959 10.829L11.2703 10.9593C11.4771 10.8413 11.5492 10.5778 11.431 10.3707L11.431 10.3707M10.6818 10.7988L11.431 10.3707M11.431 10.3707C11.2267 10.0132 10.8573 9.79897 10.4456 9.79897M11.431 10.3707L10.4456 9.79897M10.4456 9.79897C10.0337 9.79897 9.66396 10.0131 9.45967 10.3706L10.4456 9.79897Z" fill="#B1B1B3" stroke="#B1B1B3" stroke-width="0.3"/>
<path d="M14.2763 10.7985L14.2763 10.7986C14.1582 11.0057 13.8939 11.0779 13.6873 10.9591L13.762 10.829L13.6875 10.9592C13.4808 10.8409 13.4087 10.5776 13.527 10.3707L14.2763 10.7985ZM14.2763 10.7985C14.3255 10.7123 14.4126 10.6617 14.5128 10.6617C14.6127 10.6617 14.6998 10.7123 14.749 10.7985L14.7492 10.7988M14.2763 10.7985L14.7492 10.7988M14.7492 10.7988C14.829 10.9381 14.9746 11.0161 15.1239 11.0161C15.1963 11.0161 15.27 10.9981 15.3377 10.9593M14.7492 10.7988L15.4983 10.3707M15.4983 10.3707L15.4984 10.3707C15.6165 10.5778 15.5445 10.8412 15.3377 10.9593M15.4983 10.3707C15.2941 10.0132 14.9247 9.79897 14.513 9.79897M15.4983 10.3707L14.513 9.79897M15.3377 10.9593C15.3377 10.9593 15.3377 10.9593 15.3377 10.9593L15.2633 10.829L15.3379 10.9592C15.3378 10.9592 15.3378 10.9593 15.3377 10.9593ZM14.513 9.79897C14.1011 9.79897 13.7313 10.0131 13.527 10.3706L14.513 9.79897Z" fill="#B1B1B3" stroke="#B1B1B3" stroke-width="0.3"/>
<path d="M10.7696 12.6783L10.7696 12.6783L10.7696 12.6783ZM10.7696 12.6783C10.6818 12.6336 10.5779 12.6461 10.4942 12.6974L10.7696 12.6783ZM10.8376 12.5447L10.8382 12.545C11.9448 13.1148 13.0118 13.1149 14.1192 12.545C14.1192 12.545 14.1193 12.545 14.1193 12.545L14.188 12.6783L10.8376 12.5447ZM10.8376 12.5447C10.6949 12.472 10.5354 12.4963 10.416 12.5694L10.8376 12.5447ZM12.4788 14.3489C11.959 14.3489 11.504 14.0663 11.2604 13.6468C12.0708 13.8945 12.8868 13.8945 13.6972 13.6468C13.4537 14.0663 12.9986 14.3489 12.4788 14.3489Z" fill="#B1B1B3" stroke="#B1B1B3" stroke-width="0.3"/>
<path d="M12.5002 13.1346C13.2048 13.1346 13.7781 12.5624 13.7781 11.8583C13.7781 11.1546 13.2047 10.5824 12.5002 10.5824C11.7955 10.5824 11.2221 11.1546 11.2221 11.8583C11.2221 12.5624 11.7954 13.1346 12.5002 13.1346ZM12.5002 11.4452C12.7295 11.4452 12.9153 11.631 12.9153 11.8583C12.9153 12.0858 12.7294 12.2718 12.5002 12.2718C12.2708 12.2718 12.0848 12.0857 12.0848 11.8583C12.0848 11.6311 12.2707 11.4452 12.5002 11.4452Z" fill="#B1B1B3" stroke="#B1B1B3" stroke-width="0.3"/>
</svg>
