<svg width="25" height="24" viewBox="0 0 25 24" fill="none" xmlns="http://www.w3.org/2000/svg">
<path d="M22.7502 15.45L20.5002 16.05L18.4002 14.85L20.8502 14.2C21.1002 14.15 21.2502 13.85 21.2002 13.6C21.1502 13.35 20.8502 13.2 20.6002 13.25L17.2002 14.15L15.7002 13.3V10.75L17.2002 9.9L20.6002 10.8C20.8502 10.85 21.1502 10.7 21.2002 10.45C21.2502 10.2 21.1002 9.9 20.8502 9.85L18.4002 9.2L20.5002 8L22.7502 8.6C23.0002 8.65 23.3002 8.5 23.3502 8.25C23.4002 8 23.2502 7.7 23.0002 7.65L21.7502 7.3L22.7002 6.75C22.9502 6.6 23.0002 6.3 22.9002 6.05C22.7502 5.8 22.4502 5.75 22.2002 5.85L21.2002 6.4L21.5502 5.15C21.6002 4.9 21.4502 4.6 21.2002 4.55C20.9502 4.5 20.6502 4.65 20.6002 4.9L20.0002 7.1L17.9002 8.3L18.5502 5.85C18.6002 5.6 18.4502 5.3 18.2002 5.25C17.9502 5.2 17.6502 5.35 17.6002 5.6L16.7002 9L15.2002 9.85L13.0002 8.6V6.85L15.5002 4.35C15.7002 4.15 15.7002 3.85 15.5002 3.65C15.3002 3.45 15.0002 3.45 14.8002 3.65L13.0002 5.45V3.05L14.6502 1.4C14.8502 1.2 14.8502 0.9 14.6502 0.7C14.4502 0.5 14.1502 0.5 13.9502 0.7L13.0002 1.65V0.5C13.0002 0.2 12.8002 0 12.5002 0C12.2002 0 12.0002 0.2 12.0002 0.5V1.65L11.1002 0.75C10.9002 0.55 10.6002 0.55 10.4002 0.75C10.2002 0.95 10.2002 1.25 10.4002 1.45L12.0002 3.05V5.45L10.2002 3.65C10.0002 3.45 9.7002 3.45 9.5002 3.65C9.3002 3.85 9.3002 4.15 9.5002 4.35L12.0002 6.85V8.6L9.8002 9.85L8.3002 9L7.4002 5.6C7.3502 5.35 7.0502 5.2 6.8002 5.25C6.5502 5.3 6.4002 5.6 6.4502 5.85L7.1002 8.3L5.0002 7.1L4.4002 4.85C4.3502 4.6 4.05021 4.4 3.80021 4.5C3.55021 4.55 3.4002 4.85 3.4502 5.1L3.80021 6.35L2.8502 5.8C2.6002 5.65 2.30021 5.75 2.15021 6C2.00021 6.25 2.1002 6.55 2.3502 6.7L3.3002 7.25L2.0002 7.6C1.7502 7.65 1.60021 7.95 1.65021 8.2C1.70021 8.45 2.0002 8.6 2.2502 8.55L4.5002 7.95L6.6002 9.15L4.1502 9.8C3.90021 9.85 3.75021 10.15 3.80021 10.4C3.85021 10.65 4.1502 10.8 4.4002 10.75L7.8002 9.85L9.3002 10.7V13.25L7.8002 14.1L4.4002 13.2C4.1502 13.15 3.85021 13.3 3.80021 13.55C3.75021 13.8 3.90021 14.1 4.1502 14.15L6.6002 14.8L4.5002 16.05L2.2502 15.45C2.0002 15.4 1.70021 15.55 1.65021 15.8C1.60021 16.05 1.7502 16.35 2.0002 16.4L3.2502 16.75L2.3002 17.3C2.0502 17.45 2.0002 17.75 2.1002 18C2.2502 18.25 2.5502 18.3 2.8002 18.2L3.80021 17.65L3.4502 18.9C3.3502 19.15 3.50021 19.45 3.80021 19.5C4.05021 19.55 4.3502 19.4 4.4002 19.15L5.0002 16.9L7.1002 15.7L6.4502 18.15C6.4002 18.4 6.5502 18.7 6.8002 18.75C7.0502 18.8 7.3502 18.65 7.4002 18.4L8.3002 15L9.8002 14.15L12.0002 15.4V17.15L9.5002 19.65C9.3002 19.85 9.3002 20.15 9.5002 20.35C9.7002 20.55 10.0002 20.55 10.2002 20.35L12.0002 18.55V20.95L10.3502 22.6C10.1502 22.8 10.1502 23.1 10.3502 23.3C10.5502 23.5 10.8502 23.5 11.0502 23.3L12.0002 22.35V23.5C12.0002 23.8 12.2002 24 12.5002 24C12.8002 24 13.0002 23.8 13.0002 23.5V22.35L13.9002 23.25C14.1002 23.45 14.4002 23.45 14.6002 23.25C14.8002 23.05 14.8002 22.75 14.6002 22.55L13.0002 20.95V18.55L14.8002 20.35C15.0002 20.55 15.3002 20.55 15.5002 20.35C15.7002 20.15 15.7002 19.85 15.5002 19.65L13.0002 17.15V15.4L15.2002 14.15L16.7002 15L17.6002 18.4C17.6502 18.65 17.9502 18.8 18.2002 18.75C18.4502 18.7 18.6002 18.4 18.5502 18.15L17.9002 15.7L20.0002 16.9L20.6002 19.15C20.6502 19.4 20.9502 19.55 21.2002 19.5C21.4502 19.45 21.6002 19.15 21.5502 18.9L21.2002 17.65L22.1502 18.2C22.4002 18.35 22.7002 18.25 22.8502 18C23.0002 17.75 22.9002 17.45 22.6502 17.3L21.7002 16.75L22.9502 16.4C23.2002 16.35 23.3502 16.05 23.3002 15.8C23.3002 15.55 23.0002 15.4 22.7502 15.45ZM14.7002 13.25L12.5002 14.55L10.3002 13.3V10.75L12.5002 9.5L14.7002 10.75V13.25Z" fill="#B1B1B3"/>
</svg>
