<svg width="25" height="24" viewBox="0 0 25 24" fill="none" xmlns="http://www.w3.org/2000/svg">
<mask id="path-1-outside-1_7325_8308" maskUnits="userSpaceOnUse" x="-0.5" y="1.41113" width="26" height="21" fill="black">
<rect fill="white" x="-0.5" y="1.41113" width="26" height="21"/>
<path d="M24.4285 16.341L23.0806 12.3239V12.325C22.8377 11.6008 22.167 11.1055 21.4031 11.0873L20.9688 9.2312H20.9699C20.7902 8.45024 20.0937 7.89823 19.2924 7.90037H17.8675V6.74821C17.8686 5.99828 17.4396 5.31361 16.7645 4.98732C16.0884 4.66104 15.2861 4.74983 14.6988 5.21519L11.73 3.98492C11.6188 3.93892 11.4915 3.95497 11.3952 4.02771L7.72481 2.50753C7.50337 2.3952 7.24555 2.38023 7.01339 2.46688C6.78124 2.55246 6.59511 2.73219 6.49989 2.96113C6.40468 3.19007 6.41003 3.44894 6.51273 3.67362C6.6165 3.89935 6.80905 4.07051 7.04548 4.14862L10.7169 5.6688H10.7159C10.7319 5.78861 10.8111 5.89024 10.9223 5.93625L13.9551 7.1911V7.89823H9.85262C9.22678 7.89716 8.62449 8.13893 8.17305 8.57435L5.55847 11.0852H5.00539V11.0841C3.58043 11.082 2.29454 11.941 1.75322 13.2601L0.618177 16.0105C0.419196 16.494 0.473756 17.045 0.764739 17.4793C1.05572 17.9147 1.54356 18.1758 2.06668 18.1768H2.69252L4.71976 20.5753V20.5742C5.26323 21.2183 6.06234 21.5895 6.90429 21.5884H18.5907C19.5086 21.5873 20.3698 21.1466 20.9079 20.4041L22.519 18.1768H23.1074C23.5556 18.1758 23.9761 17.9607 24.2382 17.597C24.4992 17.2333 24.5697 16.7657 24.4285 16.341ZM13.9767 6.46566L11.4947 5.43866L11.7836 4.74114L14.227 5.75316V5.75423C14.0975 5.97247 14.012 6.21425 13.9767 6.46566ZM7.12997 3.22088C7.15993 3.14599 7.23481 3.09678 7.31612 3.09999C7.36854 3.10106 7.41882 3.11283 7.46696 3.13422L11.0946 4.63729L10.9459 4.99674L10.9341 5.02348L7.30539 3.52149C7.06683 3.422 7.10855 3.26688 7.12888 3.22086L7.12997 3.22088ZM14.6345 6.74692C14.6291 6.40458 14.7618 6.07509 15.0014 5.83116C15.2421 5.58725 15.5695 5.45032 15.9118 5.45032C16.2541 5.45032 16.5815 5.58726 16.8222 5.83116C17.0618 6.07507 17.1945 6.40458 17.1891 6.74692V7.89908H14.6345L14.6345 6.74692ZM8.64364 9.06408C8.96779 8.75171 9.40211 8.57627 9.85251 8.57734H19.2924C19.7781 8.57627 20.1996 8.91113 20.3087 9.38396L20.7067 11.0849L6.53845 11.086L8.64364 9.06408ZM20.3588 20.0059C19.947 20.5729 19.2901 20.9088 18.5894 20.9099H6.90406C6.26217 20.9099 5.65241 20.6275 5.2384 20.1364L2.96081 17.4427C2.79286 17.2437 2.75648 16.9656 2.8656 16.7291C2.97579 16.4927 3.21221 16.3419 3.47326 16.3408H21.6983C21.9497 16.3419 22.1797 16.4831 22.2942 16.7066C22.4076 16.9313 22.3872 17.1998 22.2396 17.4042L20.3588 20.0059ZM23.6869 17.1999C23.5543 17.3881 23.3382 17.4983 23.1071 17.4972H22.9552C23.1156 17.0822 23.0621 16.6147 22.8107 16.2477C22.5593 15.8808 22.1421 15.6615 21.6982 15.6615H3.47313C3.02809 15.6615 2.61195 15.8808 2.36054 16.2477C2.10914 16.6147 2.05458 17.0822 2.21398 17.4972H2.06528H2.06635C1.77002 17.4972 1.49292 17.3496 1.32819 17.1036C1.16344 16.8575 1.13135 16.5451 1.24475 16.2702L2.38086 13.5208L2.37979 13.5219C2.81735 12.4575 3.85396 11.7632 5.00505 11.7653H21.359C21.8479 11.7653 22.2812 12.0777 22.4363 12.5409L23.7843 16.558V16.5569C23.8591 16.7751 23.8228 17.0148 23.6869 17.1999ZM6.66963 16.8864C5.96571 16.8864 5.33239 17.3101 5.0628 17.9594C4.79428 18.6099 4.94298 19.3577 5.44043 19.8551C5.93682 20.3515 6.68568 20.5002 7.33504 20.2317C7.98441 19.9621 8.40805 19.3288 8.40805 18.6248C8.40805 17.6652 7.62923 16.8864 6.66963 16.8864ZM6.66963 19.6851C6.24064 19.6851 5.85444 19.4272 5.6897 19.0304C5.52603 18.6345 5.61696 18.1788 5.91971 17.8761C6.22354 17.5722 6.67925 17.4813 7.0751 17.6461C7.47092 17.8097 7.72981 18.1959 7.72981 18.6249C7.72874 19.2101 7.2548 19.684 6.66963 19.6851ZM10.6834 16.8864C9.98055 16.8864 9.34616 17.3101 9.07763 17.9594C8.80805 18.6088 8.95675 19.3566 9.4542 19.854C9.95166 20.3515 10.6994 20.5002 11.3488 20.2317C11.9992 19.9621 12.4229 19.3277 12.4229 18.6248C12.4218 17.6652 11.6441 16.8864 10.6834 16.8864ZM10.6834 19.6851C10.2555 19.6851 9.86821 19.4272 9.70454 19.0304C9.54086 18.6345 9.63073 18.1788 9.93455 17.875C10.2373 17.5722 10.693 17.4813 11.0899 17.645C11.4858 17.8097 11.7436 18.1959 11.7436 18.6249C11.7436 19.2101 11.2686 19.684 10.6834 19.6851ZM14.6983 16.8864C13.9954 16.8864 13.3611 17.309 13.0915 17.9594C12.8219 18.6088 12.9706 19.3566 13.468 19.854C13.9655 20.3515 14.7133 20.5002 15.3637 20.2317C16.0131 19.9621 16.4367 19.3277 16.4367 18.6248C16.4356 17.6652 15.6579 16.8875 14.6983 16.8864ZM14.6983 19.6851C14.2693 19.6851 13.8831 19.4272 13.7184 19.0304C13.5547 18.6345 13.6456 18.1788 13.9484 17.875C14.2522 17.5722 14.7079 17.4813 15.1038 17.645C15.4996 17.8097 15.7585 18.1959 15.7585 18.6249C15.7574 19.2101 15.2835 19.684 14.6983 19.6851ZM18.7121 16.8864C18.0092 16.8864 17.3748 17.3101 17.1063 17.9594C16.8367 18.6088 16.9854 19.3566 17.4829 19.854C17.9803 20.3515 18.7281 20.5002 19.3775 20.2317C20.0279 19.9621 20.4516 19.3277 20.4516 18.6248C20.4505 17.6652 19.6728 16.8864 18.7121 16.8864ZM18.7121 19.6851C18.2842 19.6851 17.8969 19.4272 17.7332 19.0304C17.5696 18.6345 17.6594 18.1788 17.9632 17.875C18.266 17.5722 18.7217 17.4813 19.1186 17.645C19.5144 17.8097 19.7723 18.1959 19.7723 18.6249C19.7723 19.2101 19.2983 19.684 18.7121 19.6851Z"/>
</mask>
<path d="M24.4285 16.341L23.0806 12.3239V12.325C22.8377 11.6008 22.167 11.1055 21.4031 11.0873L20.9688 9.2312H20.9699C20.7902 8.45024 20.0937 7.89823 19.2924 7.90037H17.8675V6.74821C17.8686 5.99828 17.4396 5.31361 16.7645 4.98732C16.0884 4.66104 15.2861 4.74983 14.6988 5.21519L11.73 3.98492C11.6188 3.93892 11.4915 3.95497 11.3952 4.02771L7.72481 2.50753C7.50337 2.3952 7.24555 2.38023 7.01339 2.46688C6.78124 2.55246 6.59511 2.73219 6.49989 2.96113C6.40468 3.19007 6.41003 3.44894 6.51273 3.67362C6.6165 3.89935 6.80905 4.07051 7.04548 4.14862L10.7169 5.6688H10.7159C10.7319 5.78861 10.8111 5.89024 10.9223 5.93625L13.9551 7.1911V7.89823H9.85262C9.22678 7.89716 8.62449 8.13893 8.17305 8.57435L5.55847 11.0852H5.00539V11.0841C3.58043 11.082 2.29454 11.941 1.75322 13.2601L0.618177 16.0105C0.419196 16.494 0.473756 17.045 0.764739 17.4793C1.05572 17.9147 1.54356 18.1758 2.06668 18.1768H2.69252L4.71976 20.5753V20.5742C5.26323 21.2183 6.06234 21.5895 6.90429 21.5884H18.5907C19.5086 21.5873 20.3698 21.1466 20.9079 20.4041L22.519 18.1768H23.1074C23.5556 18.1758 23.9761 17.9607 24.2382 17.597C24.4992 17.2333 24.5697 16.7657 24.4285 16.341ZM13.9767 6.46566L11.4947 5.43866L11.7836 4.74114L14.227 5.75316V5.75423C14.0975 5.97247 14.012 6.21425 13.9767 6.46566ZM7.12997 3.22088C7.15993 3.14599 7.23481 3.09678 7.31612 3.09999C7.36854 3.10106 7.41882 3.11283 7.46696 3.13422L11.0946 4.63729L10.9459 4.99674L10.9341 5.02348L7.30539 3.52149C7.06683 3.422 7.10855 3.26688 7.12888 3.22086L7.12997 3.22088ZM14.6345 6.74692C14.6291 6.40458 14.7618 6.07509 15.0014 5.83116C15.2421 5.58725 15.5695 5.45032 15.9118 5.45032C16.2541 5.45032 16.5815 5.58726 16.8222 5.83116C17.0618 6.07507 17.1945 6.40458 17.1891 6.74692V7.89908H14.6345L14.6345 6.74692ZM8.64364 9.06408C8.96779 8.75171 9.40211 8.57627 9.85251 8.57734H19.2924C19.7781 8.57627 20.1996 8.91113 20.3087 9.38396L20.7067 11.0849L6.53845 11.086L8.64364 9.06408ZM20.3588 20.0059C19.947 20.5729 19.2901 20.9088 18.5894 20.9099H6.90406C6.26217 20.9099 5.65241 20.6275 5.2384 20.1364L2.96081 17.4427C2.79286 17.2437 2.75648 16.9656 2.8656 16.7291C2.97579 16.4927 3.21221 16.3419 3.47326 16.3408H21.6983C21.9497 16.3419 22.1797 16.4831 22.2942 16.7066C22.4076 16.9313 22.3872 17.1998 22.2396 17.4042L20.3588 20.0059ZM23.6869 17.1999C23.5543 17.3881 23.3382 17.4983 23.1071 17.4972H22.9552C23.1156 17.0822 23.0621 16.6147 22.8107 16.2477C22.5593 15.8808 22.1421 15.6615 21.6982 15.6615H3.47313C3.02809 15.6615 2.61195 15.8808 2.36054 16.2477C2.10914 16.6147 2.05458 17.0822 2.21398 17.4972H2.06528H2.06635C1.77002 17.4972 1.49292 17.3496 1.32819 17.1036C1.16344 16.8575 1.13135 16.5451 1.24475 16.2702L2.38086 13.5208L2.37979 13.5219C2.81735 12.4575 3.85396 11.7632 5.00505 11.7653H21.359C21.8479 11.7653 22.2812 12.0777 22.4363 12.5409L23.7843 16.558V16.5569C23.8591 16.7751 23.8228 17.0148 23.6869 17.1999ZM6.66963 16.8864C5.96571 16.8864 5.33239 17.3101 5.0628 17.9594C4.79428 18.6099 4.94298 19.3577 5.44043 19.8551C5.93682 20.3515 6.68568 20.5002 7.33504 20.2317C7.98441 19.9621 8.40805 19.3288 8.40805 18.6248C8.40805 17.6652 7.62923 16.8864 6.66963 16.8864ZM6.66963 19.6851C6.24064 19.6851 5.85444 19.4272 5.6897 19.0304C5.52603 18.6345 5.61696 18.1788 5.91971 17.8761C6.22354 17.5722 6.67925 17.4813 7.0751 17.6461C7.47092 17.8097 7.72981 18.1959 7.72981 18.6249C7.72874 19.2101 7.2548 19.684 6.66963 19.6851ZM10.6834 16.8864C9.98055 16.8864 9.34616 17.3101 9.07763 17.9594C8.80805 18.6088 8.95675 19.3566 9.4542 19.854C9.95166 20.3515 10.6994 20.5002 11.3488 20.2317C11.9992 19.9621 12.4229 19.3277 12.4229 18.6248C12.4218 17.6652 11.6441 16.8864 10.6834 16.8864ZM10.6834 19.6851C10.2555 19.6851 9.86821 19.4272 9.70454 19.0304C9.54086 18.6345 9.63073 18.1788 9.93455 17.875C10.2373 17.5722 10.693 17.4813 11.0899 17.645C11.4858 17.8097 11.7436 18.1959 11.7436 18.6249C11.7436 19.2101 11.2686 19.684 10.6834 19.6851ZM14.6983 16.8864C13.9954 16.8864 13.3611 17.309 13.0915 17.9594C12.8219 18.6088 12.9706 19.3566 13.468 19.854C13.9655 20.3515 14.7133 20.5002 15.3637 20.2317C16.0131 19.9621 16.4367 19.3277 16.4367 18.6248C16.4356 17.6652 15.6579 16.8875 14.6983 16.8864ZM14.6983 19.6851C14.2693 19.6851 13.8831 19.4272 13.7184 19.0304C13.5547 18.6345 13.6456 18.1788 13.9484 17.875C14.2522 17.5722 14.7079 17.4813 15.1038 17.645C15.4996 17.8097 15.7585 18.1959 15.7585 18.6249C15.7574 19.2101 15.2835 19.684 14.6983 19.6851ZM18.7121 16.8864C18.0092 16.8864 17.3748 17.3101 17.1063 17.9594C16.8367 18.6088 16.9854 19.3566 17.4829 19.854C17.9803 20.3515 18.7281 20.5002 19.3775 20.2317C20.0279 19.9621 20.4516 19.3277 20.4516 18.6248C20.4505 17.6652 19.6728 16.8864 18.7121 16.8864ZM18.7121 19.6851C18.2842 19.6851 17.8969 19.4272 17.7332 19.0304C17.5696 18.6345 17.6594 18.1788 17.9632 17.875C18.266 17.5722 18.7217 17.4813 19.1186 17.645C19.5144 17.8097 19.7723 18.1959 19.7723 18.6249C19.7723 19.2101 19.2983 19.684 18.7121 19.6851Z" fill="#B1B1B3"/>
<path d="M23.688 17.0999H23.6869V17.2999H23.688V17.0999ZM6.6707 16.7864H6.66963V16.9864H6.6707V16.7864ZM6.6707 19.5851H6.66963V19.7851H6.6707V19.5851ZM24.4285 16.341L24.6183 16.2779L24.6181 16.2774L24.4285 16.341ZM23.0806 12.3239L23.2702 12.2603L22.8806 12.3239H23.0806ZM23.0806 12.325L22.8909 12.3886L23.2806 12.325H23.0806ZM21.4031 11.0873L21.2084 11.1328L21.2437 11.2835L21.3984 11.2872L21.4031 11.0873ZM20.9688 9.2312V9.0312H20.7166L20.7741 9.27677L20.9688 9.2312ZM20.9699 9.2312V9.4312H21.2211L21.1648 9.18634L20.9699 9.2312ZM19.2924 7.90037V8.10037L19.293 8.10037L19.2924 7.90037ZM17.8675 7.90037H17.6675V8.10037H17.8675V7.90037ZM17.8675 6.74821L17.6675 6.74792V6.74821H17.8675ZM16.7645 4.98732L16.8516 4.80726L16.8515 4.8072L16.7645 4.98732ZM14.6988 5.21519L14.6222 5.39995L14.7308 5.44496L14.823 5.37195L14.6988 5.21519ZM11.73 3.98492L11.8066 3.80016L11.8065 3.8001L11.73 3.98492ZM11.3952 4.02771L11.3187 4.21249L11.4244 4.25629L11.5157 4.1873L11.3952 4.02771ZM7.72481 2.50753L7.63434 2.6859L7.64119 2.68937L7.64828 2.69231L7.72481 2.50753ZM7.01339 2.46688L7.08257 2.65454L7.08333 2.65425L7.01339 2.46688ZM6.49989 2.96113L6.31523 2.88432L6.31522 2.88433L6.49989 2.96113ZM6.51273 3.67362L6.33083 3.75677L6.33101 3.75716L6.51273 3.67362ZM7.04548 4.14862L7.12199 3.96383L7.1152 3.96102L7.10822 3.95871L7.04548 4.14862ZM10.7169 5.6688V5.8688L10.7935 5.48401L10.7169 5.6688ZM10.7159 5.6688V5.4688H10.4873L10.5176 5.69535L10.7159 5.6688ZM10.9223 5.93625L10.9988 5.75144L10.9988 5.75142L10.9223 5.93625ZM13.9551 7.1911H14.1551V7.05741L14.0316 7.0063L13.9551 7.1911ZM13.9551 7.89823V8.09823H14.1551V7.89823H13.9551ZM9.85262 7.89823L9.85228 8.09823H9.85262V7.89823ZM8.17305 8.57435L8.31158 8.71861L8.31189 8.71831L8.17305 8.57435ZM5.55847 11.0852V11.2852H5.63895L5.69699 11.2294L5.55847 11.0852ZM5.00539 11.0852H4.80539V11.2852H5.00539V11.0852ZM5.00539 11.0841H5.20539V10.8844L5.00569 10.8841L5.00539 11.0841ZM1.75322 13.2601L1.9381 13.3363L1.93824 13.336L1.75322 13.2601ZM0.618177 16.0105L0.4333 15.9342L0.433224 15.9344L0.618177 16.0105ZM0.764739 17.4793L0.931022 17.3682L0.930899 17.368L0.764739 17.4793ZM2.06668 18.1768L2.06627 18.3768H2.06668V18.1768ZM2.69252 18.1768L2.84526 18.0477L2.78534 17.9768H2.69252V18.1768ZM4.71976 20.5753L4.56702 20.7044L4.91976 21.1218V20.5753H4.71976ZM4.71976 20.5742L4.87261 20.4453L4.51976 20.0271V20.5742H4.71976ZM6.90429 21.5884L6.90429 21.3884L6.90404 21.3884L6.90429 21.5884ZM18.5907 21.5884L18.5907 21.7884L18.591 21.7884L18.5907 21.5884ZM20.9079 20.4041L21.0699 20.5215L21.07 20.5214L20.9079 20.4041ZM22.519 18.1768V17.9768H22.4168L22.357 18.0596L22.519 18.1768ZM23.1074 18.1768L23.1074 18.3768L23.1079 18.3768L23.1074 18.1768ZM24.2382 17.597L24.4004 17.7139L24.4007 17.7136L24.2382 17.597ZM13.9767 6.46566L13.9002 6.65046L14.1388 6.7492L14.1747 6.49347L13.9767 6.46566ZM11.4947 5.43866L11.3099 5.36213L11.2334 5.54697L11.4183 5.62346L11.4947 5.43866ZM11.7836 4.74114L11.8601 4.55637L11.6753 4.47983L11.5988 4.66462L11.7836 4.74114ZM14.227 5.75316H14.427V5.61952L14.3035 5.56839L14.227 5.75316ZM14.227 5.75423L14.399 5.85626L14.427 5.80909V5.75423H14.227ZM7.12997 3.22088L7.1273 3.42086L7.26465 3.42269L7.31567 3.29516L7.12997 3.22088ZM7.31612 3.09999L7.30823 3.29987L7.31204 3.29995L7.31612 3.09999ZM7.46696 3.13422L7.3857 3.31705L7.3904 3.31899L7.46696 3.13422ZM11.0946 4.63729L11.2794 4.71374L11.3558 4.52904L11.1712 4.45252L11.0946 4.63729ZM10.9459 4.99674L11.129 5.07731L11.1307 5.07319L10.9459 4.99674ZM10.9341 5.02348L10.8576 5.20828L11.0384 5.2831L11.1172 5.10403L10.9341 5.02348ZM7.30539 3.52149L7.22841 3.70608L7.2289 3.70628L7.30539 3.52149ZM7.12888 3.22086L7.13155 3.02088L6.99936 3.01912L6.94593 3.14005L7.12888 3.22086ZM14.6345 6.74692L14.8345 6.74692L14.8345 6.74379L14.6345 6.74692ZM15.0014 5.83116L14.8591 5.69068L14.8587 5.69101L15.0014 5.83116ZM16.8222 5.83116L16.9649 5.691L16.9645 5.69068L16.8222 5.83116ZM17.1891 6.74692L16.9891 6.74378V6.74692H17.1891ZM17.1891 7.89908V8.09908H17.3891V7.89908H17.1891ZM14.6345 7.89908L14.4345 7.89907L14.4344 8.09908H14.6345V7.89908ZM8.64364 9.06408L8.78218 9.20833L8.78242 9.20809L8.64364 9.06408ZM9.85251 8.57734L9.85204 8.77734H9.85251V8.57734ZM19.2924 8.57734L19.2924 8.77734L19.2929 8.77734L19.2924 8.57734ZM20.3087 9.38396L20.1139 9.42893L20.114 9.42952L20.3087 9.38396ZM20.7067 11.0849L20.7067 11.2849L20.9589 11.2849L20.9014 11.0394L20.7067 11.0849ZM6.53845 11.086L6.39991 10.9417L6.04144 11.286L6.53846 11.286L6.53845 11.086ZM20.3588 20.0059L20.5207 20.1234L20.5209 20.1231L20.3588 20.0059ZM18.5894 20.9099L18.5894 21.1099L18.5897 21.1099L18.5894 20.9099ZM5.2384 20.1364L5.39131 20.0075L5.39113 20.0073L5.2384 20.1364ZM2.96081 17.4427L2.80798 17.5717L2.80809 17.5718L2.96081 17.4427ZM2.8656 16.7291L2.68432 16.6446L2.68401 16.6453L2.8656 16.7291ZM3.47326 16.3408L3.47326 16.1408L3.47244 16.1408L3.47326 16.3408ZM21.6983 16.3408L21.6991 16.1408H21.6983V16.3408ZM22.2942 16.7066L22.4727 16.6165L22.4722 16.6155L22.2942 16.7066ZM22.2396 17.4042L22.4017 17.5213L22.4017 17.5213L22.2396 17.4042ZM23.6869 17.1999L23.5257 17.0815L23.5234 17.0847L23.6869 17.1999ZM23.1071 17.4972L23.108 17.2972H23.1071V17.4972ZM22.9552 17.4972L22.7686 17.4251L22.6634 17.6972H22.9552V17.4972ZM22.8107 16.2477L22.9757 16.1347L22.9757 16.1347L22.8107 16.2477ZM2.36054 16.2477L2.19555 16.1347L2.19555 16.1347L2.36054 16.2477ZM2.21398 17.4972V17.6972H2.50503L2.40068 17.4255L2.21398 17.4972ZM1.32819 17.1036L1.49439 16.9923L1.49438 16.9923L1.32819 17.1036ZM1.24475 16.2702L1.05991 16.1938L1.05986 16.1939L1.24475 16.2702ZM2.38086 13.5208L2.5657 13.5972L2.23951 13.3793L2.38086 13.5208ZM2.37979 13.5219L2.19481 13.4459L2.52114 13.6634L2.37979 13.5219ZM5.00505 11.7653L5.00468 11.9653H5.00505V11.7653ZM22.4363 12.5409L22.2467 12.6044L22.2467 12.6045L22.4363 12.5409ZM23.7843 16.558L23.5946 16.6216L23.9843 16.558H23.7843ZM23.7843 16.5569L23.9734 16.492L23.5843 16.5569H23.7843ZM5.0628 17.9594L4.87808 17.8827L4.87793 17.8831L5.0628 17.9594ZM7.33504 20.2317L7.41147 20.4165L7.41173 20.4164L7.33504 20.2317ZM6.66963 19.6851L6.66963 19.8851L6.66999 19.8851L6.66963 19.6851ZM5.6897 19.0304L5.50488 19.1068L5.50498 19.107L5.6897 19.0304ZM5.91971 17.8761L6.06113 18.0175L6.06113 18.0175L5.91971 17.8761ZM7.0751 17.6461L6.99825 17.8307L6.99867 17.8309L7.0751 17.6461ZM7.72981 18.6249L7.92981 18.6253V18.6249H7.72981ZM9.07763 17.9594L9.26235 18.0361L9.26246 18.0358L9.07763 17.9594ZM11.3488 20.2317L11.4252 20.4165L11.4254 20.4164L11.3488 20.2317ZM12.4229 18.6248L12.6229 18.6248L12.6229 18.6246L12.4229 18.6248ZM10.6834 19.6851L10.6834 19.8851L10.6838 19.8851L10.6834 19.6851ZM9.70454 19.0304L9.88944 18.9541L9.88937 18.9539L9.70454 19.0304ZM9.93455 17.875L9.79313 17.7335L9.79313 17.7335L9.93455 17.875ZM11.0899 17.645L11.1668 17.4603L11.1662 17.4601L11.0899 17.645ZM14.6983 16.8864L14.6985 16.6864H14.6983V16.8864ZM13.0915 17.9594L13.2762 18.0361L13.2762 18.036L13.0915 17.9594ZM15.3637 20.2317L15.44 20.4165L15.4404 20.4164L15.3637 20.2317ZM16.4367 18.6248L16.6367 18.6248L16.6367 18.6246L16.4367 18.6248ZM14.6983 19.6851L14.6983 19.8851L14.6987 19.8851L14.6983 19.6851ZM13.7184 19.0304L13.5335 19.1068L13.5336 19.107L13.7184 19.0304ZM13.9484 17.875L13.8072 17.7333L13.8067 17.7338L13.9484 17.875ZM15.1038 17.645L15.1806 17.4603L15.1802 17.4601L15.1038 17.645ZM15.7585 18.6249L15.9585 18.6252V18.6249H15.7585ZM17.1063 17.9594L17.291 18.0361L17.2911 18.0358L17.1063 17.9594ZM17.4829 19.854L17.6243 19.7126L17.6243 19.7126L17.4829 19.854ZM19.3775 20.2317L19.4539 20.4165L19.4541 20.4164L19.3775 20.2317ZM20.4516 18.6248L20.6516 18.6248L20.6516 18.6246L20.4516 18.6248ZM18.7121 19.6851L18.7121 19.8851L18.7125 19.8851L18.7121 19.6851ZM17.7332 19.0304L17.9181 18.9541L17.9181 18.9539L17.7332 19.0304ZM17.9632 17.875L17.8218 17.7335L17.8218 17.7335L17.9632 17.875ZM19.1186 17.645L19.1955 17.4603L19.1949 17.4601L19.1186 17.645ZM24.6181 16.2774L23.2702 12.2603L22.891 12.3876L24.2389 16.4047L24.6181 16.2774ZM22.8806 12.3239V12.325H23.2806V12.3239H22.8806ZM23.2702 12.2614C23.0006 11.4574 22.256 10.9075 21.4079 10.8873L21.3984 11.2872C22.0779 11.3034 22.6748 11.7441 22.8909 12.3886L23.2702 12.2614ZM21.5979 11.0417L21.1635 9.18563L20.7741 9.27677L21.2084 11.1328L21.5979 11.0417ZM20.9688 9.4312H20.9699V9.0312H20.9688V9.4312ZM21.1648 9.18634C20.9641 8.31425 20.1864 7.69798 19.2919 7.70037L19.293 8.10037C20.001 8.09848 20.6162 8.58623 20.775 9.27605L21.1648 9.18634ZM19.2924 7.70037H17.8675V8.10037H19.2924V7.70037ZM18.0675 7.90037V6.74821H17.6675V7.90037H18.0675ZM18.0675 6.74849C18.0687 5.92172 17.5958 5.16697 16.8516 4.80726L16.6775 5.16739C17.2834 5.46025 17.6684 6.07483 17.6675 6.74792L18.0675 6.74849ZM16.8515 4.8072C16.1064 4.44763 15.222 4.54542 14.5746 5.05843L14.823 5.37195C15.3502 4.95424 16.0705 4.87444 16.6776 5.16745L16.8515 4.8072ZM14.7753 5.03043L11.8066 3.80016L11.6535 4.16969L14.6222 5.39995L14.7753 5.03043ZM11.8065 3.8001C11.6299 3.72712 11.4277 3.75251 11.2746 3.86813L11.5157 4.1873C11.5553 4.15742 11.6076 4.15073 11.6536 4.16975L11.8065 3.8001ZM11.4717 3.84294L7.80135 2.32276L7.64828 2.69231L11.3187 4.21249L11.4717 3.84294ZM7.81529 2.32917C7.5443 2.19171 7.22832 2.17318 6.94345 2.27951L7.08333 2.65425C7.26277 2.58728 7.46243 2.5987 7.63434 2.6859L7.81529 2.32917ZM6.94421 2.27923C6.65932 2.38425 6.43163 2.60445 6.31523 2.88432L6.68455 3.03794C6.75859 2.85993 6.90316 2.72068 7.08257 2.65453L6.94421 2.27923ZM6.31522 2.88433C6.19848 3.16502 6.20517 3.48185 6.33083 3.75677L6.69463 3.59048C6.61489 3.41603 6.61087 3.21511 6.68456 3.03793L6.31522 2.88433ZM6.33101 3.75716C6.45817 4.03377 6.69409 4.24316 6.98274 4.33852L7.10822 3.95871C6.92401 3.89786 6.77482 3.76492 6.69444 3.59008L6.33101 3.75716ZM6.96897 4.3334L10.6404 5.85358L10.7935 5.48401L7.12199 3.96383L6.96897 4.3334ZM10.7169 5.4688H10.7159V5.8688H10.7169V5.4688ZM10.5176 5.69535C10.5433 5.88669 10.6695 6.04813 10.8459 6.12107L10.9988 5.75142C10.9527 5.73236 10.9206 5.69054 10.9141 5.64225L10.5176 5.69535ZM10.8459 6.12105L13.8787 7.37591L14.0316 7.0063L10.9988 5.75144L10.8459 6.12105ZM13.7551 7.1911V7.89823H14.1551V7.1911H13.7551ZM13.9551 7.69823H9.85262V8.09823H13.9551V7.69823ZM9.85296 7.69823C9.17531 7.69707 8.52308 7.95887 8.0342 8.4304L8.31189 8.71831C8.72589 8.319 9.27824 8.09725 9.85228 8.09823L9.85296 7.69823ZM8.03452 8.4301L5.41994 10.9409L5.69699 11.2294L8.31158 8.71861L8.03452 8.4301ZM5.55847 10.8852H5.00539V11.2852H5.55847V10.8852ZM5.20539 11.0852V11.0841H4.80539V11.0852H5.20539ZM5.00569 10.8841C3.49964 10.8818 2.14042 11.7898 1.56819 13.1841L1.93824 13.336C2.44867 12.0922 3.66122 11.2821 5.00509 11.2841L5.00569 10.8841ZM1.56834 13.1838L0.4333 15.9342L0.803053 16.0868L1.9381 13.3363L1.56834 13.1838ZM0.433224 15.9344C0.208933 16.4794 0.270347 17.1007 0.59858 17.5906L0.930899 17.368C0.677164 16.9893 0.629459 16.5086 0.803129 16.0866L0.433224 15.9344ZM0.598457 17.5905C0.926496 18.0813 1.47655 18.3756 2.06627 18.3768L2.06708 17.9768C1.61057 17.9759 1.18495 17.7482 0.931022 17.3682L0.598457 17.5905ZM2.06668 18.3768H2.69252V17.9768H2.06668V18.3768ZM2.53977 18.306L4.56702 20.7044L4.87251 20.4462L2.84526 18.0477L2.53977 18.306ZM4.91976 20.5753V20.5742H4.51976V20.5753H4.91976ZM4.56691 20.7032C5.14836 21.3923 6.00347 21.7895 6.90455 21.7884L6.90404 21.3884C6.12122 21.3894 5.37809 21.0443 4.87261 20.4453L4.56691 20.7032ZM6.90429 21.7884H18.5907V21.3884H6.90429V21.7884ZM18.591 21.7884C19.573 21.7873 20.4942 21.3157 21.0699 20.5215L20.746 20.2868C20.2454 20.9774 19.4443 21.3874 18.5905 21.3884L18.591 21.7884ZM21.07 20.5214L22.6811 18.2941L22.357 18.0596L20.7459 20.2869L21.07 20.5214ZM22.519 18.3768H23.1074V17.9768H22.519V18.3768ZM23.1079 18.3768C23.62 18.3756 24.1007 18.1299 24.4004 17.7139L24.0759 17.4801C23.8515 17.7916 23.4913 17.9759 23.1069 17.9768L23.1079 18.3768ZM24.4007 17.7136C24.6991 17.2977 24.7797 16.7633 24.6183 16.2779L24.2387 16.4041C24.3598 16.7681 24.2992 17.1689 24.0757 17.4804L24.4007 17.7136ZM14.0531 6.28085L11.5712 5.25385L11.4183 5.62346L13.9002 6.65046L14.0531 6.28085ZM11.6795 5.51518L11.9684 4.81766L11.5988 4.66462L11.3099 5.36213L11.6795 5.51518ZM11.707 4.92592L14.1505 5.93794L14.3035 5.56839L11.8601 4.55637L11.707 4.92592ZM14.027 5.75316V5.75423H14.427V5.75316H14.027ZM14.055 5.6522C13.9122 5.89288 13.8176 6.15984 13.7786 6.43785L14.1747 6.49347C14.2063 6.26865 14.2829 6.05206 14.399 5.85626L14.055 5.6522ZM7.31567 3.29516C7.31485 3.29721 7.31369 3.29825 7.31298 3.29871C7.31221 3.29922 7.31057 3.29993 7.30824 3.29984L7.324 2.90015C7.15741 2.89358 7.00542 2.99374 6.94428 3.1466L7.31567 3.29516ZM7.31204 3.29995C7.33637 3.30045 7.36051 3.30578 7.38573 3.31699L7.54819 2.95146C7.47713 2.91988 7.40071 2.90168 7.3202 2.90003L7.31204 3.29995ZM7.3904 3.31899L11.018 4.82206L11.1712 4.45252L7.54351 2.94946L7.3904 3.31899ZM10.9098 4.56084L10.7611 4.92029L11.1307 5.07319L11.2794 4.71374L10.9098 4.56084ZM10.7628 4.91619L10.7511 4.94294L11.1172 5.10403L11.129 5.07729L10.7628 4.91619ZM11.0106 4.83869L7.38188 3.33669L7.2289 3.70628L10.8576 5.20828L11.0106 4.83869ZM7.38238 3.3369C7.34135 3.31979 7.32273 3.30457 7.31557 3.29743C7.30933 3.2912 7.31055 3.29002 7.31184 3.2944C7.31282 3.29772 7.31254 3.29996 7.31254 3.29998C7.31254 3.3 7.31254 3.29997 7.31256 3.2999C7.31258 3.29982 7.31259 3.29976 7.3126 3.29975C7.31263 3.29962 7.31249 3.30017 7.31182 3.30168L6.94593 3.14005C6.92539 3.18656 6.89289 3.28824 6.92827 3.40785C6.96652 3.53719 7.06939 3.63976 7.22841 3.70608L7.38238 3.3369ZM7.12621 3.42085L7.1273 3.42086L7.13264 3.0209L7.13155 3.02088L7.12621 3.42085ZM14.8345 6.74379C14.8299 6.45528 14.9417 6.17731 15.1441 5.97132L14.8587 5.69101C14.5818 5.97288 14.4283 6.35389 14.4345 6.75004L14.8345 6.74379ZM15.1438 5.97164C15.3469 5.76577 15.623 5.65032 15.9118 5.65032V5.25032C15.5159 5.25032 15.1373 5.40872 14.8591 5.69068L15.1438 5.97164ZM15.9118 5.65032C16.2006 5.65032 16.4767 5.76578 16.6798 5.97164L16.9645 5.69068C16.6863 5.40873 16.3077 5.25032 15.9118 5.25032V5.65032ZM16.6795 5.97133C16.8819 6.17729 16.9937 6.45528 16.9891 6.74378L17.3891 6.75005C17.3953 6.35389 17.2418 5.97286 16.9649 5.691L16.6795 5.97133ZM16.9891 6.74692V7.89908H17.3891V6.74692H16.9891ZM17.1891 7.69908H14.6345V8.09908H17.1891V7.69908ZM14.8345 7.89908L14.8345 6.74692L14.4345 6.74691L14.4345 7.89907L14.8345 7.89908ZM8.78242 9.20809C9.06934 8.93159 9.4538 8.77639 9.85204 8.77734L9.85299 8.37734C9.35043 8.37615 8.86623 8.57182 8.50486 8.92007L8.78242 9.20809ZM9.85251 8.77734H19.2924V8.37734H9.85251V8.77734ZM19.2929 8.77734C19.6852 8.77647 20.0257 9.04697 20.1139 9.42893L20.5036 9.33899C20.3735 8.77529 19.871 8.37606 19.292 8.37734L19.2929 8.77734ZM20.114 9.42952L20.5119 11.1305L20.9014 11.0394L20.5035 9.3384L20.114 9.42952ZM20.7067 10.8849L6.53843 10.886L6.53846 11.286L20.7067 11.2849L20.7067 10.8849ZM6.67699 11.2302L8.78218 9.20833L8.5051 8.91983L6.39991 10.9417L6.67699 11.2302ZM20.197 19.8883C19.8227 20.4037 19.2258 20.7089 18.5891 20.7099L18.5897 21.1099C19.3545 21.1087 20.0713 20.742 20.5207 20.1234L20.197 19.8883ZM18.5894 20.7099H6.90406V21.1099H18.5894V20.7099ZM6.90406 20.7099C6.32092 20.7099 5.76718 20.4533 5.39131 20.0075L5.08549 20.2653C5.53763 20.8016 6.20342 21.1099 6.90406 21.1099V20.7099ZM5.39113 20.0073L3.11354 17.3136L2.80809 17.5718L5.08568 20.2655L5.39113 20.0073ZM3.11365 17.3137C2.99627 17.1746 2.9703 16.9796 3.04719 16.8129L2.68401 16.6453C2.54267 16.9516 2.58944 17.3128 2.80798 17.5717L3.11365 17.3137ZM3.04688 16.8136C3.12423 16.6476 3.29018 16.5415 3.47407 16.5408L3.47244 16.1408C3.13423 16.1422 2.82735 16.3378 2.68432 16.6446L3.04688 16.8136ZM3.47326 16.5408H21.6983V16.1408H3.47326V16.5408ZM21.6974 16.5408C21.8742 16.5415 22.0358 16.6408 22.1161 16.7978L22.4722 16.6155C22.3236 16.3253 22.0252 16.1422 21.6991 16.1408L21.6974 16.5408ZM22.1156 16.7968C22.1956 16.9552 22.181 17.1437 22.0775 17.287L22.4017 17.5213C22.5934 17.2559 22.6195 16.9074 22.4727 16.6165L22.1156 16.7968ZM22.0775 17.287L20.1968 19.8887L20.5209 20.1231L22.4017 17.5213L22.0775 17.287ZM23.5234 17.0847C23.4289 17.2188 23.2746 17.298 23.108 17.2972L23.1062 17.6972C23.4017 17.6986 23.6796 17.5575 23.8504 17.315L23.5234 17.0847ZM23.1071 17.2972H22.9552V17.6972H23.1071V17.2972ZM23.1417 17.5694C23.3258 17.0931 23.2646 16.5563 22.9757 16.1347L22.6458 16.3608C22.8597 16.673 22.9054 17.0712 22.7686 17.4251L23.1417 17.5694ZM22.9757 16.1347C22.687 15.7132 22.208 15.4615 21.6982 15.4615V15.8615C22.0763 15.8615 22.4317 16.0484 22.6458 16.3608L22.9757 16.1347ZM21.6982 15.4615H3.47313V15.8615H21.6982V15.4615ZM3.47313 15.4615C2.96214 15.4615 2.48427 15.7133 2.19555 16.1347L2.52553 16.3608C2.73964 16.0483 3.09404 15.8615 3.47313 15.8615V15.4615ZM2.19555 16.1347C1.9069 16.556 1.84433 17.0926 2.02727 17.5689L2.40068 17.4255C2.26482 17.0718 2.31138 16.6733 2.52553 16.3608L2.19555 16.1347ZM2.21398 17.2972H2.06528V17.6972H2.21398V17.2972ZM2.06528 17.6972H2.06635V17.2972H2.06528V17.6972ZM2.06635 17.2972C1.83658 17.2972 1.62189 17.1828 1.49439 16.9923L1.162 17.2148C1.36395 17.5165 1.70347 17.6972 2.06635 17.6972V17.2972ZM1.49438 16.9923C1.36659 16.8014 1.34182 16.5594 1.42964 16.3464L1.05986 16.1939C0.920879 16.5309 0.9603 16.9136 1.162 17.2148L1.49438 16.9923ZM1.42959 16.3466L2.5657 13.5972L2.19602 13.4444L1.05991 16.1938L1.42959 16.3466ZM2.23951 13.3793L2.23844 13.3804L2.52114 13.6634L2.52221 13.6623L2.23951 13.3793ZM2.56477 13.5979C2.97149 12.6085 3.93493 11.9633 5.00468 11.9653L5.00542 11.5653C3.77299 11.563 2.6632 12.3064 2.19481 13.4459L2.56477 13.5979ZM5.00505 11.9653H21.359V11.5653H5.00505V11.9653ZM21.359 11.9653C21.7618 11.9653 22.1188 12.2226 22.2467 12.6044L22.626 12.4774C22.4436 11.9327 21.934 11.5653 21.359 11.5653V11.9653ZM22.2467 12.6045L23.5946 16.6216L23.9739 16.4943L22.6259 12.4773L22.2467 12.6045ZM23.9843 16.558V16.5569H23.5843V16.558H23.9843ZM23.5951 16.6218C23.6488 16.7783 23.6226 16.9495 23.5257 17.0815L23.8481 17.3182C24.0229 17.0801 24.0695 16.7719 23.9734 16.492L23.5951 16.6218ZM6.66963 16.6864C5.88476 16.6864 5.17863 17.1588 4.87808 17.8827L5.24751 18.0361C5.48615 17.4613 6.04666 17.0864 6.66963 17.0864V16.6864ZM4.87793 17.8831C4.57863 18.6081 4.74433 19.4418 5.29901 19.9965L5.58185 19.7137C5.14163 19.2735 5.00993 18.6116 5.24766 18.0357L4.87793 17.8831ZM5.29901 19.9965C5.85267 20.5502 6.68754 20.7159 7.41147 20.4165L7.25862 20.0468C6.68382 20.2845 6.02096 20.1528 5.58185 19.7137L5.29901 19.9965ZM7.41173 20.4164C8.13565 20.1158 8.60805 19.4097 8.60805 18.6248H8.20805C8.20805 19.2478 7.83317 19.8083 7.25836 20.047L7.41173 20.4164ZM8.60805 18.6248C8.60805 17.5548 7.73969 16.6864 6.66963 16.6864V17.0864C7.51878 17.0864 8.20805 17.7757 8.20805 18.6248H8.60805ZM6.66963 19.4851C6.32155 19.4851 6.00819 19.276 5.87443 18.9537L5.50498 19.107C5.70068 19.5785 6.15974 19.8851 6.66963 19.8851V19.4851ZM5.87453 18.9539C5.74175 18.6328 5.81553 18.2631 6.06113 18.0175L5.77829 17.7346C5.41839 18.0945 5.3103 18.6362 5.50488 19.1068L5.87453 18.9539ZM6.06113 18.0175C6.30793 17.7707 6.67753 17.6972 6.99825 17.8307L7.15195 17.4614C6.68097 17.2654 6.13915 17.3738 5.77829 17.7346L6.06113 18.0175ZM6.99867 17.8309C7.31984 17.9637 7.52981 18.277 7.52981 18.6249H7.92981C7.92981 18.1148 7.622 17.6558 7.15153 17.4612L6.99867 17.8309ZM7.52981 18.6245C7.52894 19.0995 7.14427 19.4842 6.66926 19.4851L6.66999 19.8851C7.36533 19.8838 7.92854 19.3206 7.92981 18.6253L7.52981 18.6245ZM10.6834 16.6864C9.89972 16.6864 9.19231 17.1587 8.89281 17.883L9.26246 18.0358C9.50001 17.4614 10.0614 17.0864 10.6834 17.0864V16.6864ZM8.89292 17.8827C8.59226 18.6069 8.75815 19.4408 9.31278 19.9955L9.59562 19.7126C9.15535 19.2723 9.02383 18.6106 9.26235 18.0361L8.89292 17.8827ZM9.31278 19.9955C9.86741 20.5501 10.7012 20.7159 11.4252 20.4165L11.2724 20.0468C10.6977 20.2845 10.0359 20.1529 9.59562 19.7126L9.31278 19.9955ZM11.4254 20.4164C12.1505 20.1159 12.6229 19.4086 12.6229 18.6248H12.2229C12.2229 19.2468 11.848 19.8083 11.2722 20.0469L11.4254 20.4164ZM12.6229 18.6246C12.6217 17.5549 11.7547 16.6864 10.6834 16.6864V17.0864C11.5335 17.0864 12.2219 17.7756 12.2229 18.6251L12.6229 18.6246ZM10.6834 19.4851C10.3362 19.4851 10.0221 19.2758 9.88944 18.9541L9.51965 19.1066C9.71431 19.5787 10.1748 19.8851 10.6834 19.8851V19.4851ZM9.88937 18.9539C9.7565 18.6326 9.82947 18.2629 10.076 18.0164L9.79313 17.7335C9.43199 18.0947 9.32523 18.6364 9.51972 19.1068L9.88937 18.9539ZM10.076 18.0164C10.3215 17.7709 10.6913 17.6969 11.0137 17.8299L11.1662 17.4601C10.6947 17.2656 10.1531 17.3735 9.79313 17.7335L10.076 18.0164ZM11.0131 17.8296C11.3344 17.9633 11.5436 18.2767 11.5436 18.6249H11.9436C11.9436 18.1151 11.6371 17.6561 11.1668 17.4603L11.0131 17.8296ZM11.5436 18.6249C11.5436 19.0993 11.1584 19.4842 10.683 19.4851L10.6838 19.8851C11.3788 19.8838 11.9436 19.3208 11.9436 18.6249H11.5436ZM14.6983 16.6864C13.9147 16.6864 13.2073 17.1576 12.9067 17.8828L13.2762 18.036C13.5148 17.4604 14.0762 17.0864 14.6983 17.0864V16.6864ZM12.9067 17.8827C12.6061 18.6069 12.772 19.4408 13.3266 19.9955L13.6094 19.7126C13.1692 19.2723 13.0377 18.6106 13.2762 18.0361L12.9067 17.8827ZM13.3266 19.9955C13.8813 20.5501 14.715 20.7158 15.44 20.4165L15.2874 20.0468C14.7115 20.2845 14.0497 20.1528 13.6094 19.7126L13.3266 19.9955ZM15.4404 20.4164C16.1644 20.1158 16.6367 19.4086 16.6367 18.6248H16.2367C16.2367 19.2468 15.8618 19.8083 15.287 20.047L15.4404 20.4164ZM16.6367 18.6246C16.6355 17.5547 15.7684 16.6876 14.6985 16.6864L14.6981 17.0864C15.5474 17.0874 16.2358 17.7757 16.2367 18.6251L16.6367 18.6246ZM14.6983 19.4851C14.3502 19.4851 14.0369 19.276 13.9031 18.9537L13.5336 19.107C13.7293 19.5785 14.1884 19.8851 14.6983 19.8851V19.4851ZM13.9032 18.9539C13.7705 18.633 13.8441 18.263 14.09 18.0161L13.8067 17.7338C13.4472 18.0946 13.3389 18.6361 13.5335 19.1068L13.9032 18.9539ZM14.0895 18.0166C14.3364 17.7707 14.7063 17.697 15.0273 17.8298L15.1802 17.4601C14.7095 17.2655 14.168 17.3737 13.8072 17.7333L14.0895 18.0166ZM15.0269 17.8296C15.3485 17.9635 15.5585 18.2771 15.5585 18.6249H15.9585C15.9585 18.1147 15.6506 17.6559 15.1806 17.4603L15.0269 17.8296ZM15.5585 18.6245C15.5576 19.0995 15.1729 19.4842 14.6979 19.4851L14.6987 19.8851C15.394 19.8838 15.9572 19.3206 15.9585 18.6252L15.5585 18.6245ZM18.7121 16.6864C17.9284 16.6864 17.221 17.1587 16.9215 17.883L17.2911 18.0358C17.5287 17.4614 18.0901 17.0864 18.7121 17.0864V16.6864ZM16.9216 17.8827C16.6209 18.6069 16.7868 19.4408 17.3415 19.9955L17.6243 19.7126C17.184 19.2723 17.0525 18.6106 17.291 18.0361L16.9216 17.8827ZM17.3415 19.9955C17.8961 20.5501 18.7299 20.7159 19.4539 20.4165L19.3011 20.0468C18.7264 20.2845 18.0646 20.1529 17.6243 19.7126L17.3415 19.9955ZM19.4541 20.4164C20.1792 20.1159 20.6516 19.4086 20.6516 18.6248H20.2516C20.2516 19.2468 19.8767 19.8083 19.3009 20.0469L19.4541 20.4164ZM20.6516 18.6246C20.6504 17.5549 19.7833 16.6864 18.7121 16.6864V17.0864C19.5622 17.0864 20.2506 17.7756 20.2516 18.6251L20.6516 18.6246ZM18.7121 19.4851C18.3649 19.4851 18.0508 19.2758 17.9181 18.9541L17.5483 19.1066C17.743 19.5787 18.2035 19.8851 18.7121 19.8851V19.4851ZM17.9181 18.9539C17.7852 18.6326 17.8582 18.2629 18.1047 18.0164L17.8218 17.7335C17.4607 18.0947 17.3539 18.6364 17.5484 19.1068L17.9181 18.9539ZM18.1047 18.0164C18.3502 17.7709 18.72 17.6969 19.0424 17.8299L19.1949 17.4601C18.7234 17.2656 18.1818 17.3735 17.8218 17.7335L18.1047 18.0164ZM19.0418 17.8296C19.3631 17.9633 19.5723 18.2767 19.5723 18.6249H19.9723C19.9723 18.1151 19.6658 17.6561 19.1955 17.4603L19.0418 17.8296ZM19.5723 18.6249C19.5723 19.0994 19.188 19.4842 18.7117 19.4851L18.7125 19.8851C19.4087 19.8838 19.9723 19.3207 19.9723 18.6249H19.5723Z" fill="#B1B1B3" mask="url(#path-1-outside-1_7325_8308)"/>
</svg>
