<svg width="25" height="24" viewBox="0 0 25 24" fill="none" xmlns="http://www.w3.org/2000/svg">
<g clip-path="url(#clip0_7325_8251)">
<path d="M21.6846 11.3343C19.4953 8.60076 20.2443 5.41939 20.8835 3.7683C21.1424 3.11738 20.8547 2.37696 20.2251 2.0712L16.2471 0.112039C16.1885 0.0832748 16.1246 0.0683594 16.0585 0.0683594H9.48743C9.42137 0.0683594 9.35745 0.0832743 9.29886 0.112039L5.32086 2.0712C4.69124 2.37802 4.4036 3.11736 4.6614 3.76724C5.18021 5.09572 6.14117 8.49197 3.86133 11.3332C3.66531 11.574 3.55664 11.8744 3.55664 12.1844V20.8765C3.55771 21.4422 3.91247 21.9472 4.44407 22.1411L9.15489 23.8531C9.6215 24.0193 10.1425 23.9181 10.5121 23.5889L12.7749 21.5509L15.0313 23.5835V23.5825C15.401 23.917 15.9241 24.0203 16.3928 23.852L21.1017 22.1411C21.6333 21.9472 21.9881 21.4422 21.9892 20.8765V12.1844C21.9892 11.8744 21.8806 11.574 21.6846 11.3343ZM10.0713 0.920485H15.4683C15.6271 5.14885 13.9715 7.40212 12.7752 8.46303C11.5767 7.40515 9.90937 5.15949 10.0713 0.920485ZM13.1586 19.8325C13.1959 20.1627 12.6717 20.4578 12.4906 20.6613L9.94449 22.9539C9.80813 23.0743 9.61637 23.1116 9.44379 23.0509L4.73488 21.3399C4.53886 21.2707 4.40783 21.0843 4.40889 20.8765V12.1844C4.40996 12.0683 4.45151 11.9565 4.52608 11.867C7.08503 8.6785 6.02821 4.92305 5.45504 3.45714C5.36129 3.2185 5.46676 2.9479 5.69688 2.83606L9.2126 1.10487C9.09435 5.89778 11.2037 8.32041 12.5099 9.35378C12.7922 9.61372 13.148 9.67764 13.1587 10.0825L13.1586 19.8325ZM21.1381 20.8765H21.137C21.1381 21.0843 21.007 21.2707 20.811 21.3399L16.1043 23.0498C15.9317 23.1137 15.7389 23.0754 15.6036 22.9507L13.4122 20.9777L13.572 20.8339V20.8328C13.8521 20.5761 14.012 20.2128 14.0109 19.8325V10.0825C14.012 9.65206 13.8053 9.24616 13.4548 8.9958C14.7449 7.80368 16.4324 5.40671 16.3269 1.1017L19.8478 2.83609V2.83502C20.079 2.94795 20.1844 3.21962 20.0896 3.45826C19.5207 4.92629 18.4714 8.6848 21.0197 11.867C21.0942 11.9565 21.1358 12.0683 21.1368 12.1845L21.1381 20.8765Z" fill="#B1B1B3"/>
<path d="M9.25845 16.9966H6.46927C6.23809 17.0008 6.05273 17.1905 6.05273 17.4227C6.05273 17.655 6.2381 17.8435 6.47033 17.8489H9.25843C9.48961 17.8435 9.67603 17.6539 9.67603 17.4227C9.67603 17.1905 9.48962 17.0008 9.25845 16.9966Z" fill="#B1B1B3"/>
<path d="M19.4821 16.9966H16.694C16.4617 17.0008 16.2764 17.1905 16.2764 17.4227C16.2764 17.655 16.4617 17.8435 16.694 17.8489H19.4821C19.7143 17.8435 19.8997 17.6539 19.8997 17.4227C19.8997 17.1905 19.7143 17.0008 19.4821 16.9966Z" fill="#B1B1B3"/>
<path d="M11.4324 10.7139C11.1809 10.7171 10.9785 10.9216 10.9785 11.173C10.9785 11.4245 11.1809 11.6301 11.4324 11.6333C11.6838 11.6301 11.8851 11.4245 11.8851 11.173C11.8851 10.9216 11.6838 10.7171 11.4324 10.7139Z" fill="#B1B1B3"/>
<path d="M11.4324 13.1753C11.1809 13.1785 10.9785 13.3841 10.9785 13.6355C10.9785 13.8869 11.1809 14.0915 11.4324 14.0947C11.6838 14.0915 11.8851 13.8869 11.8851 13.6355C11.8851 13.3841 11.6838 13.1785 11.4324 13.1753Z" fill="#B1B1B3"/>
<path d="M11.4324 15.6362C11.1809 15.6405 10.9785 15.845 10.9785 16.0965C10.9785 16.3479 11.1809 16.5524 11.4324 16.5567C11.6838 16.5524 11.8851 16.3479 11.8851 16.0965C11.8851 15.845 11.6838 15.6405 11.4324 15.6362Z" fill="#B1B1B3"/>
<path d="M11.4324 18.0967C11.1809 18.1009 10.9785 18.3055 10.9785 18.5569C10.9785 18.8083 11.1809 19.0129 11.4324 19.0171C11.6838 19.0129 11.8851 18.8083 11.8851 18.5569C11.8851 18.3055 11.6838 18.1009 11.4324 18.0967Z" fill="#B1B1B3"/>
</g>
<defs>
<clipPath id="clip0_7325_8251">
<rect width="18.5455" height="24" fill="white" transform="translate(3.5)"/>
</clipPath>
</defs>
</svg>
