<svg width="25" height="26" viewBox="0 0 25 26" fill="none" xmlns="http://www.w3.org/2000/svg">
<mask id="path-1-outside-1_7325_10850" maskUnits="userSpaceOnUse" x="0.907227" y="0" width="23" height="26" fill="black">
<rect fill="white" x="0.907227" width="23" height="26"/>
<path d="M19.4358 3.09928H18.3694L17.9687 1.22579C17.9687 1.22232 17.9664 1.21884 17.9664 1.21653L17.9641 1.20611V1.20495C17.9572 1.18063 17.9467 1.15747 17.934 1.13663L17.9294 1.12969C17.9236 1.11926 17.9155 1.10884 17.9074 1.09958C17.9004 1.09032 17.8912 1.08221 17.8819 1.07411L17.875 1.06832C17.8668 1.06137 17.8576 1.05442 17.8483 1.04863L17.846 1.04632V1.04516C17.8356 1.03937 17.8252 1.03242 17.8147 1.02779L17.8055 1.02432C17.7951 1.01853 17.7846 1.01505 17.7731 1.01158C17.7603 1.00695 17.7487 1.00463 17.736 1.00232H17.7291C17.7163 1.00116 17.7036 1 17.6908 1H7.31006C7.29733 1 7.28459 1.00116 7.27301 1.00232H7.26606C7.25333 1.00463 7.24059 1.00695 7.22901 1.01158C7.21627 1.01505 7.2047 1.01853 7.19427 1.02432L7.18733 1.02779H7.18617C7.17575 1.03242 7.16417 1.03821 7.15375 1.04516C7.14332 1.05211 7.13406 1.05905 7.1248 1.06716L7.11785 1.07295C7.09932 1.08916 7.08311 1.10884 7.06922 1.12969L7.06574 1.13548C7.05301 1.15748 7.04259 1.18063 7.03564 1.20495L7.03332 1.21422V1.21537C7.03217 1.21885 7.03101 1.22116 7.03101 1.22464L6.63036 3.09928H5.56276H5.56392C3.54568 3.1016 1.91078 4.73771 1.90723 6.75479V21.3433C1.90954 23.3627 3.54565 24.9988 5.5651 25H19.4357C21.4539 24.9977 23.09 23.3616 23.0924 21.3433V6.75479C23.0889 4.73771 21.4541 3.10165 19.4358 3.09928ZM12.8579 6.94598L17.5242 1.8872L17.8357 3.34617L14.5762 9.75991L12.8579 6.94598ZM10.4251 9.7597L7.16446 3.34597L7.47479 1.88815L12.1423 6.94574L10.4251 9.7597ZM11.0099 3.67263L15.0973 3.67147L12.5001 6.4875L9.90292 3.67147L11.0099 3.67263ZM17.0356 1.57219L15.6264 3.09946H9.37365L7.96679 1.57335L17.0356 1.57219ZM2.48057 21.3434V6.75488C2.48289 5.0539 3.86197 3.67473 5.56398 3.67266H6.68716L10.1447 10.4777C10.1921 10.5703 10.2848 10.6294 10.389 10.634H10.4006C10.5001 10.634 10.5928 10.5819 10.6449 10.4962L10.7213 10.3711V24.427H5.56499C3.86286 24.4258 2.48294 23.0454 2.48057 21.3434ZM11.2933 24.4256L11.2944 9.43307L12.4998 7.46117L13.7052 9.43307V24.4268L11.2933 24.4256ZM22.5192 21.3434C22.5168 23.0455 21.1378 24.4247 19.4357 24.4268H14.2786V10.3721L14.355 10.4972C14.4071 10.5817 14.4997 10.6338 14.5993 10.6338H14.6109C14.7139 10.6304 14.8077 10.5701 14.8552 10.4775L18.3115 3.67132H19.4358C21.138 3.67363 22.5172 5.05271 22.5192 6.75472L22.5192 21.3434ZM20.9722 11.5996H15.8242C15.6655 11.5996 15.537 11.7282 15.537 11.8868V15.7797C15.522 16.5474 15.8161 17.2908 16.3545 17.8396C16.8918 18.3885 17.6294 18.6988 18.3982 18.6988C19.167 18.6988 19.9035 18.3885 20.4419 17.8396C20.9792 17.2908 21.2744 16.5474 21.2582 15.7797V11.8868C21.2582 11.7282 21.1308 11.6008 20.9722 11.5996ZM16.1114 12.1728L20.6852 12.174V12.7923H16.1114V12.1728ZM20.6852 15.7797C20.6852 17.0418 19.6617 18.0665 18.3984 18.0665C17.1351 18.0665 16.1115 17.0418 16.1115 15.7797V13.3666H20.6854L20.6852 15.7797ZM12.5001 11.9807C12.2558 11.9807 12.0346 12.1278 11.942 12.3536C11.8482 12.5794 11.8991 12.8399 12.0728 13.0124C12.2453 13.1861 12.5059 13.2371 12.7317 13.1444C12.9575 13.0506 13.1045 12.8295 13.1045 12.5852C13.1045 12.2517 12.8336 11.9807 12.5001 11.9807ZM12.5001 12.6164C12.4734 12.6164 12.4607 12.584 12.4792 12.5654C12.4978 12.5469 12.5302 12.5597 12.5302 12.5863C12.529 12.6025 12.5163 12.6152 12.5001 12.6164ZM12.5001 15.9998C12.2558 15.9998 12.0346 16.148 11.942 16.3738C11.8482 16.5996 11.8991 16.8601 12.0728 17.0327C12.2453 17.2052 12.5059 17.2573 12.7317 17.1635C12.9575 17.0697 13.1045 16.8497 13.1045 16.6054C13.1045 16.2708 12.8336 16.001 12.5001 15.9998ZM12.5001 16.6355C12.4734 16.6355 12.4607 16.6042 12.4792 16.5857C12.4978 16.5672 12.5302 16.5799 12.5302 16.6065C12.529 16.6228 12.5163 16.6343 12.5001 16.6355ZM12.5001 20.0201C12.2558 20.0201 12.0346 20.1671 11.942 20.3929C11.8482 20.6199 11.8991 20.8792 12.0728 21.0529C12.2453 21.2255 12.5059 21.2776 12.7317 21.1838C12.9575 21.09 13.1045 20.87 13.1045 20.6245C13.1045 20.291 12.8336 20.0201 12.5001 20.0201ZM12.5001 20.6557C12.4734 20.6557 12.4607 20.6233 12.4792 20.6048C12.4978 20.5863 12.5302 20.6002 12.5302 20.6256C12.529 20.6419 12.5163 20.6546 12.5001 20.6557Z"/>
</mask>
<path d="M19.4358 3.09928H18.3694L17.9687 1.22579C17.9687 1.22232 17.9664 1.21884 17.9664 1.21653L17.9641 1.20611V1.20495C17.9572 1.18063 17.9467 1.15747 17.934 1.13663L17.9294 1.12969C17.9236 1.11926 17.9155 1.10884 17.9074 1.09958C17.9004 1.09032 17.8912 1.08221 17.8819 1.07411L17.875 1.06832C17.8668 1.06137 17.8576 1.05442 17.8483 1.04863L17.846 1.04632V1.04516C17.8356 1.03937 17.8252 1.03242 17.8147 1.02779L17.8055 1.02432C17.7951 1.01853 17.7846 1.01505 17.7731 1.01158C17.7603 1.00695 17.7487 1.00463 17.736 1.00232H17.7291C17.7163 1.00116 17.7036 1 17.6908 1H7.31006C7.29733 1 7.28459 1.00116 7.27301 1.00232H7.26606C7.25333 1.00463 7.24059 1.00695 7.22901 1.01158C7.21627 1.01505 7.2047 1.01853 7.19427 1.02432L7.18733 1.02779H7.18617C7.17575 1.03242 7.16417 1.03821 7.15375 1.04516C7.14332 1.05211 7.13406 1.05905 7.1248 1.06716L7.11785 1.07295C7.09932 1.08916 7.08311 1.10884 7.06922 1.12969L7.06574 1.13548C7.05301 1.15748 7.04259 1.18063 7.03564 1.20495L7.03332 1.21422V1.21537C7.03217 1.21885 7.03101 1.22116 7.03101 1.22464L6.63036 3.09928H5.56276H5.56392C3.54568 3.1016 1.91078 4.73771 1.90723 6.75479V21.3433C1.90954 23.3627 3.54565 24.9988 5.5651 25H19.4357C21.4539 24.9977 23.09 23.3616 23.0924 21.3433V6.75479C23.0889 4.73771 21.4541 3.10165 19.4358 3.09928ZM12.8579 6.94598L17.5242 1.8872L17.8357 3.34617L14.5762 9.75991L12.8579 6.94598ZM10.4251 9.7597L7.16446 3.34597L7.47479 1.88815L12.1423 6.94574L10.4251 9.7597ZM11.0099 3.67263L15.0973 3.67147L12.5001 6.4875L9.90292 3.67147L11.0099 3.67263ZM17.0356 1.57219L15.6264 3.09946H9.37365L7.96679 1.57335L17.0356 1.57219ZM2.48057 21.3434V6.75488C2.48289 5.0539 3.86197 3.67473 5.56398 3.67266H6.68716L10.1447 10.4777C10.1921 10.5703 10.2848 10.6294 10.389 10.634H10.4006C10.5001 10.634 10.5928 10.5819 10.6449 10.4962L10.7213 10.3711V24.427H5.56499C3.86286 24.4258 2.48294 23.0454 2.48057 21.3434ZM11.2933 24.4256L11.2944 9.43307L12.4998 7.46117L13.7052 9.43307V24.4268L11.2933 24.4256ZM22.5192 21.3434C22.5168 23.0455 21.1378 24.4247 19.4357 24.4268H14.2786V10.3721L14.355 10.4972C14.4071 10.5817 14.4997 10.6338 14.5993 10.6338H14.6109C14.7139 10.6304 14.8077 10.5701 14.8552 10.4775L18.3115 3.67132H19.4358C21.138 3.67363 22.5172 5.05271 22.5192 6.75472L22.5192 21.3434ZM20.9722 11.5996H15.8242C15.6655 11.5996 15.537 11.7282 15.537 11.8868V15.7797C15.522 16.5474 15.8161 17.2908 16.3545 17.8396C16.8918 18.3885 17.6294 18.6988 18.3982 18.6988C19.167 18.6988 19.9035 18.3885 20.4419 17.8396C20.9792 17.2908 21.2744 16.5474 21.2582 15.7797V11.8868C21.2582 11.7282 21.1308 11.6008 20.9722 11.5996ZM16.1114 12.1728L20.6852 12.174V12.7923H16.1114V12.1728ZM20.6852 15.7797C20.6852 17.0418 19.6617 18.0665 18.3984 18.0665C17.1351 18.0665 16.1115 17.0418 16.1115 15.7797V13.3666H20.6854L20.6852 15.7797ZM12.5001 11.9807C12.2558 11.9807 12.0346 12.1278 11.942 12.3536C11.8482 12.5794 11.8991 12.8399 12.0728 13.0124C12.2453 13.1861 12.5059 13.2371 12.7317 13.1444C12.9575 13.0506 13.1045 12.8295 13.1045 12.5852C13.1045 12.2517 12.8336 11.9807 12.5001 11.9807ZM12.5001 12.6164C12.4734 12.6164 12.4607 12.584 12.4792 12.5654C12.4978 12.5469 12.5302 12.5597 12.5302 12.5863C12.529 12.6025 12.5163 12.6152 12.5001 12.6164ZM12.5001 15.9998C12.2558 15.9998 12.0346 16.148 11.942 16.3738C11.8482 16.5996 11.8991 16.8601 12.0728 17.0327C12.2453 17.2052 12.5059 17.2573 12.7317 17.1635C12.9575 17.0697 13.1045 16.8497 13.1045 16.6054C13.1045 16.2708 12.8336 16.001 12.5001 15.9998ZM12.5001 16.6355C12.4734 16.6355 12.4607 16.6042 12.4792 16.5857C12.4978 16.5672 12.5302 16.5799 12.5302 16.6065C12.529 16.6228 12.5163 16.6343 12.5001 16.6355ZM12.5001 20.0201C12.2558 20.0201 12.0346 20.1671 11.942 20.3929C11.8482 20.6199 11.8991 20.8792 12.0728 21.0529C12.2453 21.2255 12.5059 21.2776 12.7317 21.1838C12.9575 21.09 13.1045 20.87 13.1045 20.6245C13.1045 20.291 12.8336 20.0201 12.5001 20.0201ZM12.5001 20.6557C12.4734 20.6557 12.4607 20.6233 12.4792 20.6048C12.4978 20.5863 12.5302 20.6002 12.5302 20.6256C12.529 20.6419 12.5163 20.6546 12.5001 20.6557Z" fill="#B1B1B3"/>
<path d="M12.6001 16.001V15.9998H12.4001V16.001H12.6001ZM12.6001 16.6367V16.6355H12.4001V16.6367H12.6001ZM12.6001 20.0212V20.0201H12.4001V20.0212H12.6001ZM12.6001 20.6569V20.6557H12.4001V20.6569H12.6001ZM19.4358 3.09928L19.4361 2.89928H19.4358V3.09928ZM18.3694 3.09928L18.1738 3.14111L18.2076 3.29928H18.3694V3.09928ZM17.9687 1.22579H17.7687V1.24694L17.7732 1.26762L17.9687 1.22579ZM17.9664 1.21653H18.1664V1.19457L18.1617 1.17314L17.9664 1.21653ZM17.9641 1.20611H17.7641V1.22806L17.7689 1.24949L17.9641 1.20611ZM17.9641 1.20495H18.1641V1.17694L18.1564 1.15L17.9641 1.20495ZM17.934 1.13663L18.1048 1.03226L18.1004 1.02569L17.934 1.13663ZM17.9294 1.12969L17.7545 1.22681L17.7585 1.23389L17.763 1.24063L17.9294 1.12969ZM17.9074 1.09958L17.7474 1.21958L17.7519 1.22561L17.7569 1.23128L17.9074 1.09958ZM17.8819 1.07411L18.0136 0.923548L18.0099 0.920462L17.8819 1.07411ZM17.875 1.06832L17.7448 1.22018L17.7469 1.22196L17.875 1.06832ZM17.8483 1.04863L17.7069 1.19005L17.723 1.20616L17.7423 1.21823L17.8483 1.04863ZM17.846 1.04632H17.646V1.12916L17.7046 1.18774L17.846 1.04632ZM17.846 1.04516H18.046V0.927477L17.9431 0.870327L17.846 1.04516ZM17.8147 1.02779L17.8961 0.844703L17.885 0.840526L17.8147 1.02779ZM17.8055 1.02432L17.7084 1.19915L17.7213 1.20636L17.7353 1.21158L17.8055 1.02432ZM17.7731 1.01158L17.7046 1.19985L17.7156 1.20315L17.7731 1.01158ZM17.736 1.00232L17.7718 0.805541L17.754 0.802316H17.736V1.00232ZM17.7291 1.00232L17.711 1.20149L17.72 1.20232H17.7291V1.00232ZM7.27301 1.00232V1.20232H7.28299L7.29291 1.20132L7.27301 1.00232ZM7.26606 1.00232V0.802316H7.24803L7.23029 0.805541L7.26606 1.00232ZM7.22901 1.01158L7.28163 1.20453L7.29267 1.20152L7.30329 1.19727L7.22901 1.01158ZM7.19427 1.02432L7.28381 1.20337L7.2914 1.19915L7.19427 1.02432ZM7.18733 1.02779V1.22779H7.23454L7.27677 1.20667L7.18733 1.02779ZM7.18617 1.02779V0.82779H7.14373L7.10494 0.845027L7.18617 1.02779ZM7.1248 1.06716L7.25287 1.22085L7.2565 1.21767L7.1248 1.06716ZM7.11785 1.07295L6.98978 0.919259L6.98615 0.922432L7.11785 1.07295ZM7.06922 1.12969L6.90261 1.01864L6.89772 1.02679L7.06922 1.12969ZM7.06574 1.13548L6.89423 1.03256L6.89266 1.03527L7.06574 1.13548ZM7.03564 1.20495L6.84323 1.14999L6.84161 1.15645L7.03564 1.20495ZM7.03332 1.21422L6.8393 1.16571L6.83332 1.18959V1.21422H7.03332ZM7.03332 1.21537L7.22306 1.27862L7.23332 1.24783V1.21537H7.03332ZM7.03101 1.22464L7.22659 1.26644L7.23101 1.24577V1.22464H7.03101ZM6.63036 3.09928V3.29928H6.79213L6.82594 3.14108L6.63036 3.09928ZM5.56392 3.09928L5.56415 3.29928L5.56392 2.89928V3.09928ZM1.90723 6.75479L1.70723 6.75443V6.75479H1.90723ZM1.90723 21.3433L1.70723 21.3433L1.70723 21.3435L1.90723 21.3433ZM5.5651 25L5.56499 25.2H5.5651V25ZM19.4357 25L19.4357 25.2L19.4359 25.2L19.4357 25ZM23.0924 21.3433L23.2924 21.3435V21.3433H23.0924ZM23.0924 6.75479L23.2924 6.75479L23.2924 6.75444L23.0924 6.75479ZM12.8579 6.94598L12.7109 6.81038L12.6085 6.92136L12.6872 7.05021L12.8579 6.94598ZM17.5242 1.8872L17.7198 1.84544L17.6391 1.46763L17.3772 1.7516L17.5242 1.8872ZM17.8357 3.34617L18.014 3.43678L18.0461 3.37366L18.0313 3.30442L17.8357 3.34617ZM14.5762 9.75991L14.4055 9.86414L14.5922 10.1699L14.7545 9.85052L14.5762 9.75991ZM10.4251 9.7597L10.2468 9.85034L10.4092 10.1697L10.5959 9.86388L10.4251 9.7597ZM7.16446 3.34597L6.96885 3.30433L6.95411 3.37353L6.98618 3.4366L7.16446 3.34597ZM7.47479 1.88815L7.62177 1.75251L7.35964 1.46848L7.27917 1.84651L7.47479 1.88815ZM12.1423 6.94574L12.313 7.04992L12.3917 6.92105L12.2893 6.8101L12.1423 6.94574ZM11.0099 3.67263L11.0097 3.87263L11.0099 3.87263L11.0099 3.67263ZM15.0973 3.67147L15.2443 3.80706L15.5539 3.47134L15.0972 3.47147L15.0973 3.67147ZM12.5001 6.4875L12.3531 6.62309L12.5001 6.7825L12.6471 6.62309L12.5001 6.4875ZM9.90292 3.67147L9.90313 3.47147L9.44595 3.47099L9.7559 3.80706L9.90292 3.67147ZM17.0356 1.57219L17.1826 1.70782L17.4923 1.37213L17.0356 1.37219L17.0356 1.57219ZM15.6264 3.09946V3.29946H15.714L15.7734 3.23508L15.6264 3.09946ZM9.37365 3.09946L9.2266 3.23502L9.28601 3.29946H9.37365V3.09946ZM7.96679 1.57335L7.96677 1.37335L7.51046 1.37341L7.81974 1.70891L7.96679 1.57335ZM2.48057 21.3434L2.28057 21.3434L2.28057 21.3437L2.48057 21.3434ZM2.48057 6.75488L2.28057 6.7546V6.75488H2.48057ZM5.56398 3.67266L5.56398 3.47266L5.56374 3.47266L5.56398 3.67266ZM6.68716 3.67266L6.86547 3.58206L6.80988 3.47266H6.68716V3.67266ZM10.1447 10.4777L9.96635 10.5683L9.96667 10.5689L10.1447 10.4777ZM10.389 10.634L10.3801 10.834H10.389V10.634ZM10.6449 10.4962L10.4742 10.3919L10.474 10.3923L10.6449 10.4962ZM10.7213 10.3711H10.9213V9.6603L10.5506 10.2669L10.7213 10.3711ZM10.7213 24.427V24.627H10.9213V24.427H10.7213ZM5.56499 24.427L5.56485 24.627H5.56499V24.427ZM11.2933 24.4256L11.0933 24.4256L11.0933 24.6255L11.2932 24.6256L11.2933 24.4256ZM11.2944 9.43307L11.1238 9.32876L11.0944 9.37678L11.0944 9.43305L11.2944 9.43307ZM12.4998 7.46117L12.6704 7.35685L12.4998 7.0777L12.3292 7.35685L12.4998 7.46117ZM13.7052 9.43307H13.9052V9.37678L13.8758 9.32876L13.7052 9.43307ZM13.7052 24.4268L13.7051 24.6268L13.9052 24.6269V24.4268H13.7052ZM22.5192 21.3434L22.7192 21.3437L22.7192 21.3434L22.5192 21.3434ZM19.4357 24.4268L19.4357 24.6268L19.436 24.6268L19.4357 24.4268ZM14.2786 24.4268H14.0786V24.6268H14.2786V24.4268ZM14.2786 10.3721L14.4492 10.2679L14.0786 9.66131V10.3721H14.2786ZM14.355 10.4972L14.1843 10.6015L14.1847 10.6021L14.355 10.4972ZM14.6109 10.6338V10.8339L14.6176 10.8337L14.6109 10.6338ZM14.8552 10.4775L15.0332 10.5687L15.0335 10.5681L14.8552 10.4775ZM18.3115 3.67132V3.47132H18.1888L18.1332 3.58076L18.3115 3.67132ZM19.4358 3.67132L19.4361 3.47132H19.4358V3.67132ZM22.5192 6.75472L22.7192 6.75472L22.7192 6.75448L22.5192 6.75472ZM20.9722 11.5996L20.9736 11.3996H20.9722V11.5996ZM15.537 15.7797L15.737 15.7837V15.7797H15.537ZM16.3545 17.8396L16.4974 17.6997L16.4973 17.6996L16.3545 17.8396ZM20.4419 17.8396L20.5847 17.9797L20.5848 17.9796L20.4419 17.8396ZM21.2582 15.7797L21.0582 15.7797L21.0583 15.784L21.2582 15.7797ZM16.1114 12.1728L16.1115 11.9728L15.9114 11.9727V12.1728H16.1114ZM20.6852 12.174H20.8852V11.974L20.6853 11.974L20.6852 12.174ZM20.6852 12.7923V12.9923H20.8852V12.7923H20.6852ZM16.1114 12.7923H15.9114V12.9923H16.1114V12.7923ZM20.6852 15.7797L20.4852 15.7797V15.7797H20.6852ZM16.1115 13.3666V13.1666H15.9115V13.3666H16.1115ZM20.6854 13.3666L20.8854 13.3666L20.8854 13.1666H20.6854V13.3666ZM11.942 12.3536L12.1267 12.4303L12.127 12.4295L11.942 12.3536ZM12.0728 13.0124L12.2147 12.8715L12.2138 12.8705L12.0728 13.0124ZM12.7317 13.1444L12.8076 13.3295L12.8084 13.3291L12.7317 13.1444ZM12.5001 12.6164V12.8164H12.5072L12.5143 12.8159L12.5001 12.6164ZM12.5302 12.5863L12.7297 12.6005L12.7302 12.5934V12.5863H12.5302ZM12.5001 15.9998L12.5008 15.7998H12.5001V15.9998ZM11.942 16.3738L12.1267 16.4505L12.127 16.4497L11.942 16.3738ZM12.0728 17.0327L12.2142 16.8913L12.2138 16.8908L12.0728 17.0327ZM12.5001 16.6355V16.8355H12.5072L12.5143 16.835L12.5001 16.6355ZM12.5302 16.6065L12.7297 16.6208L12.7302 16.6137V16.6065H12.5302ZM11.942 20.3929L12.1268 20.4693L12.127 20.4688L11.942 20.3929ZM12.0728 21.0529L11.9314 21.1943L11.9314 21.1944L12.0728 21.0529ZM12.5001 20.6557V20.8557H12.5072L12.5143 20.8552L12.5001 20.6557ZM12.5302 20.6256L12.7297 20.6399L12.7302 20.6328V20.6256H12.5302ZM19.4358 2.89928H18.3694V3.29928H19.4358V2.89928ZM18.565 3.05746L18.1643 1.18397L17.7732 1.26762L18.1738 3.14111L18.565 3.05746ZM18.1687 1.22579C18.1687 1.20316 18.165 1.18495 18.1622 1.17373C18.1607 1.16791 18.1592 1.16308 18.1581 1.15964C18.1569 1.15625 18.156 1.15355 18.1555 1.15238C18.1554 1.15206 18.1553 1.15178 18.1553 1.1516C18.1552 1.15151 18.1552 1.15143 18.1552 1.15138C18.1552 1.15131 18.1551 1.15129 18.1551 1.15126C18.1551 1.15112 18.1552 1.15146 18.1554 1.15194C18.1557 1.15275 18.1567 1.1557 18.1579 1.15965C18.1591 1.16355 18.1611 1.17034 18.1628 1.17902C18.1645 1.18759 18.1664 1.20058 18.1664 1.21653H17.7664C17.7664 1.23305 17.7684 1.24666 17.7703 1.25588C17.7721 1.26521 17.7742 1.27268 17.7756 1.27728C17.7771 1.28194 17.7784 1.28561 17.7789 1.28719C17.7793 1.28804 17.7795 1.28877 17.7796 1.28901C17.7798 1.28943 17.7797 1.28922 17.7796 1.28907C17.7795 1.2887 17.7788 1.28681 17.778 1.28425C17.7771 1.28164 17.7759 1.27765 17.7746 1.27268C17.7722 1.26316 17.7687 1.24669 17.7687 1.22579H18.1687ZM18.1617 1.17314L18.1594 1.16272L17.7689 1.24949L17.7712 1.25991L18.1617 1.17314ZM18.1641 1.20611V1.20495H17.7641V1.20611H18.1641ZM18.1564 1.15C18.1442 1.10741 18.1263 1.06774 18.1047 1.03234L17.7634 1.24092C17.7672 1.24721 17.7701 1.25385 17.7718 1.25989L18.1564 1.15ZM18.1004 1.02569L18.0958 1.01875L17.763 1.24063L17.7676 1.24757L18.1004 1.02569ZM18.1042 1.03256C18.0886 1.00444 18.0702 0.981896 18.0579 0.967876L17.7569 1.23128C17.7583 1.23293 17.7588 1.23365 17.7587 1.23346C17.7587 1.23342 17.757 1.23115 17.7545 1.22681L18.1042 1.03256ZM18.0674 0.979578C18.0456 0.950537 18.0194 0.928703 18.0136 0.923591L17.7502 1.22462C17.7527 1.22678 17.7541 1.22801 17.7553 1.2291C17.7564 1.2301 17.7567 1.23039 17.7565 1.23021C17.7564 1.23007 17.7524 1.22631 17.7474 1.21958L18.0674 0.979578ZM18.0099 0.920462L18.003 0.914672L17.7469 1.22196L17.7539 1.22775L18.0099 0.920462ZM18.0051 0.916468C17.9904 0.903849 17.9731 0.89077 17.9543 0.879032L17.7423 1.21823C17.7421 1.21807 17.7433 1.21889 17.7448 1.22016L18.0051 0.916468ZM17.9897 0.907211L17.9874 0.904895L17.7046 1.18774L17.7069 1.19005L17.9897 0.907211ZM18.046 1.04632V1.04516H17.646V1.04632H18.046ZM17.9431 0.870327C17.9428 0.870166 17.942 0.8697 17.9399 0.868421C17.9385 0.867626 17.9343 0.865108 17.9312 0.863285C17.9244 0.859353 17.9115 0.851942 17.896 0.845026L17.7335 1.21055C17.7306 1.20925 17.7287 1.20826 17.7283 1.20801C17.7278 1.20778 17.7281 1.2079 17.7296 1.2088C17.7317 1.21001 17.7327 1.21061 17.7365 1.21289C17.7396 1.21468 17.744 1.21726 17.7489 1.21999L17.9431 0.870327ZM17.885 0.840526L17.8757 0.837052L17.7353 1.21158L17.7445 1.21505L17.885 0.840526ZM17.9026 0.849483C17.8723 0.832666 17.8446 0.824229 17.8305 0.820011L17.7156 1.20315C17.7247 1.20588 17.7178 1.20439 17.7084 1.19915L17.9026 0.849483ZM17.8414 0.823621C17.8118 0.812848 17.7861 0.808146 17.7718 0.805541L17.7002 1.19909C17.7114 1.20112 17.7089 1.20105 17.7047 1.19954L17.8414 0.823621ZM17.736 0.802316H17.7291V1.20232H17.736V0.802316ZM17.7472 0.803137C17.736 0.802119 17.7142 0.8 17.6908 0.8V1.2C17.693 1.2 17.6967 1.2002 17.711 1.20149L17.7472 0.803137ZM17.6908 0.8H7.31006V1.2H17.6908V0.8ZM7.31006 0.8C7.28644 0.8 7.26499 0.80212 7.25311 0.803308L7.29291 1.20132C7.29823 1.20079 7.30189 1.20046 7.30502 1.20024C7.30809 1.20002 7.30961 1.2 7.31006 1.2V0.8ZM7.27301 0.802316H7.26606V1.20232H7.27301V0.802316ZM7.23029 0.805541C7.2215 0.80714 7.1883 0.812458 7.15473 0.825884L7.30329 1.19727C7.29981 1.19866 7.29704 1.19957 7.29526 1.2001C7.29349 1.20063 7.29244 1.20087 7.29241 1.20088C7.2924 1.20088 7.29301 1.20074 7.29467 1.20042C7.29646 1.20007 7.29845 1.19971 7.30184 1.19909L7.23029 0.805541ZM7.17639 0.818625C7.16376 0.822069 7.13093 0.830715 7.09715 0.849481L7.2914 1.19915C7.28401 1.20325 7.27847 1.20528 7.27684 1.20585C7.27566 1.20626 7.27611 1.20604 7.28163 1.20453L7.17639 0.818625ZM7.10483 0.845433L7.09788 0.848907L7.27677 1.20667L7.28372 1.2032L7.10483 0.845433ZM7.18733 0.82779H7.18617V1.22779H7.18733V0.82779ZM7.10494 0.845027C7.08922 0.852012 7.06635 0.863054 7.04282 0.87874L7.26467 1.21158C7.26295 1.21272 7.26229 1.21302 7.2631 1.21259C7.26384 1.2122 7.26523 1.21151 7.26739 1.21055L7.10494 0.845027ZM7.04282 0.87874C7.02629 0.889755 7.0099 0.901938 6.9931 0.916644L7.2565 1.21767C7.25822 1.21617 7.26035 1.21446 7.26467 1.21158L7.04282 0.87874ZM6.99676 0.913514L6.98981 0.919304L7.24589 1.22659L7.25283 1.2208L6.99676 0.913514ZM6.98615 0.922432C6.95125 0.952966 6.92388 0.987126 6.9028 1.01876L7.23564 1.24061C7.24234 1.23056 7.24739 1.22535 7.24955 1.22346L6.98615 0.922432ZM6.89772 1.02679L6.89425 1.03258L7.23724 1.23838L7.24072 1.23259L6.89772 1.02679ZM6.89266 1.03527C6.87321 1.06887 6.85557 1.10719 6.84333 1.15002L7.22795 1.25989C7.22961 1.25408 7.23281 1.24608 7.23883 1.23568L6.89266 1.03527ZM6.84161 1.15645L6.8393 1.16571L7.22735 1.26272L7.22967 1.25346L6.84161 1.15645ZM6.83332 1.21422V1.21537H7.23332V1.21422H6.83332ZM6.84359 1.15213C6.84416 1.1504 6.84487 1.14843 6.84413 1.15053C6.84378 1.15151 6.84199 1.15645 6.84017 1.16253C6.83574 1.17728 6.83101 1.19855 6.83101 1.22464H7.23101C7.23101 1.24725 7.22685 1.26562 7.2233 1.27747C7.22191 1.28211 7.22063 1.28561 7.22082 1.28507C7.22086 1.28495 7.22084 1.28503 7.22098 1.28463C7.22108 1.28435 7.22124 1.28389 7.22143 1.28336C7.22182 1.28227 7.2224 1.28061 7.22306 1.27862L6.84359 1.15213ZM6.83542 1.18284L6.43478 3.05748L6.82594 3.14108L7.22659 1.26644L6.83542 1.18284ZM6.63036 2.89928H5.56276V3.29928H6.63036V2.89928ZM5.56276 3.29928H5.56392V2.89928H5.56276V3.29928ZM5.56369 2.89928C3.43511 2.90173 1.71098 4.62724 1.70723 6.75443L2.10723 6.75514C2.11059 4.84817 3.65626 3.30147 5.56415 3.29928L5.56369 2.89928ZM1.70723 6.75479V21.3433H2.10723V6.75479H1.70723ZM1.70723 21.3435C1.70967 23.4732 3.43515 25.1987 5.56499 25.2L5.56522 24.8C3.65616 24.7989 2.10942 23.2522 2.10723 21.3431L1.70723 21.3435ZM5.5651 25.2H19.4357V24.8H5.5651V25.2ZM19.4359 25.2C21.5644 25.1976 23.2899 23.4721 23.2924 21.3435L22.8924 21.3431C22.8901 23.2511 21.3434 24.7978 19.4355 24.8L19.4359 25.2ZM23.2924 21.3433V6.75479H22.8924V21.3433H23.2924ZM23.2924 6.75444C23.2887 4.62724 21.5647 2.90178 19.4361 2.89928L19.4356 3.29928C21.3435 3.30152 22.8891 4.84817 22.8924 6.75513L23.2924 6.75444ZM13.0049 7.08158L17.6712 2.02281L17.3772 1.7516L12.7109 6.81038L13.0049 7.08158ZM17.3286 1.92896L17.6401 3.38793L18.0313 3.30442L17.7198 1.84544L17.3286 1.92896ZM17.6574 3.25556L14.3979 9.6693L14.7545 9.85052L18.014 3.43678L17.6574 3.25556ZM14.7469 9.65567L13.0286 6.84175L12.6872 7.05021L14.4055 9.86414L14.7469 9.65567ZM10.6034 9.66906L7.34275 3.25533L6.98618 3.4366L10.2468 9.85034L10.6034 9.66906ZM7.36008 3.38761L7.67041 1.92979L7.27917 1.84651L6.96885 3.30433L7.36008 3.38761ZM7.32781 2.02379L11.9953 7.08138L12.2893 6.8101L7.62177 1.75251L7.32781 2.02379ZM11.9716 6.84156L10.2544 9.65552L10.5959 9.86388L12.313 7.04992L11.9716 6.84156ZM11.0099 3.87263L15.0973 3.87147L15.0972 3.47147L11.0098 3.47263L11.0099 3.87263ZM14.9503 3.53587L12.3531 6.35191L12.6471 6.62309L15.2443 3.80706L14.9503 3.53587ZM12.6471 6.35191L10.0499 3.53587L9.7559 3.80706L12.3531 6.62309L12.6471 6.35191ZM9.90271 3.87147L11.0097 3.87263L11.0101 3.47263L9.90313 3.47147L9.90271 3.87147ZM16.8886 1.43657L15.4794 2.96384L15.7734 3.23508L17.1826 1.70782L16.8886 1.43657ZM15.6264 2.89946H9.37365V3.29946H15.6264V2.89946ZM9.5207 2.9639L8.11384 1.43779L7.81974 1.70891L9.2266 3.23502L9.5207 2.9639ZM7.96682 1.77335L17.0356 1.77219L17.0356 1.37219L7.96677 1.37335L7.96682 1.77335ZM2.68057 21.3434V6.75488H2.28057V21.3434H2.68057ZM2.68057 6.75515C2.68274 5.16445 3.97245 3.8746 5.56422 3.87266L5.56374 3.47266C3.75149 3.47487 2.28304 4.94336 2.28057 6.7546L2.68057 6.75515ZM5.56398 3.87266H6.68716V3.47266H5.56398V3.87266ZM6.50886 3.76325L9.96635 10.5683L10.323 10.3871L6.86547 3.58206L6.50886 3.76325ZM9.96667 10.5689C10.0472 10.726 10.2047 10.826 10.3801 10.8338L10.3979 10.4342C10.3648 10.4327 10.3371 10.4146 10.3226 10.3864L9.96667 10.5689ZM10.389 10.834H10.4006V10.434H10.389V10.834ZM10.4006 10.834C10.5703 10.834 10.7275 10.7452 10.8158 10.6001L10.474 10.3923C10.458 10.4186 10.43 10.434 10.4006 10.434V10.834ZM10.8155 10.6005L10.8919 10.4754L10.5506 10.2669L10.4742 10.3919L10.8155 10.6005ZM10.5213 10.3711V24.427H10.9213V10.3711H10.5213ZM10.7213 24.227H5.56499V24.627H10.7213V24.227ZM5.56513 24.227C3.97341 24.2259 2.68279 22.935 2.68057 21.3431L2.28057 21.3437C2.2831 23.1559 3.75231 24.6258 5.56485 24.627L5.56513 24.227ZM11.4933 24.4256L11.4944 9.43308L11.0944 9.43305L11.0933 24.4256L11.4933 24.4256ZM11.4651 9.53738L12.6704 7.56548L12.3292 7.35685L11.1238 9.32876L11.4651 9.53738ZM12.3292 7.56548L13.5345 9.53738L13.8758 9.32876L12.6704 7.35685L12.3292 7.56548ZM13.5052 9.43307V24.4268H13.9052V9.43307H13.5052ZM13.7053 24.2268L11.2934 24.2256L11.2932 24.6256L13.7051 24.6268L13.7053 24.2268ZM22.3192 21.3431C22.317 22.935 21.0272 24.2249 19.4355 24.2268L19.436 24.6268C21.2483 24.6246 22.7167 23.156 22.7192 21.3437L22.3192 21.3431ZM19.4357 24.2268H14.2786V24.6268H19.4357V24.2268ZM14.4786 24.4268V10.3721H14.0786V24.4268H14.4786ZM14.1079 10.4764L14.1843 10.6015L14.5256 10.3929L14.4492 10.2679L14.1079 10.4764ZM14.1847 10.6021C14.273 10.7454 14.4299 10.8338 14.5993 10.8338V10.4338C14.5695 10.4338 14.5411 10.4181 14.5252 10.3922L14.1847 10.6021ZM14.5993 10.8338H14.6109V10.4338H14.5993V10.8338ZM14.6176 10.8337C14.7945 10.8278 14.9532 10.7248 15.0332 10.5687L14.6772 10.3863C14.6623 10.4155 14.6333 10.433 14.6041 10.4339L14.6176 10.8337ZM15.0335 10.5681L18.4898 3.76187L18.1332 3.58076L14.6769 10.387L15.0335 10.5681ZM18.3115 3.87132H19.4358V3.47132H18.3115V3.87132ZM19.4356 3.87132C21.0275 3.87348 22.3173 5.16324 22.3192 6.75497L22.7192 6.75448C22.717 4.94218 21.2485 3.47378 19.4361 3.47132L19.4356 3.87132ZM22.3192 6.75472L22.3192 21.3434L22.7192 21.3434L22.7192 6.75472L22.3192 6.75472ZM20.9722 11.3996H15.8242V11.7996H20.9722V11.3996ZM15.8242 11.3996C15.5551 11.3996 15.337 11.6177 15.337 11.8868H15.737C15.737 11.8386 15.776 11.7996 15.8242 11.7996V11.3996ZM15.337 11.8868V15.7797H15.737V11.8868H15.337ZM15.3371 15.7758C15.3209 16.597 15.6355 17.3924 16.2117 17.9797L16.4973 17.6996C15.9966 17.1892 15.723 16.4978 15.737 15.7837L15.3371 15.7758ZM16.2116 17.9796C16.7865 18.5668 17.5756 18.8988 18.3982 18.8988V18.4988C17.6831 18.4988 16.9971 18.2102 16.4974 17.6997L16.2116 17.9796ZM18.3982 18.8988C19.2209 18.8988 20.0088 18.5667 20.5847 17.9797L20.2991 17.6996C19.7982 18.2102 19.1131 18.4988 18.3982 18.4988V18.8988ZM20.5848 17.9796C21.1595 17.3924 21.4755 16.5972 21.4582 15.7755L21.0583 15.784C21.0733 16.4977 20.7988 17.1892 20.299 17.6997L20.5848 17.9796ZM21.4582 15.7797V11.8868H21.0582V15.7797H21.4582ZM21.4582 11.8868C21.4582 11.6174 21.2413 11.4016 20.9736 11.3996L20.9707 11.7996C21.0203 11.8 21.0582 11.8389 21.0582 11.8868H21.4582ZM16.1114 12.3728L20.6852 12.374L20.6853 11.974L16.1115 11.9728L16.1114 12.3728ZM20.4852 12.174V12.7923H20.8852V12.174H20.4852ZM20.6852 12.5923H16.1114V12.9923H20.6852V12.5923ZM16.3114 12.7923V12.1728H15.9114V12.7923H16.3114ZM20.4852 15.7797C20.4852 16.9314 19.5511 17.8665 18.3984 17.8665V18.2665C19.7722 18.2665 20.8852 17.1522 20.8852 15.7797H20.4852ZM18.3984 17.8665C17.2456 17.8665 16.3115 16.9314 16.3115 15.7797H15.9115C15.9115 17.1522 17.0246 18.2665 18.3984 18.2665V17.8665ZM16.3115 15.7797V13.3666H15.9115V15.7797H16.3115ZM16.1115 13.5666H20.6854V13.1666H16.1115V13.5666ZM20.4854 13.3666L20.4852 15.7797L20.8852 15.7797L20.8854 13.3666L20.4854 13.3666ZM12.5001 11.7807C12.1754 11.7807 11.8807 11.9761 11.7569 12.2776L12.127 12.4295C12.1885 12.2795 12.3361 12.1807 12.5001 12.1807V11.7807ZM11.7573 12.2768C11.6326 12.5769 11.7 12.924 11.9319 13.1543L12.2138 12.8705C12.0982 12.7557 12.0637 12.5818 12.1267 12.4303L11.7573 12.2768ZM11.9309 13.1534C12.1612 13.3852 12.5079 13.4524 12.8076 13.3295L12.6558 12.9594C12.5038 13.0217 12.3295 12.987 12.2147 12.8715L11.9309 13.1534ZM12.8084 13.3291C13.1091 13.2042 13.3045 12.91 13.3045 12.5852H12.9045C12.9045 12.7489 12.8058 12.897 12.6549 12.9597L12.8084 13.3291ZM13.3045 12.5852C13.3045 12.1412 12.944 11.7807 12.5001 11.7807V12.1807C12.7231 12.1807 12.9045 12.3621 12.9045 12.5852H13.3045ZM12.5001 12.4164C12.6585 12.4164 12.7233 12.6043 12.6207 12.7069L12.3378 12.424C12.1981 12.5637 12.2884 12.8164 12.5001 12.8164V12.4164ZM12.6207 12.7069C12.518 12.8095 12.3302 12.7446 12.3302 12.5863H12.7302C12.7302 12.3747 12.4775 12.2843 12.3378 12.424L12.6207 12.7069ZM12.3307 12.572C12.3366 12.4891 12.4028 12.4228 12.4858 12.4169L12.5143 12.8159C12.6298 12.8076 12.7214 12.7159 12.7297 12.6005L12.3307 12.572ZM12.5001 15.7998C12.1747 15.7998 11.8804 15.9969 11.7569 16.2979L12.127 16.4497C12.1888 16.2991 12.3368 16.1998 12.5001 16.1998V15.7998ZM11.7573 16.2971C11.6326 16.5972 11.7 16.9443 11.9319 17.1746L12.2138 16.8908C12.0982 16.776 12.0637 16.602 12.1267 16.4505L11.7573 16.2971ZM11.9314 17.1741C12.161 17.4037 12.5076 17.4731 12.8084 17.3482L12.655 16.9788C12.5041 17.0415 12.3296 17.0067 12.2142 16.8913L11.9314 17.1741ZM12.8084 17.3482C13.1087 17.2235 13.3045 16.9307 13.3045 16.6054H12.9045C12.9045 16.7688 12.8063 16.916 12.655 16.9788L12.8084 17.3482ZM13.3045 16.6054C13.3045 16.1599 12.9438 15.8014 12.5008 15.7998L12.4994 16.1998C12.7233 16.2006 12.9045 16.3816 12.9045 16.6054H13.3045ZM12.5001 16.4355C12.6516 16.4355 12.7281 16.6196 12.6207 16.7271L12.3378 16.4443C12.1933 16.5888 12.2953 16.8355 12.5001 16.8355V16.4355ZM12.6207 16.7271C12.518 16.8298 12.3302 16.7649 12.3302 16.6065H12.7302C12.7302 16.3949 12.4775 16.3046 12.3378 16.4443L12.6207 16.7271ZM12.3307 16.5923C12.3373 16.4997 12.4127 16.4412 12.4858 16.436L12.5143 16.835C12.6198 16.8275 12.7207 16.7458 12.7297 16.6208L12.3307 16.5923ZM12.5001 19.8201C12.1754 19.8201 11.8807 20.0154 11.7569 20.317L12.127 20.4688C12.1885 20.3188 12.3361 20.2201 12.5001 20.2201V19.8201ZM11.7571 20.3165C11.6326 20.6177 11.7002 20.9631 11.9314 21.1943L12.2142 20.9115C12.098 20.7953 12.0637 20.622 12.1268 20.4693L11.7571 20.3165ZM11.9314 21.1944C12.161 21.424 12.5076 21.4934 12.8084 21.3685L12.655 20.9991C12.5041 21.0617 12.3296 21.0269 12.2142 20.9115L11.9314 21.1944ZM12.8084 21.3685C13.1089 21.2437 13.3045 20.9507 13.3045 20.6245H12.9045C12.9045 20.7892 12.8061 20.9363 12.655 20.9991L12.8084 21.3685ZM13.3045 20.6245C13.3045 20.1806 12.944 19.8201 12.5001 19.8201V20.2201C12.7231 20.2201 12.9045 20.4015 12.9045 20.6245H13.3045ZM12.5001 20.4557C12.6584 20.4557 12.7233 20.6436 12.6207 20.7462L12.3378 20.4634C12.1981 20.6031 12.2884 20.8557 12.5001 20.8557V20.4557ZM12.6207 20.7462C12.5121 20.8547 12.3302 20.7769 12.3302 20.6256H12.7302C12.7302 20.4235 12.4834 20.3178 12.3378 20.4634L12.6207 20.7462ZM12.3307 20.6114C12.3366 20.5284 12.4028 20.4622 12.4858 20.4563L12.5143 20.8552C12.6298 20.847 12.7214 20.7553 12.7297 20.6399L12.3307 20.6114Z" fill="#B1B1B3" mask="url(#path-1-outside-1_7325_10850)"/>
</svg>
