<svg width="25" height="24" viewBox="0 0 25 24" fill="none" xmlns="http://www.w3.org/2000/svg">
<path d="M7.83855 7.32886L7.83867 7.32886C8.48671 7.32814 9.10801 7.07038 9.56625 6.61214C10.0245 6.15391 10.2822 5.53261 10.283 4.88456V4.88445C10.283 4.40099 10.1396 3.92839 9.87101 3.52641C9.60241 3.12443 9.22065 2.81112 8.77399 2.62611C8.32733 2.4411 7.83584 2.39269 7.36167 2.48701C6.8875 2.58133 6.45195 2.81413 6.11009 3.15599C5.76824 3.49785 5.53543 3.9334 5.44111 4.40757C5.34679 4.88174 5.3952 5.37323 5.58021 5.81989C5.76522 6.26655 6.07853 6.64831 6.48051 6.91691C6.88249 7.1855 7.35509 7.32886 7.83855 7.32886ZM7.03961 3.68875C7.2761 3.53074 7.55413 3.4464 7.83855 3.4464V3.3465L7.83844 3.4464C8.21974 3.44683 8.58529 3.59849 8.85491 3.8681C9.12452 4.13772 9.27618 4.50327 9.27661 4.88456C9.27659 5.16895 9.19225 5.44694 9.03425 5.68339C8.87624 5.91988 8.65164 6.1042 8.38887 6.21304C8.1261 6.32188 7.83696 6.35036 7.558 6.29487C7.27905 6.23939 7.02281 6.10243 6.8217 5.90131C6.62058 5.70019 6.48362 5.44396 6.42813 5.165C6.37264 4.88605 6.40112 4.5969 6.50996 4.33413C6.61881 4.07136 6.80313 3.84677 7.03961 3.68875Z" fill="#B1B1B3" stroke="#B1B1B3" stroke-width="0.2"/>
<path d="M18.5534 5.21265H18.5535C19.2016 5.21193 19.8228 4.95417 20.2811 4.49593C20.7393 4.0377 20.9971 3.4164 20.9978 2.76835V2.76824C20.9978 2.28478 20.8544 1.81218 20.5859 1.4102C20.3173 1.00822 19.9355 0.694911 19.4888 0.509899C19.0422 0.324887 18.5507 0.27648 18.0765 0.370798C17.6023 0.465116 17.1668 0.697924 16.8249 1.03978C16.4831 1.38164 16.2503 1.81719 16.156 2.29136C16.0616 2.76553 16.11 3.25702 16.2951 3.70368C16.4801 4.15034 16.7934 4.5321 17.1954 4.8007C17.5973 5.06929 18.0699 5.21265 18.5534 5.21265ZM17.7545 1.57254C17.9909 1.41453 18.269 1.33019 18.5534 1.33019V1.23019L18.5533 1.33019C18.9346 1.33062 19.3001 1.48227 19.5697 1.75189C19.8394 2.02151 19.991 2.38706 19.9915 2.76835C19.9914 3.05274 19.9071 3.33073 19.7491 3.56718C19.5911 3.80367 19.3665 3.98799 19.1037 4.09683C18.8409 4.20567 18.5518 4.23415 18.2728 4.17866C17.9939 4.12318 17.7377 3.98621 17.5365 3.7851C17.3354 3.58398 17.1985 3.32775 17.143 3.04879C17.0875 2.76984 17.116 2.48069 17.2248 2.21792C17.3337 1.95515 17.518 1.73056 17.7545 1.57254Z" fill="#B1B1B3" stroke="#B1B1B3" stroke-width="0.2"/>
<mask id="path-3-outside-1_7325_8117" maskUnits="userSpaceOnUse" x="-0.216797" y="6.16162" width="17" height="18" fill="black">
<rect fill="white" x="-0.216797" y="6.16162" width="17" height="18"/>
<path d="M9.8606 23.5554C9.55391 23.5563 9.25793 23.4427 9.03062 23.2368C8.8033 23.0309 8.66103 22.7476 8.63165 22.4423L8.27255 18.8209C8.25272 18.6222 8.26829 18.4215 8.31855 18.2283L8.81096 16.3302L6.1952 17.6586L4.78855 20.3544C4.6316 20.656 4.36383 20.885 4.04153 20.9933C3.71922 21.1015 3.36751 21.0806 3.06033 20.9348C2.75315 20.7891 2.51445 20.53 2.39441 20.2119C2.27437 19.8938 2.28234 19.5415 2.41666 19.2292L3.78448 16.0382C4.14033 15.2102 4.7699 14.5295 5.56773 14.1103L7.34423 13.1793L6.79996 11.6063L6.46076 11.9849C6.13432 12.3485 5.72623 12.6294 5.27006 12.8045C4.81389 12.9795 4.32267 13.0438 3.83681 12.992L1.83172 12.7756C1.5329 12.7434 1.25779 12.5979 1.06305 12.369C0.868304 12.1401 0.768755 11.8452 0.7849 11.5451C0.801044 11.2449 0.931653 10.9624 1.14983 10.7557C1.36801 10.549 1.65714 10.4338 1.95769 10.4339H4.2677L5.55955 8.72597C5.84068 8.35558 6.23734 8.08956 6.68672 7.97002L9.44745 7.24042C9.77333 7.15437 10.1138 7.13858 10.4462 7.19411C10.7787 7.24963 11.0955 7.3752 11.3757 7.56248L13.0871 8.70679L15.1462 8.54009C15.4633 8.51443 15.7785 8.60873 16.0295 8.80434C16.2804 8.99995 16.4488 9.28261 16.5013 9.59642C16.5538 9.91022 16.4866 10.2323 16.3131 10.499C16.1395 10.7656 15.8722 10.9574 15.5639 11.0364L14.1626 11.3955C13.303 11.6162 12.3924 11.5153 11.602 11.1115L12.7904 14.3103C12.8254 14.4045 12.8239 14.5084 12.7864 14.6016L11.0642 18.8677L11.0956 22.3091C11.0971 22.4722 11.0662 22.634 11.0048 22.7851C10.9434 22.9363 10.8527 23.0737 10.7379 23.1896C10.6231 23.3055 10.4864 23.3975 10.3359 23.4602C10.1853 23.523 10.0238 23.5553 9.86066 23.5553L9.8606 23.5554ZM9.42571 15.1626C9.48728 15.1626 9.54804 15.1767 9.60332 15.2038C9.6586 15.2309 9.70693 15.2703 9.74461 15.319C9.78229 15.3677 9.80833 15.4244 9.82071 15.4847C9.83309 15.545 9.83149 15.6074 9.81604 15.667L9.09928 18.4308C9.07296 18.5321 9.06487 18.6372 9.07539 18.7414L9.43449 22.3628C9.44548 22.4725 9.49834 22.5738 9.58208 22.6455C9.66581 22.7173 9.77397 22.754 9.88408 22.7481C9.99419 22.7421 10.0978 22.694 10.1733 22.6136C10.2488 22.5333 10.2905 22.4269 10.2896 22.3166L10.2575 18.795C10.257 18.742 10.2669 18.6895 10.2867 18.6404L11.98 14.4448L10.4814 10.41C10.453 10.3336 10.4484 10.2504 10.4683 10.1714C10.4881 10.0924 10.5315 10.0212 10.5926 9.9673C10.6537 9.91339 10.7297 9.87927 10.8105 9.86942C10.8914 9.85958 10.9734 9.87447 11.0457 9.91215L11.9461 10.3816C12.5664 10.7055 13.2846 10.7884 13.9623 10.6143L15.3637 10.2552C15.4635 10.2297 15.5519 10.1716 15.615 10.0903C15.6782 10.009 15.7124 9.90891 15.7124 9.80595C15.7124 9.74189 15.6991 9.67853 15.6734 9.61985C15.6477 9.56118 15.6101 9.50846 15.563 9.46503C15.5159 9.4216 15.4604 9.3884 15.3998 9.36752C15.3393 9.34663 15.275 9.33852 15.2112 9.3437L13.0123 9.52169C12.9216 9.52907 12.8311 9.50555 12.7554 9.45497L10.9275 8.23283C10.7423 8.10911 10.533 8.02616 10.3134 7.98948C10.0937 7.9528 9.86877 7.96323 9.65346 8.02007L6.89278 8.7495C6.61761 8.82267 6.37472 8.98558 6.2026 9.21241L4.78974 11.0803C4.75214 11.13 4.70354 11.1703 4.64774 11.1981C4.59194 11.2258 4.53047 11.2403 4.46816 11.2403H1.95763C1.86344 11.2402 1.77281 11.2763 1.70441 11.341C1.63602 11.4058 1.59508 11.4943 1.59003 11.5884C1.58497 11.6824 1.61619 11.7749 1.67725 11.8466C1.73831 11.9183 1.82455 11.9639 1.91821 11.9739L3.9233 12.1903C4.28193 12.2287 4.64455 12.1813 4.9813 12.0521C5.31805 11.9229 5.61929 11.7156 5.86023 11.4472L6.65667 10.5581C6.70354 10.5058 6.76324 10.4667 6.82988 10.4446C6.89651 10.4225 6.96777 10.4181 7.0366 10.432C7.10542 10.4459 7.16943 10.4775 7.22229 10.5237C7.27514 10.5699 7.31502 10.6292 7.33795 10.6955L8.21975 13.244C8.25131 13.3352 8.2491 13.4347 8.21352 13.5245C8.17795 13.6142 8.11136 13.6882 8.02587 13.733L5.942 14.825C5.30825 15.1579 4.80813 15.6985 4.52538 16.3561L3.15755 19.5471C3.1291 19.6135 3.11516 19.6852 3.11669 19.7575C3.11821 19.8297 3.13516 19.9008 3.16639 19.966C3.19762 20.0311 3.24241 20.0889 3.29778 20.1353C3.35314 20.1818 3.41778 20.2158 3.48738 20.2353C3.59938 20.266 3.71852 20.2576 3.82509 20.2115C3.93165 20.1653 4.01926 20.0841 4.0734 19.9814L5.53978 17.1711C5.57858 17.0965 5.63973 17.036 5.71467 16.9979L9.24293 15.206C9.29959 15.1773 9.36221 15.1624 9.42571 15.1626Z"/>
</mask>
<path d="M9.8606 23.5554C9.55391 23.5563 9.25793 23.4427 9.03062 23.2368C8.8033 23.0309 8.66103 22.7476 8.63165 22.4423L8.27255 18.8209C8.25272 18.6222 8.26829 18.4215 8.31855 18.2283L8.81096 16.3302L6.1952 17.6586L4.78855 20.3544C4.6316 20.656 4.36383 20.885 4.04153 20.9933C3.71922 21.1015 3.36751 21.0806 3.06033 20.9348C2.75315 20.7891 2.51445 20.53 2.39441 20.2119C2.27437 19.8938 2.28234 19.5415 2.41666 19.2292L3.78448 16.0382C4.14033 15.2102 4.7699 14.5295 5.56773 14.1103L7.34423 13.1793L6.79996 11.6063L6.46076 11.9849C6.13432 12.3485 5.72623 12.6294 5.27006 12.8045C4.81389 12.9795 4.32267 13.0438 3.83681 12.992L1.83172 12.7756C1.5329 12.7434 1.25779 12.5979 1.06305 12.369C0.868304 12.1401 0.768755 11.8452 0.7849 11.5451C0.801044 11.2449 0.931653 10.9624 1.14983 10.7557C1.36801 10.549 1.65714 10.4338 1.95769 10.4339H4.2677L5.55955 8.72597C5.84068 8.35558 6.23734 8.08956 6.68672 7.97002L9.44745 7.24042C9.77333 7.15437 10.1138 7.13858 10.4462 7.19411C10.7787 7.24963 11.0955 7.3752 11.3757 7.56248L13.0871 8.70679L15.1462 8.54009C15.4633 8.51443 15.7785 8.60873 16.0295 8.80434C16.2804 8.99995 16.4488 9.28261 16.5013 9.59642C16.5538 9.91022 16.4866 10.2323 16.3131 10.499C16.1395 10.7656 15.8722 10.9574 15.5639 11.0364L14.1626 11.3955C13.303 11.6162 12.3924 11.5153 11.602 11.1115L12.7904 14.3103C12.8254 14.4045 12.8239 14.5084 12.7864 14.6016L11.0642 18.8677L11.0956 22.3091C11.0971 22.4722 11.0662 22.634 11.0048 22.7851C10.9434 22.9363 10.8527 23.0737 10.7379 23.1896C10.6231 23.3055 10.4864 23.3975 10.3359 23.4602C10.1853 23.523 10.0238 23.5553 9.86066 23.5553L9.8606 23.5554ZM9.42571 15.1626C9.48728 15.1626 9.54804 15.1767 9.60332 15.2038C9.6586 15.2309 9.70693 15.2703 9.74461 15.319C9.78229 15.3677 9.80833 15.4244 9.82071 15.4847C9.83309 15.545 9.83149 15.6074 9.81604 15.667L9.09928 18.4308C9.07296 18.5321 9.06487 18.6372 9.07539 18.7414L9.43449 22.3628C9.44548 22.4725 9.49834 22.5738 9.58208 22.6455C9.66581 22.7173 9.77397 22.754 9.88408 22.7481C9.99419 22.7421 10.0978 22.694 10.1733 22.6136C10.2488 22.5333 10.2905 22.4269 10.2896 22.3166L10.2575 18.795C10.257 18.742 10.2669 18.6895 10.2867 18.6404L11.98 14.4448L10.4814 10.41C10.453 10.3336 10.4484 10.2504 10.4683 10.1714C10.4881 10.0924 10.5315 10.0212 10.5926 9.9673C10.6537 9.91339 10.7297 9.87927 10.8105 9.86942C10.8914 9.85958 10.9734 9.87447 11.0457 9.91215L11.9461 10.3816C12.5664 10.7055 13.2846 10.7884 13.9623 10.6143L15.3637 10.2552C15.4635 10.2297 15.5519 10.1716 15.615 10.0903C15.6782 10.009 15.7124 9.90891 15.7124 9.80595C15.7124 9.74189 15.6991 9.67853 15.6734 9.61985C15.6477 9.56118 15.6101 9.50846 15.563 9.46503C15.5159 9.4216 15.4604 9.3884 15.3998 9.36752C15.3393 9.34663 15.275 9.33852 15.2112 9.3437L13.0123 9.52169C12.9216 9.52907 12.8311 9.50555 12.7554 9.45497L10.9275 8.23283C10.7423 8.10911 10.533 8.02616 10.3134 7.98948C10.0937 7.9528 9.86877 7.96323 9.65346 8.02007L6.89278 8.7495C6.61761 8.82267 6.37472 8.98558 6.2026 9.21241L4.78974 11.0803C4.75214 11.13 4.70354 11.1703 4.64774 11.1981C4.59194 11.2258 4.53047 11.2403 4.46816 11.2403H1.95763C1.86344 11.2402 1.77281 11.2763 1.70441 11.341C1.63602 11.4058 1.59508 11.4943 1.59003 11.5884C1.58497 11.6824 1.61619 11.7749 1.67725 11.8466C1.73831 11.9183 1.82455 11.9639 1.91821 11.9739L3.9233 12.1903C4.28193 12.2287 4.64455 12.1813 4.9813 12.0521C5.31805 11.9229 5.61929 11.7156 5.86023 11.4472L6.65667 10.5581C6.70354 10.5058 6.76324 10.4667 6.82988 10.4446C6.89651 10.4225 6.96777 10.4181 7.0366 10.432C7.10542 10.4459 7.16943 10.4775 7.22229 10.5237C7.27514 10.5699 7.31502 10.6292 7.33795 10.6955L8.21975 13.244C8.25131 13.3352 8.2491 13.4347 8.21352 13.5245C8.17795 13.6142 8.11136 13.6882 8.02587 13.733L5.942 14.825C5.30825 15.1579 4.80813 15.6985 4.52538 16.3561L3.15755 19.5471C3.1291 19.6135 3.11516 19.6852 3.11669 19.7575C3.11821 19.8297 3.13516 19.9008 3.16639 19.966C3.19762 20.0311 3.24241 20.0889 3.29778 20.1353C3.35314 20.1818 3.41778 20.2158 3.48738 20.2353C3.59938 20.266 3.71852 20.2576 3.82509 20.2115C3.93165 20.1653 4.01926 20.0841 4.0734 19.9814L5.53978 17.1711C5.57858 17.0965 5.63973 17.036 5.71467 16.9979L9.24293 15.206C9.29959 15.1773 9.36221 15.1624 9.42571 15.1626Z" fill="#B1B1B3"/>
<path d="M9.8606 23.5554C9.55391 23.5563 9.25793 23.4427 9.03062 23.2368C8.8033 23.0309 8.66103 22.7476 8.63165 22.4423L8.27255 18.8209C8.25272 18.6222 8.26829 18.4215 8.31855 18.2283L8.81096 16.3302L6.1952 17.6586L4.78855 20.3544C4.6316 20.656 4.36383 20.885 4.04153 20.9933C3.71922 21.1015 3.36751 21.0806 3.06033 20.9348C2.75315 20.7891 2.51445 20.53 2.39441 20.2119C2.27437 19.8938 2.28234 19.5415 2.41666 19.2292L3.78448 16.0382C4.14033 15.2102 4.7699 14.5295 5.56773 14.1103L7.34423 13.1793L6.79996 11.6063L6.46076 11.9849C6.13432 12.3485 5.72623 12.6294 5.27006 12.8045C4.81389 12.9795 4.32267 13.0438 3.83681 12.992L1.83172 12.7756C1.5329 12.7434 1.25779 12.5979 1.06305 12.369C0.868304 12.1401 0.768755 11.8452 0.7849 11.5451C0.801044 11.2449 0.931653 10.9624 1.14983 10.7557C1.36801 10.549 1.65714 10.4338 1.95769 10.4339H4.2677L5.55955 8.72597C5.84068 8.35558 6.23734 8.08956 6.68672 7.97002L9.44745 7.24042C9.77333 7.15437 10.1138 7.13858 10.4462 7.19411C10.7787 7.24963 11.0955 7.3752 11.3757 7.56248L13.0871 8.70679L15.1462 8.54009C15.4633 8.51443 15.7785 8.60873 16.0295 8.80434C16.2804 8.99995 16.4488 9.28261 16.5013 9.59642C16.5538 9.91022 16.4866 10.2323 16.3131 10.499C16.1395 10.7656 15.8722 10.9574 15.5639 11.0364L14.1626 11.3955C13.303 11.6162 12.3924 11.5153 11.602 11.1115L12.7904 14.3103C12.8254 14.4045 12.8239 14.5084 12.7864 14.6016L11.0642 18.8677L11.0956 22.3091C11.0971 22.4722 11.0662 22.634 11.0048 22.7851C10.9434 22.9363 10.8527 23.0737 10.7379 23.1896C10.6231 23.3055 10.4864 23.3975 10.3359 23.4602C10.1853 23.523 10.0238 23.5553 9.86066 23.5553L9.8606 23.5554ZM9.42571 15.1626C9.48728 15.1626 9.54804 15.1767 9.60332 15.2038C9.6586 15.2309 9.70693 15.2703 9.74461 15.319C9.78229 15.3677 9.80833 15.4244 9.82071 15.4847C9.83309 15.545 9.83149 15.6074 9.81604 15.667L9.09928 18.4308C9.07296 18.5321 9.06487 18.6372 9.07539 18.7414L9.43449 22.3628C9.44548 22.4725 9.49834 22.5738 9.58208 22.6455C9.66581 22.7173 9.77397 22.754 9.88408 22.7481C9.99419 22.7421 10.0978 22.694 10.1733 22.6136C10.2488 22.5333 10.2905 22.4269 10.2896 22.3166L10.2575 18.795C10.257 18.742 10.2669 18.6895 10.2867 18.6404L11.98 14.4448L10.4814 10.41C10.453 10.3336 10.4484 10.2504 10.4683 10.1714C10.4881 10.0924 10.5315 10.0212 10.5926 9.9673C10.6537 9.91339 10.7297 9.87927 10.8105 9.86942C10.8914 9.85958 10.9734 9.87447 11.0457 9.91215L11.9461 10.3816C12.5664 10.7055 13.2846 10.7884 13.9623 10.6143L15.3637 10.2552C15.4635 10.2297 15.5519 10.1716 15.615 10.0903C15.6782 10.009 15.7124 9.90891 15.7124 9.80595C15.7124 9.74189 15.6991 9.67853 15.6734 9.61985C15.6477 9.56118 15.6101 9.50846 15.563 9.46503C15.5159 9.4216 15.4604 9.3884 15.3998 9.36752C15.3393 9.34663 15.275 9.33852 15.2112 9.3437L13.0123 9.52169C12.9216 9.52907 12.8311 9.50555 12.7554 9.45497L10.9275 8.23283C10.7423 8.10911 10.533 8.02616 10.3134 7.98948C10.0937 7.9528 9.86877 7.96323 9.65346 8.02007L6.89278 8.7495C6.61761 8.82267 6.37472 8.98558 6.2026 9.21241L4.78974 11.0803C4.75214 11.13 4.70354 11.1703 4.64774 11.1981C4.59194 11.2258 4.53047 11.2403 4.46816 11.2403H1.95763C1.86344 11.2402 1.77281 11.2763 1.70441 11.341C1.63602 11.4058 1.59508 11.4943 1.59003 11.5884C1.58497 11.6824 1.61619 11.7749 1.67725 11.8466C1.73831 11.9183 1.82455 11.9639 1.91821 11.9739L3.9233 12.1903C4.28193 12.2287 4.64455 12.1813 4.9813 12.0521C5.31805 11.9229 5.61929 11.7156 5.86023 11.4472L6.65667 10.5581C6.70354 10.5058 6.76324 10.4667 6.82988 10.4446C6.89651 10.4225 6.96777 10.4181 7.0366 10.432C7.10542 10.4459 7.16943 10.4775 7.22229 10.5237C7.27514 10.5699 7.31502 10.6292 7.33795 10.6955L8.21975 13.244C8.25131 13.3352 8.2491 13.4347 8.21352 13.5245C8.17795 13.6142 8.11136 13.6882 8.02587 13.733L5.942 14.825C5.30825 15.1579 4.80813 15.6985 4.52538 16.3561L3.15755 19.5471C3.1291 19.6135 3.11516 19.6852 3.11669 19.7575C3.11821 19.8297 3.13516 19.9008 3.16639 19.966C3.19762 20.0311 3.24241 20.0889 3.29778 20.1353C3.35314 20.1818 3.41778 20.2158 3.48738 20.2353C3.59938 20.266 3.71852 20.2576 3.82509 20.2115C3.93165 20.1653 4.01926 20.0841 4.0734 19.9814L5.53978 17.1711C5.57858 17.0965 5.63973 17.036 5.71467 16.9979L9.24293 15.206C9.29959 15.1773 9.36221 15.1624 9.42571 15.1626Z" stroke="#B1B1B3" stroke-width="0.4" mask="url(#path-3-outside-1_7325_8117)"/>
<mask id="path-4-outside-2_7325_8117" maskUnits="userSpaceOnUse" x="10.1865" y="-0.80957" width="15" height="23" fill="black">
<rect fill="white" x="10.1865" y="-0.80957" width="15" height="23"/>
<path d="M14.6431 21.48C14.5694 21.48 14.496 21.4736 14.4234 21.4609C14.251 21.4307 14.0868 21.3646 13.9416 21.2667C13.7964 21.1689 13.6735 21.0416 13.5807 20.8931C13.488 20.7447 13.4275 20.5783 13.4033 20.4049C13.3791 20.2315 13.3916 20.055 13.4402 19.8868L14.3378 16.7748L13.3123 13.951C13.0119 13.1189 12.9906 12.2115 13.2517 11.3662L13.3823 10.9463C13.414 10.8442 13.485 10.7589 13.5797 10.7091C13.6743 10.6593 13.7849 10.6492 13.887 10.6809C13.9891 10.7127 14.0744 10.7837 14.1242 10.8783C14.1739 10.973 14.1841 11.0835 14.1523 11.1856L14.0217 11.6057C13.8126 12.2827 13.8297 13.0093 14.0703 13.6758L15.1406 16.6228C15.1697 16.703 15.1726 16.7903 15.149 16.8722L14.2149 20.1102C14.1836 20.2185 14.195 20.3346 14.2467 20.4347C14.2984 20.5349 14.3865 20.6114 14.4929 20.6486C14.5993 20.6858 14.7159 20.6808 14.8187 20.6347C14.9215 20.5886 15.0028 20.5049 15.0458 20.4007L16.465 16.967L15.729 14.4755C15.7055 14.3958 15.7071 14.3109 15.7336 14.2322C15.7602 14.1535 15.8104 14.085 15.8774 14.0359C15.9443 13.9868 16.0248 13.9596 16.1079 13.958C16.1909 13.9564 16.2724 13.9805 16.3412 14.0269L18.82 15.6994C18.8881 15.7454 18.9406 15.8111 18.9704 15.8877L20.2385 19.1556C20.2821 19.2679 20.3674 19.3591 20.4767 19.4099C20.586 19.4607 20.7107 19.4673 20.8247 19.4282C20.9387 19.3892 21.0331 19.3075 21.0883 19.2003C21.1434 19.0932 21.155 18.9689 21.1205 18.8534L19.8862 14.7159L17.7981 13.0324C17.7367 12.9829 17.6911 12.9164 17.6671 12.8411C17.6431 12.7659 17.6417 12.6853 17.6631 12.6093L18.7139 8.87616C18.7341 8.80442 18.7738 8.73968 18.8285 8.68914C18.8833 8.6386 18.951 8.60423 19.0241 8.58984C19.0973 8.57546 19.173 8.58163 19.2428 8.60767C19.3126 8.63371 19.3739 8.6786 19.4198 8.73735L20.6464 10.309C20.839 10.5559 21.0973 10.7434 21.3916 10.85L23.484 11.6086C23.5707 11.6399 23.666 11.6376 23.751 11.602C23.836 11.5665 23.9045 11.5003 23.943 11.4166C23.9816 11.3328 23.9873 11.2377 23.959 11.15C23.9307 11.0623 23.8705 10.9884 23.7903 10.943L21.5315 9.66478C21.4737 9.63205 21.4248 9.58553 21.3893 9.52937L20.3658 7.91098C19.958 7.26592 19.3291 6.79154 18.5968 6.57661L15.8279 5.76338C15.5007 5.66753 15.1939 5.51236 14.9228 5.30561L13.5219 4.239C13.454 4.18734 13.4043 4.11552 13.3798 4.03383L12.5288 1.19157C12.5117 1.13531 12.477 1.08601 12.4298 1.0509C12.3827 1.01578 12.3255 0.996691 12.2667 0.996429C12.2278 0.996427 12.1893 1.00472 12.1539 1.02077C12.1184 1.03681 12.0868 1.06023 12.0611 1.08946C12.0354 1.11869 12.0163 1.15306 12.0049 1.19028C11.9936 1.2275 11.9903 1.26671 11.9953 1.30529L12.3744 4.22258C12.4147 4.52851 12.5554 4.8124 12.7746 5.02965L14.8857 7.11591C14.9308 7.1605 14.9648 7.21512 14.9848 7.27532C15.0049 7.33552 15.0104 7.3996 15.001 7.46235L14.7599 9.06772C14.7526 9.12059 14.735 9.17149 14.7079 9.21747C14.6808 9.26345 14.6449 9.3036 14.6022 9.33559C14.5594 9.36758 14.5108 9.39077 14.4591 9.40382C14.4073 9.41687 14.3535 9.41952 14.3007 9.41162C14.248 9.40371 14.1973 9.3854 14.1516 9.35776C14.106 9.33012 14.0663 9.2937 14.0348 9.2506C14.0034 9.20749 13.9808 9.15858 13.9683 9.10668C13.9559 9.05478 13.9539 9.00093 13.9625 8.94826L14.1732 7.54549L12.208 5.60342C11.8613 5.25978 11.6386 4.81068 11.5749 4.32669L11.1955 1.40928C11.1606 1.14025 11.2283 0.867946 11.385 0.64651C11.5417 0.425075 11.776 0.270731 12.0413 0.214168C12.3067 0.157605 12.5835 0.202967 12.817 0.341234C13.0504 0.479501 13.2232 0.700544 13.301 0.960411L14.1144 3.677L15.411 4.66416C15.6039 4.81124 15.8221 4.92163 16.0549 4.98981L18.8238 5.80304C19.7443 6.07315 20.5348 6.66942 21.0473 7.48027L22.0167 9.01312L24.1875 10.2413C24.4436 10.3863 24.636 10.6223 24.7264 10.9024C24.8168 11.1825 24.7987 11.4864 24.6756 11.7538C24.5525 12.0212 24.3335 12.2326 24.0619 12.3461C23.7903 12.4597 23.486 12.467 23.2092 12.3667L21.1168 11.6082C20.6799 11.4499 20.2966 11.1716 20.0108 10.8053L19.2742 9.86153L18.5114 12.5718L20.4899 14.1666C20.5534 14.2178 20.5999 14.2871 20.6232 14.3653L21.893 18.6228C21.987 18.9379 21.9555 19.2771 21.805 19.5694C21.6545 19.8617 21.3967 20.0845 21.0857 20.191C20.7747 20.2975 20.4345 20.2796 20.1364 20.1409C19.8383 20.0023 19.6054 19.7536 19.4865 19.4471L18.264 16.297L16.8201 15.3228L17.2787 16.875C17.3047 16.9634 17.2998 17.058 17.2646 17.1432L15.791 20.7087C15.698 20.9369 15.5392 21.1321 15.3347 21.2695C15.1302 21.4069 14.8894 21.4802 14.6431 21.48Z"/>
</mask>
<path d="M14.6431 21.48C14.5694 21.48 14.496 21.4736 14.4234 21.4609C14.251 21.4307 14.0868 21.3646 13.9416 21.2667C13.7964 21.1689 13.6735 21.0416 13.5807 20.8931C13.488 20.7447 13.4275 20.5783 13.4033 20.4049C13.3791 20.2315 13.3916 20.055 13.4402 19.8868L14.3378 16.7748L13.3123 13.951C13.0119 13.1189 12.9906 12.2115 13.2517 11.3662L13.3823 10.9463C13.414 10.8442 13.485 10.7589 13.5797 10.7091C13.6743 10.6593 13.7849 10.6492 13.887 10.6809C13.9891 10.7127 14.0744 10.7837 14.1242 10.8783C14.1739 10.973 14.1841 11.0835 14.1523 11.1856L14.0217 11.6057C13.8126 12.2827 13.8297 13.0093 14.0703 13.6758L15.1406 16.6228C15.1697 16.703 15.1726 16.7903 15.149 16.8722L14.2149 20.1102C14.1836 20.2185 14.195 20.3346 14.2467 20.4347C14.2984 20.5349 14.3865 20.6114 14.4929 20.6486C14.5993 20.6858 14.7159 20.6808 14.8187 20.6347C14.9215 20.5886 15.0028 20.5049 15.0458 20.4007L16.465 16.967L15.729 14.4755C15.7055 14.3958 15.7071 14.3109 15.7336 14.2322C15.7602 14.1535 15.8104 14.085 15.8774 14.0359C15.9443 13.9868 16.0248 13.9596 16.1079 13.958C16.1909 13.9564 16.2724 13.9805 16.3412 14.0269L18.82 15.6994C18.8881 15.7454 18.9406 15.8111 18.9704 15.8877L20.2385 19.1556C20.2821 19.2679 20.3674 19.3591 20.4767 19.4099C20.586 19.4607 20.7107 19.4673 20.8247 19.4282C20.9387 19.3892 21.0331 19.3075 21.0883 19.2003C21.1434 19.0932 21.155 18.9689 21.1205 18.8534L19.8862 14.7159L17.7981 13.0324C17.7367 12.9829 17.6911 12.9164 17.6671 12.8411C17.6431 12.7659 17.6417 12.6853 17.6631 12.6093L18.7139 8.87616C18.7341 8.80442 18.7738 8.73968 18.8285 8.68914C18.8833 8.6386 18.951 8.60423 19.0241 8.58984C19.0973 8.57546 19.173 8.58163 19.2428 8.60767C19.3126 8.63371 19.3739 8.6786 19.4198 8.73735L20.6464 10.309C20.839 10.5559 21.0973 10.7434 21.3916 10.85L23.484 11.6086C23.5707 11.6399 23.666 11.6376 23.751 11.602C23.836 11.5665 23.9045 11.5003 23.943 11.4166C23.9816 11.3328 23.9873 11.2377 23.959 11.15C23.9307 11.0623 23.8705 10.9884 23.7903 10.943L21.5315 9.66478C21.4737 9.63205 21.4248 9.58553 21.3893 9.52937L20.3658 7.91098C19.958 7.26592 19.3291 6.79154 18.5968 6.57661L15.8279 5.76338C15.5007 5.66753 15.1939 5.51236 14.9228 5.30561L13.5219 4.239C13.454 4.18734 13.4043 4.11552 13.3798 4.03383L12.5288 1.19157C12.5117 1.13531 12.477 1.08601 12.4298 1.0509C12.3827 1.01578 12.3255 0.996691 12.2667 0.996429C12.2278 0.996427 12.1893 1.00472 12.1539 1.02077C12.1184 1.03681 12.0868 1.06023 12.0611 1.08946C12.0354 1.11869 12.0163 1.15306 12.0049 1.19028C11.9936 1.2275 11.9903 1.26671 11.9953 1.30529L12.3744 4.22258C12.4147 4.52851 12.5554 4.8124 12.7746 5.02965L14.8857 7.11591C14.9308 7.1605 14.9648 7.21512 14.9848 7.27532C15.0049 7.33552 15.0104 7.3996 15.001 7.46235L14.7599 9.06772C14.7526 9.12059 14.735 9.17149 14.7079 9.21747C14.6808 9.26345 14.6449 9.3036 14.6022 9.33559C14.5594 9.36758 14.5108 9.39077 14.4591 9.40382C14.4073 9.41687 14.3535 9.41952 14.3007 9.41162C14.248 9.40371 14.1973 9.3854 14.1516 9.35776C14.106 9.33012 14.0663 9.2937 14.0348 9.2506C14.0034 9.20749 13.9808 9.15858 13.9683 9.10668C13.9559 9.05478 13.9539 9.00093 13.9625 8.94826L14.1732 7.54549L12.208 5.60342C11.8613 5.25978 11.6386 4.81068 11.5749 4.32669L11.1955 1.40928C11.1606 1.14025 11.2283 0.867946 11.385 0.64651C11.5417 0.425075 11.776 0.270731 12.0413 0.214168C12.3067 0.157605 12.5835 0.202967 12.817 0.341234C13.0504 0.479501 13.2232 0.700544 13.301 0.960411L14.1144 3.677L15.411 4.66416C15.6039 4.81124 15.8221 4.92163 16.0549 4.98981L18.8238 5.80304C19.7443 6.07315 20.5348 6.66942 21.0473 7.48027L22.0167 9.01312L24.1875 10.2413C24.4436 10.3863 24.636 10.6223 24.7264 10.9024C24.8168 11.1825 24.7987 11.4864 24.6756 11.7538C24.5525 12.0212 24.3335 12.2326 24.0619 12.3461C23.7903 12.4597 23.486 12.467 23.2092 12.3667L21.1168 11.6082C20.6799 11.4499 20.2966 11.1716 20.0108 10.8053L19.2742 9.86153L18.5114 12.5718L20.4899 14.1666C20.5534 14.2178 20.5999 14.2871 20.6232 14.3653L21.893 18.6228C21.987 18.9379 21.9555 19.2771 21.805 19.5694C21.6545 19.8617 21.3967 20.0845 21.0857 20.191C20.7747 20.2975 20.4345 20.2796 20.1364 20.1409C19.8383 20.0023 19.6054 19.7536 19.4865 19.4471L18.264 16.297L16.8201 15.3228L17.2787 16.875C17.3047 16.9634 17.2998 17.058 17.2646 17.1432L15.791 20.7087C15.698 20.9369 15.5392 21.1321 15.3347 21.2695C15.1302 21.4069 14.8894 21.4802 14.6431 21.48Z" fill="#B1B1B3"/>
<path d="M14.6431 21.48C14.5694 21.48 14.496 21.4736 14.4234 21.4609C14.251 21.4307 14.0868 21.3646 13.9416 21.2667C13.7964 21.1689 13.6735 21.0416 13.5807 20.8931C13.488 20.7447 13.4275 20.5783 13.4033 20.4049C13.3791 20.2315 13.3916 20.055 13.4402 19.8868L14.3378 16.7748L13.3123 13.951C13.0119 13.1189 12.9906 12.2115 13.2517 11.3662L13.3823 10.9463C13.414 10.8442 13.485 10.7589 13.5797 10.7091C13.6743 10.6593 13.7849 10.6492 13.887 10.6809C13.9891 10.7127 14.0744 10.7837 14.1242 10.8783C14.1739 10.973 14.1841 11.0835 14.1523 11.1856L14.0217 11.6057C13.8126 12.2827 13.8297 13.0093 14.0703 13.6758L15.1406 16.6228C15.1697 16.703 15.1726 16.7903 15.149 16.8722L14.2149 20.1102C14.1836 20.2185 14.195 20.3346 14.2467 20.4347C14.2984 20.5349 14.3865 20.6114 14.4929 20.6486C14.5993 20.6858 14.7159 20.6808 14.8187 20.6347C14.9215 20.5886 15.0028 20.5049 15.0458 20.4007L16.465 16.967L15.729 14.4755C15.7055 14.3958 15.7071 14.3109 15.7336 14.2322C15.7602 14.1535 15.8104 14.085 15.8774 14.0359C15.9443 13.9868 16.0248 13.9596 16.1079 13.958C16.1909 13.9564 16.2724 13.9805 16.3412 14.0269L18.82 15.6994C18.8881 15.7454 18.9406 15.8111 18.9704 15.8877L20.2385 19.1556C20.2821 19.2679 20.3674 19.3591 20.4767 19.4099C20.586 19.4607 20.7107 19.4673 20.8247 19.4282C20.9387 19.3892 21.0331 19.3075 21.0883 19.2003C21.1434 19.0932 21.155 18.9689 21.1205 18.8534L19.8862 14.7159L17.7981 13.0324C17.7367 12.9829 17.6911 12.9164 17.6671 12.8411C17.6431 12.7659 17.6417 12.6853 17.6631 12.6093L18.7139 8.87616C18.7341 8.80442 18.7738 8.73968 18.8285 8.68914C18.8833 8.6386 18.951 8.60423 19.0241 8.58984C19.0973 8.57546 19.173 8.58163 19.2428 8.60767C19.3126 8.63371 19.3739 8.6786 19.4198 8.73735L20.6464 10.309C20.839 10.5559 21.0973 10.7434 21.3916 10.85L23.484 11.6086C23.5707 11.6399 23.666 11.6376 23.751 11.602C23.836 11.5665 23.9045 11.5003 23.943 11.4166C23.9816 11.3328 23.9873 11.2377 23.959 11.15C23.9307 11.0623 23.8705 10.9884 23.7903 10.943L21.5315 9.66478C21.4737 9.63205 21.4248 9.58553 21.3893 9.52937L20.3658 7.91098C19.958 7.26592 19.3291 6.79154 18.5968 6.57661L15.8279 5.76338C15.5007 5.66753 15.1939 5.51236 14.9228 5.30561L13.5219 4.239C13.454 4.18734 13.4043 4.11552 13.3798 4.03383L12.5288 1.19157C12.5117 1.13531 12.477 1.08601 12.4298 1.0509C12.3827 1.01578 12.3255 0.996691 12.2667 0.996429C12.2278 0.996427 12.1893 1.00472 12.1539 1.02077C12.1184 1.03681 12.0868 1.06023 12.0611 1.08946C12.0354 1.11869 12.0163 1.15306 12.0049 1.19028C11.9936 1.2275 11.9903 1.26671 11.9953 1.30529L12.3744 4.22258C12.4147 4.52851 12.5554 4.8124 12.7746 5.02965L14.8857 7.11591C14.9308 7.1605 14.9648 7.21512 14.9848 7.27532C15.0049 7.33552 15.0104 7.3996 15.001 7.46235L14.7599 9.06772C14.7526 9.12059 14.735 9.17149 14.7079 9.21747C14.6808 9.26345 14.6449 9.3036 14.6022 9.33559C14.5594 9.36758 14.5108 9.39077 14.4591 9.40382C14.4073 9.41687 14.3535 9.41952 14.3007 9.41162C14.248 9.40371 14.1973 9.3854 14.1516 9.35776C14.106 9.33012 14.0663 9.2937 14.0348 9.2506C14.0034 9.20749 13.9808 9.15858 13.9683 9.10668C13.9559 9.05478 13.9539 9.00093 13.9625 8.94826L14.1732 7.54549L12.208 5.60342C11.8613 5.25978 11.6386 4.81068 11.5749 4.32669L11.1955 1.40928C11.1606 1.14025 11.2283 0.867946 11.385 0.64651C11.5417 0.425075 11.776 0.270731 12.0413 0.214168C12.3067 0.157605 12.5835 0.202967 12.817 0.341234C13.0504 0.479501 13.2232 0.700544 13.301 0.960411L14.1144 3.677L15.411 4.66416C15.6039 4.81124 15.8221 4.92163 16.0549 4.98981L18.8238 5.80304C19.7443 6.07315 20.5348 6.66942 21.0473 7.48027L22.0167 9.01312L24.1875 10.2413C24.4436 10.3863 24.636 10.6223 24.7264 10.9024C24.8168 11.1825 24.7987 11.4864 24.6756 11.7538C24.5525 12.0212 24.3335 12.2326 24.0619 12.3461C23.7903 12.4597 23.486 12.467 23.2092 12.3667L21.1168 11.6082C20.6799 11.4499 20.2966 11.1716 20.0108 10.8053L19.2742 9.86153L18.5114 12.5718L20.4899 14.1666C20.5534 14.2178 20.5999 14.2871 20.6232 14.3653L21.893 18.6228C21.987 18.9379 21.9555 19.2771 21.805 19.5694C21.6545 19.8617 21.3967 20.0845 21.0857 20.191C20.7747 20.2975 20.4345 20.2796 20.1364 20.1409C19.8383 20.0023 19.6054 19.7536 19.4865 19.4471L18.264 16.297L16.8201 15.3228L17.2787 16.875C17.3047 16.9634 17.2998 17.058 17.2646 17.1432L15.791 20.7087C15.698 20.9369 15.5392 21.1321 15.3347 21.2695C15.1302 21.4069 14.8894 21.4802 14.6431 21.48Z" stroke="#B1B1B3" stroke-width="0.4" mask="url(#path-4-outside-2_7325_8117)"/>
</svg>
