<svg width="25" height="24" viewBox="0 0 25 24" fill="none" xmlns="http://www.w3.org/2000/svg">
<path d="M0.406947 14.02C0.34816 14.6854 0.66408 15.3255 1.25722 15.9097C1.85031 16.4938 2.72932 17.0316 3.82343 17.4979L3.86264 17.4059L3.82343 17.4979C5.84859 18.3611 8.67616 19.031 11.8269 19.3057C11.827 19.3057 11.8271 19.3057 11.8272 19.3057L11.8592 19.3086L11.8596 19.3087C15.0093 19.5804 17.9101 19.4078 20.0562 18.9068L20.0562 18.9068C21.2158 18.6357 22.1758 18.2574 22.8623 17.7842C23.5488 17.311 23.972 16.7351 24.0304 16.0694C24.1128 15.133 23.4758 14.2593 22.3617 13.5142C21.376 12.855 19.968 12.2585 18.2839 11.7846C18.1533 11.0663 18.0255 10.417 17.9007 9.83744L17.9007 9.83739C17.6223 8.54796 17.3536 7.59352 17.0944 6.98032C17.0587 6.88785 16.9989 6.80309 16.9172 6.73596C15.8042 5.82126 14.4636 5.29549 13.0884 5.17606L13.0884 5.17606C11.7144 5.05721 10.3027 5.3441 9.04639 6.05334L9.04631 6.05338C8.96579 6.09892 8.89463 6.16353 8.84055 6.24594L8.84047 6.24605C8.47425 6.80567 8.03872 7.7049 7.53492 8.93722C7.31102 9.48451 7.07163 10.1026 6.81623 10.7906C5.07391 10.9675 3.58283 11.312 2.49732 11.7912C1.26984 12.3331 0.489331 13.0836 0.406947 14.02ZM0.406947 14.02L0.506559 14.0288L0.406943 14.02C0.406944 14.02 0.406945 14.02 0.406947 14.02ZM8.64358 9.38393L8.64358 9.38392C8.98061 8.55962 9.27773 7.9051 9.53526 7.41999C10.5441 8.01124 11.6619 8.36059 12.8002 8.45915C13.9385 8.5577 15.0993 8.4063 16.196 7.9979C16.365 8.52046 16.5434 9.21611 16.731 10.0847C16.8944 10.8427 17.064 11.7306 17.2395 12.7483C15.6397 13.0245 14.0134 13.0915 12.4026 12.9517C10.7947 12.8121 9.20507 12.4664 7.67654 11.9179C8.02623 10.9506 8.34839 10.1057 8.64358 9.38393ZM12.2993 14.1366L12.3074 14.043L12.2993 14.1366C14.0027 14.2843 15.7292 14.2126 17.4345 13.9184L17.5089 14.3845C15.7769 14.8161 13.9954 14.9522 12.2397 14.8C10.4849 14.6479 8.75482 14.2067 7.12416 13.4833L7.27881 13.0378C8.90567 13.6208 10.5938 13.9886 12.2993 14.1366ZM18.5115 13.0914C19.8331 13.5012 20.9224 13.9839 21.6933 14.4996C22.0857 14.7621 22.3841 15.0228 22.5782 15.2733C22.7725 15.5242 22.8561 15.7565 22.8376 15.9666L22.8376 15.9666C22.8079 16.3043 22.53 16.64 21.9974 16.9519C21.4694 17.2611 20.7147 17.5323 19.7845 17.7497C17.758 18.2232 14.9846 18.3857 11.947 18.1223L11.9441 18.122L11.9437 18.122C8.9088 17.8585 6.20767 17.2202 4.29529 16.4054C3.41694 16.0311 2.72108 15.6339 2.25506 15.2383C1.78511 14.8393 1.57006 14.4607 1.5998 14.1229L1.59981 14.1229C1.61831 13.9124 1.74132 13.6979 1.97659 13.4842C2.2116 13.2707 2.551 13.0654 2.98331 12.8746L2.98332 12.8746C3.83333 12.4993 4.99168 12.2113 6.36508 12.0355C6.19233 12.5216 6.01356 13.0354 5.82856 13.5777C5.71408 13.8646 5.84027 14.1945 6.12328 14.3312C8.0244 15.2507 10.0644 15.8054 12.1364 15.985C14.2004 16.1639 16.2987 15.971 18.326 15.3975C18.6224 15.3252 18.8204 15.0385 18.7744 14.732L18.7743 14.7316C18.6854 14.1557 18.5982 13.6092 18.5115 13.0914ZM12.9035 7.27421C12.1146 7.20565 11.3381 6.99537 10.6145 6.64756C11.3828 6.38632 12.1912 6.29223 12.9852 6.36099C13.778 6.42975 14.557 6.66156 15.2678 7.05131C14.4941 7.26936 13.6928 7.34279 12.9035 7.27421Z" fill="#B1B1B3" stroke="#B1B1B3" stroke-width="0.2"/>
</svg>
