<svg width="25" height="26" viewBox="0 0 25 26" fill="none" xmlns="http://www.w3.org/2000/svg">
<path d="M12.6663 17.9674L12.6726 17.9595L12.6777 17.9508C12.7872 17.7685 12.7579 17.5235 12.5524 17.4002C12.3717 17.2918 12.1295 17.3196 12.0052 17.52C11.8742 17.7044 11.8156 17.8458 11.7863 17.992C11.7665 18.0914 11.7865 18.1952 11.8331 18.279C11.8798 18.3631 11.9618 18.4411 12.0764 18.464L12.091 18.4669H12.1058H12.106H12.1061H12.1063H12.1064H12.1065H12.1067H12.1068H12.107H12.1071H12.1073H12.1074H12.1076H12.1077H12.1078H12.108H12.1081H12.1083H12.1084H12.1086H12.1087H12.1089H12.109H12.1091H12.1093H12.1094H12.1096H12.1097H12.1099H12.11H12.1101H12.1103H12.1104H12.1106H12.1107H12.1109H12.111H12.1112H12.1113H12.1114H12.1116H12.1117H12.1119H12.112H12.1122H12.1123H12.1124H12.1126H12.1127H12.1129H12.113H12.1132H12.1133H12.1134H12.1136H12.1137H12.1139H12.114H12.1142H12.1143H12.1144H12.1146H12.1147H12.1149H12.115H12.1152H12.1153H12.1154H12.1156H12.1157H12.1159H12.116H12.1161H12.1163H12.1164H12.1166H12.1167H12.1169H12.117H12.1171H12.1173H12.1174H12.1176H12.1177H12.1178H12.118H12.1181H12.1183H12.1184H12.1185H12.1187H12.1188H12.119H12.1191H12.1192H12.1194H12.1195H12.1197H12.1198H12.1199H12.1201H12.1202H12.1203H12.1205H12.1206H12.1208H12.1209H12.121H12.1212H12.1213H12.1215H12.1216H12.1217H12.1219H12.122H12.1221H12.1223H12.1224H12.1225H12.1227H12.1228H12.123H12.1231H12.1232H12.1234H12.1235H12.1236H12.1238H12.1239H12.124H12.1242H12.1243H12.1244H12.1246H12.1247H12.1249H12.125H12.1251H12.1253H12.1254H12.1255H12.1257H12.1258H12.1259H12.1261H12.1262H12.1263H12.1265H12.1266H12.1267H12.1268H12.127H12.1271H12.1272H12.1274H12.1275H12.1276H12.1278H12.1279H12.128H12.1282H12.1283H12.1284H12.1286H12.1287H12.1288H12.1289H12.1291H12.1292H12.1293H12.1295H12.1296H12.1297H12.1298H12.13H12.1301H12.1302H12.1303H12.1305H12.1306H12.1307H12.1309H12.131H12.1311H12.1312H12.1314H12.1315H12.1316H12.1317H12.1319H12.132H12.1321H12.1322H12.1324H12.1325H12.1326H12.1327H12.1328H12.133H12.1331H12.1332H12.1333H12.1335H12.1336H12.1337H12.1338H12.1339H12.1341H12.1342H12.1343H12.1344H12.1345H12.1347H12.1348H12.1349H12.135H12.1351H12.1353H12.1354H12.1355H12.1356H12.1357H12.1359H12.136H12.1361H12.1362H12.1363H12.1364H12.1365H12.1367H12.1368H12.1369H12.137H12.1371H12.1372H12.1374H12.1375H12.1376H12.1377H12.1378H12.1379H12.138H12.1381H12.1383H12.1384H12.1385H12.1386H12.1387H12.1388H12.1389H12.139H12.1391H12.1393H12.1394H12.1395H12.1396H12.1396C12.3183 18.4988 12.5031 18.3715 12.5462 18.1843C12.5666 18.123 12.5861 18.0675 12.6663 17.9674Z" fill="#B1B1B3" stroke="#B1B1B3" stroke-width="0.3"/>
<path d="M15.1314 10.8739L15.1314 10.8738L15.1267 10.8769C14.9683 10.9801 14.8585 11.0969 14.7925 11.2265C14.7261 11.3568 14.7093 11.4898 14.7206 11.6162C14.7402 11.8348 14.8475 12.0466 14.9274 12.2044C14.9357 12.2207 14.9437 12.2365 14.9513 12.2517L14.9509 12.2519L14.9568 12.2618C15.1009 12.502 15.2282 12.7641 15.2067 13.0859L15.2067 13.0859L15.2065 13.0896C15.1957 13.3495 15.1052 13.5239 14.9895 13.6447C14.8713 13.768 14.7187 13.8435 14.5745 13.888C14.3088 13.9652 13.9915 13.9609 13.7044 13.892C13.4145 13.8224 13.1804 13.6934 13.0612 13.5454C12.9949 13.4586 12.8942 13.4132 12.8009 13.3999C12.7068 13.3864 12.5964 13.4022 12.5081 13.4684C12.4198 13.5346 12.3738 13.6362 12.3603 13.7303C12.3469 13.8245 12.3626 13.9349 12.4288 14.0232L12.4288 14.0232L12.4297 14.0243C12.7873 14.492 13.48 14.7481 14.1496 14.7481C14.3791 14.7481 14.6187 14.7231 14.8376 14.6419C15.1931 14.5357 15.484 14.3481 15.6896 14.0877C15.8961 13.8261 16.0099 13.4993 16.0234 13.1269C16.05 12.5899 15.834 12.1888 15.6599 11.8901C15.6056 11.7873 15.5686 11.7129 15.5449 11.6571C15.5276 11.6161 15.5203 11.5915 15.5173 11.5777C15.5184 11.5769 15.5195 11.576 15.5208 11.575C15.5305 11.5677 15.5427 11.5594 15.5601 11.5477C15.7624 11.4238 15.7908 11.1806 15.682 10.9992C15.5588 10.7938 15.3138 10.7645 15.1314 10.8739Z" fill="#B1B1B3" stroke="#B1B1B3" stroke-width="0.3"/>
<mask id="path-3-outside-1_7325_10875" maskUnits="userSpaceOnUse" x="5.02246" y="0.261719" width="15" height="26" fill="black">
<rect fill="white" x="5.02246" y="0.261719" width="15" height="26"/>
<path d="M18.9274 23.0945L17.1295 20.3854C17.0803 20.3116 17.0064 20.2623 16.9325 20.2623H12.5981V19.9175C12.9675 19.9421 13.3123 19.9421 13.657 19.9421C14.6914 19.9421 15.578 19.8436 16.0459 19.622C16.3661 19.4742 16.44 19.2526 16.4646 19.1048C16.4646 19.0802 16.4646 19.0309 16.4646 19.0063C16.4646 18.8339 16.4646 18.6369 16.4153 18.4399C16.3907 18.3167 16.3415 18.1936 16.3168 18.0704C16.1198 17.3316 15.9228 16.6913 16.5385 15.5584C16.834 14.9181 17.1788 14.1054 17.0064 13.1203C16.834 12.3814 16.7601 11.8396 16.9079 11.1254C17.3758 10.3866 17.8191 9.69703 17.7206 9.08134C17.7206 9.05671 17.696 9.00745 17.696 8.98283C17.1295 8.02235 15.8982 7.72681 14.0265 8.09623C13.2384 8.24399 12.7212 8.09623 12.4503 7.6283L12.0562 6.88947C12.204 6.54469 12.2779 6.12601 12.2533 5.73197C12.7951 5.43644 13.2137 4.94389 13.3123 4.40208C13.3861 4.03266 13.3369 3.49085 12.8197 2.89979C12.8197 2.35798 12.4503 1.8408 11.8592 1.54527C11.1943 1.17585 10.4801 1.17585 9.93826 1.49601C9.32257 1.22511 8.60837 1.29899 8.06656 1.71766C7.54938 2.1117 7.27847 2.70277 7.32773 3.29383C7.0322 3.4416 6.83517 3.68787 6.73666 4.03266C6.5889 4.50059 6.66278 5.09165 6.93368 5.46107C6.93368 5.46107 6.93368 5.46107 6.95831 5.46107C6.98294 5.87974 7.13071 6.22453 7.37698 6.44617C7.59863 6.6432 7.94342 6.76633 8.33746 6.76633C8.38672 6.76633 8.41135 6.76633 8.4606 6.76633C8.70688 7.20963 9.02704 7.55442 9.39645 7.77607C9.39645 7.8007 9.39645 7.82532 9.39645 7.84995L9.59347 8.81043L7.52475 10.0418C6.78592 10.4112 6.39188 11.0762 6.36725 11.9135C6.31799 12.7262 6.36725 13.7852 6.46576 14.9674C6.46576 15.2383 6.63815 15.4106 6.90906 15.4106C7.7464 15.4106 8.4606 15.189 9.07629 14.7457C9.27331 14.9427 9.51959 15.0905 9.81512 15.1397C9.86438 15.5092 9.76587 15.9278 9.56885 16.2726L8.63299 17.7749C8.50986 17.9966 8.48523 18.1689 8.48523 18.3167C8.48523 18.366 8.48523 18.4399 8.4606 18.5137C8.43597 18.5876 8.4606 18.6369 8.48523 18.7108C8.50986 18.8339 8.60837 18.9817 8.80539 19.1048C9.37182 19.4742 10.7263 19.7451 12.1301 19.8683V20.2377H7.99268C7.91879 20.2377 7.82028 20.2869 7.79565 20.3608L6.04709 23.0945V23.1191V23.1437C6.04709 23.1684 6.02246 23.193 6.02246 23.2176V25.0154C6.02246 25.1632 6.12097 25.2617 6.26874 25.2617H18.7303C18.8781 25.2617 18.9766 25.1632 18.9766 25.0154V23.3408C18.9766 23.2669 18.9766 23.1684 18.9274 23.0945ZM8.85464 6.49543C8.85464 6.4708 8.85464 6.4708 8.85464 6.44617C8.85464 6.37229 8.80539 6.29841 8.73151 6.27378C8.70688 6.24915 8.70688 6.1999 8.68225 6.17527C8.58374 4.64835 9.02704 4.45133 9.59347 4.18043C9.91363 4.03266 10.2584 3.86027 10.5293 3.46623C10.9726 3.90952 11.5144 4.20506 12.1794 4.30357C12.204 4.30357 12.204 4.30357 12.2286 4.30357C12.3518 4.30357 12.4503 4.20506 12.4749 4.10655C12.4995 3.98341 12.401 3.83564 12.2779 3.83564C11.4652 3.7125 10.8741 3.2692 10.4554 2.50575C10.3816 2.38261 10.2338 2.33335 10.1107 2.40724C9.98752 2.48112 9.93826 2.62888 10.0121 2.75202C10.086 2.87516 10.1353 2.97367 10.2092 3.07218C10.0121 3.4416 9.74124 3.58936 9.39645 3.73713C8.85464 3.98341 8.26358 4.27894 8.21432 5.60883C8.11581 5.65809 8.06656 5.78123 8.09119 5.87974C8.11581 6.00288 8.16507 6.12601 8.21432 6.24915C7.99267 6.22453 7.79565 6.17527 7.67251 6.07676C7.50012 5.92899 7.40161 5.65809 7.40161 5.28867C7.40161 5.19016 7.32773 5.09165 7.25384 5.06702C7.15533 4.84538 7.10608 4.50059 7.20459 4.18043C7.27847 3.93415 7.42624 3.76176 7.64789 3.68787C7.69714 3.66325 7.72177 3.63862 7.7464 3.61399C7.82028 3.56474 7.84491 3.46623 7.82028 3.39234C7.7464 2.89979 7.94342 2.40724 8.36209 2.1117C8.78076 1.79154 9.29794 1.74229 9.76587 1.96394C9.86438 2.06245 9.98752 2.06245 10.086 1.98857C10.554 1.61915 11.1943 1.74229 11.6129 1.96394C11.9824 2.16096 12.3518 2.50575 12.3025 2.94904V2.97367C12.3025 3.04756 12.3271 3.12144 12.3764 3.17069C12.7212 3.54011 12.869 3.93415 12.7951 4.32819C12.7212 4.64835 12.4995 4.96851 12.1794 5.21479C12.1548 5.09165 12.1301 4.99314 12.1055 4.87C12.0809 4.74686 11.9331 4.67298 11.81 4.69761C11.6868 4.72224 11.6129 4.87 11.6376 4.99314C11.8346 5.70734 11.7607 6.44617 11.4405 6.98798C11.2435 7.30814 10.9726 7.52979 10.6771 7.60368C10.0368 7.75144 9.29794 7.28352 8.85464 6.49543ZM6.66278 15.0166L6.88443 14.9427V14.9674L6.66278 15.0166ZM8.92853 18.6122C8.92853 18.5876 8.92853 18.563 8.92853 18.5384C8.92853 18.4891 8.92853 18.4399 8.95315 18.3906C8.95315 18.2675 8.97778 18.1689 9.05166 18.0458L9.98752 16.5435C10.2338 16.1249 10.3323 15.6323 10.283 15.189C11.0958 15.1151 11.9085 14.5487 12.0809 13.9084C12.1055 13.7852 12.0316 13.6375 11.9085 13.6128C11.7853 13.5882 11.6376 13.6621 11.6129 13.7852C11.4898 14.2285 10.8002 14.6718 10.1599 14.7211C9.83975 14.7457 9.39645 14.6472 9.19943 14.1054C9.07629 13.7852 9.12555 13.4897 9.1748 13.1942C9.22406 12.8001 9.32257 12.2829 8.68225 12.1105C8.55911 12.0859 8.41135 12.1598 8.38672 12.2829C8.36209 12.4061 8.43597 12.5538 8.55911 12.5785C8.73151 12.6277 8.78076 12.6523 8.70688 13.0956C8.65762 13.4158 8.58374 13.8345 8.75613 14.2778C8.75613 14.3024 8.78076 14.327 8.78076 14.3517C8.23895 14.7457 7.64789 14.9181 6.93368 14.9181C6.83517 13.7606 6.78592 12.7509 6.83517 11.9381C6.8598 11.2486 7.15533 10.7806 7.7464 10.4605L9.98752 9.13059C10.086 9.08134 10.1353 8.9582 10.1107 8.85969L9.91363 7.99772C10.086 8.04697 10.2584 8.0716 10.4308 8.0716C10.554 8.0716 10.7017 8.04697 10.8249 8.02235C11.1943 7.92383 11.5144 7.70219 11.7607 7.3574L12.0316 7.82532C12.3025 8.26862 12.869 8.76118 14.1496 8.53953C15.2578 8.31788 16.6862 8.24399 17.2527 9.13059C17.2773 9.57389 16.8586 10.2142 16.4646 10.8299C16.44 10.8545 16.44 10.8792 16.44 10.9284C16.2922 11.7411 16.3661 12.3814 16.5385 13.1695C16.7109 13.9822 16.3907 14.6964 16.1198 15.2875C15.4056 16.5681 15.6273 17.3809 15.8489 18.1443C15.8735 18.2675 15.9228 18.366 15.9474 18.4891C15.9474 18.4891 15.9474 18.4891 15.9474 18.5137C15.9474 18.5137 15.9474 18.5137 15.9474 18.5384C15.9967 18.6615 15.9967 18.8093 15.972 18.957C15.972 18.9817 15.972 19.0309 15.972 19.0555C15.9474 19.1294 15.4795 19.425 13.7063 19.425C13.6817 19.425 13.657 19.425 13.6324 19.425C13.2137 19.425 12.8197 19.4003 12.4257 19.3757C12.401 19.4003 12.3764 19.4003 12.3518 19.4003C12.3271 19.4003 12.3271 19.4003 12.3271 19.4003C10.4554 19.2772 9.02704 18.8832 8.92853 18.6122ZM8.11581 20.7549H12.1055V21.5676C12.1055 21.7153 12.204 21.8138 12.3518 21.8138C12.4995 21.8138 12.5981 21.7153 12.5981 21.5676V20.7549H16.8094L18.287 22.996H6.71204L8.11581 20.7549ZM18.4594 24.7938H6.49039V23.4885H18.4594V24.7938Z"/>
</mask>
<path d="M18.9274 23.0945L17.1295 20.3854C17.0803 20.3116 17.0064 20.2623 16.9325 20.2623H12.5981V19.9175C12.9675 19.9421 13.3123 19.9421 13.657 19.9421C14.6914 19.9421 15.578 19.8436 16.0459 19.622C16.3661 19.4742 16.44 19.2526 16.4646 19.1048C16.4646 19.0802 16.4646 19.0309 16.4646 19.0063C16.4646 18.8339 16.4646 18.6369 16.4153 18.4399C16.3907 18.3167 16.3415 18.1936 16.3168 18.0704C16.1198 17.3316 15.9228 16.6913 16.5385 15.5584C16.834 14.9181 17.1788 14.1054 17.0064 13.1203C16.834 12.3814 16.7601 11.8396 16.9079 11.1254C17.3758 10.3866 17.8191 9.69703 17.7206 9.08134C17.7206 9.05671 17.696 9.00745 17.696 8.98283C17.1295 8.02235 15.8982 7.72681 14.0265 8.09623C13.2384 8.24399 12.7212 8.09623 12.4503 7.6283L12.0562 6.88947C12.204 6.54469 12.2779 6.12601 12.2533 5.73197C12.7951 5.43644 13.2137 4.94389 13.3123 4.40208C13.3861 4.03266 13.3369 3.49085 12.8197 2.89979C12.8197 2.35798 12.4503 1.8408 11.8592 1.54527C11.1943 1.17585 10.4801 1.17585 9.93826 1.49601C9.32257 1.22511 8.60837 1.29899 8.06656 1.71766C7.54938 2.1117 7.27847 2.70277 7.32773 3.29383C7.0322 3.4416 6.83517 3.68787 6.73666 4.03266C6.5889 4.50059 6.66278 5.09165 6.93368 5.46107C6.93368 5.46107 6.93368 5.46107 6.95831 5.46107C6.98294 5.87974 7.13071 6.22453 7.37698 6.44617C7.59863 6.6432 7.94342 6.76633 8.33746 6.76633C8.38672 6.76633 8.41135 6.76633 8.4606 6.76633C8.70688 7.20963 9.02704 7.55442 9.39645 7.77607C9.39645 7.8007 9.39645 7.82532 9.39645 7.84995L9.59347 8.81043L7.52475 10.0418C6.78592 10.4112 6.39188 11.0762 6.36725 11.9135C6.31799 12.7262 6.36725 13.7852 6.46576 14.9674C6.46576 15.2383 6.63815 15.4106 6.90906 15.4106C7.7464 15.4106 8.4606 15.189 9.07629 14.7457C9.27331 14.9427 9.51959 15.0905 9.81512 15.1397C9.86438 15.5092 9.76587 15.9278 9.56885 16.2726L8.63299 17.7749C8.50986 17.9966 8.48523 18.1689 8.48523 18.3167C8.48523 18.366 8.48523 18.4399 8.4606 18.5137C8.43597 18.5876 8.4606 18.6369 8.48523 18.7108C8.50986 18.8339 8.60837 18.9817 8.80539 19.1048C9.37182 19.4742 10.7263 19.7451 12.1301 19.8683V20.2377H7.99268C7.91879 20.2377 7.82028 20.2869 7.79565 20.3608L6.04709 23.0945V23.1191V23.1437C6.04709 23.1684 6.02246 23.193 6.02246 23.2176V25.0154C6.02246 25.1632 6.12097 25.2617 6.26874 25.2617H18.7303C18.8781 25.2617 18.9766 25.1632 18.9766 25.0154V23.3408C18.9766 23.2669 18.9766 23.1684 18.9274 23.0945ZM8.85464 6.49543C8.85464 6.4708 8.85464 6.4708 8.85464 6.44617C8.85464 6.37229 8.80539 6.29841 8.73151 6.27378C8.70688 6.24915 8.70688 6.1999 8.68225 6.17527C8.58374 4.64835 9.02704 4.45133 9.59347 4.18043C9.91363 4.03266 10.2584 3.86027 10.5293 3.46623C10.9726 3.90952 11.5144 4.20506 12.1794 4.30357C12.204 4.30357 12.204 4.30357 12.2286 4.30357C12.3518 4.30357 12.4503 4.20506 12.4749 4.10655C12.4995 3.98341 12.401 3.83564 12.2779 3.83564C11.4652 3.7125 10.8741 3.2692 10.4554 2.50575C10.3816 2.38261 10.2338 2.33335 10.1107 2.40724C9.98752 2.48112 9.93826 2.62888 10.0121 2.75202C10.086 2.87516 10.1353 2.97367 10.2092 3.07218C10.0121 3.4416 9.74124 3.58936 9.39645 3.73713C8.85464 3.98341 8.26358 4.27894 8.21432 5.60883C8.11581 5.65809 8.06656 5.78123 8.09119 5.87974C8.11581 6.00288 8.16507 6.12601 8.21432 6.24915C7.99267 6.22453 7.79565 6.17527 7.67251 6.07676C7.50012 5.92899 7.40161 5.65809 7.40161 5.28867C7.40161 5.19016 7.32773 5.09165 7.25384 5.06702C7.15533 4.84538 7.10608 4.50059 7.20459 4.18043C7.27847 3.93415 7.42624 3.76176 7.64789 3.68787C7.69714 3.66325 7.72177 3.63862 7.7464 3.61399C7.82028 3.56474 7.84491 3.46623 7.82028 3.39234C7.7464 2.89979 7.94342 2.40724 8.36209 2.1117C8.78076 1.79154 9.29794 1.74229 9.76587 1.96394C9.86438 2.06245 9.98752 2.06245 10.086 1.98857C10.554 1.61915 11.1943 1.74229 11.6129 1.96394C11.9824 2.16096 12.3518 2.50575 12.3025 2.94904V2.97367C12.3025 3.04756 12.3271 3.12144 12.3764 3.17069C12.7212 3.54011 12.869 3.93415 12.7951 4.32819C12.7212 4.64835 12.4995 4.96851 12.1794 5.21479C12.1548 5.09165 12.1301 4.99314 12.1055 4.87C12.0809 4.74686 11.9331 4.67298 11.81 4.69761C11.6868 4.72224 11.6129 4.87 11.6376 4.99314C11.8346 5.70734 11.7607 6.44617 11.4405 6.98798C11.2435 7.30814 10.9726 7.52979 10.6771 7.60368C10.0368 7.75144 9.29794 7.28352 8.85464 6.49543ZM6.66278 15.0166L6.88443 14.9427V14.9674L6.66278 15.0166ZM8.92853 18.6122C8.92853 18.5876 8.92853 18.563 8.92853 18.5384C8.92853 18.4891 8.92853 18.4399 8.95315 18.3906C8.95315 18.2675 8.97778 18.1689 9.05166 18.0458L9.98752 16.5435C10.2338 16.1249 10.3323 15.6323 10.283 15.189C11.0958 15.1151 11.9085 14.5487 12.0809 13.9084C12.1055 13.7852 12.0316 13.6375 11.9085 13.6128C11.7853 13.5882 11.6376 13.6621 11.6129 13.7852C11.4898 14.2285 10.8002 14.6718 10.1599 14.7211C9.83975 14.7457 9.39645 14.6472 9.19943 14.1054C9.07629 13.7852 9.12555 13.4897 9.1748 13.1942C9.22406 12.8001 9.32257 12.2829 8.68225 12.1105C8.55911 12.0859 8.41135 12.1598 8.38672 12.2829C8.36209 12.4061 8.43597 12.5538 8.55911 12.5785C8.73151 12.6277 8.78076 12.6523 8.70688 13.0956C8.65762 13.4158 8.58374 13.8345 8.75613 14.2778C8.75613 14.3024 8.78076 14.327 8.78076 14.3517C8.23895 14.7457 7.64789 14.9181 6.93368 14.9181C6.83517 13.7606 6.78592 12.7509 6.83517 11.9381C6.8598 11.2486 7.15533 10.7806 7.7464 10.4605L9.98752 9.13059C10.086 9.08134 10.1353 8.9582 10.1107 8.85969L9.91363 7.99772C10.086 8.04697 10.2584 8.0716 10.4308 8.0716C10.554 8.0716 10.7017 8.04697 10.8249 8.02235C11.1943 7.92383 11.5144 7.70219 11.7607 7.3574L12.0316 7.82532C12.3025 8.26862 12.869 8.76118 14.1496 8.53953C15.2578 8.31788 16.6862 8.24399 17.2527 9.13059C17.2773 9.57389 16.8586 10.2142 16.4646 10.8299C16.44 10.8545 16.44 10.8792 16.44 10.9284C16.2922 11.7411 16.3661 12.3814 16.5385 13.1695C16.7109 13.9822 16.3907 14.6964 16.1198 15.2875C15.4056 16.5681 15.6273 17.3809 15.8489 18.1443C15.8735 18.2675 15.9228 18.366 15.9474 18.4891C15.9474 18.4891 15.9474 18.4891 15.9474 18.5137C15.9474 18.5137 15.9474 18.5137 15.9474 18.5384C15.9967 18.6615 15.9967 18.8093 15.972 18.957C15.972 18.9817 15.972 19.0309 15.972 19.0555C15.9474 19.1294 15.4795 19.425 13.7063 19.425C13.6817 19.425 13.657 19.425 13.6324 19.425C13.2137 19.425 12.8197 19.4003 12.4257 19.3757C12.401 19.4003 12.3764 19.4003 12.3518 19.4003C12.3271 19.4003 12.3271 19.4003 12.3271 19.4003C10.4554 19.2772 9.02704 18.8832 8.92853 18.6122ZM8.11581 20.7549H12.1055V21.5676C12.1055 21.7153 12.204 21.8138 12.3518 21.8138C12.4995 21.8138 12.5981 21.7153 12.5981 21.5676V20.7549H16.8094L18.287 22.996H6.71204L8.11581 20.7549ZM18.4594 24.7938H6.49039V23.4885H18.4594V24.7938Z" fill="#B1B1B3"/>
<path d="M18.9274 23.0945L17.1295 20.3854C17.0803 20.3116 17.0064 20.2623 16.9325 20.2623H12.5981V19.9175C12.9675 19.9421 13.3123 19.9421 13.657 19.9421C14.6914 19.9421 15.578 19.8436 16.0459 19.622C16.3661 19.4742 16.44 19.2526 16.4646 19.1048C16.4646 19.0802 16.4646 19.0309 16.4646 19.0063C16.4646 18.8339 16.4646 18.6369 16.4153 18.4399C16.3907 18.3167 16.3415 18.1936 16.3168 18.0704C16.1198 17.3316 15.9228 16.6913 16.5385 15.5584C16.834 14.9181 17.1788 14.1054 17.0064 13.1203C16.834 12.3814 16.7601 11.8396 16.9079 11.1254C17.3758 10.3866 17.8191 9.69703 17.7206 9.08134C17.7206 9.05671 17.696 9.00745 17.696 8.98283C17.1295 8.02235 15.8982 7.72681 14.0265 8.09623C13.2384 8.24399 12.7212 8.09623 12.4503 7.6283L12.0562 6.88947C12.204 6.54469 12.2779 6.12601 12.2533 5.73197C12.7951 5.43644 13.2137 4.94389 13.3123 4.40208C13.3861 4.03266 13.3369 3.49085 12.8197 2.89979C12.8197 2.35798 12.4503 1.8408 11.8592 1.54527C11.1943 1.17585 10.4801 1.17585 9.93826 1.49601C9.32257 1.22511 8.60837 1.29899 8.06656 1.71766C7.54938 2.1117 7.27847 2.70277 7.32773 3.29383C7.0322 3.4416 6.83517 3.68787 6.73666 4.03266C6.5889 4.50059 6.66278 5.09165 6.93368 5.46107C6.93368 5.46107 6.93368 5.46107 6.95831 5.46107C6.98294 5.87974 7.13071 6.22453 7.37698 6.44617C7.59863 6.6432 7.94342 6.76633 8.33746 6.76633C8.38672 6.76633 8.41135 6.76633 8.4606 6.76633C8.70688 7.20963 9.02704 7.55442 9.39645 7.77607C9.39645 7.8007 9.39645 7.82532 9.39645 7.84995L9.59347 8.81043L7.52475 10.0418C6.78592 10.4112 6.39188 11.0762 6.36725 11.9135C6.31799 12.7262 6.36725 13.7852 6.46576 14.9674C6.46576 15.2383 6.63815 15.4106 6.90906 15.4106C7.7464 15.4106 8.4606 15.189 9.07629 14.7457C9.27331 14.9427 9.51959 15.0905 9.81512 15.1397C9.86438 15.5092 9.76587 15.9278 9.56885 16.2726L8.63299 17.7749C8.50986 17.9966 8.48523 18.1689 8.48523 18.3167C8.48523 18.366 8.48523 18.4399 8.4606 18.5137C8.43597 18.5876 8.4606 18.6369 8.48523 18.7108C8.50986 18.8339 8.60837 18.9817 8.80539 19.1048C9.37182 19.4742 10.7263 19.7451 12.1301 19.8683V20.2377H7.99268C7.91879 20.2377 7.82028 20.2869 7.79565 20.3608L6.04709 23.0945V23.1191V23.1437C6.04709 23.1684 6.02246 23.193 6.02246 23.2176V25.0154C6.02246 25.1632 6.12097 25.2617 6.26874 25.2617H18.7303C18.8781 25.2617 18.9766 25.1632 18.9766 25.0154V23.3408C18.9766 23.2669 18.9766 23.1684 18.9274 23.0945ZM8.85464 6.49543C8.85464 6.4708 8.85464 6.4708 8.85464 6.44617C8.85464 6.37229 8.80539 6.29841 8.73151 6.27378C8.70688 6.24915 8.70688 6.1999 8.68225 6.17527C8.58374 4.64835 9.02704 4.45133 9.59347 4.18043C9.91363 4.03266 10.2584 3.86027 10.5293 3.46623C10.9726 3.90952 11.5144 4.20506 12.1794 4.30357C12.204 4.30357 12.204 4.30357 12.2286 4.30357C12.3518 4.30357 12.4503 4.20506 12.4749 4.10655C12.4995 3.98341 12.401 3.83564 12.2779 3.83564C11.4652 3.7125 10.8741 3.2692 10.4554 2.50575C10.3816 2.38261 10.2338 2.33335 10.1107 2.40724C9.98752 2.48112 9.93826 2.62888 10.0121 2.75202C10.086 2.87516 10.1353 2.97367 10.2092 3.07218C10.0121 3.4416 9.74124 3.58936 9.39645 3.73713C8.85464 3.98341 8.26358 4.27894 8.21432 5.60883C8.11581 5.65809 8.06656 5.78123 8.09119 5.87974C8.11581 6.00288 8.16507 6.12601 8.21432 6.24915C7.99267 6.22453 7.79565 6.17527 7.67251 6.07676C7.50012 5.92899 7.40161 5.65809 7.40161 5.28867C7.40161 5.19016 7.32773 5.09165 7.25384 5.06702C7.15533 4.84538 7.10608 4.50059 7.20459 4.18043C7.27847 3.93415 7.42624 3.76176 7.64789 3.68787C7.69714 3.66325 7.72177 3.63862 7.7464 3.61399C7.82028 3.56474 7.84491 3.46623 7.82028 3.39234C7.7464 2.89979 7.94342 2.40724 8.36209 2.1117C8.78076 1.79154 9.29794 1.74229 9.76587 1.96394C9.86438 2.06245 9.98752 2.06245 10.086 1.98857C10.554 1.61915 11.1943 1.74229 11.6129 1.96394C11.9824 2.16096 12.3518 2.50575 12.3025 2.94904V2.97367C12.3025 3.04756 12.3271 3.12144 12.3764 3.17069C12.7212 3.54011 12.869 3.93415 12.7951 4.32819C12.7212 4.64835 12.4995 4.96851 12.1794 5.21479C12.1548 5.09165 12.1301 4.99314 12.1055 4.87C12.0809 4.74686 11.9331 4.67298 11.81 4.69761C11.6868 4.72224 11.6129 4.87 11.6376 4.99314C11.8346 5.70734 11.7607 6.44617 11.4405 6.98798C11.2435 7.30814 10.9726 7.52979 10.6771 7.60368C10.0368 7.75144 9.29794 7.28352 8.85464 6.49543ZM6.66278 15.0166L6.88443 14.9427V14.9674L6.66278 15.0166ZM8.92853 18.6122C8.92853 18.5876 8.92853 18.563 8.92853 18.5384C8.92853 18.4891 8.92853 18.4399 8.95315 18.3906C8.95315 18.2675 8.97778 18.1689 9.05166 18.0458L9.98752 16.5435C10.2338 16.1249 10.3323 15.6323 10.283 15.189C11.0958 15.1151 11.9085 14.5487 12.0809 13.9084C12.1055 13.7852 12.0316 13.6375 11.9085 13.6128C11.7853 13.5882 11.6376 13.6621 11.6129 13.7852C11.4898 14.2285 10.8002 14.6718 10.1599 14.7211C9.83975 14.7457 9.39645 14.6472 9.19943 14.1054C9.07629 13.7852 9.12555 13.4897 9.1748 13.1942C9.22406 12.8001 9.32257 12.2829 8.68225 12.1105C8.55911 12.0859 8.41135 12.1598 8.38672 12.2829C8.36209 12.4061 8.43597 12.5538 8.55911 12.5785C8.73151 12.6277 8.78076 12.6523 8.70688 13.0956C8.65762 13.4158 8.58374 13.8345 8.75613 14.2778C8.75613 14.3024 8.78076 14.327 8.78076 14.3517C8.23895 14.7457 7.64789 14.9181 6.93368 14.9181C6.83517 13.7606 6.78592 12.7509 6.83517 11.9381C6.8598 11.2486 7.15533 10.7806 7.7464 10.4605L9.98752 9.13059C10.086 9.08134 10.1353 8.9582 10.1107 8.85969L9.91363 7.99772C10.086 8.04697 10.2584 8.0716 10.4308 8.0716C10.554 8.0716 10.7017 8.04697 10.8249 8.02235C11.1943 7.92383 11.5144 7.70219 11.7607 7.3574L12.0316 7.82532C12.3025 8.26862 12.869 8.76118 14.1496 8.53953C15.2578 8.31788 16.6862 8.24399 17.2527 9.13059C17.2773 9.57389 16.8586 10.2142 16.4646 10.8299C16.44 10.8545 16.44 10.8792 16.44 10.9284C16.2922 11.7411 16.3661 12.3814 16.5385 13.1695C16.7109 13.9822 16.3907 14.6964 16.1198 15.2875C15.4056 16.5681 15.6273 17.3809 15.8489 18.1443C15.8735 18.2675 15.9228 18.366 15.9474 18.4891C15.9474 18.4891 15.9474 18.4891 15.9474 18.5137C15.9474 18.5137 15.9474 18.5137 15.9474 18.5384C15.9967 18.6615 15.9967 18.8093 15.972 18.957C15.972 18.9817 15.972 19.0309 15.972 19.0555C15.9474 19.1294 15.4795 19.425 13.7063 19.425C13.6817 19.425 13.657 19.425 13.6324 19.425C13.2137 19.425 12.8197 19.4003 12.4257 19.3757C12.401 19.4003 12.3764 19.4003 12.3518 19.4003C12.3271 19.4003 12.3271 19.4003 12.3271 19.4003C10.4554 19.2772 9.02704 18.8832 8.92853 18.6122ZM8.11581 20.7549H12.1055V21.5676C12.1055 21.7153 12.204 21.8138 12.3518 21.8138C12.4995 21.8138 12.5981 21.7153 12.5981 21.5676V20.7549H16.8094L18.287 22.996H6.71204L8.11581 20.7549ZM18.4594 24.7938H6.49039V23.4885H18.4594V24.7938Z" stroke="#B1B1B3" stroke-width="0.6" mask="url(#path-3-outside-1_7325_10875)"/>
</svg>
