<svg width="25" height="24" viewBox="0 0 25 24" fill="none" xmlns="http://www.w3.org/2000/svg">
<path d="M20.9132 17.4335C21.4924 17.2665 22.0309 16.9816 22.4948 16.5966C22.9586 16.2115 23.3378 15.7347 23.6085 15.1961L24.432 13.5522C24.4602 13.4964 24.4748 13.4348 24.4748 13.3723C24.4748 13.3097 24.4602 13.2481 24.432 13.1923L23.6073 11.542C23.4934 11.3227 23.3619 11.113 23.2141 10.9149C23.2767 10.6741 23.3179 10.4282 23.3373 10.1802L23.4693 8.34836C23.4739 8.28623 23.4638 8.22389 23.44 8.16633C23.4162 8.10876 23.3792 8.05756 23.3321 8.01679L21.9415 6.81451C21.7528 6.65245 21.5497 6.50799 21.3347 6.38295C21.3022 6.13513 21.247 5.8908 21.1699 5.65303L20.586 3.9088C20.5663 3.84998 20.5331 3.79655 20.4892 3.75275C20.4452 3.70895 20.3917 3.67597 20.3328 3.65642L18.5894 3.07648C17.8678 2.83467 17.095 2.78816 16.3496 2.9417C15.941 2.04013 15.2338 1.3072 14.3474 0.866702L12.7032 0.0427843C12.6474 0.0146534 12.5857 0 12.5232 0C12.4607 0 12.3991 0.0146534 12.3432 0.0427843L10.6994 0.866702C9.68464 1.36742 8.91023 2.25058 8.5464 3.32206C7.83253 3.19554 7.09836 3.24943 6.41062 3.47884L4.66639 4.05878C4.60758 4.07839 4.55413 4.11139 4.51026 4.15519C4.4664 4.19899 4.43331 4.25238 4.41362 4.31116L3.82927 6.05619C3.75198 6.29335 3.69681 6.53717 3.66449 6.78451C3.4484 6.90921 3.24435 7.05368 3.05495 7.21607L1.66669 8.41915C1.61978 8.45995 1.58303 8.51113 1.55936 8.56862C1.53568 8.6261 1.52573 8.68832 1.5303 8.75032L1.66189 10.5809C1.68125 10.8294 1.7226 11.0757 1.78548 11.3169C1.63702 11.5156 1.50512 11.7261 1.39112 11.9464L0.567198 13.5942C0.539067 13.6501 0.524414 13.7117 0.524414 13.7742C0.524414 13.8367 0.539067 13.8984 0.567198 13.9542L1.39072 15.5976C1.80135 16.4236 2.46455 17.0972 3.28403 17.5206C4.10351 17.944 5.03661 18.0952 5.94786 17.9522L5.76788 18.7605C5.49614 19.9925 4.96312 21.1519 4.20484 22.1602C4.14119 22.245 4.11386 22.3517 4.12886 22.4567C4.14387 22.5617 4.19997 22.6565 4.28483 22.7201C4.36969 22.7838 4.47636 22.8111 4.58137 22.7961C4.68638 22.7811 4.78113 22.725 4.84477 22.6401C5.37527 21.9337 5.80595 21.1575 6.12465 20.3336V23.6C6.12465 23.7061 6.16678 23.8078 6.24179 23.8829C6.3168 23.9579 6.41853 24 6.52461 24C6.63068 24 6.73241 23.9579 6.80742 23.8829C6.88243 23.8078 6.92457 23.7061 6.92457 23.6V20.3384C7.24356 21.1607 7.67423 21.9352 8.20444 22.6401C8.23595 22.6822 8.27543 22.7176 8.32063 22.7443C8.36582 22.7711 8.41585 22.7887 8.46784 22.7961C8.51984 22.8035 8.57279 22.8006 8.62367 22.7876C8.67455 22.7746 8.72236 22.7516 8.76438 22.7201C8.8064 22.6886 8.8418 22.6491 8.86856 22.6039C8.89532 22.5587 8.91292 22.5087 8.92035 22.4567C8.92778 22.4047 8.92489 22.3518 8.91185 22.3009C8.89882 22.25 8.87589 22.2022 8.84437 22.1602C8.08609 21.1519 7.55307 19.9925 7.28133 18.7605L7.02336 17.6006H8.52441V18.4006C8.52441 18.5066 8.56654 18.6084 8.64155 18.6834C8.71656 18.7584 8.81829 18.8005 8.92437 18.8005C9.03044 18.8005 9.13217 18.7584 9.20718 18.6834C9.28219 18.6084 9.32433 18.5066 9.32433 18.4006V17.6006H10.9242V18.4006C10.9242 18.5066 10.9663 18.6084 11.0413 18.6834C11.1163 18.7584 11.2181 18.8005 11.3241 18.8005C11.4302 18.8005 11.5319 18.7584 11.6069 18.6834C11.6819 18.6084 11.7241 18.5066 11.7241 18.4006V17.6006H13.3239V18.4006C13.3239 18.5066 13.3661 18.6084 13.4411 18.6834C13.5161 18.7584 13.6178 18.8005 13.7239 18.8005C13.83 18.8005 13.9317 18.7584 14.0067 18.6834C14.0817 18.6084 14.1238 18.5066 14.1238 18.4006V17.6006H15.7237V18.4006C15.7237 18.5066 15.7658 18.6084 15.8408 18.6834C15.9158 18.7584 16.0176 18.8005 16.1237 18.8005C16.2297 18.8005 16.3315 18.7584 16.4065 18.6834C16.4815 18.6084 16.5236 18.5066 16.5236 18.4006V17.6006H18.0247L17.7667 18.7605C17.4949 19.9925 16.9619 21.1519 16.2036 22.1602C16.1721 22.2022 16.1492 22.25 16.1362 22.3009C16.1231 22.3518 16.1202 22.4047 16.1277 22.4567C16.1351 22.5087 16.1527 22.5587 16.1795 22.6039C16.2062 22.6491 16.2416 22.6886 16.2836 22.7201C16.3257 22.7516 16.3735 22.7746 16.4243 22.7876C16.4752 22.8006 16.5282 22.8035 16.5802 22.7961C16.6322 22.7887 16.6822 22.7711 16.7274 22.7443C16.7726 22.7176 16.8121 22.6822 16.8436 22.6401C17.3741 21.9337 17.8048 21.1575 18.1235 20.3336V23.6C18.1235 23.7061 18.1656 23.8078 18.2406 23.8829C18.3156 23.9579 18.4173 24 18.5234 24C18.6295 24 18.7312 23.9579 18.8062 23.8829C18.8812 23.8078 18.9234 23.7061 18.9234 23.6V20.3384C19.2424 21.1607 19.673 21.9352 20.2032 22.6401C20.2669 22.725 20.3616 22.7811 20.4666 22.7961C20.5717 22.8111 20.6783 22.7838 20.7632 22.7201C20.848 22.6565 20.9042 22.5617 20.9192 22.4567C20.9342 22.3517 20.9068 22.245 20.8432 22.1602C20.0849 21.1519 19.5519 19.9925 19.2801 18.7605L19.009 17.5402C19.6437 17.6491 20.2948 17.6124 20.9132 17.4327V17.4335ZM22.6578 8.49274L22.5378 10.1258C22.5202 10.3848 22.473 10.641 22.397 10.8893C22.1886 11.5858 21.7726 12.2021 21.2047 12.6559C20.6657 13.0838 20.0141 13.3459 19.3289 13.4107L18.8434 13.4554C18.7368 12.7234 18.5032 12.0157 18.153 11.3641L19.0726 10.8813C19.8164 10.4849 20.4309 9.88344 20.8432 9.14828C21.142 8.60399 21.3208 8.00201 21.3675 7.38285C21.3831 7.39605 21.4003 7.40685 21.4155 7.42005L22.6578 8.49274ZM9.12435 13.1659L9.5587 13.601L8.92437 14.2354L8.45641 13.7674C8.66277 13.5495 8.88612 13.3484 9.12435 13.1659ZM10.6786 12.3212L10.7586 12.4012L10.1242 13.0355L9.80428 12.7155C10.0839 12.5593 10.3764 12.4274 10.6786 12.3212ZM12.524 12.0012C12.6068 12.0012 12.6876 12.0088 12.7696 12.0124L13.1583 12.4012L12.524 13.0355L11.8897 12.4012L12.2784 12.0124C12.3604 12.0088 12.4412 12.0012 12.524 12.0012ZM15.2437 12.7163L14.9238 13.0363L14.2894 12.4012L14.3694 12.3212C14.6716 12.4276 14.9641 12.5598 15.2437 12.7163ZM16.5924 13.7674L16.1237 14.2354L15.4893 13.601L15.9237 13.1659C16.1619 13.3484 16.3852 13.5495 16.5916 13.7674H16.5924ZM17.5671 15.1921L17.3235 15.4353L16.6892 14.8009L17.0988 14.3914C17.2764 14.6449 17.4328 14.9127 17.5663 15.1921H17.5671ZM9.48991 14.8009L10.1242 14.1666L10.7586 14.8009L10.1242 15.4353L9.48991 14.8009ZM9.5587 16.0008L8.92437 16.6351L8.29003 16.0008L8.92437 15.3665L9.5587 16.0008ZM10.6898 13.601L11.3241 12.9667L11.9585 13.601L11.3241 14.2354L10.6898 13.601ZM11.3241 15.3665L11.9585 16.0008L11.3241 16.6351L10.6898 16.0008L11.3241 15.3665ZM11.8897 14.8009L12.524 14.1666L13.1583 14.8009L12.524 15.4353L11.8897 14.8009ZM13.0896 13.601L13.7239 12.9667L14.3582 13.601L13.7239 14.2354L13.0896 13.601ZM13.7239 15.3665L14.3582 16.0008L13.7239 16.6351L13.0896 16.0008L13.7239 15.3665ZM14.2894 14.8009L14.9238 14.1666L15.5581 14.8009L14.9238 15.4353L14.2894 14.8009ZM16.1237 15.3665L16.758 16.0008L16.1237 16.6351L15.4893 16.0008L16.1237 15.3665ZM7.94926 14.3914L8.35882 14.8009L7.72449 15.4353L7.48171 15.1925C7.61515 14.913 7.77154 14.645 7.94926 14.3914ZM7.72449 16.5663L7.95886 16.8007H7.49011L7.72449 16.5663ZM10.1242 16.5663L10.3586 16.8007H9.88987L10.1242 16.5663ZM12.524 16.5663L12.7584 16.8007H12.2896L12.524 16.5663ZM14.9238 16.5663L15.1581 16.8007H14.6894L14.9238 16.5663ZM17.3235 16.5663L17.5579 16.8007H17.0892L17.3235 16.5663ZM17.4939 13.5938C17.4762 13.5567 17.4529 13.5226 17.4247 13.4926C17.4171 13.4854 17.4067 13.4826 17.3987 13.4762C17.0423 13.0556 16.6333 12.6826 16.1816 12.3664C16.1776 12.362 16.1764 12.3564 16.1724 12.3524C16.1341 12.314 16.0882 12.284 16.0377 12.2644C15.5368 11.9322 14.9914 11.6724 14.4178 11.4928L14.407 11.4892C13.9397 11.3451 13.4571 11.2557 12.9692 11.2229C12.9536 11.2219 12.938 11.2219 12.9224 11.2229C12.79 11.2145 12.6584 11.2033 12.5224 11.2033C12.3864 11.2033 12.2564 11.2145 12.1224 11.2229C12.1069 11.2219 12.0912 11.2219 12.0757 11.2229C11.5877 11.2557 11.1052 11.3451 10.6378 11.4892L10.627 11.4928C10.0541 11.6723 9.50927 11.9316 9.00876 12.2632C8.95766 12.2832 8.91123 12.3136 8.87237 12.3524C8.86837 12.3564 8.86717 12.362 8.86317 12.366C8.06045 12.9308 7.39738 13.6716 6.92457 14.5317V14.401C6.92457 12.9159 7.51451 11.4917 8.5646 10.4416C9.6147 9.39145 11.0389 8.80151 12.524 8.80151C14.0091 8.80151 15.4333 9.39145 16.4834 10.4416C17.5335 11.4917 18.1235 12.9159 18.1235 14.401V14.5317C17.9417 14.2011 17.7311 13.8872 17.4939 13.5938ZM18.337 3.83761L19.8913 4.35435L20.4112 5.9086C20.4945 6.15772 20.5476 6.41594 20.5692 6.67772C20.5835 6.79584 20.5906 6.91471 20.5904 7.03369C20.5914 7.63807 20.4384 8.23274 20.1456 8.76152C20.0374 8.95662 19.91 9.14045 19.7653 9.31026C19.4728 9.66747 19.1105 9.96129 18.7006 10.1738L17.7235 10.6869C17.1867 9.93678 16.495 9.31072 15.6953 8.85111L16.5636 6.04179C16.6899 5.62697 16.7533 5.19554 16.7516 4.76191C16.75 4.4085 16.7046 4.05666 16.6164 3.71442C17.1913 3.61192 17.7826 3.65425 18.337 3.83761ZM9.91107 2.49094C10.2271 2.11258 10.6181 1.80374 11.0594 1.58383L12.524 0.849904L13.9899 1.58423C14.8107 1.993 15.4398 2.70565 15.7437 3.57083C15.7726 3.64083 15.7966 3.71272 15.8157 3.78601C15.9072 4.10319 15.953 4.4318 15.9517 4.76191C15.9523 5.1143 15.9003 5.46481 15.7973 5.80181L14.971 8.48794C14.1954 8.16555 13.3639 7.99959 12.524 7.99959C11.6841 7.99959 10.8526 8.16555 10.0771 8.48794L9.25073 5.80261C9.05733 5.17289 9.04431 4.50156 9.21314 3.8648C9.21823 3.83702 9.22477 3.80952 9.23274 3.78241C9.36807 3.31003 9.59895 2.87047 9.91107 2.49094ZM4.588 6.30896L5.10795 4.75431L6.66259 4.23757C7.20748 4.05759 7.78794 4.0127 8.35402 4.10678C8.25019 4.75258 8.29506 5.41355 8.48521 6.03939L9.35032 8.85111C8.43927 9.37547 7.67032 10.1148 7.11055 11.0045L6.29543 10.5713C5.88502 10.3565 5.52243 10.0607 5.22953 9.70182C5.08687 9.53368 4.96132 9.35173 4.85477 9.15868C4.56188 8.63093 4.40839 8.03722 4.40882 7.43365C4.4092 7.30987 4.41668 7.18621 4.43121 7.06329C4.45337 6.80652 4.50601 6.55329 4.588 6.30896ZM3.5801 7.81881C3.5961 7.80481 3.6145 7.79361 3.63089 7.77881C3.67689 8.39887 3.85572 9.00178 4.15524 9.54664C4.28609 9.7837 4.44017 10.0072 4.6152 10.2138C4.97431 10.6527 5.41834 11.0145 5.92067 11.2777L6.72739 11.7064C6.41061 12.3832 6.2159 13.1105 6.15224 13.855L5.66989 13.8098C4.98407 13.7453 4.33178 13.4828 3.79248 13.0543C3.40537 12.7497 3.08721 12.3665 2.85897 11.93C2.63328 11.4926 2.4973 11.0145 2.45901 10.5237L2.34142 8.8915L3.5801 7.81881ZM4.30643 17.0643C3.83221 16.9288 3.39142 16.696 3.01216 16.3808C2.63356 16.0673 2.32494 15.6779 2.10625 15.2377L1.37232 13.773L2.10545 12.3064C2.11344 12.2908 2.12344 12.2768 2.13144 12.2612C2.13824 12.2748 2.14384 12.2896 2.15064 12.3032C2.43092 12.8383 2.82147 13.3079 3.29653 13.681C3.95668 14.206 4.75536 14.5274 5.5951 14.6061L6.12465 14.6569V17.0899C5.52687 17.2415 4.89969 17.2326 4.30643 17.0643ZM18.9234 16.7003V14.401C18.9234 14.351 18.917 14.3022 18.9158 14.2522L19.4049 14.2074C20.2443 14.1287 21.0427 13.8076 21.7027 13.2831C22.1766 12.909 22.5659 12.4389 22.845 11.9036C22.853 11.8884 22.8586 11.8728 22.8666 11.8576C22.8746 11.8732 22.8854 11.8884 22.8934 11.904L23.6277 13.3731L22.8934 14.8381C22.6721 15.2775 22.3625 15.6665 21.984 15.9807C21.6055 16.2949 21.1662 16.5277 20.6936 16.6643C20.1162 16.8269 19.5069 16.8393 18.9234 16.7003Z" fill="#B1B1B3"/>
<path d="M10.499 4.56453L10.9338 4.70611C10.9318 4.73851 10.9242 4.76931 10.9242 4.8021C10.9259 5.17214 11.0569 5.52993 11.2945 5.8136L11.025 6.18517C10.9934 6.22764 10.9706 6.27596 10.9578 6.32732C10.945 6.37868 10.9426 6.43206 10.9506 6.48437C10.9586 6.53668 10.9769 6.58689 11.0045 6.63207C11.0321 6.67725 11.0683 6.71651 11.1112 6.74758C11.154 6.77864 11.2026 6.8009 11.2541 6.81305C11.3056 6.82521 11.359 6.82702 11.4112 6.81838C11.4634 6.80975 11.5134 6.79083 11.5583 6.76274C11.6031 6.73465 11.642 6.69793 11.6725 6.65472L11.9393 6.28756C12.3142 6.44007 12.7339 6.44007 13.1088 6.28756L13.3755 6.65472C13.4383 6.73919 13.5319 6.7955 13.6359 6.81145C13.74 6.82739 13.8461 6.80168 13.9313 6.73989C14.0165 6.6781 14.0739 6.58522 14.0911 6.48138C14.1083 6.37753 14.0839 6.2711 14.0231 6.18517L13.7535 5.8136C13.9911 5.52993 14.1221 5.17214 14.1239 4.8021C14.1239 4.76931 14.1163 4.73851 14.1143 4.70611L14.549 4.56453C14.6013 4.55031 14.6501 4.52563 14.6925 4.49198C14.7349 4.45833 14.7701 4.41642 14.7958 4.36879C14.8216 4.32115 14.8374 4.26879 14.8423 4.21486C14.8472 4.16094 14.8411 4.10658 14.8244 4.05507C14.8077 4.00357 14.7807 3.95601 14.745 3.91525C14.7094 3.8745 14.6658 3.84141 14.617 3.81799C14.5682 3.79457 14.5151 3.78131 14.461 3.77901C14.4069 3.77671 14.3529 3.78541 14.3022 3.8046L13.8699 3.94499C13.6523 3.60527 13.3145 3.36027 12.924 3.25906V2.8023C12.924 2.69623 12.8818 2.5945 12.8068 2.51949C12.7318 2.44448 12.6301 2.40234 12.524 2.40234C12.4179 2.40234 12.3162 2.44448 12.2412 2.51949C12.1662 2.5945 12.1241 2.69623 12.1241 2.8023V3.25906C11.7337 3.36007 11.3959 3.60477 11.1782 3.94419L10.7458 3.8022C10.6952 3.78301 10.6412 3.77431 10.5871 3.77661C10.533 3.77891 10.4799 3.79217 10.4311 3.81559C10.3823 3.83901 10.3387 3.8721 10.303 3.91285C10.2674 3.95361 10.2404 4.00117 10.2237 4.05268C10.2069 4.10418 10.2008 4.15854 10.2057 4.21246C10.2107 4.26639 10.2265 4.31875 10.2522 4.36639C10.278 4.41402 10.3131 4.45594 10.3555 4.48958C10.398 4.52323 10.4468 4.54791 10.499 4.56213V4.56453ZM12.524 4.00218C12.6822 4.00218 12.8369 4.0491 12.9684 4.137C13.1 4.22489 13.2025 4.34982 13.2631 4.49599C13.3236 4.64216 13.3394 4.80299 13.3086 4.95816C13.2777 5.11333 13.2015 5.25586 13.0897 5.36773C12.9778 5.4796 12.8353 5.55579 12.6801 5.58666C12.5249 5.61752 12.3641 5.60168 12.2179 5.54114C12.0717 5.48059 11.9468 5.37806 11.8589 5.24652C11.771 5.11497 11.7241 4.96031 11.7241 4.8021C11.7241 4.58995 11.8084 4.38649 11.9584 4.23648C12.1084 4.08646 12.3119 4.00218 12.524 4.00218Z" fill="#B1B1B3"/>
<path d="M9.07636 18.8324C9.05239 18.8202 9.02658 18.8121 8.99997 18.8084C8.9357 18.7973 8.86975 18.8013 8.80729 18.82C8.74482 18.8388 8.68756 18.8717 8.64 18.9164C8.56696 18.993 8.52566 19.0945 8.52441 19.2003C8.52529 19.2271 8.52796 19.2539 8.53241 19.2803C8.53677 19.3054 8.54486 19.3296 8.55641 19.3523C8.56515 19.3778 8.57726 19.402 8.59241 19.4243C8.60717 19.4453 8.6232 19.4653 8.6404 19.4843C8.67797 19.5213 8.72295 19.5499 8.77239 19.5683C8.81985 19.5907 8.87191 19.6017 8.92437 19.6003C8.94974 19.5996 8.97502 19.5969 8.99997 19.5923C9.02658 19.5886 9.05239 19.5804 9.07636 19.5683C9.10182 19.5595 9.12602 19.5474 9.14835 19.5323C9.16923 19.5174 9.18926 19.5014 9.20835 19.4843C9.22555 19.4653 9.24158 19.4453 9.25634 19.4243C9.27132 19.4019 9.28342 19.3777 9.29234 19.3523C9.30397 19.3297 9.31193 19.3054 9.31594 19.2803C9.3207 19.2539 9.32351 19.2272 9.32434 19.2003C9.32278 19.0944 9.28136 18.993 9.20835 18.9164C9.18926 18.8992 9.16923 18.8832 9.14835 18.8684C9.12602 18.8533 9.10182 18.8412 9.07636 18.8324Z" fill="#B1B1B3"/>
<path d="M11.0398 18.9167C10.9842 18.9727 10.9464 19.044 10.9313 19.1215C10.9161 19.199 10.9242 19.2792 10.9546 19.3521C10.985 19.425 11.0362 19.4873 11.1019 19.5311C11.1676 19.5749 11.2448 19.5983 11.3238 19.5983C11.4028 19.5983 11.48 19.5749 11.5457 19.5311C11.6114 19.4873 11.6626 19.425 11.693 19.3521C11.7234 19.2792 11.7315 19.199 11.7163 19.1215C11.7011 19.044 11.6634 18.9727 11.6078 18.9167C11.5304 18.8453 11.429 18.8057 11.3238 18.8057C11.2185 18.8057 11.1172 18.8453 11.0398 18.9167Z" fill="#B1B1B3"/>
<path d="M13.4402 18.9167C13.3659 18.9925 13.3242 19.0944 13.3242 19.2006C13.3242 19.3068 13.3659 19.4088 13.4402 19.4846C13.5164 19.5584 13.6181 19.6 13.7242 19.6006C13.7765 19.6 13.8281 19.5891 13.8762 19.5686C13.9246 19.5482 13.9692 19.5198 14.0082 19.4846C14.0818 19.4083 14.1234 19.3067 14.1242 19.2006C14.1246 19.1212 14.1014 19.0434 14.0575 18.9772C14.0136 18.911 13.9509 18.8594 13.8776 18.8289C13.8042 18.7985 13.7234 18.7905 13.6455 18.8062C13.5676 18.8218 13.4962 18.8602 13.4402 18.9167Z" fill="#B1B1B3"/>
<path d="M16.5236 19.2005C16.522 19.0946 16.4806 18.9932 16.4076 18.9165C16.3508 18.862 16.2794 18.825 16.202 18.8101C16.1247 18.7952 16.0447 18.803 15.9716 18.8325C15.9232 18.8528 15.8785 18.8812 15.8396 18.9165C15.7653 18.9923 15.7236 19.0943 15.7236 19.2005C15.7236 19.3067 15.7653 19.4087 15.8396 19.4845C15.8785 19.5198 15.9232 19.5482 15.9716 19.5685C16.0197 19.589 16.0713 19.5998 16.1236 19.6005C16.1763 19.601 16.2285 19.591 16.2773 19.5711C16.3261 19.5512 16.3704 19.5218 16.4076 19.4845C16.4449 19.4473 16.4743 19.403 16.4942 19.3542C16.5141 19.3054 16.5241 19.2532 16.5236 19.2005Z" fill="#B1B1B3"/>
</svg>
