<svg width="25" height="24" viewBox="0 0 25 24" fill="none" xmlns="http://www.w3.org/2000/svg">
<path d="M8.49966 2C7.49966 2 7.68466 4.417 6.29966 5.462C5.26766 6.239 3.39267 5.414 2.62767 6.721C2.39467 7.119 2.50967 7.645 2.73967 8.696L4.72966 17.785C5.11966 19.567 5.35766 21.743 7.49966 22H17.4997C19.6407 21.743 19.8797 19.567 20.2697 17.785L22.2597 8.696C22.4897 7.645 22.6047 7.119 22.3717 6.721C21.6067 5.414 19.7317 6.239 18.7007 5.461C17.3147 4.418 17.4997 2 16.4997 2M12.5087 11H12.4997M12.5087 14.5H12.4997M12.5087 18H12.4997" stroke="#B1B1B3" stroke-width="1.5" stroke-linecap="round" stroke-linejoin="round"/>
<path d="M8.2235 2.11903C9.1555 1.59503 10.4405 2.94103 11.1035 3.44403C12.0105 4.13103 12.4635 4.47403 12.4965 4.92803C12.5 4.97597 12.5 5.02409 12.4965 5.07203C12.4635 5.52503 12.0105 5.86903 11.1045 6.55603C10.4405 7.05903 9.1545 8.40503 8.2245 7.88103C7.2585 7.33903 7.2575 2.66103 8.2235 2.11903Z" stroke="#B1B1B3" stroke-width="1.5" stroke-linecap="round" stroke-linejoin="round"/>
<path d="M16.7756 2.11903C15.8436 1.59503 14.5586 2.94103 13.8956 3.44403C12.9886 4.13103 12.5356 4.47403 12.5026 4.92803C12.4991 4.97597 12.4991 5.02409 12.5026 5.07203C12.5356 5.52503 12.9886 5.86903 13.8946 6.55603C14.5586 7.05903 15.8446 8.40503 16.7746 7.88103C17.7406 7.33903 17.7416 2.66103 16.7756 2.11903Z" stroke="#B1B1B3" stroke-width="1.5" stroke-linecap="round" stroke-linejoin="round"/>
</svg>
