<svg width="51" height="51" viewBox="0 0 51 51" fill="none" xmlns="http://www.w3.org/2000/svg">
<path d="M36.2738 24.2938C37.8457 24.2991 39.3898 24.7089 40.7575 25.4838C38.8319 20.4996 35.6382 16.1047 31.4925 12.7338C31.2553 12.5385 31.0589 12.2983 30.9145 12.0271C30.7701 11.7558 30.6806 11.4588 30.651 11.153C30.6214 10.8471 30.6523 10.5384 30.742 10.2445C30.8317 9.95061 30.9784 9.67726 31.1737 9.44006C31.3691 9.20286 31.6092 9.00646 31.8805 8.86207C32.1517 8.71768 32.4488 8.62813 32.7546 8.59853C33.0605 8.56893 33.3692 8.59986 33.663 8.68956C33.9569 8.77926 34.2303 8.92597 34.4675 9.12131C42.9675 16.0276 46.75 25.5901 46.75 31.5188C46.7354 33.6151 46.1107 35.6618 44.9522 37.4089C43.7937 39.1561 42.1515 40.5282 40.2262 41.3576C38.9802 41.9612 37.6157 42.2805 36.2312 42.2926C35.0126 42.3518 33.7947 42.1629 32.6513 41.7374C31.5079 41.3119 30.4628 40.6585 29.5794 39.817C28.696 38.9755 27.9927 37.9634 27.5121 36.842C27.0316 35.7206 26.7838 34.5132 26.7838 33.2932C26.7838 32.0731 27.0316 30.8658 27.5121 29.7444C27.9927 28.623 28.696 27.6108 29.5794 26.7693C30.4628 25.9278 31.5079 25.2745 32.6513 24.849C33.7947 24.4235 35.0126 24.2346 36.2312 24.2938H36.2738Z" fill="#53818C"/>
<path d="M12.6019 24.2937C14.1741 24.2971 15.7187 24.7071 17.0856 25.4837C15.1608 20.5048 11.9755 16.1113 7.84188 12.7337C7.58315 12.5472 7.36532 12.3098 7.2018 12.0359C7.03828 11.7621 6.93253 11.4577 6.89105 11.1415C6.84957 10.8253 6.87325 10.5039 6.96062 10.1971C7.04799 9.89041 7.19722 9.60479 7.3991 9.35789C7.60098 9.11098 7.85126 8.90799 8.13453 8.76143C8.4178 8.61487 8.72806 8.52782 9.04623 8.50565C9.36439 8.48349 9.68373 8.52666 9.98459 8.63253C10.2854 8.73839 10.5614 8.9047 10.7956 9.12123C19.2956 16.0275 23.0781 25.59 23.0781 31.5187C23.0681 33.5913 22.4616 35.6171 21.3311 37.3543C20.2007 39.0914 18.594 40.4664 16.7031 41.315C15.4256 41.9362 14.0225 42.2561 12.6019 42.25C11.3833 42.3092 10.1653 42.1203 9.0219 41.6948C7.87848 41.2693 6.83338 40.616 5.94999 39.7745C5.0666 38.933 4.3633 37.9208 3.88276 36.7994C3.40222 35.678 3.15444 34.4706 3.15444 33.2506C3.15444 32.0306 3.40222 30.8232 3.88276 29.7018C4.3633 28.5804 5.0666 27.5682 5.94999 26.7267C6.83338 25.8853 7.87848 25.2319 9.0219 24.8064C10.1653 24.3809 11.3833 24.192 12.6019 24.2512V24.2937Z" fill="#53818C"/>
</svg>
